G04 EasyPC Gerber Version 20.0.2 Build 4112 *
G04 #@! TF.Part,Single*
G04 #@! TF.FileFunction,Legend,Top *
%FSLAX35Y35*%
%MOIN*%
%ADD12C,0.00500*%
%ADD11C,0.00787*%
%ADD15C,0.01000*%
%ADD16C,0.01600*%
X0Y0D02*
D02*
D11*
X38722Y64357D02*
Y68787D01*
X41306*
X42044Y68417*
X42413Y67679*
X42044Y66941*
X41306Y66572*
X38722*
X41306D02*
X42413Y64357D01*
X44628D02*
Y68787D01*
X48319*
X47581Y66572D02*
X44628D01*
Y64357D02*
X48319D01*
X50533Y65465D02*
X50903Y64726D01*
X51641Y64357*
X53117*
X53856Y64726*
X54224Y65465*
X53856Y66203*
X53117Y66572*
X51641*
X50903Y66941*
X50533Y67679*
X50903Y68417*
X51641Y68787*
X53117*
X53856Y68417*
X54224Y67679*
X56439Y64357D02*
Y68787D01*
X60130*
X59392Y66572D02*
X56439D01*
Y64357D02*
X60130D01*
X64190D02*
Y68787D01*
X62344D02*
X66035D01*
X104514Y50006D02*
X109967D01*
Y46096*
X79222Y64357D02*
X82175Y68787D01*
X79222*
X85128Y65834D02*
X88081D01*
X91772Y64357D02*
X93248D01*
X92510D02*
Y68787D01*
X91772Y68048*
X97308Y64726D02*
X98046Y64357D01*
X98785*
X99523Y64726*
X99892Y65465*
Y67679*
X99523Y68417*
X98785Y68787*
X98046*
X97308Y68417*
X96939Y67679*
Y65465*
X97308Y64726*
X99523Y68417*
X102844Y68787D02*
X104690Y64357D01*
X106535Y68787*
X109967Y24246D02*
Y7250D01*
X74533*
Y50006*
X79919*
X152600Y526357D02*
Y530787D01*
X156291*
X155553Y528572D02*
X152600D01*
Y526357D02*
X156291D01*
X158506D02*
X162197Y530787D01*
X158506D02*
X162197Y526357D01*
X164411D02*
Y530787D01*
X166995*
X167733Y530417*
X168102Y529679*
X167733Y528941*
X166995Y528572*
X164411*
X170317Y526357D02*
X172163Y530787D01*
X174008Y526357*
X171055Y528203D02*
X173270D01*
X176222Y526357D02*
Y530787D01*
X179913Y526357*
Y530787*
X182128Y527465D02*
X182497Y526726D01*
X183235Y526357*
X184712*
X185450Y526726*
X185819Y527465*
X185450Y528203*
X184712Y528572*
X183235*
X182497Y528941*
X182128Y529679*
X182497Y530417*
X183235Y530787*
X184712*
X185450Y530417*
X185819Y529679*
X189141Y526357D02*
X190617D01*
X189879D02*
Y530787D01*
X189141D02*
X190617D01*
X193939Y527834D02*
Y529310D01*
X194308Y530048*
X194677Y530417*
X195415Y530787*
X196154*
X196892Y530417*
X197261Y530048*
X197630Y529310*
Y527834*
X197261Y527096*
X196892Y526726*
X196154Y526357*
X195415*
X194677Y526726*
X194308Y527096*
X193939Y527834*
X199844Y526357D02*
Y530787D01*
X203535Y526357*
Y530787*
D02*
D12*
X12250Y250D02*
X350750D01*
Y542750*
X12250*
Y250*
X37750Y129250D02*
X42750D01*
X37750Y242250D02*
X42750D01*
Y90750D02*
X37750D01*
X42750Y110250D02*
X37750D01*
X42750Y124250D02*
Y134250D01*
X62750*
Y124250*
X42750*
Y149250D02*
Y214250D01*
X45250*
X47750Y211750*
X50250Y214250*
X52750*
Y149250*
X42750*
Y237250D02*
Y247250D01*
X52750*
Y237250*
X42750*
Y250250D02*
Y445250D01*
X57750*
X62750Y440250*
X67750Y445250*
X82750*
Y250250*
X42750*
Y452750D02*
X37750D01*
X44234Y48852D02*
Y38026D01*
G75*
G03X47187Y35073I2953*
G01*
X57030*
G75*
G03X59982Y38026J2953*
G01*
Y48852*
G75*
G03X57030Y51805I-2953*
G01*
X47187*
G75*
G03X44234Y48852J-2953*
G01*
X47375Y459313D02*
X47063Y459000D01*
X46437Y458687*
X45500*
X44875Y459000*
X44563Y459313*
X44250Y459937*
Y461187*
X44563Y461813*
X44875Y462125*
X45500Y462437*
X46437*
X47063Y462125*
X47375Y461813*
X50187Y458687D02*
X50813Y459000D01*
X51437Y459625*
X51750Y460563*
Y461500*
X51437Y462125*
X50813Y462437*
X50187*
X49563Y462125*
X49250Y461500*
X49563Y460875*
X50187Y460563*
X50813*
X51437Y460875*
X51750Y461500*
X47875Y233313D02*
X47563Y233000D01*
X46937Y232687*
X46000*
X45375Y233000*
X45063Y233313*
X44750Y233937*
Y235187*
X45063Y235813*
X45375Y236125*
X46000Y236437*
X46937*
X47563Y236125*
X47875Y235813*
X50375Y232687D02*
X51625D01*
X51000D02*
Y236437D01*
X50375Y235813*
X49750Y116187D02*
Y119937D01*
X51937*
X52563Y119625*
X52875Y119000*
X52563Y118375*
X51937Y118063*
X49750*
X51937D02*
X52875Y116187D01*
X54750Y117125D02*
X55063Y117750D01*
X55687Y118063*
X56313*
X56937Y117750*
X57250Y117125*
X56937Y116500*
X56313Y116187*
X55687*
X55063Y116500*
X54750Y117125*
Y118063*
X55063Y119000*
X55687Y119625*
X56313Y119937*
X49750Y135187D02*
Y138937D01*
X51937*
X52563Y138625*
X52875Y138000*
X52563Y137375*
X51937Y137063*
X49750*
X51937D02*
X52875Y135187D01*
X56313D02*
Y138937D01*
X54750Y136437*
X57250*
X50250Y96687D02*
Y100437D01*
X52437*
X53063Y100125*
X53375Y99500*
X53063Y98875*
X52437Y98563*
X50250*
X52437D02*
X53375Y96687D01*
X55250D02*
X57750Y100437D01*
X55250*
X49313Y168250D02*
X45563Y170750D01*
Y168250*
X49313Y174813D02*
X45563D01*
X48063Y173250*
Y175750*
X49313Y178250D02*
X45563D01*
X47437D02*
Y181375D01*
X49313D02*
X45563D01*
X48687Y186375D02*
X49000Y186063D01*
X49313Y185437*
Y184500*
X49000Y183875*
X48687Y183563*
X48063Y183250*
X46813*
X46187Y183563*
X45875Y183875*
X45563Y184500*
Y185437*
X45875Y186063*
X46187Y186375*
X49313Y188875D02*
Y190125D01*
Y189500D02*
X45563D01*
X46187Y188875*
X49313Y194813D02*
X45563D01*
X48063Y193250*
Y195750*
X52750Y242250D02*
X57750D01*
X52750Y457750D02*
Y447750D01*
X42750*
Y457750*
X52750*
X57750Y452750D02*
X52750D01*
X57994Y43439D02*
G75*
G03X46183I-5906D01*
G01*
G75*
G03X57994I5906*
G01*
X62750Y95750D02*
Y85750D01*
X42750*
Y95750*
X62750*
Y115250D02*
Y105250D01*
X42750*
Y115250*
X62750*
Y129250D02*
X67750D01*
X64375Y329750D02*
X63750Y330063D01*
X63437Y330687*
Y331313*
X63750Y331937*
X64375Y332250*
X65000Y331937*
X65313Y331313*
Y330687*
X65000Y330063*
X64375Y329750*
X63437*
X62500Y330063*
X61875Y330687*
X61563Y331313*
X63437Y335687D02*
Y336313D01*
X63125Y336937*
X62500Y337250*
X61875Y336937*
X61563Y336313*
Y335687*
X61875Y335063*
X62500Y334750*
X63125Y335063*
X63437Y335687*
X63750Y335063*
X64375Y334750*
X65000Y335063*
X65313Y335687*
Y336313*
X65000Y336937*
X64375Y337250*
X63750Y336937*
X63437Y336313*
X65313Y342250D02*
Y339750D01*
X63125Y341937*
X62500Y342250*
X61875Y341937*
X61563Y341313*
Y340375*
X61875Y339750*
X65313Y345375D02*
Y346625D01*
Y346000D02*
X61563D01*
X62187Y345375*
X65313Y354750D02*
X61563D01*
Y356937*
X61875Y357563*
X62500Y357875*
X63125Y357563*
X63437Y356937*
Y354750*
X65313Y360687D02*
Y361937D01*
Y361313D02*
X61563D01*
Y360687D02*
Y361937D01*
X65313Y364750D02*
X61563Y366313D01*
X65313Y367875*
X63750Y365375D02*
Y367250D01*
X67750Y90750D02*
X62750D01*
X67750Y110250D02*
X62750D01*
X83063Y470250D02*
X86813Y471813D01*
X83063Y473375*
X85875Y475250D02*
X86500Y475563D01*
X86813Y476187*
Y477437*
X86500Y478063*
X85875Y478375*
X85250Y478063*
X84937Y477437*
Y476187*
X84625Y475563*
X84000Y475250*
X83375Y475563*
X83063Y476187*
Y477437*
X83375Y478063*
X84000Y478375*
X85875Y480250D02*
X86500Y480563D01*
X86813Y481187*
Y482437*
X86500Y483063*
X85875Y483375*
X85250Y483063*
X84937Y482437*
Y481187*
X84625Y480563*
X84000Y480250*
X83375Y480563*
X83063Y481187*
Y482437*
X83375Y483063*
X84000Y483375*
X83063Y506250D02*
X86813Y507813D01*
X83063Y509375*
X86187Y514375D02*
X86500Y514063D01*
X86813Y513437*
Y512500*
X86500Y511875*
X86187Y511563*
X85563Y511250*
X84313*
X83687Y511563*
X83375Y511875*
X83063Y512500*
Y513437*
X83375Y514063*
X83687Y514375*
X86187Y519375D02*
X86500Y519063D01*
X86813Y518437*
Y517500*
X86500Y516875*
X86187Y516563*
X85563Y516250*
X84313*
X83687Y516563*
X83375Y516875*
X83063Y517500*
Y518437*
X83375Y519063*
X83687Y519375*
X90774Y22372D02*
X91086Y22059D01*
X91711Y21746*
X92336Y22059*
X92649Y22372*
Y25496*
X93274*
X92649D02*
X91399D01*
X96399Y21746D02*
X97649D01*
X97024D02*
Y25496D01*
X96399Y24872*
X96187Y473375D02*
X96500Y473063D01*
X96813Y472437*
Y471500*
X96500Y470875*
X96187Y470563*
X95563Y470250*
X94313*
X93687Y470563*
X93375Y470875*
X93063Y471500*
Y472437*
X93375Y473063*
X93687Y473375*
X93063Y475250D02*
X96813D01*
Y478375*
Y480250D02*
X93063D01*
X94937D02*
Y481187D01*
X93063Y483375*
X94937Y481187D02*
X96813Y483375D01*
X96187Y509375D02*
X96500Y509063D01*
X96813Y508437*
Y507500*
X96500Y506875*
X96187Y506563*
X95563Y506250*
X94313*
X93687Y506563*
X93375Y506875*
X93063Y507500*
Y508437*
X93375Y509063*
X93687Y509375*
X93063Y511250D02*
X96813D01*
Y514375*
Y516250D02*
X93063D01*
X94937D02*
Y517187D01*
X93063Y519375*
X94937Y517187D02*
X96813Y519375D01*
Y521250D02*
Y524375D01*
Y526250D02*
X93063D01*
Y528437*
X93375Y529063*
X94000Y529375*
X94625Y529063*
X94937Y528437*
Y526250*
X96813Y531250D02*
X93063D01*
X94937D02*
Y534375D01*
X96813D02*
X93063D01*
X96813Y538750D02*
Y536250D01*
X94625Y538437*
X94000Y538750*
X93375Y538437*
X93063Y537813*
Y536875*
X93375Y536250*
X103875Y228813D02*
X103563Y228500D01*
X102937Y228187*
X102000*
X101375Y228500*
X101063Y228813*
X100750Y229437*
Y230687*
X101063Y231313*
X101375Y231625*
X102000Y231937*
X102937*
X103563Y231625*
X103875Y231313*
X106375Y228187D02*
X107625D01*
X107000D02*
Y231937D01*
X106375Y231313*
X113250Y228187D02*
X110750D01*
X112937Y230375*
X113250Y231000*
X112937Y231625*
X112313Y231937*
X111375*
X110750Y231625*
X101750Y149250D02*
Y214250D01*
X104250*
X106750Y211750*
X109250Y214250*
X111750*
Y149250*
X101750*
Y222250D02*
X96750D01*
X106375Y133313D02*
X106063Y133000D01*
X105437Y132687*
X104500*
X103875Y133000*
X103563Y133313*
X103250Y133937*
Y135187*
X103563Y135813*
X103875Y136125*
X104500Y136437*
X105437*
X106063Y136125*
X106375Y135813*
X110750Y132687D02*
X108250D01*
X110437Y134875*
X110750Y135500*
X110437Y136125*
X109813Y136437*
X108875*
X108250Y136125*
X105250Y108563D02*
X102750D01*
X104000Y109813D02*
Y107313D01*
X106813Y475750D02*
X103063Y477313D01*
X106813Y478875*
X105250Y476375D02*
Y478250D01*
X106500Y481063D02*
X106813Y481687D01*
Y482313*
X106500Y482937*
X105875Y483250*
X104000*
X103375Y482937*
X103063Y482313*
Y481687*
X103375Y481063*
X104000Y480750*
X105875*
X106500Y481063*
X103375Y482937*
X106813Y505750D02*
X103063Y507313D01*
X106813Y508875*
X105250Y506375D02*
Y508250D01*
X106813Y511375D02*
Y512625D01*
Y512000D02*
X103063D01*
X103687Y511375*
X108313Y168750D02*
X104563Y171250D01*
Y168750*
X108313Y175313D02*
X104563D01*
X107063Y173750*
Y176250*
X104563Y178750D02*
X108313D01*
Y181875*
X107375Y183750D02*
X108000Y184063D01*
X108313Y184687*
Y185937*
X108000Y186563*
X107375Y186875*
X106750Y186563*
X106437Y185937*
Y184687*
X106125Y184063*
X105500Y183750*
X104875Y184063*
X104563Y184687*
Y185937*
X104875Y186563*
X105500Y186875*
X108000Y189063D02*
X108313Y189687D01*
Y190313*
X108000Y190937*
X107375Y191250*
X105500*
X104875Y190937*
X104563Y190313*
Y189687*
X104875Y189063*
X105500Y188750*
X107375*
X108000Y189063*
X104875Y190937*
X108313Y195313D02*
X104563D01*
X107063Y193750*
Y196250*
X111250Y117750D02*
G75*
G02X95250Y101750I-16000D01*
G01*
G75*
G02X79250Y117750J16000*
G01*
G75*
G02X95250Y133750I16000*
G01*
G75*
G02X111250Y117750J-16000*
G01*
X111750Y227250D02*
Y217250D01*
X101750*
Y227250*
X111750*
X116750Y222250D02*
X111750D01*
X116813Y475750D02*
X113063Y477313D01*
X116813Y478875*
X115250Y476375D02*
Y478250D01*
X116813Y483250D02*
Y480750D01*
X114625Y482937*
X114000Y483250*
X113375Y482937*
X113063Y482313*
Y481375*
X113375Y480750*
X116813Y505750D02*
X113063Y507313D01*
X116813Y508875*
X115250Y506375D02*
Y508250D01*
X116500Y511063D02*
X116813Y511687D01*
Y512313*
X116500Y512937*
X115875Y513250*
X115250Y512937*
X114937Y512313*
Y511687*
Y512313D02*
X114625Y512937D01*
X114000Y513250*
X113375Y512937*
X113063Y512313*
Y511687*
X113375Y511063*
X122750Y51437D02*
Y48625D01*
X123063Y48000*
X123687Y47687*
X124937*
X125563Y48000*
X125875Y48625*
Y51437*
X128375Y47687D02*
X129625D01*
X129000D02*
Y51437D01*
X128375Y50813*
X133063Y48000D02*
X133687Y47687D01*
X134313*
X134937Y48000*
X135250Y48625*
Y50500*
X134937Y51125*
X134313Y51437*
X133687*
X133063Y51125*
X132750Y50500*
Y48625*
X133063Y48000*
X134937Y51125*
X126813Y475750D02*
X123063Y477313D01*
X126813Y478875*
X125250Y476375D02*
Y478250D01*
X126813Y482313D02*
X123063D01*
X125563Y480750*
Y483250*
X126813Y505750D02*
X123063Y507313D01*
X126813Y508875*
X125250Y506375D02*
Y508250D01*
X126500Y510750D02*
X126813Y511375D01*
Y512313*
X126500Y512937*
X125875Y513250*
X125563*
X124937Y512937*
X124625Y512313*
Y510750*
X123063*
Y513250*
X134875Y339813D02*
X134563Y339500D01*
X133937Y339187*
X133000*
X132375Y339500*
X132063Y339813*
X131750Y340437*
Y341687*
X132063Y342313*
X132375Y342625*
X133000Y342937*
X133937*
X134563Y342625*
X134875Y342313*
X137375Y339187D02*
X138625D01*
X138000D02*
Y342937D01*
X137375Y342313*
X142375Y339187D02*
X143625D01*
X143000D02*
Y342937D01*
X142375Y342313*
X132750Y250250D02*
Y325250D01*
X135250*
X137750Y322750*
X140250Y325250*
X142750*
Y250250*
X132750*
Y333250D02*
X127750D01*
X136875Y112313D02*
X136563Y112000D01*
X135937Y111687*
X135000*
X134375Y112000*
X134063Y112313*
X133750Y112937*
Y114187*
X134063Y114813*
X134375Y115125*
X135000Y115437*
X135937*
X136563Y115125*
X136875Y114813*
X139375Y111687D02*
X140625D01*
X140000D02*
Y115437D01*
X139375Y114813*
X144063Y112000D02*
X144687Y111687D01*
X145313*
X145937Y112000*
X146250Y112625*
X145937Y113250*
X145313Y113563*
X144687*
X145313D02*
X145937Y113875D01*
X146250Y114500*
X145937Y115125*
X145313Y115437*
X144687*
X144063Y115125*
X136750Y392750D02*
X141750D01*
X136750Y412750D02*
X141750D01*
X136750Y432750D02*
X141750D01*
X136750Y453250D02*
X141750D01*
X136813Y475750D02*
X133063Y477313D01*
X136813Y478875*
X135250Y476375D02*
Y478250D01*
X135875Y480750D02*
X135250Y481063D01*
X134937Y481687*
Y482313*
X135250Y482937*
X135875Y483250*
X136500Y482937*
X136813Y482313*
Y481687*
X136500Y481063*
X135875Y480750*
X134937*
X134000Y481063*
X133375Y481687*
X133063Y482313*
X136813Y505750D02*
X133063Y507313D01*
X136813Y508875*
X135250Y506375D02*
Y508250D01*
X136813Y510750D02*
X133063Y513250D01*
Y510750*
X138250Y86563D02*
X135750D01*
X137000Y87813D02*
Y85313D01*
X138813Y271250D02*
X135063Y273750D01*
Y271250*
X138813Y277813D02*
X135063D01*
X137563Y276250*
Y278750*
X135063Y281250D02*
X138813D01*
Y284375*
X137875Y286250D02*
X138500Y286563D01*
X138813Y287187*
Y288437*
X138500Y289063*
X137875Y289375*
X137250Y289063*
X136937Y288437*
Y287187*
X136625Y286563*
X136000Y286250*
X135375Y286563*
X135063Y287187*
Y288437*
X135375Y289063*
X136000Y289375*
X138813Y291875D02*
Y293125D01*
Y292500D02*
X135063D01*
X135687Y291875*
X138500Y296563D02*
X138813Y297187D01*
Y297813*
X138500Y298437*
X137875Y298750*
X137250Y298437*
X136937Y297813*
Y297187*
Y297813D02*
X136625Y298437D01*
X136000Y298750*
X135375Y298437*
X135063Y297813*
Y297187*
X135375Y296563*
X136937Y302187D02*
Y302813D01*
X136625Y303437*
X136000Y303750*
X135375Y303437*
X135063Y302813*
Y302187*
X135375Y301563*
X136000Y301250*
X136625Y301563*
X136937Y302187*
X137250Y301563*
X137875Y301250*
X138500Y301563*
X138813Y302187*
Y302813*
X138500Y303437*
X137875Y303750*
X137250Y303437*
X136937Y302813*
X141750Y387750D02*
Y397750D01*
X161750*
Y387750*
X141750*
Y407750D02*
Y417750D01*
X161750*
Y407750*
X141750*
Y427750D02*
Y437750D01*
X161750*
Y427750*
X141750*
Y448250D02*
Y458250D01*
X161750*
Y448250*
X141750*
X142250Y31750D02*
X137250D01*
X142750Y338250D02*
Y328250D01*
X132750*
Y338250*
X142750*
X146375Y38813D02*
X146063Y38500D01*
X145437Y38187*
X144500*
X143875Y38500*
X143563Y38813*
X143250Y39437*
Y40687*
X143563Y41313*
X143875Y41625*
X144500Y41937*
X145437*
X146063Y41625*
X146375Y41313*
X148250Y39125D02*
X148563Y39750D01*
X149187Y40063*
X149813*
X150437Y39750*
X150750Y39125*
X150437Y38500*
X149813Y38187*
X149187*
X148563Y38500*
X148250Y39125*
Y40063*
X148563Y41000*
X149187Y41625*
X149813Y41937*
X144250Y95750D02*
G75*
G02X128250Y79750I-16000D01*
G01*
G75*
G02X112250Y95750J16000*
G01*
G75*
G02X128250Y111750I16000*
G01*
G75*
G02X144250Y95750J-16000*
G01*
X144750Y135187D02*
Y138937D01*
X146625*
X147250Y138625*
X147563Y138313*
X147875Y137687*
Y136437*
X147563Y135813*
X147250Y135500*
X146625Y135187*
X144750*
X150375D02*
X151625D01*
X151000D02*
Y138937D01*
X150375Y138313*
X147750Y333250D02*
X142750D01*
X146813Y475750D02*
X143063Y477313D01*
X146813Y478875*
X145250Y476375D02*
Y478250D01*
X144937Y481687D02*
Y482313D01*
X144625Y482937*
X144000Y483250*
X143375Y482937*
X143063Y482313*
Y481687*
X143375Y481063*
X144000Y480750*
X144625Y481063*
X144937Y481687*
X145250Y481063*
X145875Y480750*
X146500Y481063*
X146813Y481687*
Y482313*
X146500Y482937*
X145875Y483250*
X145250Y482937*
X144937Y482313*
X146813Y505750D02*
X143063Y507313D01*
X146813Y508875*
X145250Y506375D02*
Y508250D01*
X146813Y511687D02*
X146500Y512313D01*
X145875Y512937*
X144937Y513250*
X144000*
X143375Y512937*
X143063Y512313*
Y511687*
X143375Y511063*
X144000Y510750*
X144625Y511063*
X144937Y511687*
Y512313*
X144625Y512937*
X144000Y513250*
X148000Y398687D02*
Y402437D01*
X150187*
X150813Y402125*
X151125Y401500*
X150813Y400875*
X150187Y400563*
X148000*
X150187D02*
X151125Y398687D01*
X153313Y399000D02*
X153937Y398687D01*
X154563*
X155187Y399000*
X155500Y399625*
X155187Y400250*
X154563Y400563*
X153937*
X154563D02*
X155187Y400875D01*
X155500Y401500*
X155187Y402125*
X154563Y402437*
X153937*
X153313Y402125*
X148000Y418687D02*
Y422437D01*
X150187*
X150813Y422125*
X151125Y421500*
X150813Y420875*
X150187Y420563*
X148000*
X150187D02*
X151125Y418687D01*
X155500D02*
X153000D01*
X155187Y420875*
X155500Y421500*
X155187Y422125*
X154563Y422437*
X153625*
X153000Y422125*
X148000Y438687D02*
Y442437D01*
X150187*
X150813Y442125*
X151125Y441500*
X150813Y440875*
X150187Y440563*
X148000*
X150187D02*
X151125Y438687D01*
X153625D02*
X154875D01*
X154250D02*
Y442437D01*
X153625Y441813*
X148000Y459187D02*
Y462937D01*
X150187*
X150813Y462625*
X151125Y462000*
X150813Y461375*
X150187Y461063*
X148000*
X150187D02*
X151125Y459187D01*
X153000Y459500D02*
X153625Y459187D01*
X154563*
X155187Y459500*
X155500Y460125*
Y460437*
X155187Y461063*
X154563Y461375*
X153000*
Y462937*
X155500*
X152250Y36750D02*
Y26750D01*
X142250*
Y36750*
X152250*
X157250Y31750D02*
X152250D01*
X156813Y470750D02*
X153063Y472313D01*
X156813Y473875*
X155250Y471375D02*
Y473250D01*
X156813Y476375D02*
Y477625D01*
Y477000D02*
X153063D01*
X153687Y476375*
X156500Y481063D02*
X156813Y481687D01*
Y482313*
X156500Y482937*
X155875Y483250*
X154000*
X153375Y482937*
X153063Y482313*
Y481687*
X153375Y481063*
X154000Y480750*
X155875*
X156500Y481063*
X153375Y482937*
X156813Y505750D02*
X153063Y507313D01*
X156813Y508875*
X155250Y506375D02*
Y508250D01*
X156813Y511375D02*
Y512625D01*
Y512000D02*
X153063D01*
X153687Y511375*
X156813Y516375D02*
Y517625D01*
Y517000D02*
X153063D01*
X153687Y516375*
X158750Y221750D02*
X163750D01*
X161750Y392750D02*
X166750D01*
X161750Y412750D02*
X166750D01*
X161750Y432750D02*
X166750D01*
X161750Y453250D02*
X166750D01*
X162250Y53750D02*
Y70750D01*
X122250*
Y53750*
X162250*
Y58750D02*
X122250D01*
X165375Y228813D02*
X165063Y228500D01*
X164437Y228187*
X163500*
X162875Y228500*
X162563Y228813*
X162250Y229437*
Y230687*
X162563Y231313*
X162875Y231625*
X163500Y231937*
X164437*
X165063Y231625*
X165375Y231313*
X167875Y228187D02*
X169125D01*
X168500D02*
Y231937D01*
X167875Y231313*
X172563Y228500D02*
X173187Y228187D01*
X173813*
X174437Y228500*
X174750Y229125*
Y231000*
X174437Y231625*
X173813Y231937*
X173187*
X172563Y231625*
X172250Y231000*
Y229125*
X172563Y228500*
X174437Y231625*
X163750Y149250D02*
Y214250D01*
X166250*
X168750Y211750*
X171250Y214250*
X173750*
Y149250*
X163750*
Y216750D02*
Y226750D01*
X173750*
Y216750*
X163750*
X166813Y470750D02*
X163063Y472313D01*
X166813Y473875*
X165250Y471375D02*
Y473250D01*
X166813Y476375D02*
Y477625D01*
Y477000D02*
X163063D01*
X163687Y476375*
X166813Y483250D02*
Y480750D01*
X164625Y482937*
X164000Y483250*
X163375Y482937*
X163063Y482313*
Y481375*
X163375Y480750*
X166813Y505750D02*
X163063Y507313D01*
X166813Y508875*
X165250Y506375D02*
Y508250D01*
X166813Y511375D02*
Y512625D01*
Y512000D02*
X163063D01*
X163687Y511375*
X166500Y516063D02*
X166813Y516687D01*
Y517313*
X166500Y517937*
X165875Y518250*
X165250Y517937*
X164937Y517313*
Y516687*
Y517313D02*
X164625Y517937D01*
X164000Y518250*
X163375Y517937*
X163063Y517313*
Y516687*
X163375Y516063*
X169375Y163250D02*
X170000Y163563D01*
X170313Y164187*
Y165437*
X170000Y166063*
X169375Y166375*
X168750Y166063*
X168437Y165437*
Y164187*
X168125Y163563*
X167500Y163250*
X166875Y163563*
X166563Y164187*
Y165437*
X166875Y166063*
X167500Y166375*
X170313Y168250D02*
X166563D01*
X170313Y171375*
X166563*
X170313Y173250D02*
X166563Y175750D01*
Y173250*
X170313Y179813D02*
X166563D01*
X169063Y178250*
Y180750*
X166563Y183250D02*
X170313D01*
Y186375*
X169375Y188250D02*
X170000Y188563D01*
X170313Y189187*
Y190437*
X170000Y191063*
X169375Y191375*
X168750Y191063*
X168437Y190437*
Y189187*
X168125Y188563*
X167500Y188250*
X166875Y188563*
X166563Y189187*
Y190437*
X166875Y191063*
X167500Y191375*
X170000Y193563D02*
X170313Y194187D01*
Y194813*
X170000Y195437*
X169375Y195750*
X167500*
X166875Y195437*
X166563Y194813*
Y194187*
X166875Y193563*
X167500Y193250*
X169375*
X170000Y193563*
X166875Y195437*
X170000Y198563D02*
X170313Y199187D01*
Y199813*
X170000Y200437*
X169375Y200750*
X167500*
X166875Y200437*
X166563Y199813*
Y199187*
X166875Y198563*
X167500Y198250*
X169375*
X170000Y198563*
X166875Y200437*
X173750Y221750D02*
X178750D01*
X179875Y109813D02*
X179563Y109500D01*
X178937Y109187*
X178000*
X177375Y109500*
X177063Y109813*
X176750Y110437*
Y111687*
X177063Y112313*
X177375Y112625*
X178000Y112937*
X178937*
X179563Y112625*
X179875Y112313*
X181750Y109187D02*
X184250Y112937D01*
X181750*
X177250Y86063D02*
X174750D01*
X176000Y87313D02*
Y84813D01*
X176813Y470750D02*
X173063Y472313D01*
X176813Y473875*
X175250Y471375D02*
Y473250D01*
X176813Y476375D02*
Y477625D01*
Y477000D02*
X173063D01*
X173687Y476375*
X176813Y482313D02*
X173063D01*
X175563Y480750*
Y483250*
X176813Y505750D02*
X173063Y507313D01*
X176813Y508875*
X175250Y506375D02*
Y508250D01*
X176813Y511375D02*
Y512625D01*
Y512000D02*
X173063D01*
X173687Y511375*
X176500Y515750D02*
X176813Y516375D01*
Y517313*
X176500Y517937*
X175875Y518250*
X175563*
X174937Y517937*
X174625Y517313*
Y515750*
X173063*
Y518250*
X183250Y95250D02*
G75*
G02X167250Y79250I-16000D01*
G01*
G75*
G02X151250Y95250J16000*
G01*
G75*
G02X167250Y111250I16000*
G01*
G75*
G02X183250Y95250J-16000*
G01*
X186750Y57750D02*
X337750D01*
Y46750*
X189250*
X186750Y49250*
Y57750*
Y117750D02*
X337750D01*
Y106750*
X186750*
Y117750*
X186813Y475750D02*
X183063D01*
Y477625*
X183375Y478250*
X183687Y478563*
X184313Y478875*
X185563*
X186187Y478563*
X186500Y478250*
X186813Y477625*
Y475750*
X186500Y481063D02*
X186813Y481687D01*
Y482313*
X186500Y482937*
X185875Y483250*
X184000*
X183375Y482937*
X183063Y482313*
Y481687*
X183375Y481063*
X184000Y480750*
X185875*
X186500Y481063*
X183375Y482937*
X186813Y506250D02*
X183063D01*
Y508125*
X183375Y508750*
X183687Y509063*
X184313Y509375*
X185563*
X186187Y509063*
X186500Y508750*
X186813Y508125*
Y506250*
Y511875D02*
Y513125D01*
Y512500D02*
X183063D01*
X183687Y511875*
X190750Y250250D02*
Y445250D01*
X205750*
X210750Y440250*
X215750Y445250*
X230750*
Y250250*
X190750*
Y453250D02*
X185750D01*
X194875Y460313D02*
X194563Y460000D01*
X193937Y459687*
X193000*
X192375Y460000*
X192063Y460313*
X191750Y460937*
Y462187*
X192063Y462813*
X192375Y463125*
X193000Y463437*
X193937*
X194563Y463125*
X194875Y462813*
X197063Y460000D02*
X197687Y459687D01*
X198313*
X198937Y460000*
X199250Y460625*
X198937Y461250*
X198313Y461563*
X197687*
X198313D02*
X198937Y461875D01*
X199250Y462500*
X198937Y463125*
X198313Y463437*
X197687*
X197063Y463125*
X193313Y17750D02*
X189563D01*
Y19625*
X189875Y20250*
X190187Y20563*
X190813Y20875*
X192063*
X192687Y20563*
X193000Y20250*
X193313Y19625*
Y17750*
Y23375D02*
Y24625D01*
Y24000D02*
X189563D01*
X190187Y23375*
X193313Y27750D02*
X189563Y30875D01*
X193313Y34313D02*
X189563D01*
Y32750D02*
Y35875D01*
X193313Y37750D02*
X189563Y40875D01*
Y37750D02*
X193313Y40875D01*
X189563Y122750D02*
X193313Y124313D01*
X189563Y125875*
X193313Y128687D02*
Y129937D01*
Y129313D02*
X189563D01*
Y128687D02*
Y129937D01*
X193313Y132750D02*
X189563D01*
X193313Y135875*
X189563*
X196813Y475750D02*
X193063D01*
Y477625*
X193375Y478250*
X193687Y478563*
X194313Y478875*
X195563*
X196187Y478563*
X196500Y478250*
X196813Y477625*
Y475750*
Y483250D02*
Y480750D01*
X194625Y482937*
X194000Y483250*
X193375Y482937*
X193063Y482313*
Y481375*
X193375Y480750*
X196813Y506250D02*
X193063D01*
Y508125*
X193375Y508750*
X193687Y509063*
X194313Y509375*
X195563*
X196187Y509063*
X196500Y508750*
X196813Y508125*
Y506250*
X196500Y511563D02*
X196813Y512187D01*
Y512813*
X196500Y513437*
X195875Y513750*
X195250Y513437*
X194937Y512813*
Y512187*
Y512813D02*
X194625Y513437D01*
X194000Y513750*
X193375Y513437*
X193063Y512813*
Y512187*
X193375Y511563*
X200750Y458250D02*
Y448250D01*
X190750*
Y458250*
X200750*
X203313Y17750D02*
X199563D01*
Y19625*
X199875Y20250*
X200187Y20563*
X200813Y20875*
X202063*
X202687Y20563*
X203000Y20250*
X203313Y19625*
Y17750*
X203000Y23063D02*
X203313Y23687D01*
Y24313*
X203000Y24937*
X202375Y25250*
X200500*
X199875Y24937*
X199563Y24313*
Y23687*
X199875Y23063*
X200500Y22750*
X202375*
X203000Y23063*
X199875Y24937*
X203313Y27750D02*
X199563Y30875D01*
X203313Y32750D02*
X199563D01*
Y34937*
X199875Y35563*
X200500Y35875*
X201125Y35563*
X201437Y34937*
Y32750*
Y34937D02*
X203313Y35875D01*
Y37750D02*
X199563Y40875D01*
Y37750D02*
X203313Y40875D01*
X201750Y124937D02*
Y125875D01*
X202063*
X202687Y125563*
X203000Y125250*
X203313Y124625*
Y124000*
X203000Y123375*
X202687Y123063*
X202063Y122750*
X200813*
X200187Y123063*
X199875Y123375*
X199563Y124000*
Y124625*
X199875Y125250*
X200187Y125563*
X200813Y125875*
X203313Y127750D02*
X199563D01*
X203313Y130875*
X199563*
X203313Y132750D02*
X199563D01*
Y134625*
X199875Y135250*
X200187Y135563*
X200813Y135875*
X202063*
X202687Y135563*
X203000Y135250*
X203313Y134625*
Y132750*
X205750Y453250D02*
X200750D01*
X206813Y475750D02*
X203063D01*
Y477625*
X203375Y478250*
X203687Y478563*
X204313Y478875*
X205563*
X206187Y478563*
X206500Y478250*
X206813Y477625*
Y475750*
Y482313D02*
X203063D01*
X205563Y480750*
Y483250*
X206813Y506250D02*
X203063D01*
Y508125*
X203375Y508750*
X203687Y509063*
X204313Y509375*
X205563*
X206187Y509063*
X206500Y508750*
X206813Y508125*
Y506250*
X206500Y511250D02*
X206813Y511875D01*
Y512813*
X206500Y513437*
X205875Y513750*
X205563*
X204937Y513437*
X204625Y512813*
Y511250*
X203063*
Y513750*
X193250Y153437D02*
X194813Y149687D01*
X196375Y153437*
X198250Y150625D02*
X198563Y150000D01*
X199187Y149687*
X200437*
X201063Y150000*
X201375Y150625*
X201063Y151250*
X200437Y151563*
X199187*
X198563Y151875*
X198250Y152500*
X198563Y153125*
X199187Y153437*
X200437*
X201063Y153125*
X201375Y152500*
X203250Y150625D02*
X203563Y150000D01*
X204187Y149687*
X205437*
X206063Y150000*
X206375Y150625*
X206063Y151250*
X205437Y151563*
X204187*
X203563Y151875*
X203250Y152500*
X203563Y153125*
X204187Y153437*
X205437*
X206063Y153125*
X206375Y152500*
X211875Y324250D02*
X211250Y324563D01*
X210937Y325187*
Y325813*
X211250Y326437*
X211875Y326750*
X212500Y326437*
X212813Y325813*
Y325187*
X212500Y324563*
X211875Y324250*
X210937*
X210000Y324563*
X209375Y325187*
X209063Y325813*
X212500Y329250D02*
X212813Y329875D01*
Y330813*
X212500Y331437*
X211875Y331750*
X211563*
X210937Y331437*
X210625Y330813*
Y329250*
X209063*
Y331750*
X212500Y334563D02*
X212813Y335187D01*
Y335813*
X212500Y336437*
X211875Y336750*
X210000*
X209375Y336437*
X209063Y335813*
Y335187*
X209375Y334563*
X210000Y334250*
X211875*
X212500Y334563*
X209375Y336437*
X212813Y341750D02*
Y339250D01*
X210625Y341437*
X210000Y341750*
X209375Y341437*
X209063Y340813*
Y339875*
X209375Y339250*
X212187Y352375D02*
X212500Y352063D01*
X212813Y351437*
Y350500*
X212500Y349875*
X212187Y349563*
X211563Y349250*
X210313*
X209687Y349563*
X209375Y349875*
X209063Y350500*
Y351437*
X209375Y352063*
X209687Y352375*
X212813Y354250D02*
X209063D01*
Y356437*
X209375Y357063*
X210000Y357375*
X210625Y357063*
X210937Y356437*
Y354250*
X209063Y359250D02*
X211875D01*
X212500Y359563*
X212813Y360187*
Y361437*
X212500Y362063*
X211875Y362375*
X209063*
X213313Y17750D02*
X209563D01*
Y19937*
X209875Y20563*
X210500Y20875*
X211125Y20563*
X211437Y19937*
Y17750*
Y19937D02*
X213313Y20875D01*
Y22750D02*
X209563D01*
Y25875*
X211437Y25250D02*
Y22750D01*
X213313D02*
Y25875D01*
X212375Y27750D02*
X213000Y28063D01*
X213313Y28687*
Y29937*
X213000Y30563*
X212375Y30875*
X211750Y30563*
X211437Y29937*
Y28687*
X211125Y28063*
X210500Y27750*
X209875Y28063*
X209563Y28687*
Y29937*
X209875Y30563*
X210500Y30875*
X213313Y32750D02*
X209563D01*
Y35875*
X211437Y35250D02*
Y32750D01*
X213313D02*
Y35875D01*
Y39313D02*
X209563D01*
Y37750D02*
Y40875D01*
X213313Y122750D02*
X209563D01*
Y124937*
X209875Y125563*
X210500Y125875*
X211125Y125563*
X211437Y124937*
Y122750*
Y124937D02*
X213313Y125875D01*
Y127750D02*
X209563D01*
Y130875*
X211437Y130250D02*
Y127750D01*
X213313D02*
Y130875D01*
X212375Y132750D02*
X213000Y133063D01*
X213313Y133687*
Y134937*
X213000Y135563*
X212375Y135875*
X211750Y135563*
X211437Y134937*
Y133687*
X211125Y133063*
X210500Y132750*
X209875Y133063*
X209563Y133687*
Y134937*
X209875Y135563*
X210500Y135875*
X213313Y137750D02*
X209563D01*
Y140875*
X211437Y140250D02*
Y137750D01*
X213313D02*
Y140875D01*
Y144313D02*
X209563D01*
Y142750D02*
Y145875D01*
X216813Y475750D02*
X213063D01*
Y477625*
X213375Y478250*
X213687Y478563*
X214313Y478875*
X215563*
X216187Y478563*
X216500Y478250*
X216813Y477625*
Y475750*
X215875Y480750D02*
X215250Y481063D01*
X214937Y481687*
Y482313*
X215250Y482937*
X215875Y483250*
X216500Y482937*
X216813Y482313*
Y481687*
X216500Y481063*
X215875Y480750*
X214937*
X214000Y481063*
X213375Y481687*
X213063Y482313*
X216813Y506250D02*
X213063D01*
Y508125*
X213375Y508750*
X213687Y509063*
X214313Y509375*
X215563*
X216187Y509063*
X216500Y508750*
X216813Y508125*
Y506250*
Y511250D02*
X213063Y513750D01*
Y511250*
X222250Y149250D02*
Y214250D01*
X224750*
X227250Y211750*
X229750Y214250*
X232250*
Y149250*
X222250*
X221750Y29937D02*
Y30875D01*
X222063*
X222687Y30563*
X223000Y30250*
X223313Y29625*
Y29000*
X223000Y28375*
X222687Y28063*
X222063Y27750*
X220813*
X220187Y28063*
X219875Y28375*
X219563Y29000*
Y29625*
X219875Y30250*
X220187Y30563*
X220813Y30875*
X223313Y32750D02*
X219563D01*
X223313Y35875*
X219563*
X223313Y37750D02*
X219563D01*
Y39625*
X219875Y40250*
X220187Y40563*
X220813Y40875*
X222063*
X222687Y40563*
X223000Y40250*
X223313Y39625*
Y37750*
X222063Y122750D02*
Y125250D01*
X223313Y124000D02*
X220813D01*
X223000Y127750D02*
X223313Y128375D01*
Y129313*
X223000Y129937*
X222375Y130250*
X222063*
X221437Y129937*
X221125Y129313*
Y127750*
X219563*
Y130250*
Y132750D02*
X223313Y134313D01*
X219563Y135875*
X226500Y460750D02*
X226813Y461375D01*
Y462625*
X226500Y463250*
X225875*
X225563Y462625*
Y461375*
X225250Y460750*
X224625*
X224313Y461375*
Y462625*
X224625Y463250*
X227437Y462000D02*
X223063D01*
X226813Y465750D02*
X223063Y467313D01*
X226813Y468875*
X225250Y466375D02*
Y468250D01*
X226500Y471063D02*
X226813Y471687D01*
Y472313*
X226500Y472937*
X225875Y473250*
X224000*
X223375Y472937*
X223063Y472313*
Y471687*
X223375Y471063*
X224000Y470750*
X225875*
X226500Y471063*
X223375Y472937*
X226500Y476063D02*
X226813Y476687D01*
Y477313*
X226500Y477937*
X225875Y478250*
X224000*
X223375Y477937*
X223063Y477313*
Y476687*
X223375Y476063*
X224000Y475750*
X225875*
X226500Y476063*
X223375Y477937*
X226500Y481063D02*
X226813Y481687D01*
Y482313*
X226500Y482937*
X225875Y483250*
X224000*
X223375Y482937*
X223063Y482313*
Y481687*
X223375Y481063*
X224000Y480750*
X225875*
X226500Y481063*
X223375Y482937*
X226500Y506250D02*
X226813Y506875D01*
Y508125*
X226500Y508750*
X225875*
X225563Y508125*
Y506875*
X225250Y506250*
X224625*
X224313Y506875*
Y508125*
X224625Y508750*
X227437Y507500D02*
X223063D01*
X224937Y513437D02*
X225250Y514063D01*
X225875Y514375*
X226500Y514063*
X226813Y513437*
Y511250*
X223063*
Y513437*
X223375Y514063*
X224000Y514375*
X224625Y514063*
X224937Y513437*
Y511250*
X226500Y516563D02*
X226813Y517187D01*
Y517813*
X226500Y518437*
X225875Y518750*
X224000*
X223375Y518437*
X223063Y517813*
Y517187*
X223375Y516563*
X224000Y516250*
X225875*
X226500Y516563*
X223375Y518437*
X226500Y521563D02*
X226813Y522187D01*
Y522813*
X226500Y523437*
X225875Y523750*
X224000*
X223375Y523437*
X223063Y522813*
Y522187*
X223375Y521563*
X224000Y521250*
X225875*
X226500Y521563*
X223375Y523437*
X226500Y526563D02*
X226813Y527187D01*
Y527813*
X226500Y528437*
X225875Y528750*
X224000*
X223375Y528437*
X223063Y527813*
Y527187*
X223375Y526563*
X224000Y526250*
X225875*
X226500Y526563*
X223375Y528437*
X229313Y170750D02*
X225563Y173875D01*
Y170750D02*
X229313Y173875D01*
Y177313D02*
X225563D01*
Y175750D02*
Y178875D01*
X229313Y180750D02*
X225563Y182313D01*
X229313Y183875*
X227750Y181375D02*
Y183250D01*
X225563Y185750D02*
X229313D01*
Y188875*
Y191375D02*
Y192625D01*
Y192000D02*
X225563D01*
X226187Y191375*
X233313Y32750D02*
X229563D01*
Y34625*
X229875Y35250*
X230187Y35563*
X230813Y35875*
X232063*
X232687Y35563*
X233000Y35250*
X233313Y34625*
Y32750*
Y40250D02*
Y37750D01*
X231125Y39937*
X230500Y40250*
X229875Y39937*
X229563Y39313*
Y38375*
X229875Y37750*
X233313Y122750D02*
X229563Y124313D01*
X233313Y125875*
X231750Y123375D02*
Y125250D01*
X233313Y127750D02*
X229563Y130250D01*
Y127750*
X235250Y81187D02*
X236813Y84937D01*
X238375Y81187*
X235875Y82750D02*
X237750D01*
X240250Y81187D02*
Y84937D01*
X242437*
X243063Y84625*
X243375Y84000*
X243063Y83375*
X242437Y83063*
X240250*
X242437D02*
X243375Y81187D01*
X245250D02*
Y84937D01*
X247125*
X247750Y84625*
X248063Y84313*
X248375Y83687*
Y82437*
X248063Y81813*
X247750Y81500*
X247125Y81187*
X245250*
X250250Y84937D02*
Y82125D01*
X250563Y81500*
X251187Y81187*
X252437*
X253063Y81500*
X253375Y82125*
Y84937*
X256187Y81187D02*
X257437D01*
X256813D02*
Y84937D01*
X256187D02*
X257437D01*
X260250Y81187D02*
Y84937D01*
X263375Y81187*
Y84937*
X265250Y82437D02*
Y83687D01*
X265563Y84313*
X265875Y84625*
X266500Y84937*
X267125*
X267750Y84625*
X268063Y84313*
X268375Y83687*
Y82437*
X268063Y81813*
X267750Y81500*
X267125Y81187*
X266500*
X265875Y81500*
X265563Y81813*
X265250Y82437*
X275250Y81187D02*
Y84937D01*
X278375Y81187*
Y84937*
X280250Y81187D02*
X281813Y84937D01*
X283375Y81187*
X280875Y82750D02*
X282750D01*
X285250Y81187D02*
Y84937D01*
X288375Y81187*
Y84937*
X290250Y82437D02*
Y83687D01*
X290563Y84313*
X290875Y84625*
X291500Y84937*
X292125*
X292750Y84625*
X293063Y84313*
X293375Y83687*
Y82437*
X293063Y81813*
X292750Y81500*
X292125Y81187*
X291500*
X290875Y81500*
X290563Y81813*
X290250Y82437*
X236500Y460750D02*
X236813Y461375D01*
Y462625*
X236500Y463250*
X235875*
X235563Y462625*
Y461375*
X235250Y460750*
X234625*
X234313Y461375*
Y462625*
X234625Y463250*
X237437Y462000D02*
X233063D01*
X236187Y468875D02*
X236500Y468563D01*
X236813Y467937*
Y467000*
X236500Y466375*
X236187Y466063*
X235563Y465750*
X234313*
X233687Y466063*
X233375Y466375*
X233063Y467000*
Y467937*
X233375Y468563*
X233687Y468875*
X236500Y471063D02*
X236813Y471687D01*
Y472313*
X236500Y472937*
X235875Y473250*
X234000*
X233375Y472937*
X233063Y472313*
Y471687*
X233375Y471063*
X234000Y470750*
X235875*
X236500Y471063*
X233375Y472937*
X236500Y476063D02*
X236813Y476687D01*
Y477313*
X236500Y477937*
X235875Y478250*
X234000*
X233375Y477937*
X233063Y477313*
Y476687*
X233375Y476063*
X234000Y475750*
X235875*
X236500Y476063*
X233375Y477937*
X236500Y481063D02*
X236813Y481687D01*
Y482313*
X236500Y482937*
X235875Y483250*
X234000*
X233375Y482937*
X233063Y482313*
Y481687*
X233375Y481063*
X234000Y480750*
X235875*
X236500Y481063*
X233375Y482937*
X236500Y506250D02*
X236813Y506875D01*
Y508125*
X236500Y508750*
X235875*
X235563Y508125*
Y506875*
X235250Y506250*
X234625*
X234313Y506875*
Y508125*
X234625Y508750*
X237437Y507500D02*
X233063D01*
X236813Y511250D02*
X233063D01*
Y513125*
X233375Y513750*
X233687Y514063*
X234313Y514375*
X235563*
X236187Y514063*
X236500Y513750*
X236813Y513125*
Y511250*
X236500Y516563D02*
X236813Y517187D01*
Y517813*
X236500Y518437*
X235875Y518750*
X234000*
X233375Y518437*
X233063Y517813*
Y517187*
X233375Y516563*
X234000Y516250*
X235875*
X236500Y516563*
X233375Y518437*
X236500Y521563D02*
X236813Y522187D01*
Y522813*
X236500Y523437*
X235875Y523750*
X234000*
X233375Y523437*
X233063Y522813*
Y522187*
X233375Y521563*
X234000Y521250*
X235875*
X236500Y521563*
X233375Y523437*
X236500Y526563D02*
X236813Y527187D01*
Y527813*
X236500Y528437*
X235875Y528750*
X234000*
X233375Y528437*
X233063Y527813*
Y527187*
X233375Y526563*
X234000Y526250*
X235875*
X236500Y526563*
X233375Y528437*
X243313Y32750D02*
X239563D01*
Y34625*
X239875Y35250*
X240187Y35563*
X240813Y35875*
X242063*
X242687Y35563*
X243000Y35250*
X243313Y34625*
Y32750*
X243000Y38063D02*
X243313Y38687D01*
Y39313*
X243000Y39937*
X242375Y40250*
X241750Y39937*
X241437Y39313*
Y38687*
Y39313D02*
X241125Y39937D01*
X240500Y40250*
X239875Y39937*
X239563Y39313*
Y38687*
X239875Y38063*
X243313Y122750D02*
X239563Y124313D01*
X243313Y125875*
X241750Y123375D02*
Y125250D01*
X242375Y127750D02*
X241750Y128063D01*
X241437Y128687*
Y129313*
X241750Y129937*
X242375Y130250*
X243000Y129937*
X243313Y129313*
Y128687*
X243000Y128063*
X242375Y127750*
X241437*
X240500Y128063*
X239875Y128687*
X239563Y129313*
X247750Y213437D02*
X249313Y209687D01*
X250875Y213437*
X255875Y210313D02*
X255563Y210000D01*
X254937Y209687*
X254000*
X253375Y210000*
X253063Y210313*
X252750Y210937*
Y212187*
X253063Y212813*
X253375Y213125*
X254000Y213437*
X254937*
X255563Y213125*
X255875Y212813*
X260875Y210313D02*
X260563Y210000D01*
X259937Y209687*
X259000*
X258375Y210000*
X258063Y210313*
X257750Y210937*
Y212187*
X258063Y212813*
X258375Y213125*
X259000Y213437*
X259937*
X260563Y213125*
X260875Y212813*
X246813Y475250D02*
X243063D01*
Y477437*
X243375Y478063*
X244000Y478375*
X244625Y478063*
X244937Y477437*
Y475250*
Y477437D02*
X246813Y478375D01*
X243063Y480250D02*
X246813Y480563D01*
X244937Y481813*
X246813Y483063*
X243063Y483375*
X246813Y506250D02*
X243063D01*
Y508437*
X243375Y509063*
X244000Y509375*
X244625Y509063*
X244937Y508437*
Y506250*
Y508437D02*
X246813Y509375D01*
Y511250D02*
X243063D01*
Y514375*
X244937Y513750D02*
Y511250D01*
X246813D02*
Y514375D01*
X245875Y516250D02*
X246500Y516563D01*
X246813Y517187*
Y518437*
X246500Y519063*
X245875Y519375*
X245250Y519063*
X244937Y518437*
Y517187*
X244625Y516563*
X244000Y516250*
X243375Y516563*
X243063Y517187*
Y518437*
X243375Y519063*
X244000Y519375*
X246813Y521250D02*
X243063D01*
Y524375*
X244937Y523750D02*
Y521250D01*
X246813D02*
Y524375D01*
Y527813D02*
X243063D01*
Y526250D02*
Y529375D01*
X248250Y150937D02*
Y152187D01*
X248563Y152813*
X248875Y153125*
X249500Y153437*
X250125*
X250750Y153125*
X251063Y152813*
X251375Y152187*
Y150937*
X251063Y150313*
X250750Y150000*
X250125Y149687*
X249500*
X248875Y150000*
X248563Y150313*
X248250Y150937*
X253250Y153437D02*
Y150625D01*
X253563Y150000*
X254187Y149687*
X255437*
X256063Y150000*
X256375Y150625*
Y153437*
X259813Y149687D02*
Y153437D01*
X258250D02*
X261375D01*
X253313Y32750D02*
X249563D01*
Y34625*
X249875Y35250*
X250187Y35563*
X250813Y35875*
X252063*
X252687Y35563*
X253000Y35250*
X253313Y34625*
Y32750*
Y39313D02*
X249563D01*
X252063Y37750*
Y40250*
X253313Y122750D02*
X249563Y124313D01*
X253313Y125875*
X251750Y123375D02*
Y125250D01*
X253000Y127750D02*
X253313Y128375D01*
Y129313*
X253000Y129937*
X252375Y130250*
X252063*
X251437Y129937*
X251125Y129313*
Y127750*
X249563*
Y130250*
X256813Y455250D02*
X253063D01*
Y457437*
X253375Y458063*
X254000Y458375*
X254625Y458063*
X254937Y457437*
Y455250*
Y457437D02*
X256813Y458375D01*
Y460250D02*
X253063Y461813D01*
X256813Y463375*
X255250Y460875D02*
Y462750D01*
X256813Y465250D02*
X253063D01*
X254937Y466813*
X253063Y468375*
X256813*
Y470250D02*
Y473375D01*
X253063Y475250D02*
X256813Y475563D01*
X254937Y476813*
X256813Y478063*
X253063Y478375*
X256813Y480250D02*
X253063D01*
Y483375*
X254937Y482750D02*
Y480250D01*
X256813D02*
Y483375D01*
Y506250D02*
X253063D01*
Y508437*
X253375Y509063*
X254000Y509375*
X254625Y509063*
X254937Y508437*
Y506250*
Y508437D02*
X256813Y509375D01*
X255563Y511250D02*
X254313D01*
X253687Y511563*
X253375Y511875*
X253063Y512500*
Y513125*
X253375Y513750*
X253687Y514063*
X254313Y514375*
X255563*
X256187Y514063*
X256500Y513750*
X256813Y513125*
Y512500*
X256500Y511875*
X256187Y511563*
X255563Y511250*
X256813Y516250D02*
X253063D01*
X254937Y517813*
X253063Y519375*
X256813*
Y521250D02*
Y524375D01*
X255563Y526250D02*
X254313D01*
X253687Y526563*
X253375Y526875*
X253063Y527500*
Y528125*
X253375Y528750*
X253687Y529063*
X254313Y529375*
X255563*
X256187Y529063*
X256500Y528750*
X256813Y528125*
Y527500*
X256500Y526875*
X256187Y526563*
X255563Y526250*
X256813Y531250D02*
X253063D01*
Y534375*
X254937Y533750D02*
Y531250D01*
X256813D02*
Y534375D01*
X263313Y32750D02*
X259563D01*
Y34625*
X259875Y35250*
X260187Y35563*
X260813Y35875*
X262063*
X262687Y35563*
X263000Y35250*
X263313Y34625*
Y32750*
X263000Y37750D02*
X263313Y38375D01*
Y39313*
X263000Y39937*
X262375Y40250*
X262063*
X261437Y39937*
X261125Y39313*
Y37750*
X259563*
Y40250*
X263313Y122750D02*
X259563Y124313D01*
X263313Y125875*
X261750Y123375D02*
Y125250D01*
X263313Y129313D02*
X259563D01*
X262063Y127750*
Y130250*
X263063Y470250D02*
X266813Y471813D01*
X263063Y473375*
X265875Y475250D02*
X266500Y475563D01*
X266813Y476187*
Y477437*
X266500Y478063*
X265875Y478375*
X265250Y478063*
X264937Y477437*
Y476187*
X264625Y475563*
X264000Y475250*
X263375Y475563*
X263063Y476187*
Y477437*
X263375Y478063*
X264000Y478375*
X265875Y480250D02*
X266500Y480563D01*
X266813Y481187*
Y482437*
X266500Y483063*
X265875Y483375*
X265250Y483063*
X264937Y482437*
Y481187*
X264625Y480563*
X264000Y480250*
X263375Y480563*
X263063Y481187*
Y482437*
X263375Y483063*
X264000Y483375*
X263063Y506250D02*
X266813Y507813D01*
X263063Y509375*
X265875Y511250D02*
X266500Y511563D01*
X266813Y512187*
Y513437*
X266500Y514063*
X265875Y514375*
X265250Y514063*
X264937Y513437*
Y512187*
X264625Y511563*
X264000Y511250*
X263375Y511563*
X263063Y512187*
Y513437*
X263375Y514063*
X264000Y514375*
X265875Y516250D02*
X266500Y516563D01*
X266813Y517187*
Y518437*
X266500Y519063*
X265875Y519375*
X265250Y519063*
X264937Y518437*
Y517187*
X264625Y516563*
X264000Y516250*
X263375Y516563*
X263063Y517187*
Y518437*
X263375Y519063*
X264000Y519375*
X273313Y32750D02*
X269563D01*
Y34625*
X269875Y35250*
X270187Y35563*
X270813Y35875*
X272063*
X272687Y35563*
X273000Y35250*
X273313Y34625*
Y32750*
X272375Y37750D02*
X271750Y38063D01*
X271437Y38687*
Y39313*
X271750Y39937*
X272375Y40250*
X273000Y39937*
X273313Y39313*
Y38687*
X273000Y38063*
X272375Y37750*
X271437*
X270500Y38063*
X269875Y38687*
X269563Y39313*
X273313Y122750D02*
X269563Y124313D01*
X273313Y125875*
X271750Y123375D02*
Y125250D01*
X273000Y128063D02*
X273313Y128687D01*
Y129313*
X273000Y129937*
X272375Y130250*
X271750Y129937*
X271437Y129313*
Y128687*
Y129313D02*
X271125Y129937D01*
X270500Y130250*
X269875Y129937*
X269563Y129313*
Y128687*
X269875Y128063*
X273063Y470250D02*
X276813Y471813D01*
X273063Y473375*
X275875Y475250D02*
X276500Y475563D01*
X276813Y476187*
Y477437*
X276500Y478063*
X275875Y478375*
X275250Y478063*
X274937Y477437*
Y476187*
X274625Y475563*
X274000Y475250*
X273375Y475563*
X273063Y476187*
Y477437*
X273375Y478063*
X274000Y478375*
X275875Y480250D02*
X276500Y480563D01*
X276813Y481187*
Y482437*
X276500Y483063*
X275875Y483375*
X275250Y483063*
X274937Y482437*
Y481187*
X274625Y480563*
X274000Y480250*
X273375Y480563*
X273063Y481187*
Y482437*
X273375Y483063*
X274000Y483375*
X273063Y506250D02*
X276813Y507813D01*
X273063Y509375*
X275875Y511250D02*
X276500Y511563D01*
X276813Y512187*
Y513437*
X276500Y514063*
X275875Y514375*
X275250Y514063*
X274937Y513437*
Y512187*
X274625Y511563*
X274000Y511250*
X273375Y511563*
X273063Y512187*
Y513437*
X273375Y514063*
X274000Y514375*
X275875Y516250D02*
X276500Y516563D01*
X276813Y517187*
Y518437*
X276500Y519063*
X275875Y519375*
X275250Y519063*
X274937Y518437*
Y517187*
X274625Y516563*
X274000Y516250*
X273375Y516563*
X273063Y517187*
Y518437*
X273375Y519063*
X274000Y519375*
X279750Y153250D02*
Y288250D01*
X294750*
X299750Y283250*
X304750Y288250*
X319750*
Y153250*
X279750*
Y310250D02*
Y445250D01*
X294750*
X299750Y440250*
X304750Y445250*
X319750*
Y310250*
X279750*
X283313Y32750D02*
X279563D01*
Y34625*
X279875Y35250*
X280187Y35563*
X280813Y35875*
X282063*
X282687Y35563*
X283000Y35250*
X283313Y34625*
Y32750*
Y37750D02*
X279563Y40250D01*
Y37750*
X283313Y122750D02*
X279563Y124313D01*
X283313Y125875*
X281750Y123375D02*
Y125250D01*
X283313Y130250D02*
Y127750D01*
X281125Y129937*
X280500Y130250*
X279875Y129937*
X279563Y129313*
Y128375*
X279875Y127750*
X293313Y32750D02*
X289563D01*
Y34625*
X289875Y35250*
X290187Y35563*
X290813Y35875*
X292063*
X292687Y35563*
X293000Y35250*
X293313Y34625*
Y32750*
X291437Y38687D02*
Y39313D01*
X291125Y39937*
X290500Y40250*
X289875Y39937*
X289563Y39313*
Y38687*
X289875Y38063*
X290500Y37750*
X291125Y38063*
X291437Y38687*
X291750Y38063*
X292375Y37750*
X293000Y38063*
X293313Y38687*
Y39313*
X293000Y39937*
X292375Y40250*
X291750Y39937*
X291437Y39313*
X293313Y122750D02*
X289563Y124313D01*
X293313Y125875*
X291750Y123375D02*
Y125250D01*
X293313Y128375D02*
Y129625D01*
Y129000D02*
X289563D01*
X290187Y128375*
X301375Y354250D02*
X300750Y354563D01*
X300437Y355187*
Y355813*
X300750Y356437*
X301375Y356750*
X302000Y356437*
X302313Y355813*
Y355187*
X302000Y354563*
X301375Y354250*
X300437*
X299500Y354563*
X298875Y355187*
X298563Y355813*
X302313Y361750D02*
Y359250D01*
X300125Y361437*
X299500Y361750*
X298875Y361437*
X298563Y360813*
Y359875*
X298875Y359250*
X302313Y366750D02*
Y364250D01*
X300125Y366437*
X299500Y366750*
X298875Y366437*
X298563Y365813*
Y364875*
X298875Y364250*
X302000Y369250D02*
X302313Y369875D01*
Y370813*
X302000Y371437*
X301375Y371750*
X301063*
X300437Y371437*
X300125Y370813*
Y369250*
X298563*
Y371750*
X301375Y374250D02*
X300750Y374563D01*
X300437Y375187*
Y375813*
X300750Y376437*
X301375Y376750*
X302000Y376437*
X302313Y375813*
Y375187*
X302000Y374563*
X301375Y374250*
X300437*
X299500Y374563*
X298875Y375187*
X298563Y375813*
X302313Y384250D02*
X298563D01*
Y386437*
X298875Y387063*
X299500Y387375*
X300125Y387063*
X300437Y386437*
Y384250*
Y386437D02*
X302313Y387375D01*
Y389250D02*
X298563Y390813D01*
X302313Y392375*
X300750Y389875D02*
Y391750D01*
X302313Y394250D02*
X298563D01*
X300437Y395813*
X298563Y397375*
X302313*
X302813Y195250D02*
Y192750D01*
X300625Y194937*
X300000Y195250*
X299375Y194937*
X299063Y194313*
Y193375*
X299375Y192750*
X300937Y198687D02*
Y199313D01*
X300625Y199937*
X300000Y200250*
X299375Y199937*
X299063Y199313*
Y198687*
X299375Y198063*
X300000Y197750*
X300625Y198063*
X300937Y198687*
X301250Y198063*
X301875Y197750*
X302500Y198063*
X302813Y198687*
Y199313*
X302500Y199937*
X301875Y200250*
X301250Y199937*
X300937Y199313*
X302187Y205875D02*
X302500Y205563D01*
X302813Y204937*
Y204000*
X302500Y203375*
X302187Y203063*
X301563Y202750*
X300313*
X299687Y203063*
X299375Y203375*
X299063Y204000*
Y204937*
X299375Y205563*
X299687Y205875*
X301875Y207750D02*
X301250Y208063D01*
X300937Y208687*
Y209313*
X301250Y209937*
X301875Y210250*
X302500Y209937*
X302813Y209313*
Y208687*
X302500Y208063*
X301875Y207750*
X300937*
X300000Y208063*
X299375Y208687*
X299063Y209313*
X302813Y214313D02*
X299063D01*
X301563Y212750*
Y215250*
X300937Y219937D02*
X301250Y220563D01*
X301875Y220875*
X302500Y220563*
X302813Y219937*
Y217750*
X299063*
Y219937*
X299375Y220563*
X300000Y220875*
X300625Y220563*
X300937Y219937*
Y217750*
X302813Y222750D02*
X299063D01*
Y224937*
X299375Y225563*
X300000Y225875*
X300625Y225563*
X300937Y224937*
Y222750*
X302813Y232750D02*
X299063D01*
Y234937*
X299375Y235563*
X300000Y235875*
X300625Y235563*
X300937Y234937*
Y232750*
Y234937D02*
X302813Y235875D01*
X301563Y237750D02*
X300313D01*
X299687Y238063*
X299375Y238375*
X299063Y239000*
Y239625*
X299375Y240250*
X299687Y240563*
X300313Y240875*
X301563*
X302187Y240563*
X302500Y240250*
X302813Y239625*
Y239000*
X302500Y238375*
X302187Y238063*
X301563Y237750*
X302813Y242750D02*
X299063D01*
X300937Y244313*
X299063Y245875*
X302813*
X303313Y32750D02*
X299563D01*
Y34625*
X299875Y35250*
X300187Y35563*
X300813Y35875*
X302063*
X302687Y35563*
X303000Y35250*
X303313Y34625*
Y32750*
Y38687D02*
X303000Y39313D01*
X302375Y39937*
X301437Y40250*
X300500*
X299875Y39937*
X299563Y39313*
Y38687*
X299875Y38063*
X300500Y37750*
X301125Y38063*
X301437Y38687*
Y39313*
X301125Y39937*
X300500Y40250*
X303313Y122750D02*
X299563Y124313D01*
X303313Y125875*
X301750Y123375D02*
Y125250D01*
X303000Y128063D02*
X303313Y128687D01*
Y129313*
X303000Y129937*
X302375Y130250*
X300500*
X299875Y129937*
X299563Y129313*
Y128687*
X299875Y128063*
X300500Y127750*
X302375*
X303000Y128063*
X299875Y129937*
X309750Y296750D02*
X304750D01*
X309750Y453250D02*
X304750D01*
X313875Y460313D02*
X313563Y460000D01*
X312937Y459687*
X312000*
X311375Y460000*
X311063Y460313*
X310750Y460937*
Y462187*
X311063Y462813*
X311375Y463125*
X312000Y463437*
X312937*
X313563Y463125*
X313875Y462813*
X316687Y461563D02*
X317313D01*
X317937Y461875*
X318250Y462500*
X317937Y463125*
X317313Y463437*
X316687*
X316063Y463125*
X315750Y462500*
X316063Y461875*
X316687Y461563*
X316063Y461250*
X315750Y460625*
X316063Y460000*
X316687Y459687*
X317313*
X317937Y460000*
X318250Y460625*
X317937Y461250*
X317313Y461563*
X314375Y303813D02*
X314063Y303500D01*
X313437Y303187*
X312500*
X311875Y303500*
X311563Y303813*
X311250Y304437*
Y305687*
X311563Y306313*
X311875Y306625*
X312500Y306937*
X313437*
X314063Y306625*
X314375Y306313*
X317813Y303187D02*
Y306937D01*
X316250Y304437*
X318750*
X313313Y27750D02*
X309563D01*
Y29625*
X309875Y30250*
X310187Y30563*
X310813Y30875*
X312063*
X312687Y30563*
X313000Y30250*
X313313Y29625*
Y27750*
Y33375D02*
Y34625D01*
Y34000D02*
X309563D01*
X310187Y33375*
X313000Y38063D02*
X313313Y38687D01*
Y39313*
X313000Y39937*
X312375Y40250*
X310500*
X309875Y39937*
X309563Y39313*
Y38687*
X309875Y38063*
X310500Y37750*
X312375*
X313000Y38063*
X309875Y39937*
X313313Y122750D02*
X309563Y124313D01*
X313313Y125875*
X311750Y123375D02*
Y125250D01*
X313313Y127750D02*
X309563D01*
Y129937*
X309875Y130563*
X310500Y130875*
X311125Y130563*
X311437Y129937*
Y127750*
Y129937D02*
X313313Y130875D01*
Y132750D02*
X309563D01*
Y135875*
X311437Y135250D02*
Y132750D01*
X313313D02*
Y135875D01*
Y137750D02*
X309563D01*
Y140875*
X311437Y140250D02*
Y137750D01*
X319750Y301750D02*
Y291750D01*
X309750*
Y301750*
X319750*
Y458250D02*
Y448250D01*
X309750*
Y458250*
X319750*
X323313Y27750D02*
X319563D01*
Y29625*
X319875Y30250*
X320187Y30563*
X320813Y30875*
X322063*
X322687Y30563*
X323000Y30250*
X323313Y29625*
Y27750*
Y33375D02*
Y34625D01*
Y34000D02*
X319563D01*
X320187Y33375*
X323313Y38375D02*
Y39625D01*
Y39000D02*
X319563D01*
X320187Y38375*
X323000Y123063D02*
X323313Y123687D01*
Y124313*
X323000Y124937*
X322375Y125250*
X321750Y124937*
X321437Y124313*
Y123687*
Y124313D02*
X321125Y124937D01*
X320500Y125250*
X319875Y124937*
X319563Y124313*
Y123687*
X319875Y123063*
X319563Y127750D02*
X323313Y129313D01*
X319563Y130875*
X323000Y133063D02*
X323313Y133687D01*
Y134313*
X323000Y134937*
X322375Y135250*
X321750Y134937*
X321437Y134313*
Y133687*
Y134313D02*
X321125Y134937D01*
X320500Y135250*
X319875Y134937*
X319563Y134313*
Y133687*
X319875Y133063*
X324750Y296750D02*
X319750D01*
X324750Y453250D02*
X319750D01*
X333313Y27750D02*
X329563D01*
Y29625*
X329875Y30250*
X330187Y30563*
X330813Y30875*
X332063*
X332687Y30563*
X333000Y30250*
X333313Y29625*
Y27750*
Y33375D02*
Y34625D01*
Y34000D02*
X329563D01*
X330187Y33375*
X333313Y40250D02*
Y37750D01*
X331125Y39937*
X330500Y40250*
X329875Y39937*
X329563Y39313*
Y38375*
X329875Y37750*
X333313Y122750D02*
X329563D01*
Y124625*
X329875Y125250*
X330187Y125563*
X330813Y125875*
X332063*
X332687Y125563*
X333000Y125250*
X333313Y124625*
Y122750*
Y128375D02*
Y129625D01*
Y129000D02*
X329563D01*
X330187Y128375*
X333000Y133063D02*
X333313Y133687D01*
Y134313*
X333000Y134937*
X332375Y135250*
X331750Y134937*
X331437Y134313*
Y133687*
Y134313D02*
X331125Y134937D01*
X330500Y135250*
X329875Y134937*
X329563Y134313*
Y133687*
X329875Y133063*
D02*
D15*
X80250Y484750D02*
X280250D01*
Y504750*
X80250*
Y484750*
D02*
D16*
X130750Y128750D02*
X133250D01*
Y123750D02*
Y133750D01*
X163250*
Y123750*
X133250*
X158250D02*
Y133750D01*
X163250*
Y123750*
X158250*
X163250Y128750D02*
X165750D01*
X0Y0D02*
M02*
