G04 EasyPC Gerber Version 20.0.2 Build 4112 *
G04 #@! TF.Part,Single*
G04 #@! TF.FileFunction,Copper,L4,Bot *
%FSLAX35Y35*%
%MOIN*%
G04 #@! TA.AperFunction,ComponentPad*
%ADD71R,0.06000X0.06000*%
G04 #@! TD.AperFunction*
%ADD11C,0.00787*%
G04 #@! TA.AperFunction,ViaPad*
%ADD25C,0.03200*%
%ADD23C,0.05600*%
G04 #@! TA.AperFunction,ComponentPad*
%ADD70C,0.06000*%
%ADD21C,0.07000*%
%ADD22C,0.08600*%
G04 #@! TA.AperFunction,WasherPad*
%ADD77C,0.15748*%
G04 #@! TA.AperFunction,ComponentPad*
%ADD78C,0.18110*%
%ADD19O,0.11000X0.06000*%
%ADD79C,0.21102*%
X0Y0D02*
D02*
D11*
X24494Y47788D02*
X74743D01*
G75*
G02X80518Y42013J-5775*
G01*
Y40899*
G75*
G03X86293Y35124I5775*
G01*
X96952*
G75*
G02X99385Y32692J-2432*
G01*
Y31578*
G75*
G03X101373Y29590I1988*
G01*
X102486*
Y28477*
G75*
G03X106154Y24809I3668*
G01*
X244376*
G75*
G03X252250Y32683J7874*
G01*
Y52250*
X26069Y418569D02*
X34697D01*
G75*
G02X42212Y411054J-7515*
G01*
Y400624*
G75*
G03X50086Y392750I7874*
G01*
X92750*
X28569Y36309D02*
X27456D01*
G75*
G02X21344Y42420J6111*
G01*
Y427604*
G75*
G02X26491Y432750I5146*
G01*
X32750*
Y120250D02*
Y129250D01*
Y120250D02*
Y110250D01*
Y201750D02*
Y272750*
Y312750*
X84863D01*
X32750Y322750D02*
X34024Y36309*
X50507D01*
X36805Y24805D02*
Y17853D01*
G75*
G03X42644Y12014I5839*
G01*
X260195*
G75*
G03X268069Y19888J7874*
G01*
Y109182*
G75*
G02X271137Y112250I3068*
G01*
X272250*
X38569Y50569D02*
X30187D01*
G75*
G02X22919Y57837J7268*
G01*
Y408391*
G75*
G02X27278Y412750I4359*
G01*
X32750*
X38569Y94931D02*
X76931D01*
Y93818*
G75*
G03X79855Y90894I2924*
G01*
X181826*
G75*
G03X184606Y93674J2780*
G01*
Y108069*
X43250Y90750D02*
X72750D01*
X50507Y59931D02*
X232250D01*
X53288Y112250D02*
Y246431D01*
X58569Y456931D02*
X77726D01*
Y455856*
X121895*
G75*
G02X127569Y450182J-5674*
G01*
Y449069*
X64750Y275250D02*
Y261250D01*
G75*
G02X61750Y258250I-3000*
G01*
G75*
G03X56750Y253250J-5000*
G01*
Y217250*
X55750*
Y148250*
G75*
G03X56750Y147250I1000*
G01*
X64750Y134250*
G75*
G03X74931Y124069I10181*
G01*
X101347*
G75*
G02X106931Y118485J-5584*
G01*
Y110788*
X72750Y206363D02*
Y129250D01*
X73738Y285531D02*
X55624D01*
G75*
G03X47750Y277657J-7874*
G01*
Y206250*
G75*
G02X46250Y204750I-1500*
G01*
G75*
G03X45750Y204250J-500*
G01*
Y199750*
G75*
G03X46250Y199250I500*
G01*
G75*
G02X47750Y197750J-1500*
G01*
Y113847*
G75*
G03X53288Y108309I5844J306*
G01*
Y108263*
X73738Y382750D02*
X32750D01*
X76931Y134231D02*
Y268250D01*
X76750*
X79300Y422750D02*
X32750D01*
X79300Y502531D02*
Y465305D01*
G75*
G03X87174Y457431I7874*
G01*
X135470*
G75*
G03X138712Y460674J3243*
G01*
Y461787*
X232876*
G75*
G03X240750Y469661J7874*
G01*
Y485363*
G75*
G03X236363Y489750I-4387*
G01*
X235250*
X80788Y99931D02*
X125950D01*
X82081Y306931D02*
X39431D01*
Y305818*
G75*
G02X36363Y302750I-3068*
G01*
X32750*
X82250Y201750D02*
Y222250D01*
X84863Y300919D02*
X58750D01*
X86069Y327494D02*
X228659D01*
G75*
G03X232802Y331637J4143*
G01*
Y332750*
X240750*
X92469Y474118D02*
Y460212D01*
X99431Y230188D02*
X168507D01*
X99431Y446931D02*
X34400D01*
G75*
G02X28569Y452763J5831*
G01*
Y509668*
X99431Y468556D02*
Y469669D01*
G75*
G02X101099Y471337I1668*
G01*
X197376*
G75*
G03X205250Y479211J7874*
G01*
Y489750*
X100637Y352750D02*
X180750D01*
X100637Y392750D02*
X92750D01*
X101469Y201750D02*
Y200637D01*
G75*
G03X104537Y197569I3068*
G01*
X112288*
X102212Y262750D02*
X92750D01*
X102212Y432750D02*
X103326D01*
G75*
G02X110894Y425181J-7569*
G01*
Y394805*
G75*
G02X103020Y386931I-7874*
G01*
X89131*
G75*
G03X86069Y383869J-3062*
G01*
Y382756*
G75*
G03X90319Y378506I4250*
G01*
X110151*
G75*
G03X115788Y384143J5637*
G01*
Y417914*
G75*
G02X123662Y425788I7874*
G01*
X148158*
G75*
G03X150969Y428599J2811*
G01*
Y429712*
X167569*
Y428569*
X237682*
G75*
G03X240750Y431637J3068*
G01*
Y432750*
X105250Y499750D02*
X105825Y140444*
X274376D01*
G75*
G02X282250Y132570J-7874*
G01*
Y112250*
X105825Y298137D02*
X37024D01*
G75*
G03X32750Y293863J-4274*
G01*
Y292750*
X106931Y46863D02*
X237976D01*
G75*
G03X242250Y51137J4274*
G01*
Y52250*
X107081Y355531D02*
X171288D01*
X107081Y362750D02*
X180750D01*
X109507Y147569D02*
X160431D01*
X109507Y292750D02*
X92750D01*
X109863Y338137D02*
Y333046D01*
G75*
G03X113840Y329069I3978*
G01*
X178182*
G75*
G03X180750Y331637J2568*
G01*
Y332750*
X112288Y143226D02*
X200007D01*
X112469Y382750D02*
X92750D01*
X112469D02*
X112644D01*
X112469D02*
Y429412D01*
G75*
G02X119988Y436931I7519*
G01*
X128620*
G75*
G03X133325Y441636J4705*
G01*
Y442749*
G75*
G02X139144Y448569I5820*
G01*
X240750*
Y449712*
X112644Y374150D02*
X173048D01*
X115069Y157506D02*
X214685D01*
G75*
G03X218931Y161752J4246*
G01*
Y165931*
X115250Y489750D02*
X116069Y276931*
X88743D01*
G75*
G03X86924Y278750I-1819*
G01*
X58124*
G75*
G03X49750Y270376J-8374*
G01*
Y201750*
X117769Y134231D02*
X254376D01*
G75*
G02X262250Y126357J-7874*
G01*
Y112250*
X118569Y336931D02*
Y333251D01*
G75*
G03X122751Y329069I4182*
G01*
X191851*
G75*
G03X194419Y331637J2568*
G01*
Y332750*
X118569Y382750D02*
Y383863D01*
G75*
G02X121637Y386931I3068*
G01*
X189975*
G75*
G03X194419Y391374J4443*
G01*
Y392488*
G75*
G02X198862Y396931I4443*
G01*
X272738*
G75*
G02X277637Y392032J-4899*
G01*
Y390919*
X121384Y63175D02*
X32368D01*
G75*
G02X24494Y71049J7874*
G01*
Y385607*
G75*
G02X31637Y392750I7143*
G01*
X32750*
X122750Y312750D02*
X123250Y113810*
Y128750D01*
X124788Y346931D02*
X102212D01*
X124788D02*
X160637D01*
X128731Y123269D02*
Y123418D01*
X148850*
Y123269*
X247297*
G75*
G02X252250Y118316J-4953*
G01*
Y112250*
X131750Y442750D02*
Y453250D01*
Y442750D02*
X92750D01*
X131750D02*
Y441637D01*
G75*
G02X128619Y438506I-3131*
G01*
X26569*
G75*
G03X18695Y430632J-7874*
G01*
Y14569*
G75*
G03X26569Y6695I7874*
G01*
X336431*
G75*
G03X344305Y14569J7874*
G01*
Y46779*
G75*
G03X338834Y52250I-5471*
G01*
X332250*
X133150Y292750D02*
X152750D01*
X135931Y262750D02*
X137044D01*
G75*
G02X143081Y256713J-6037*
G01*
Y247362*
G75*
G02X140301Y244581I-2780*
G01*
X104524*
G75*
G03X96650Y236707J-7874*
G01*
Y227407*
X98431*
Y145091*
G75*
G03X105859Y137663I7428*
G01*
X270195*
G75*
G02X278069Y129789J-7874*
G01*
Y63680*
G75*
G03X285318Y56431I7249*
G01*
X286431*
X135931Y408137D02*
X304663D01*
G75*
G02X309493Y403307J-4831*
G01*
Y397363*
X137569Y69431D02*
X254376D01*
G75*
G02X262250Y61557J-7874*
G01*
Y52250*
X138712Y418137D02*
X265476D01*
G75*
G02X269750Y413863J-4274*
G01*
Y412750*
X140300Y211750D02*
X153750D01*
X140300Y247363D02*
X97024D01*
G75*
G02X92750Y251637J4274*
G01*
Y252750*
X143081Y207569D02*
X244709D01*
G75*
G03X251419Y214278J6709*
G01*
Y215750*
X269750*
X147569Y74694D02*
X33943D01*
G75*
G02X26069Y82568J7874*
G01*
Y367182*
G75*
G02X31637Y372750I5568*
G01*
X32750*
X152750Y262750D02*
Y263863D01*
G75*
G03X148476Y268137I-4274*
G01*
X96249*
G75*
G02X92750Y271637J3499*
G01*
Y272750*
X152750Y468556D02*
X217376D01*
G75*
G03X225250Y476430J7874*
G01*
Y489750*
X153750Y426931D02*
X325044D01*
G75*
G03X329750Y431637J4706*
G01*
Y432750*
X156931Y337431D02*
X143081D01*
X156931Y434150D02*
X135931D01*
Y432751*
G75*
G02X131749Y428569I-4182*
G01*
X115250*
X157081Y443700D02*
Y444813D01*
G75*
G02X159200Y446931I2118*
G01*
X306712*
Y445788*
X160431Y175931D02*
X173081D01*
X162212Y227407D02*
Y226431D01*
X129431*
X164788Y322750D02*
X180750D01*
X164788D02*
X160637D01*
X164788Y348137D02*
Y349712D01*
X99431*
Y348137*
X90690*
G75*
G02X86069Y352759J4621*
G01*
Y353872*
G75*
G02X89128Y356931I3059*
G01*
X99857*
G75*
G03X104300Y361374J4443*
G01*
Y362722*
G75*
G02X108510Y366931I4209*
G01*
X187431*
Y365725*
X193519*
G75*
G03X195250Y367456J1731*
G01*
Y368569*
X260001*
G75*
G03X263069Y371637J3068*
G01*
Y372750*
X269750*
X164788Y441287D02*
Y440174D01*
G75*
G03X166393Y438569I1605*
G01*
X265044*
G75*
G02X269750Y433863J-4706*
G01*
Y432750*
X167325Y150175D02*
Y151289D01*
G75*
G02X171967Y155931I4643*
G01*
X222212*
X167569Y416931D02*
X261863D01*
Y415818*
G75*
G03X264930Y412750I3068*
G01*
X269750*
X168507Y272750D02*
X152750D01*
X168507Y284581D02*
Y283468D01*
G75*
G03X169225Y282750I718*
G01*
X180750*
X170106Y171750D02*
X153750D01*
X171288Y244056D02*
X195006D01*
G75*
G03X199981Y249030J4975*
G01*
Y250144*
X171288Y258569D02*
X150250D01*
G75*
G02X146069Y262750J4181*
G01*
Y263863*
G75*
G03X144401Y265531I-1668*
G01*
X133150*
Y264418*
G75*
G02X131482Y262750I-1668*
G01*
X122750*
X171288Y298506D02*
X184026D01*
G75*
G02X190431Y292100J-6406*
G01*
Y284581*
X172863Y339969D02*
Y342750D01*
X180750*
X172863Y339969D02*
X164788D01*
X172863D02*
Y338856D01*
G75*
G02X171438Y337431I-1424*
G01*
X156931*
X173081Y161750D02*
X183750D01*
X174069Y235750D02*
Y236863D01*
G75*
G02X179686Y242481I5617*
G01*
X263019*
G75*
G02X264644Y240856J-1624*
G01*
Y239743*
G75*
G03X268637Y235750I3993*
G01*
X269750*
X175250Y457431D02*
Y458544D01*
G75*
G02X176918Y460212I1668*
G01*
X269750*
X180750Y322750D02*
X181825Y93675*
Y112763D01*
G75*
G03X173951Y120637I-7874*
G01*
X146069*
X184606Y88113D02*
Y86569D01*
X32751*
G75*
G02X28569Y90751J4182*
G01*
Y136683*
G75*
G02X34136Y142250I5567*
G01*
X41069*
G75*
G03X45250Y146431J4181*
G01*
Y195250*
G75*
G03X43750Y196750I-1500*
G01*
G75*
G02X42250Y198250J1500*
G01*
Y205750*
G75*
G02X43750Y207250I1500*
G01*
G75*
G03X45250Y208750J1500*
G01*
Y282270*
G75*
G02X53124Y290144I7874*
G01*
X79300*
X187431Y248569D02*
Y254126D01*
G75*
G02X191874Y258569I4443*
G01*
X243678*
G75*
G03X250212Y265103J6534*
G01*
Y266895*
G75*
G03X244357Y272750I-5855*
G01*
X240750*
X187431Y356931D02*
Y355818D01*
G75*
G03X194743Y348506I7312*
G01*
X266619*
G75*
G03X269750Y351637J3131*
G01*
Y352750*
X190431Y167569D02*
X160431D01*
X192469Y368506D02*
X95881D01*
G75*
G02X92750Y371637J3131*
G01*
Y372750*
X192469Y368506D02*
Y369619D01*
G75*
G02X195600Y372750I3131*
G01*
X240750*
X194419Y220363D02*
X265476D01*
G75*
G03X269750Y224637J4274*
G01*
Y225750*
X194419Y332750D02*
X180750D01*
X195250Y474118D02*
Y489750D01*
X196825Y352750D02*
Y360429D01*
G75*
G02X203390Y366994I6565*
G01*
X266619*
G75*
G02X269750Y363863J-3131*
G01*
Y362750*
X197200Y262750D02*
X180750D01*
X199981Y171750D02*
X183750D01*
X201301Y382750D02*
X232275D01*
X202469Y300081D02*
Y301287D01*
X167569*
X202469Y300081D02*
X182306D01*
G75*
G02X180750Y301637J1556*
G01*
Y302750*
X202469Y309969D02*
Y308569D01*
X95818*
G75*
G02X92750Y311637J3068*
G01*
Y312750*
X204082Y432750D02*
X240750D01*
X205569Y147569D02*
Y146456D01*
G75*
G03X208799Y143226I3230*
G01*
X277414*
G75*
G03X285288Y151100J7874*
G01*
Y183695*
G75*
G03X277414Y191569I-7874*
G01*
X263069*
X205619Y311369D02*
X205250D01*
Y312750*
X180750*
X205619Y311369D02*
Y308981D01*
G75*
G03X207237Y307363I1618*
G01*
X208350*
X205619Y311369D02*
X209556D01*
X208288Y474118D02*
X216150D01*
X208350Y245750D02*
X269750D01*
X212150Y339969D02*
Y341082D01*
G75*
G02X217999Y346931I5849*
G01*
X266682*
G75*
G02X269750Y343863J-3068*
G01*
Y342750*
X212325Y356931D02*
X247431D01*
X216150Y262750D02*
X240750D01*
X216150Y319712D02*
Y320826D01*
G75*
G02X221244Y325919I5094*
G01*
X234377*
Y326931*
X261863*
Y325818*
G75*
G03X264930Y322750I3068*
G01*
X269750*
X216150Y352750D02*
X240750D01*
X218931Y147569D02*
Y148682D01*
G75*
G02X221999Y151750I3068*
G01*
X242250*
X218931Y292750D02*
X240750D01*
X225250Y277363D02*
X157024D01*
G75*
G02X152750Y281637J4274*
G01*
Y282750*
X228031Y185931D02*
X249633D01*
G75*
G02X257507Y178057J-7874*
G01*
Y156662*
G75*
G03X265381Y148788I7874*
G01*
X276432*
G75*
G03X279212Y151568J2780*
G01*
Y171576*
G75*
G03X275038Y175750I-4174*
G01*
X269750*
X228031Y334325D02*
Y335438D01*
G75*
G02X229524Y336931I1493*
G01*
X266682*
G75*
G02X269750Y333863J-3068*
G01*
Y332750*
X228031Y362750D02*
X240750D01*
X230812Y314150D02*
X208874D01*
G75*
G02X206775Y316249J2099*
G01*
Y317363*
X97024*
G75*
G02X92750Y321637J4274*
G01*
Y322750*
X230812D02*
X240750D01*
X232250Y52250D02*
X234069Y465774*
X99444D01*
G75*
G02X95250Y469968J4194*
G01*
Y489750*
X234853Y376931D02*
X86226D01*
G75*
G03X82081Y372786J-4145*
G01*
Y367528*
G75*
G03X86859Y362750I4778*
G01*
X92750*
X235250Y499750D02*
X240750Y282750*
X193212D01*
Y281800*
X190436*
G75*
G02X187431Y284805J3005*
G01*
Y285919*
G75*
G03X184781Y288569I-2650*
G01*
X175756*
G75*
G02X168507Y295818J7249*
G01*
Y296931*
X127456*
G75*
G02X122750Y301637J4706*
G01*
Y302750*
X240750D02*
X207111D01*
G75*
G02X204044Y305818J3068*
G01*
Y306931*
X116069*
Y305818*
G75*
G02X113001Y302750I-3068*
G01*
X92750*
X240750Y342750D02*
X226456D01*
Y341637*
G75*
G02X222007Y337188I-4449*
G01*
X212149*
G75*
G02X209369Y339968J2780*
G01*
Y341081*
G75*
G03X203519Y346931I-5850*
G01*
X171288*
Y345818*
G75*
G02X168220Y342750I-3068*
G01*
X92750*
X246225Y484363D02*
X247338D01*
G75*
G03X250637Y487662J3299*
G01*
Y489557*
G75*
G03X244626Y495569I-6012*
G01*
X188318*
G75*
G02X185250Y498637J3068*
G01*
Y499750*
X247431Y266931D02*
X193343D01*
G75*
G02X188637Y271637J4706*
G01*
Y272750*
X180750*
X247431Y288569D02*
X202469D01*
X247431Y356931D02*
Y358506D01*
X276126*
G75*
G02X283456Y351175J-7331*
G01*
Y318919*
G75*
G02X281900Y317363I-1556*
G01*
X280787*
X248637Y215931D02*
X113312D01*
G75*
G02X112288Y216956J1024*
G01*
Y218069*
X249006Y457431D02*
X192399D01*
G75*
G03X187431Y452463J-4968*
G01*
Y451350*
X250212Y372750D02*
X240750D01*
X252507Y275826D02*
Y276931D01*
X234069*
Y275818*
G75*
G02X228614Y270363I-5455*
G01*
X216150*
X252507Y275826D02*
Y275750D01*
X269750*
X255288Y146007D02*
Y168489D01*
G75*
G03X247414Y176363I-7874*
G01*
X188024*
G75*
G02X183750Y180637J4274*
G01*
Y181750*
X255288Y232969D02*
X174090D01*
G75*
G02X168507Y238552J5583*
G01*
Y247185*
G75*
G02X174072Y252750I5565*
G01*
X180750*
X255288Y272969D02*
X256401D01*
G75*
G02X263069Y266301J-6668*
G01*
Y251569*
X255288Y349712D02*
X259938D01*
G75*
G03X261863Y351637J1924*
G01*
Y352750*
X269750*
X256981Y432750D02*
X269750D01*
X256981Y442750D02*
X269750D01*
X258069Y44062D02*
Y50804D01*
G75*
G03X252441Y56431I-5628*
G01*
X181825*
X260288Y398506D02*
X119863D01*
X260288D02*
X298838D01*
G75*
G02X306712Y390632J-7874*
G01*
Y351350*
X306887*
Y339233*
G75*
G02X301785Y334131I-5102*
G01*
X295569*
X260288Y398506D02*
Y399619D01*
G75*
G02X263419Y402750I3131*
G01*
X269750*
X265031Y302750D02*
X240750D01*
X265031D02*
X276431D01*
X269750Y265750D02*
X270863D01*
G75*
G02X276431Y260182J-5568*
G01*
Y231569*
X269750Y298569D02*
X234069D01*
Y300081*
X202469*
X269750Y442750D02*
X272250Y88113*
Y52250D01*
X272531Y295531D02*
X279338D01*
G75*
G03X285031Y301224J5693*
G01*
Y355666*
G75*
G03X277947Y362750I-7084*
G01*
X269750*
X276431Y231569D02*
X267249D01*
G75*
G02X263069Y235749J4180*
G01*
Y236863*
G75*
G03X262350Y237581I-719*
G01*
X252507*
X276431Y231569D02*
Y215763D01*
G75*
G02X270600Y209931I-5831*
G01*
X264284*
G75*
G03X259081Y204729J-5202*
G01*
Y159443*
G75*
G03X266956Y151569I7874*
G01*
X276431*
Y289931D02*
X282019D01*
G75*
G02X286494Y285456J-4475*
G01*
Y213565*
G75*
G02X278679Y205750I-7815*
G01*
X269750*
X276431Y308569D02*
X218931D01*
X276431Y316931D02*
X209556D01*
X276431Y326931D02*
Y328506D01*
X266200*
G75*
G02X263069Y331637J3131*
G01*
Y332750*
X240750*
X276431Y338569D02*
X243818D01*
G75*
G02X240750Y341637J3068*
G01*
Y342750*
X276431Y436931D02*
Y432752D01*
G75*
G02X272185Y428506I-4246*
G01*
X254743*
G75*
G02X247431Y435818J7312*
G01*
Y436931*
X166537*
G75*
G03X163213Y433607J-3324*
G01*
Y432493*
X279212Y279931D02*
X263069D01*
X279212Y329969D02*
Y326943D01*
G75*
G02X275019Y322750I-4193*
G01*
X269750*
X279212Y352750D02*
Y353863D01*
G75*
G03X276144Y356931I-3068*
G01*
X256863*
Y355818*
G75*
G02X253795Y352750I-3068*
G01*
X240750*
X279212Y439969D02*
X303652D01*
G75*
G03X309493Y445810J5841*
G01*
Y499750*
X282250Y305788D02*
Y306931D01*
X245456*
G75*
G02X240750Y311637J4706*
G01*
Y312750*
X289644Y317363D02*
Y318476D01*
G75*
G02X293918Y322750I4274*
G01*
X306887*
X292788Y326931D02*
X309668D01*
X294657Y309969D02*
Y305788D01*
X296431Y12014D02*
Y109182D01*
G75*
G03X293363Y112250I-3068*
G01*
X292250*
X299212Y38500D02*
X323608D01*
G75*
G03X329212Y44104J5604*
G01*
Y45218*
G75*
G03X327567Y46863I-1645*
G01*
X316524*
G75*
G02X312250Y51137J4274*
G01*
Y52250*
X302250Y41281D02*
Y52250D01*
Y112250D02*
X302531Y148788*
Y235750D01*
X303931Y388137D02*
X245024D01*
G75*
G03X240750Y383863J-4274*
G01*
Y382750*
X303931Y457431D02*
Y458544D01*
G75*
G03X299482Y462993I-4449*
G01*
X251318*
G75*
G02X243444Y470867J7874*
G01*
Y489750*
X245250*
X304106Y312750D02*
X294657D01*
G75*
G03X291876Y309969J-2781*
G01*
Y143226*
X304106Y348569D02*
Y359057D01*
G75*
G03X296232Y366931I-7874*
G01*
X276431*
X306712Y255750D02*
Y51956D01*
G75*
G03X314586Y44081I7874*
G01*
X326431*
X306712Y261569D02*
X301015D01*
G75*
G03X296431Y256985J-4584*
G01*
Y116431*
X306712Y451350D02*
Y458516D01*
G75*
G03X300660Y464568I-6052*
G01*
X268943*
G75*
G02X261069Y472442J7874*
G01*
Y495044*
G75*
G03X256363Y499750I-4706*
G01*
X255250*
X309493Y195750D02*
Y302750D01*
Y362750D02*
Y338018D01*
G75*
G02X301619Y330144I-7874*
G01*
X293556*
G75*
G03X286606Y323194J-6950*
G01*
Y300624*
G75*
G02X278732Y292750I-7874*
G01*
X240750*
X309493Y410919D02*
X310607D01*
G75*
G02X312274Y409251J-1668*
G01*
Y345531*
X311944*
Y330144*
X312449*
Y308569*
X311944*
X312274Y264350D02*
Y225750D01*
X314726Y305788D02*
X294657D01*
X314726D02*
Y342750D01*
Y305788D02*
X316431D01*
Y191574*
G75*
G02X310607Y185750I-5824*
G01*
X309493*
X315230Y362750D02*
Y410695D01*
G75*
G03X307356Y418569I-7874*
G01*
X279212*
X317507Y182969D02*
X318713D01*
Y322750*
X317507*
X320288Y175750D02*
Y327363D01*
Y432750D02*
X329750D01*
X323069Y386931D02*
Y414876D01*
G75*
G03X315195Y422750I-7874*
G01*
X269750*
X323069Y386931D02*
X333359D01*
G75*
G03X339212Y392784J5853*
G01*
Y503194*
G75*
G03X331338Y511068I-7874*
G01*
X140352*
G75*
G03X135250Y505966J-5102*
G01*
Y499750*
X323069Y386931D02*
Y151569D01*
X325569Y495137D02*
Y457431D01*
X329750Y143226D02*
Y155750D01*
Y215750D02*
Y225750*
Y322750*
Y332750*
Y412750*
X333931Y449069*
Y496057D01*
G75*
G03X326057Y503931I-7874*
G01*
X198318*
G75*
G03X195250Y500863J-3068*
G01*
Y499750*
X336431Y239931D02*
X337544D01*
G75*
G03X344774Y247161J7230*
G01*
Y372750*
X343200*
X336431Y392750D02*
X329750D01*
X336431D02*
Y416931D01*
Y392750D02*
X337637D01*
Y501619*
G75*
G03X329763Y509493I-7874*
G01*
X159565*
G75*
G03X155250Y505178J-4315*
G01*
Y499750*
X337637Y264350D02*
X338751D01*
G75*
G02X343200Y259901J-4449*
G01*
Y251918*
G75*
G02X337031Y245750I-6168*
G01*
X329750*
X340419Y187137D02*
Y174443D01*
G75*
G02X337544Y171569I-2874*
G01*
X336431*
X340419Y255750D02*
X329750D01*
X343200Y235750D02*
X329750D01*
X343200Y372750D02*
X329750D01*
X343200D02*
Y516630D01*
D02*
D19*
X32750Y151750D03*
Y161750D03*
Y171750D03*
Y181750D03*
Y191750D03*
Y201750D03*
Y211750D03*
Y252750D03*
Y262750D03*
Y272750D03*
Y282750D03*
Y292750D03*
Y302750D03*
Y312750D03*
Y322750D03*
Y332750D03*
Y342750D03*
Y352750D03*
Y362750D03*
Y372750D03*
Y382750D03*
Y392750D03*
Y402750D03*
Y412750D03*
Y422750D03*
Y432750D03*
Y442750D03*
X62750Y151750D03*
Y161750D03*
Y171750D03*
Y181750D03*
Y191750D03*
Y201750D03*
Y211750D03*
X91750Y151750D03*
Y161750D03*
Y171750D03*
Y181750D03*
Y191750D03*
Y201750D03*
Y211750D03*
X92750Y252750D03*
Y262750D03*
Y272750D03*
Y282750D03*
Y292750D03*
Y302750D03*
Y312750D03*
Y322750D03*
Y332750D03*
Y342750D03*
Y352750D03*
Y362750D03*
Y372750D03*
Y382750D03*
Y392750D03*
Y402750D03*
Y412750D03*
Y422750D03*
Y432750D03*
Y442750D03*
X121750Y151750D03*
Y161750D03*
Y171750D03*
Y181750D03*
Y191750D03*
Y201750D03*
Y211750D03*
X122750Y252750D03*
Y262750D03*
Y272750D03*
Y282750D03*
Y292750D03*
Y302750D03*
Y312750D03*
Y322750D03*
X152750Y252750D03*
Y262750D03*
Y272750D03*
Y282750D03*
Y292750D03*
Y302750D03*
Y312750D03*
Y322750D03*
X153750Y151750D03*
Y161750D03*
Y171750D03*
Y181750D03*
Y191750D03*
Y201750D03*
Y211750D03*
X180750Y252750D03*
Y262750D03*
Y272750D03*
Y282750D03*
Y292750D03*
Y302750D03*
Y312750D03*
Y322750D03*
Y332750D03*
Y342750D03*
Y352750D03*
Y362750D03*
Y372750D03*
Y382750D03*
Y392750D03*
Y402750D03*
Y412750D03*
Y422750D03*
Y432750D03*
Y442750D03*
X183750Y151750D03*
Y161750D03*
Y171750D03*
Y181750D03*
Y191750D03*
Y201750D03*
Y211750D03*
X212250Y151750D03*
Y161750D03*
Y171750D03*
Y181750D03*
Y191750D03*
Y201750D03*
Y211750D03*
X240750Y252750D03*
Y262750D03*
Y272750D03*
Y282750D03*
Y292750D03*
Y302750D03*
Y312750D03*
Y322750D03*
Y332750D03*
Y342750D03*
Y352750D03*
Y362750D03*
Y372750D03*
Y382750D03*
Y392750D03*
Y402750D03*
Y412750D03*
Y422750D03*
Y432750D03*
Y442750D03*
X242250Y151750D03*
Y161750D03*
Y171750D03*
Y181750D03*
Y191750D03*
Y201750D03*
Y211750D03*
X269750Y155750D03*
Y165750D03*
Y175750D03*
Y185750D03*
Y195750D03*
Y205750D03*
Y215750D03*
Y225750D03*
Y235750D03*
Y245750D03*
Y255750D03*
Y265750D03*
Y275750D03*
Y285750D03*
Y312750D03*
Y322750D03*
Y332750D03*
Y342750D03*
Y352750D03*
Y362750D03*
Y372750D03*
Y382750D03*
Y392750D03*
Y402750D03*
Y412750D03*
Y422750D03*
Y432750D03*
Y442750D03*
X329750Y155750D03*
Y165750D03*
Y175750D03*
Y185750D03*
Y195750D03*
Y205750D03*
Y215750D03*
Y225750D03*
Y235750D03*
Y245750D03*
Y255750D03*
Y265750D03*
Y275750D03*
Y285750D03*
Y312750D03*
Y322750D03*
Y332750D03*
Y342750D03*
Y352750D03*
Y362750D03*
Y372750D03*
Y382750D03*
Y392750D03*
Y402750D03*
Y412750D03*
Y422750D03*
Y432750D03*
Y442750D03*
D02*
D70*
X32750Y90750D03*
Y110250D03*
Y129250D03*
Y242250D03*
Y452750D03*
X62750Y242250D03*
Y452750D03*
X72750Y90750D03*
Y110250D03*
Y129250D03*
X87750Y117750D03*
X91750Y222250D03*
X102750Y117750D03*
X120750Y95750D03*
X121750Y222250D03*
X122750Y333250D03*
X131750Y392750D03*
Y412750D03*
Y432750D03*
Y453250D03*
X132250Y31750D03*
X135750Y95750D03*
X152750Y333250D03*
X153750Y221750D03*
X159750Y95250D03*
X162250Y31750D03*
X171750Y392750D03*
Y412750D03*
Y432750D03*
Y453250D03*
X174750Y95250D03*
X180750Y453250D03*
X183750Y221750D03*
X192250Y52250D03*
Y112250D03*
X202250Y52250D03*
Y112250D03*
X210750Y453250D03*
X212250Y52250D03*
Y112250D03*
X222250Y52250D03*
Y112250D03*
X232250Y52250D03*
Y112250D03*
X242250Y52250D03*
Y112250D03*
X252250Y52250D03*
Y112250D03*
X262250Y52250D03*
Y112250D03*
X272250Y52250D03*
Y112250D03*
X282250Y52250D03*
Y112250D03*
X292250Y52250D03*
Y112250D03*
X299750Y296750D03*
Y453250D03*
X302250Y52250D03*
Y112250D03*
X312250Y52250D03*
Y112250D03*
X322250Y52250D03*
Y112250D03*
X329750Y296750D03*
Y453250D03*
X332250Y52250D03*
Y112250D03*
D02*
D71*
X85250Y489750D03*
Y499750D03*
X95250Y489750D03*
Y499750D03*
X105250Y489750D03*
Y499750D03*
X115250Y489750D03*
Y499750D03*
X125250Y489750D03*
Y499750D03*
X135250Y489750D03*
Y499750D03*
X145250Y489750D03*
Y499750D03*
X155250Y489750D03*
Y499750D03*
X165250Y489750D03*
Y499750D03*
X175250Y489750D03*
Y499750D03*
X185250Y489750D03*
Y499750D03*
X195250Y489750D03*
Y499750D03*
X205250Y489750D03*
Y499750D03*
X215250Y489750D03*
Y499750D03*
X225250Y489750D03*
Y499750D03*
X235250Y489750D03*
Y499750D03*
X245250Y489750D03*
Y499750D03*
X255250Y489750D03*
Y499750D03*
X265250Y489750D03*
Y499750D03*
X275250Y489750D03*
Y499750D03*
D02*
D21*
X43250Y31628D03*
Y55250D03*
X60967Y31628D03*
Y55250D03*
X132250Y64750D03*
X142250D03*
X152250D03*
D02*
D22*
X123250Y128750D03*
X173250D03*
D02*
D23*
X123250Y113810D03*
D02*
D25*
X24494Y47788D03*
X26069Y418569D03*
X28569Y36309D03*
Y509668D03*
X32750Y120250D03*
X34024Y36309D03*
X36805Y24805D03*
X38569Y50569D03*
Y94931D03*
X43250Y90750D03*
X49750Y201750D03*
X50507Y36309D03*
Y59931D03*
X53288Y108263D03*
Y112250D03*
Y246431D03*
X58569Y456931D03*
X58750Y300919D03*
X64750Y275250D03*
X72750Y206363D03*
X73738Y285531D03*
Y382750D03*
X76750Y268250D03*
X76931Y134231D03*
X79300Y290144D03*
Y422750D03*
Y502531D03*
X80788Y99931D03*
X82081Y306931D03*
X82250Y201750D03*
Y222250D03*
X84863Y300919D03*
Y312750D03*
X86069Y327494D03*
X92469Y460212D03*
Y474118D03*
X99431Y230188D03*
Y446931D03*
Y468556D03*
X100637Y352750D03*
Y392750D03*
X101469Y201750D03*
X102212Y262750D03*
Y346931D03*
Y432750D03*
X105825Y140444D03*
Y298137D03*
X106931Y46863D03*
Y110788D03*
X107081Y355531D03*
Y362750D03*
X109507Y147569D03*
Y292750D03*
X109863Y338137D03*
X112288Y143226D03*
Y197569D03*
Y218069D03*
X112644Y374150D03*
Y382750D03*
X115069Y157506D03*
X115250Y428569D03*
X116069Y276931D03*
X117769Y134231D03*
X118569Y336931D03*
Y382750D03*
X119863Y398506D03*
X121384Y63175D03*
X124788Y346931D03*
X125950Y99931D03*
X127569Y449069D03*
X128731Y123269D03*
X129431Y226431D03*
X133150Y292750D03*
X135931Y262750D03*
Y408137D03*
X137569Y69431D03*
X138712Y418137D03*
X140300Y211750D03*
Y247363D03*
X143081Y207569D03*
Y337431D03*
X146069Y120637D03*
X147569Y74694D03*
X152750Y468556D03*
X153750Y426931D03*
X156931Y337431D03*
Y434150D03*
X157081Y443700D03*
X160431Y147569D03*
Y167569D03*
Y175931D03*
X160637Y322750D03*
Y346931D03*
X162212Y227407D03*
X163213Y432493D03*
X164788Y322750D03*
Y339969D03*
Y348137D03*
Y441287D03*
X167325Y150175D03*
X167569Y301287D03*
Y416931D03*
X168507Y230188D03*
Y272750D03*
Y284581D03*
X170106Y171750D03*
X171288Y244056D03*
Y258569D03*
Y298506D03*
Y355531D03*
X173048Y374150D03*
X173081Y161750D03*
Y175931D03*
X174069Y235750D03*
X175250Y457431D03*
X181825Y56431D03*
Y93675D03*
X184606Y88113D03*
Y108069D03*
X187431Y248569D03*
Y356931D03*
Y451350D03*
X190431Y167569D03*
Y284581D03*
X192469Y368506D03*
X194419Y220363D03*
Y332750D03*
X195250Y474118D03*
X196825Y352750D03*
X197200Y262750D03*
X199981Y171750D03*
Y250144D03*
X200007Y143226D03*
X201301Y382750D03*
X202469Y288569D03*
Y309969D03*
X204082Y432750D03*
X205569Y147569D03*
X208288Y474118D03*
X208350Y245750D03*
Y307363D03*
X209556Y311369D03*
Y316931D03*
X212150Y339969D03*
X212325Y356931D03*
X216150Y262750D03*
Y270363D03*
Y319712D03*
Y352750D03*
Y474118D03*
X218931Y147569D03*
Y165931D03*
Y292750D03*
Y308569D03*
X222212Y155931D03*
X225250Y277363D03*
X228031Y185931D03*
Y334325D03*
Y362750D03*
X230812Y314150D03*
Y322750D03*
X232250Y59931D03*
X232275Y382750D03*
X234069Y465774D03*
X234853Y376931D03*
X240750Y449712D03*
X246225Y484363D03*
X247431Y266931D03*
Y288569D03*
Y356931D03*
X248637Y215931D03*
X249006Y457431D03*
X250212Y372750D03*
X252507Y237581D03*
Y275826D03*
X255288Y146007D03*
Y232969D03*
Y272969D03*
Y349712D03*
X256981Y432750D03*
Y442750D03*
X258069Y44062D03*
X263069Y191569D03*
Y251569D03*
Y279931D03*
X265031Y302750D03*
X269750Y298569D03*
Y460212D03*
X272250Y88113D03*
X272531Y295531D03*
X276431Y151569D03*
Y289931D03*
Y302750D03*
Y308569D03*
Y316931D03*
Y326931D03*
Y338569D03*
Y366931D03*
Y436931D03*
X277637Y390919D03*
X279212Y279931D03*
Y329969D03*
Y352750D03*
Y418569D03*
Y439969D03*
X280787Y317363D03*
X282250Y305788D03*
X286431Y56431D03*
X289644Y317363D03*
X291876Y143226D03*
X292788Y326931D03*
X294657Y305788D03*
Y309969D03*
X295569Y334131D03*
X296431Y12014D03*
Y116431D03*
X299212Y38500D03*
X302250Y41281D03*
X302531Y148788D03*
Y235750D03*
X303931Y388137D03*
Y457431D03*
X304106Y312750D03*
Y348569D03*
X306712Y255750D03*
Y261569D03*
Y445788D03*
Y451350D03*
X306887Y322750D03*
X309493Y185750D03*
Y195750D03*
Y302750D03*
Y362750D03*
Y397363D03*
Y410919D03*
Y499750D03*
X309668Y326931D03*
X311944Y308569D03*
X312274Y225750D03*
Y264350D03*
X314726Y342750D03*
X315230Y362750D03*
X317507Y182969D03*
Y322750D03*
X320288Y175750D03*
Y327363D03*
Y432750D03*
X323069Y151569D03*
X325569Y457431D03*
Y495137D03*
X326431Y44081D03*
X329750Y143226D03*
X333931Y449069D03*
X336431Y171569D03*
Y239931D03*
Y416931D03*
X337637Y264350D03*
X340419Y187137D03*
Y255750D03*
X343200Y235750D03*
Y516630D03*
D02*
D77*
X27750Y15750D03*
Y527250D03*
X335250Y15750D03*
Y527250D03*
D02*
D78*
X92250Y22250D03*
X111148Y35045D03*
D02*
D79*
X92250Y46856D03*
X0Y0D02*
M02*
