G04 EasyPC Gerber Version 20.0.2 Build 4112 *
G04 #@! TF.Part,Single*
%FSLAX35Y35*%
%MOIN*%
%ADD12C,0.00500*%
G04 #@! TA.AperFunction,WasherPad*
%ADD76C,0.10000*%
X0Y0D02*
D02*
D12*
X35431Y53725D02*
X36681D01*
X36057D02*
Y57475D01*
X35431D02*
X36681D01*
X37006Y424506D02*
X38256D01*
X37631D02*
Y428256D01*
X37006D02*
X38256D01*
X37750Y21687D02*
X39313Y25437D01*
X40875Y21687*
X38375Y23250D02*
X40250D01*
X37750Y533187D02*
X39313Y536937D01*
X40875Y533187*
X38375Y534750D02*
X40250D01*
X39506Y42246D02*
X40756D01*
X40131D02*
Y45996D01*
X39506D02*
X40756D01*
X39506Y515606D02*
X40756D01*
X40131D02*
Y519356D01*
X39506D02*
X40756D01*
X44937Y98563D02*
X45563Y98250D01*
X45875Y97625*
X45563Y97000*
X44937Y96687*
X42750*
Y100437*
X44937*
X45563Y100125*
X45875Y99500*
X45563Y98875*
X44937Y98563*
X42750*
X44937Y118063D02*
X45563Y117750D01*
X45875Y117125*
X45563Y116500*
X44937Y116187*
X42750*
Y119937*
X44937*
X45563Y119625*
X45875Y119000*
X45563Y118375*
X44937Y118063*
X42750*
X43687Y126187D02*
X44937D01*
X44313D02*
Y129937D01*
X43687D02*
X44937D01*
Y137063D02*
X45563Y136750D01*
X45875Y136125*
X45563Y135500*
X44937Y135187*
X42750*
Y138937*
X44937*
X45563Y138625*
X45875Y138000*
X45563Y137375*
X44937Y137063*
X42750*
X44937Y159563D02*
X45563Y159250D01*
X45875Y158625*
X45563Y158000*
X44937Y157687*
X42750*
Y161437*
X44937*
X45563Y161125*
X45875Y160500*
X45563Y159875*
X44937Y159563*
X42750*
X44937Y169563D02*
X45563Y169250D01*
X45875Y168625*
X45563Y168000*
X44937Y167687*
X42750*
Y171437*
X44937*
X45563Y171125*
X45875Y170500*
X45563Y169875*
X44937Y169563*
X42750*
X44937Y179563D02*
X45563Y179250D01*
X45875Y178625*
X45563Y178000*
X44937Y177687*
X42750*
Y181437*
X44937*
X45563Y181125*
X45875Y180500*
X45563Y179875*
X44937Y179563*
X42750*
X44937Y189563D02*
X45563Y189250D01*
X45875Y188625*
X45563Y188000*
X44937Y187687*
X42750*
Y191437*
X44937*
X45563Y191125*
X45875Y190500*
X45563Y189875*
X44937Y189563*
X42750*
X44937Y199563D02*
X45563Y199250D01*
X45875Y198625*
X45563Y198000*
X44937Y197687*
X42750*
Y201437*
X44937*
X45563Y201125*
X45875Y200500*
X45563Y199875*
X44937Y199563*
X42750*
X44937Y209563D02*
X45563Y209250D01*
X45875Y208625*
X45563Y208000*
X44937Y207687*
X42750*
Y211437*
X44937*
X45563Y211125*
X45875Y210500*
X45563Y209875*
X44937Y209563*
X42750*
X44937Y219563D02*
X45563Y219250D01*
X45875Y218625*
X45563Y218000*
X44937Y217687*
X42750*
Y221437*
X44937*
X45563Y221125*
X45875Y220500*
X45563Y219875*
X44937Y219563*
X42750*
X44937Y250063D02*
X45563Y249750D01*
X45875Y249125*
X45563Y248500*
X44937Y248187*
X42750*
Y251937*
X44937*
X45563Y251625*
X45875Y251000*
X45563Y250375*
X44937Y250063*
X42750*
X44937Y260563D02*
X45563Y260250D01*
X45875Y259625*
X45563Y259000*
X44937Y258687*
X42750*
Y262437*
X44937*
X45563Y262125*
X45875Y261500*
X45563Y260875*
X44937Y260563*
X42750*
X44937Y270563D02*
X45563Y270250D01*
X45875Y269625*
X45563Y269000*
X44937Y268687*
X42750*
Y272437*
X44937*
X45563Y272125*
X45875Y271500*
X45563Y270875*
X44937Y270563*
X42750*
X44937Y280563D02*
X45563Y280250D01*
X45875Y279625*
X45563Y279000*
X44937Y278687*
X42750*
Y282437*
X44937*
X45563Y282125*
X45875Y281500*
X45563Y280875*
X44937Y280563*
X42750*
X44937Y290563D02*
X45563Y290250D01*
X45875Y289625*
X45563Y289000*
X44937Y288687*
X42750*
Y292437*
X44937*
X45563Y292125*
X45875Y291500*
X45563Y290875*
X44937Y290563*
X42750*
X44937Y300563D02*
X45563Y300250D01*
X45875Y299625*
X45563Y299000*
X44937Y298687*
X42750*
Y302437*
X44937*
X45563Y302125*
X45875Y301500*
X45563Y300875*
X44937Y300563*
X42750*
X44937Y310563D02*
X45563Y310250D01*
X45875Y309625*
X45563Y309000*
X44937Y308687*
X42750*
Y312437*
X44937*
X45563Y312125*
X45875Y311500*
X45563Y310875*
X44937Y310563*
X42750*
X44937Y320563D02*
X45563Y320250D01*
X45875Y319625*
X45563Y319000*
X44937Y318687*
X42750*
Y322437*
X44937*
X45563Y322125*
X45875Y321500*
X45563Y320875*
X44937Y320563*
X42750*
X44937Y330563D02*
X45563Y330250D01*
X45875Y329625*
X45563Y329000*
X44937Y328687*
X42750*
Y332437*
X44937*
X45563Y332125*
X45875Y331500*
X45563Y330875*
X44937Y330563*
X42750*
X44937Y340563D02*
X45563Y340250D01*
X45875Y339625*
X45563Y339000*
X44937Y338687*
X42750*
Y342437*
X44937*
X45563Y342125*
X45875Y341500*
X45563Y340875*
X44937Y340563*
X42750*
X44937Y350563D02*
X45563Y350250D01*
X45875Y349625*
X45563Y349000*
X44937Y348687*
X42750*
Y352437*
X44937*
X45563Y352125*
X45875Y351500*
X45563Y350875*
X44937Y350563*
X42750*
X44937Y360563D02*
X45563Y360250D01*
X45875Y359625*
X45563Y359000*
X44937Y358687*
X42750*
Y362437*
X44937*
X45563Y362125*
X45875Y361500*
X45563Y360875*
X44937Y360563*
X42750*
X44937Y370563D02*
X45563Y370250D01*
X45875Y369625*
X45563Y369000*
X44937Y368687*
X42750*
Y372437*
X44937*
X45563Y372125*
X45875Y371500*
X45563Y370875*
X44937Y370563*
X42750*
X44937Y380563D02*
X45563Y380250D01*
X45875Y379625*
X45563Y379000*
X44937Y378687*
X42750*
Y382437*
X44937*
X45563Y382125*
X45875Y381500*
X45563Y380875*
X44937Y380563*
X42750*
X44937Y390563D02*
X45563Y390250D01*
X45875Y389625*
X45563Y389000*
X44937Y388687*
X42750*
Y392437*
X44937*
X45563Y392125*
X45875Y391500*
X45563Y390875*
X44937Y390563*
X42750*
X44937Y400563D02*
X45563Y400250D01*
X45875Y399625*
X45563Y399000*
X44937Y398687*
X42750*
Y402437*
X44937*
X45563Y402125*
X45875Y401500*
X45563Y400875*
X44937Y400563*
X42750*
X44937Y410563D02*
X45563Y410250D01*
X45875Y409625*
X45563Y409000*
X44937Y408687*
X42750*
Y412437*
X44937*
X45563Y412125*
X45875Y411500*
X45563Y410875*
X44937Y410563*
X42750*
X44937Y420563D02*
X45563Y420250D01*
X45875Y419625*
X45563Y419000*
X44937Y418687*
X42750*
Y422437*
X44937*
X45563Y422125*
X45875Y421500*
X45563Y420875*
X44937Y420563*
X42750*
X44937Y430563D02*
X45563Y430250D01*
X45875Y429625*
X45563Y429000*
X44937Y428687*
X42750*
Y432437*
X44937*
X45563Y432125*
X45875Y431500*
X45563Y430875*
X44937Y430563*
X42750*
X44937Y440563D02*
X45563Y440250D01*
X45875Y439625*
X45563Y439000*
X44937Y438687*
X42750*
Y442437*
X44937*
X45563Y442125*
X45875Y441500*
X45563Y440875*
X44937Y440563*
X42750*
X44937Y450563D02*
X45563Y450250D01*
X45875Y449625*
X45563Y449000*
X44937Y448687*
X42750*
Y452437*
X44937*
X45563Y452125*
X45875Y451500*
X45563Y450875*
X44937Y450563*
X42750*
X44937Y460563D02*
X45563Y460250D01*
X45875Y459625*
X45563Y459000*
X44937Y458687*
X42750*
Y462437*
X44937*
X45563Y462125*
X45875Y461500*
X45563Y460875*
X44937Y460563*
X42750*
X44961Y42246D02*
X46211D01*
X45587D02*
Y45996D01*
X44961D02*
X46211D01*
X47743Y30743D02*
X48993D01*
X48368D02*
Y34493D01*
X47743D02*
X48993D01*
X49506Y56506D02*
X50756D01*
X50131D02*
Y60256D01*
X49506D02*
X50756D01*
X49506Y100869D02*
X50756D01*
X50131D02*
Y104619D01*
X49506D02*
X50756D01*
X53250Y37565D02*
Y41315D01*
X55125*
X55750Y41003*
X56063Y40691*
X56375Y40065*
Y38815*
X56063Y38191*
X55750Y37878*
X55125Y37565*
X53250*
Y61187D02*
Y64937D01*
X55125*
X55750Y64625*
X56063Y64313*
X56375Y63687*
Y62437*
X56063Y61813*
X55750Y61500*
X55125Y61187*
X53250*
X54187Y96687D02*
X55437D01*
X54813D02*
Y100437D01*
X54187D02*
X55437D01*
X60687Y207687D02*
X61937D01*
X61313D02*
Y211437D01*
X60687D02*
X61937D01*
X61444Y42246D02*
X62694D01*
X62069D02*
Y45996D01*
X61444D02*
X62694D01*
X61444Y65869D02*
X62694D01*
X62069D02*
Y69619D01*
X61444D02*
X62694D01*
X64225Y114200D02*
X65475D01*
X64850D02*
Y117950D01*
X64225D02*
X65475D01*
X64225Y118187D02*
X65475D01*
X64850D02*
Y121937D01*
X64225D02*
X65475D01*
X64225Y252369D02*
X65475D01*
X64850D02*
Y256119D01*
X64225D02*
X65475D01*
X69506Y462869D02*
X70756D01*
X70131D02*
Y466619D01*
X69506D02*
X70756D01*
X69687Y306856D02*
X70937D01*
X70313D02*
Y310606D01*
X69687D02*
X70937D01*
X70967Y37565D02*
Y41315D01*
X72842*
X73467Y41003*
X73779Y40691*
X74092Y40065*
Y38815*
X73779Y38191*
X73467Y37878*
X72842Y37565*
X70967*
Y61187D02*
Y64937D01*
X72842*
X73467Y64625*
X73779Y64313*
X74092Y63687*
Y62437*
X73779Y61813*
X73467Y61500*
X72842Y61187*
X70967*
X74937Y159563D02*
X75563Y159250D01*
X75875Y158625*
X75563Y158000*
X74937Y157687*
X72750*
Y161437*
X74937*
X75563Y161125*
X75875Y160500*
X75563Y159875*
X74937Y159563*
X72750*
X74937Y169563D02*
X75563Y169250D01*
X75875Y168625*
X75563Y168000*
X74937Y167687*
X72750*
Y171437*
X74937*
X75563Y171125*
X75875Y170500*
X75563Y169875*
X74937Y169563*
X72750*
X74937Y179563D02*
X75563Y179250D01*
X75875Y178625*
X75563Y178000*
X74937Y177687*
X72750*
Y181437*
X74937*
X75563Y181125*
X75875Y180500*
X75563Y179875*
X74937Y179563*
X72750*
X74937Y189563D02*
X75563Y189250D01*
X75875Y188625*
X75563Y188000*
X74937Y187687*
X72750*
Y191437*
X74937*
X75563Y191125*
X75875Y190500*
X75563Y189875*
X74937Y189563*
X72750*
X74937Y199563D02*
X75563Y199250D01*
X75875Y198625*
X75563Y198000*
X74937Y197687*
X72750*
Y201437*
X74937*
X75563Y201125*
X75875Y200500*
X75563Y199875*
X74937Y199563*
X72750*
X74937Y209563D02*
X75563Y209250D01*
X75875Y208625*
X75563Y208000*
X74937Y207687*
X72750*
Y211437*
X74937*
X75563Y211125*
X75875Y210500*
X75563Y209875*
X74937Y209563*
X72750*
X74937Y219563D02*
X75563Y219250D01*
X75875Y218625*
X75563Y218000*
X74937Y217687*
X72750*
Y221437*
X74937*
X75563Y221125*
X75875Y220500*
X75563Y219875*
X74937Y219563*
X72750*
X74937Y250063D02*
X75563Y249750D01*
X75875Y249125*
X75563Y248500*
X74937Y248187*
X72750*
Y251937*
X74937*
X75563Y251625*
X75875Y251000*
X75563Y250375*
X74937Y250063*
X72750*
X74937Y460563D02*
X75563Y460250D01*
X75875Y459625*
X75563Y459000*
X74937Y458687*
X72750*
Y462437*
X74937*
X75563Y462125*
X75875Y461500*
X75563Y460875*
X74937Y460563*
X72750*
X75687Y281187D02*
X76937D01*
X76313D02*
Y284937D01*
X75687D02*
X76937D01*
X84937Y98563D02*
X85563Y98250D01*
X85875Y97625*
X85563Y97000*
X84937Y96687*
X82750*
Y100437*
X84937*
X85563Y100125*
X85875Y99500*
X85563Y98875*
X84937Y98563*
X82750*
X84937Y118063D02*
X85563Y117750D01*
X85875Y117125*
X85563Y116500*
X84937Y116187*
X82750*
Y119937*
X84937*
X85563Y119625*
X85875Y119000*
X85563Y118375*
X84937Y118063*
X82750*
X84937Y137063D02*
X85563Y136750D01*
X85875Y136125*
X85563Y135500*
X84937Y135187*
X82750*
Y138937*
X84937*
X85563Y138625*
X85875Y138000*
X85563Y137375*
X84937Y137063*
X82750*
X83687Y212300D02*
X84937D01*
X84313D02*
Y216050D01*
X83687D02*
X84937D01*
X84676Y291469D02*
X85926D01*
X85301D02*
Y295219D01*
X84676D02*
X85926D01*
X84676Y388687D02*
X85926D01*
X85301D02*
Y392437D01*
X84676D02*
X85926D01*
X87687Y274187D02*
X88937D01*
X88313D02*
Y277937D01*
X87687D02*
X88937D01*
X87869Y140169D02*
X89119D01*
X88494D02*
Y143919D01*
X87869D02*
X89119D01*
X90238Y296081D02*
X91488D01*
X90863D02*
Y299831D01*
X90238D02*
X91488D01*
X90238Y428687D02*
X91488D01*
X90863D02*
Y432437D01*
X90238D02*
X91488D01*
X90238Y508469D02*
X91488D01*
X90863D02*
Y512219D01*
X90238D02*
X91488D01*
X91725Y105869D02*
X92975D01*
X92350D02*
Y109619D01*
X91725D02*
X92975D01*
X93019Y312869D02*
X94269D01*
X93644D02*
Y316619D01*
X93019D02*
X94269D01*
X93187Y207687D02*
X94437D01*
X93813D02*
Y211437D01*
X93187D02*
X94437D01*
X93187Y228187D02*
X94437D01*
X93813D02*
Y231937D01*
X93187D02*
X94437D01*
X95800Y306856D02*
X97050D01*
X96425D02*
Y310606D01*
X95800D02*
X97050D01*
X95800Y318687D02*
X97050D01*
X96425D02*
Y322437D01*
X95800D02*
X97050D01*
X98375Y496313D02*
X98063Y496000D01*
X97437Y495687*
X96500*
X95875Y496000*
X95563Y496313*
X95250Y496937*
Y498187*
X95563Y498813*
X95875Y499125*
X96500Y499437*
X97437*
X98063Y499125*
X98375Y498813*
Y506313D02*
X98063Y506000D01*
X97437Y505687*
X96500*
X95875Y506000*
X95563Y506313*
X95250Y506937*
Y508187*
X95563Y508813*
X95875Y509125*
X96500Y509437*
X97437*
X98063Y509125*
X98375Y508813*
X97006Y333431D02*
X98256D01*
X97631D02*
Y337181D01*
X97006D02*
X98256D01*
X99937Y125563D02*
X100563Y125250D01*
X100875Y124625*
X100563Y124000*
X99937Y123687*
X97750*
Y127437*
X99937*
X100563Y127125*
X100875Y126500*
X100563Y125875*
X99937Y125563*
X97750*
X103937Y159563D02*
X104563Y159250D01*
X104875Y158625*
X104563Y158000*
X103937Y157687*
X101750*
Y161437*
X103937*
X104563Y161125*
X104875Y160500*
X104563Y159875*
X103937Y159563*
X101750*
X103937Y169563D02*
X104563Y169250D01*
X104875Y168625*
X104563Y168000*
X103937Y167687*
X101750*
Y171437*
X103937*
X104563Y171125*
X104875Y170500*
X104563Y169875*
X103937Y169563*
X101750*
X103937Y179563D02*
X104563Y179250D01*
X104875Y178625*
X104563Y178000*
X103937Y177687*
X101750*
Y181437*
X103937*
X104563Y181125*
X104875Y180500*
X104563Y179875*
X103937Y179563*
X101750*
X103937Y189563D02*
X104563Y189250D01*
X104875Y188625*
X104563Y188000*
X103937Y187687*
X101750*
Y191437*
X103937*
X104563Y191125*
X104875Y190500*
X104563Y189875*
X103937Y189563*
X101750*
X103937Y199563D02*
X104563Y199250D01*
X104875Y198625*
X104563Y198000*
X103937Y197687*
X101750*
Y201437*
X103937*
X104563Y201125*
X104875Y200500*
X104563Y199875*
X103937Y199563*
X101750*
X103937Y209563D02*
X104563Y209250D01*
X104875Y208625*
X104563Y208000*
X103937Y207687*
X101750*
Y211437*
X103937*
X104563Y211125*
X104875Y210500*
X104563Y209875*
X103937Y209563*
X101750*
X103937Y219563D02*
X104563Y219250D01*
X104875Y218625*
X104563Y218000*
X103937Y217687*
X101750*
Y221437*
X103937*
X104563Y221125*
X104875Y220500*
X104563Y219875*
X103937Y219563*
X101750*
X103937Y230063D02*
X104563Y229750D01*
X104875Y229125*
X104563Y228500*
X103937Y228187*
X101750*
Y231937*
X103937*
X104563Y231625*
X104875Y231000*
X104563Y230375*
X103937Y230063*
X101750*
X104437Y29750D02*
X105375D01*
Y29437*
X105063Y28813*
X104750Y28500*
X104125Y28187*
X103500*
X102875Y28500*
X102563Y28813*
X102250Y29437*
Y30687*
X102563Y31313*
X102875Y31625*
X103500Y31937*
X104125*
X104750Y31625*
X105063Y31313*
X105375Y30687*
X102250Y52794D02*
Y56544D01*
Y54669D02*
X105375D01*
Y52794D02*
Y56544D01*
X103406Y466150D02*
X104656D01*
X104031D02*
Y469900D01*
X103406D02*
X104656D01*
X103406Y480055D02*
X104656D01*
X104031D02*
Y483805D01*
X103406D02*
X104656D01*
X104937Y260563D02*
X105563Y260250D01*
X105875Y259625*
X105563Y259000*
X104937Y258687*
X102750*
Y262437*
X104937*
X105563Y262125*
X105875Y261500*
X105563Y260875*
X104937Y260563*
X102750*
X104937Y270563D02*
X105563Y270250D01*
X105875Y269625*
X105563Y269000*
X104937Y268687*
X102750*
Y272437*
X104937*
X105563Y272125*
X105875Y271500*
X105563Y270875*
X104937Y270563*
X102750*
X104937Y280563D02*
X105563Y280250D01*
X105875Y279625*
X105563Y279000*
X104937Y278687*
X102750*
Y282437*
X104937*
X105563Y282125*
X105875Y281500*
X105563Y280875*
X104937Y280563*
X102750*
X104937Y290563D02*
X105563Y290250D01*
X105875Y289625*
X105563Y289000*
X104937Y288687*
X102750*
Y292437*
X104937*
X105563Y292125*
X105875Y291500*
X105563Y290875*
X104937Y290563*
X102750*
X104937Y300563D02*
X105563Y300250D01*
X105875Y299625*
X105563Y299000*
X104937Y298687*
X102750*
Y302437*
X104937*
X105563Y302125*
X105875Y301500*
X105563Y300875*
X104937Y300563*
X102750*
X104937Y310563D02*
X105563Y310250D01*
X105875Y309625*
X105563Y309000*
X104937Y308687*
X102750*
Y312437*
X104937*
X105563Y312125*
X105875Y311500*
X105563Y310875*
X104937Y310563*
X102750*
X104937Y320563D02*
X105563Y320250D01*
X105875Y319625*
X105563Y319000*
X104937Y318687*
X102750*
Y322437*
X104937*
X105563Y322125*
X105875Y321500*
X105563Y320875*
X104937Y320563*
X102750*
X104937Y330563D02*
X105563Y330250D01*
X105875Y329625*
X105563Y329000*
X104937Y328687*
X102750*
Y332437*
X104937*
X105563Y332125*
X105875Y331500*
X105563Y330875*
X104937Y330563*
X102750*
X104937Y340563D02*
X105563Y340250D01*
X105875Y339625*
X105563Y339000*
X104937Y338687*
X102750*
Y342437*
X104937*
X105563Y342125*
X105875Y341500*
X105563Y340875*
X104937Y340563*
X102750*
X104937Y350563D02*
X105563Y350250D01*
X105875Y349625*
X105563Y349000*
X104937Y348687*
X102750*
Y352437*
X104937*
X105563Y352125*
X105875Y351500*
X105563Y350875*
X104937Y350563*
X102750*
X104937Y360563D02*
X105563Y360250D01*
X105875Y359625*
X105563Y359000*
X104937Y358687*
X102750*
Y362437*
X104937*
X105563Y362125*
X105875Y361500*
X105563Y360875*
X104937Y360563*
X102750*
X104937Y370563D02*
X105563Y370250D01*
X105875Y369625*
X105563Y369000*
X104937Y368687*
X102750*
Y372437*
X104937*
X105563Y372125*
X105875Y371500*
X105563Y370875*
X104937Y370563*
X102750*
X104937Y380563D02*
X105563Y380250D01*
X105875Y379625*
X105563Y379000*
X104937Y378687*
X102750*
Y382437*
X104937*
X105563Y382125*
X105875Y381500*
X105563Y380875*
X104937Y380563*
X102750*
X104937Y390563D02*
X105563Y390250D01*
X105875Y389625*
X105563Y389000*
X104937Y388687*
X102750*
Y392437*
X104937*
X105563Y392125*
X105875Y391500*
X105563Y390875*
X104937Y390563*
X102750*
X104937Y400563D02*
X105563Y400250D01*
X105875Y399625*
X105563Y399000*
X104937Y398687*
X102750*
Y402437*
X104937*
X105563Y402125*
X105875Y401500*
X105563Y400875*
X104937Y400563*
X102750*
X104937Y410563D02*
X105563Y410250D01*
X105875Y409625*
X105563Y409000*
X104937Y408687*
X102750*
Y412437*
X104937*
X105563Y412125*
X105875Y411500*
X105563Y410875*
X104937Y410563*
X102750*
X104937Y420563D02*
X105563Y420250D01*
X105875Y419625*
X105563Y419000*
X104937Y418687*
X102750*
Y422437*
X104937*
X105563Y422125*
X105875Y421500*
X105563Y420875*
X104937Y420563*
X102750*
X104937Y430563D02*
X105563Y430250D01*
X105875Y429625*
X105563Y429000*
X104937Y428687*
X102750*
Y432437*
X104937*
X105563Y432125*
X105875Y431500*
X105563Y430875*
X104937Y430563*
X102750*
X104937Y440563D02*
X105563Y440250D01*
X105875Y439625*
X105563Y439000*
X104937Y438687*
X102750*
Y442437*
X104937*
X105563Y442125*
X105875Y441500*
X105563Y440875*
X104937Y440563*
X102750*
X104937Y450563D02*
X105563Y450250D01*
X105875Y449625*
X105563Y449000*
X104937Y448687*
X102750*
Y452437*
X104937*
X105563Y452125*
X105875Y451500*
X105563Y450875*
X104937Y450563*
X102750*
X108375Y496313D02*
X108063Y496000D01*
X107437Y495687*
X106500*
X105875Y496000*
X105563Y496313*
X105250Y496937*
Y498187*
X105563Y498813*
X105875Y499125*
X106500Y499437*
X107437*
X108063Y499125*
X108375Y498813*
Y506313D02*
X108063Y506000D01*
X107437Y505687*
X106500*
X105875Y506000*
X105563Y506313*
X105250Y506937*
Y508187*
X105563Y508813*
X105875Y509125*
X106500Y509437*
X107437*
X108063Y509125*
X108375Y508813*
X110369Y236125D02*
X111619D01*
X110994D02*
Y239875D01*
X110369D02*
X111619D01*
X110369Y452869D02*
X111619D01*
X110994D02*
Y456619D01*
X110369D02*
X111619D01*
X110369Y474493D02*
X111619D01*
X110994D02*
Y478243D01*
X110369D02*
X111619D01*
X111575Y358687D02*
X112825D01*
X112200D02*
Y362437D01*
X111575D02*
X112825D01*
X111575Y398687D02*
X112825D01*
X112200D02*
Y402437D01*
X111575D02*
X112825D01*
X112406Y207687D02*
X113656D01*
X113031D02*
Y211437D01*
X112406D02*
X113656D01*
X113150Y268687D02*
X114400D01*
X113775D02*
Y272437D01*
X113150D02*
X114400D01*
X113150Y352869D02*
X114400D01*
X113775D02*
Y356619D01*
X113150D02*
X114400D01*
X113150Y438687D02*
X114400D01*
X113775D02*
Y442437D01*
X113150D02*
X114400D01*
X114937Y125563D02*
X115563Y125250D01*
X115875Y124625*
X115563Y124000*
X114937Y123687*
X112750*
Y127437*
X114937*
X115563Y127125*
X115875Y126500*
X115563Y125875*
X114937Y125563*
X112750*
X118375Y496313D02*
X118063Y496000D01*
X117437Y495687*
X116500*
X115875Y496000*
X115563Y496313*
X115250Y496937*
Y498187*
X115563Y498813*
X115875Y499125*
X116500Y499437*
X117437*
X118063Y499125*
X118375Y498813*
Y506313D02*
X118063Y506000D01*
X117437Y505687*
X116500*
X115875Y506000*
X115563Y506313*
X115250Y506937*
Y508187*
X115563Y508813*
X115875Y509125*
X116500Y509437*
X117437*
X118063Y509125*
X118375Y508813*
X116762Y146382D02*
X118012D01*
X117387D02*
Y150132D01*
X116762D02*
X118012D01*
X116762Y304075D02*
X118012D01*
X117387D02*
Y307825D01*
X116762D02*
X118012D01*
X117869Y52800D02*
X119119D01*
X118494D02*
Y56550D01*
X117869D02*
X119119D01*
X117869Y116725D02*
X119119D01*
X118494D02*
Y120475D01*
X117869D02*
X119119D01*
X118019Y361469D02*
X119269D01*
X118644D02*
Y365219D01*
X118019D02*
X119269D01*
X118019Y368687D02*
X119269D01*
X118644D02*
Y372437D01*
X118019D02*
X119269D01*
X120444Y153506D02*
X121694D01*
X121069D02*
Y157256D01*
X120444D02*
X121694D01*
X120444Y298687D02*
X121694D01*
X121069D02*
Y302437D01*
X120444D02*
X121694D01*
X120800Y344075D02*
X122050D01*
X121425D02*
Y347825D01*
X120800D02*
X122050D01*
X123335Y42545D02*
X124273D01*
Y42233*
X123960Y41608*
X123648Y41295*
X123023Y40983*
X122398*
X121773Y41295*
X121460Y41608*
X121148Y42233*
Y43483*
X121460Y44108*
X121773Y44420*
X122398Y44733*
X123023*
X123648Y44420*
X123960Y44108*
X124273Y43483*
X123225Y149163D02*
X124475D01*
X123850D02*
Y152913D01*
X123225D02*
X124475D01*
X123225Y203506D02*
X124475D01*
X123850D02*
Y207256D01*
X123225D02*
X124475D01*
X123225Y224006D02*
X124475D01*
X123850D02*
Y227756D01*
X123225D02*
X124475D01*
X123581Y380087D02*
X124831D01*
X124206D02*
Y383837D01*
X123581D02*
X124831D01*
X123581Y388687D02*
X124831D01*
X124206D02*
Y392437D01*
X123581D02*
X124831D01*
X126006Y163443D02*
X127256D01*
X126631D02*
Y167193D01*
X126006D02*
X127256D01*
X126187Y434506D02*
X127437D01*
X126813D02*
Y438256D01*
X126187D02*
X127437D01*
X128375Y496313D02*
X128063Y496000D01*
X127437Y495687*
X126500*
X125875Y496000*
X125563Y496313*
X125250Y496937*
Y498187*
X125563Y498813*
X125875Y499125*
X126500Y499437*
X127437*
X128063Y499125*
X128375Y498813*
Y506313D02*
X128063Y506000D01*
X127437Y505687*
X126500*
X125875Y506000*
X125563Y506313*
X125250Y506937*
Y508187*
X125563Y508813*
X125875Y509125*
X126500Y509437*
X127437*
X128063Y509125*
X128375Y508813*
X127006Y282869D02*
X128256D01*
X127631D02*
Y286619D01*
X127006D02*
X128256D01*
X128706Y140169D02*
X129956D01*
X129331D02*
Y143919D01*
X128706D02*
X129956D01*
X129506Y342869D02*
X130756D01*
X130131D02*
Y346619D01*
X129506D02*
X130756D01*
X129506Y388687D02*
X130756D01*
X130131D02*
Y392437D01*
X129506D02*
X130756D01*
X130800Y404443D02*
X132050D01*
X131425D02*
Y408193D01*
X130800D02*
X132050D01*
X132937Y103563D02*
X133563Y103250D01*
X133875Y102625*
X133563Y102000*
X132937Y101687*
X130750*
Y105437*
X132937*
X133563Y105125*
X133875Y104500*
X133563Y103875*
X132937Y103563*
X130750*
X132321Y69113D02*
X133571D01*
X132946D02*
Y72863D01*
X132321D02*
X133571D01*
X133937Y159563D02*
X134563Y159250D01*
X134875Y158625*
X134563Y158000*
X133937Y157687*
X131750*
Y161437*
X133937*
X134563Y161125*
X134875Y160500*
X134563Y159875*
X133937Y159563*
X131750*
X133937Y169563D02*
X134563Y169250D01*
X134875Y168625*
X134563Y168000*
X133937Y167687*
X131750*
Y171437*
X133937*
X134563Y171125*
X134875Y170500*
X134563Y169875*
X133937Y169563*
X131750*
X133937Y179563D02*
X134563Y179250D01*
X134875Y178625*
X134563Y178000*
X133937Y177687*
X131750*
Y181437*
X133937*
X134563Y181125*
X134875Y180500*
X134563Y179875*
X133937Y179563*
X131750*
X133937Y189563D02*
X134563Y189250D01*
X134875Y188625*
X134563Y188000*
X133937Y187687*
X131750*
Y191437*
X133937*
X134563Y191125*
X134875Y190500*
X134563Y189875*
X133937Y189563*
X131750*
X133937Y199563D02*
X134563Y199250D01*
X134875Y198625*
X134563Y198000*
X133937Y197687*
X131750*
Y201437*
X133937*
X134563Y201125*
X134875Y200500*
X134563Y199875*
X133937Y199563*
X131750*
X133937Y209563D02*
X134563Y209250D01*
X134875Y208625*
X134563Y208000*
X133937Y207687*
X131750*
Y211437*
X133937*
X134563Y211125*
X134875Y210500*
X134563Y209875*
X133937Y209563*
X131750*
X133937Y219563D02*
X134563Y219250D01*
X134875Y218625*
X134563Y218000*
X133937Y217687*
X131750*
Y221437*
X133937*
X134563Y221125*
X134875Y220500*
X134563Y219875*
X133937Y219563*
X131750*
X133937Y230063D02*
X134563Y229750D01*
X134875Y229125*
X134563Y228500*
X133937Y228187*
X131750*
Y231937*
X133937*
X134563Y231625*
X134875Y231000*
X134563Y230375*
X133937Y230063*
X131750*
X134937Y260563D02*
X135563Y260250D01*
X135875Y259625*
X135563Y259000*
X134937Y258687*
X132750*
Y262437*
X134937*
X135563Y262125*
X135875Y261500*
X135563Y260875*
X134937Y260563*
X132750*
X134937Y270563D02*
X135563Y270250D01*
X135875Y269625*
X135563Y269000*
X134937Y268687*
X132750*
Y272437*
X134937*
X135563Y272125*
X135875Y271500*
X135563Y270875*
X134937Y270563*
X132750*
X134937Y280563D02*
X135563Y280250D01*
X135875Y279625*
X135563Y279000*
X134937Y278687*
X132750*
Y282437*
X134937*
X135563Y282125*
X135875Y281500*
X135563Y280875*
X134937Y280563*
X132750*
X134937Y290563D02*
X135563Y290250D01*
X135875Y289625*
X135563Y289000*
X134937Y288687*
X132750*
Y292437*
X134937*
X135563Y292125*
X135875Y291500*
X135563Y290875*
X134937Y290563*
X132750*
X134937Y300563D02*
X135563Y300250D01*
X135875Y299625*
X135563Y299000*
X134937Y298687*
X132750*
Y302437*
X134937*
X135563Y302125*
X135875Y301500*
X135563Y300875*
X134937Y300563*
X132750*
X134937Y310563D02*
X135563Y310250D01*
X135875Y309625*
X135563Y309000*
X134937Y308687*
X132750*
Y312437*
X134937*
X135563Y312125*
X135875Y311500*
X135563Y310875*
X134937Y310563*
X132750*
X134937Y320563D02*
X135563Y320250D01*
X135875Y319625*
X135563Y319000*
X134937Y318687*
X132750*
Y322437*
X134937*
X135563Y322125*
X135875Y321500*
X135563Y320875*
X134937Y320563*
X132750*
X134937Y330563D02*
X135563Y330250D01*
X135875Y329625*
X135563Y329000*
X134937Y328687*
X132750*
Y332437*
X134937*
X135563Y332125*
X135875Y331500*
X135563Y330875*
X134937Y330563*
X132750*
X134937Y341063D02*
X135563Y340750D01*
X135875Y340125*
X135563Y339500*
X134937Y339187*
X132750*
Y342937*
X134937*
X135563Y342625*
X135875Y342000*
X135563Y341375*
X134937Y341063*
X132750*
X135437Y121623D02*
X136063Y121310D01*
X136375Y120685*
X136063Y120060*
X135437Y119748*
X133250*
Y123498*
X135437*
X136063Y123185*
X136375Y122560*
X136063Y121935*
X135437Y121623*
X133250*
Y134687D02*
Y138437D01*
X136375*
X135750Y136563D02*
X133250D01*
X135725Y352869D02*
X136975D01*
X136350D02*
Y356619D01*
X135725D02*
X136975D01*
X138375Y496313D02*
X138063Y496000D01*
X137437Y495687*
X136500*
X135875Y496000*
X135563Y496313*
X135250Y496937*
Y498187*
X135563Y498813*
X135875Y499125*
X136500Y499437*
X137437*
X138063Y499125*
X138375Y498813*
Y506313D02*
X138063Y506000D01*
X137437Y505687*
X136500*
X135875Y506000*
X135563Y506313*
X135250Y506937*
Y508187*
X135563Y508813*
X135875Y509125*
X136500Y509437*
X137437*
X138063Y509125*
X138375Y508813*
X136887Y105869D02*
X138137D01*
X137513D02*
Y109619D01*
X136887D02*
X138137D01*
X138506Y455006D02*
X139756D01*
X139131D02*
Y458756D01*
X138506D02*
X139756D01*
X139669Y129206D02*
X140919D01*
X140294D02*
Y132956D01*
X139669D02*
X140919D01*
X140369Y232369D02*
X141619D01*
X140994D02*
Y236119D01*
X140369D02*
X141619D01*
X143937Y400563D02*
X144563Y400250D01*
X144875Y399625*
X144563Y399000*
X143937Y398687*
X141750*
Y402437*
X143937*
X144563Y402125*
X144875Y401500*
X144563Y400875*
X143937Y400563*
X141750*
X143937Y420563D02*
X144563Y420250D01*
X144875Y419625*
X144563Y419000*
X143937Y418687*
X141750*
Y422437*
X143937*
X144563Y422125*
X144875Y421500*
X144563Y420875*
X143937Y420563*
X141750*
X143937Y440563D02*
X144563Y440250D01*
X144875Y439625*
X144563Y439000*
X143937Y438687*
X141750*
Y442437*
X143937*
X144563Y442125*
X144875Y441500*
X144563Y440875*
X143937Y440563*
X141750*
X143937Y461063D02*
X144563Y460750D01*
X144875Y460125*
X144563Y459500*
X143937Y459187*
X141750*
Y462937*
X143937*
X144563Y462625*
X144875Y462000*
X144563Y461375*
X143937Y461063*
X141750*
X144437Y39563D02*
X145063Y39250D01*
X145375Y38625*
X145063Y38000*
X144437Y37687*
X142250*
Y41437*
X144437*
X145063Y41125*
X145375Y40500*
X145063Y39875*
X144437Y39563*
X142250*
Y70687D02*
Y74437D01*
X145375*
X144750Y72563D02*
X142250D01*
Y70687D02*
X145375D01*
X144087Y298687D02*
X145337D01*
X144713D02*
Y302437D01*
X144087D02*
X145337D01*
X148375Y496313D02*
X148063Y496000D01*
X147437Y495687*
X146500*
X145875Y496000*
X145563Y496313*
X145250Y496937*
Y498187*
X145563Y498813*
X145875Y499125*
X146500Y499437*
X147437*
X148063Y499125*
X148375Y498813*
Y506313D02*
X148063Y506000D01*
X147437Y505687*
X146500*
X145875Y506000*
X145563Y506313*
X145250Y506937*
Y508187*
X145563Y508813*
X145875Y509125*
X146500Y509437*
X147437*
X148063Y509125*
X148375Y508813*
X147937Y103563D02*
X148563Y103250D01*
X148875Y102625*
X148563Y102000*
X147937Y101687*
X145750*
Y105437*
X147937*
X148563Y105125*
X148875Y104500*
X148563Y103875*
X147937Y103563*
X145750*
X146869Y268687D02*
X148119D01*
X147494D02*
Y272437D01*
X146869D02*
X148119D01*
X146869Y414075D02*
X148119D01*
X147494D02*
Y417825D01*
X146869D02*
X148119D01*
X148506Y75369D02*
X149756D01*
X149131D02*
Y79119D01*
X148506D02*
X149756D01*
X149650Y424075D02*
X150900D01*
X150275D02*
Y427825D01*
X149650D02*
X150900D01*
X151238Y217687D02*
X152488D01*
X151863D02*
Y221437D01*
X151238D02*
X152488D01*
X151238Y253300D02*
X152488D01*
X151863D02*
Y257050D01*
X151238D02*
X152488D01*
X152250Y70687D02*
Y74437D01*
X155375*
X154750Y72563D02*
X152250D01*
Y70687D02*
X155375D01*
X154019Y213506D02*
X155269D01*
X154644D02*
Y217256D01*
X154019D02*
X155269D01*
X154019Y343369D02*
X155269D01*
X154644D02*
Y347119D01*
X154019D02*
X155269D01*
X158375Y496313D02*
X158063Y496000D01*
X157437Y495687*
X156500*
X155875Y496000*
X155563Y496313*
X155250Y496937*
Y498187*
X155563Y498813*
X155875Y499125*
X156500Y499437*
X157437*
X158063Y499125*
X158375Y498813*
Y506313D02*
X158063Y506000D01*
X157437Y505687*
X156500*
X155875Y506000*
X155563Y506313*
X155250Y506937*
Y508187*
X155563Y508813*
X155875Y509125*
X156500Y509437*
X157437*
X158063Y509125*
X158375Y508813*
X157006Y126574D02*
X158256D01*
X157631D02*
Y130324D01*
X157006D02*
X158256D01*
X158506Y80631D02*
X159756D01*
X159131D02*
Y84381D01*
X158506D02*
X159756D01*
X162250Y70687D02*
Y74437D01*
X165375*
X164750Y72563D02*
X162250D01*
Y70687D02*
X165375D01*
X164937Y260563D02*
X165563Y260250D01*
X165875Y259625*
X165563Y259000*
X164937Y258687*
X162750*
Y262437*
X164937*
X165563Y262125*
X165875Y261500*
X165563Y260875*
X164937Y260563*
X162750*
X164937Y270563D02*
X165563Y270250D01*
X165875Y269625*
X165563Y269000*
X164937Y268687*
X162750*
Y272437*
X164937*
X165563Y272125*
X165875Y271500*
X165563Y270875*
X164937Y270563*
X162750*
X164937Y280563D02*
X165563Y280250D01*
X165875Y279625*
X165563Y279000*
X164937Y278687*
X162750*
Y282437*
X164937*
X165563Y282125*
X165875Y281500*
X165563Y280875*
X164937Y280563*
X162750*
X164937Y290563D02*
X165563Y290250D01*
X165875Y289625*
X165563Y289000*
X164937Y288687*
X162750*
Y292437*
X164937*
X165563Y292125*
X165875Y291500*
X165563Y290875*
X164937Y290563*
X162750*
X164937Y300563D02*
X165563Y300250D01*
X165875Y299625*
X165563Y299000*
X164937Y298687*
X162750*
Y302437*
X164937*
X165563Y302125*
X165875Y301500*
X165563Y300875*
X164937Y300563*
X162750*
X164937Y310563D02*
X165563Y310250D01*
X165875Y309625*
X165563Y309000*
X164937Y308687*
X162750*
Y312437*
X164937*
X165563Y312125*
X165875Y311500*
X165563Y310875*
X164937Y310563*
X162750*
X164937Y320563D02*
X165563Y320250D01*
X165875Y319625*
X165563Y319000*
X164937Y318687*
X162750*
Y322437*
X164937*
X165563Y322125*
X165875Y321500*
X165563Y320875*
X164937Y320563*
X162750*
X164937Y330563D02*
X165563Y330250D01*
X165875Y329625*
X165563Y329000*
X164937Y328687*
X162750*
Y332437*
X164937*
X165563Y332125*
X165875Y331500*
X165563Y330875*
X164937Y330563*
X162750*
X164937Y341063D02*
X165563Y340750D01*
X165875Y340125*
X165563Y339500*
X164937Y339187*
X162750*
Y342937*
X164937*
X165563Y342625*
X165875Y342000*
X165563Y341375*
X164937Y341063*
X162750*
X163687Y474493D02*
X164937D01*
X164313D02*
Y478243D01*
X163687D02*
X164937D01*
X165937Y159563D02*
X166563Y159250D01*
X166875Y158625*
X166563Y158000*
X165937Y157687*
X163750*
Y161437*
X165937*
X166563Y161125*
X166875Y160500*
X166563Y159875*
X165937Y159563*
X163750*
X165937Y169563D02*
X166563Y169250D01*
X166875Y168625*
X166563Y168000*
X165937Y167687*
X163750*
Y171437*
X165937*
X166563Y171125*
X166875Y170500*
X166563Y169875*
X165937Y169563*
X163750*
X165937Y179563D02*
X166563Y179250D01*
X166875Y178625*
X166563Y178000*
X165937Y177687*
X163750*
Y181437*
X165937*
X166563Y181125*
X166875Y180500*
X166563Y179875*
X165937Y179563*
X163750*
X165937Y189563D02*
X166563Y189250D01*
X166875Y188625*
X166563Y188000*
X165937Y187687*
X163750*
Y191437*
X165937*
X166563Y191125*
X166875Y190500*
X166563Y189875*
X165937Y189563*
X163750*
X165937Y199563D02*
X166563Y199250D01*
X166875Y198625*
X166563Y198000*
X165937Y197687*
X163750*
Y201437*
X165937*
X166563Y201125*
X166875Y200500*
X166563Y199875*
X165937Y199563*
X163750*
X165937Y209563D02*
X166563Y209250D01*
X166875Y208625*
X166563Y208000*
X165937Y207687*
X163750*
Y211437*
X165937*
X166563Y211125*
X166875Y210500*
X166563Y209875*
X165937Y209563*
X163750*
X165937Y219563D02*
X166563Y219250D01*
X166875Y218625*
X166563Y218000*
X165937Y217687*
X163750*
Y221437*
X165937*
X166563Y221125*
X166875Y220500*
X166563Y219875*
X165937Y219563*
X163750*
X165937Y229563D02*
X166563Y229250D01*
X166875Y228625*
X166563Y228000*
X165937Y227687*
X163750*
Y231437*
X165937*
X166563Y231125*
X166875Y230500*
X166563Y229875*
X165937Y229563*
X163750*
X164687Y432869D02*
X165937D01*
X165313D02*
Y436619D01*
X164687D02*
X165937D01*
X168375Y496313D02*
X168063Y496000D01*
X167437Y495687*
X166500*
X165875Y496000*
X165563Y496313*
X165250Y496937*
Y498187*
X165563Y498813*
X165875Y499125*
X166500Y499437*
X167437*
X168063Y499125*
X168375Y498813*
Y506313D02*
X168063Y506000D01*
X167437Y505687*
X166500*
X165875Y506000*
X165563Y506313*
X165250Y506937*
Y508187*
X165563Y508813*
X165875Y509125*
X166500Y509437*
X167437*
X168063Y509125*
X168375Y508813*
X167869Y343369D02*
X169119D01*
X168494D02*
Y347119D01*
X167869D02*
X169119D01*
X167869Y440087D02*
X169119D01*
X168494D02*
Y443837D01*
X167869D02*
X169119D01*
X168019Y449637D02*
X169269D01*
X168644D02*
Y453387D01*
X168019D02*
X169269D01*
X171937Y103063D02*
X172563Y102750D01*
X172875Y102125*
X172563Y101500*
X171937Y101187*
X169750*
Y104937*
X171937*
X172563Y104625*
X172875Y104000*
X172563Y103375*
X171937Y103063*
X169750*
X171369Y153506D02*
X172619D01*
X171994D02*
Y157256D01*
X171369D02*
X172619D01*
X171369Y173506D02*
X172619D01*
X171994D02*
Y177256D01*
X171369D02*
X172619D01*
X171369Y181869D02*
X172619D01*
X171994D02*
Y185619D01*
X171369D02*
X172619D01*
X171575Y328687D02*
X172825D01*
X172200D02*
Y332437D01*
X171575D02*
X172825D01*
X171575Y352869D02*
X172825D01*
X172200D02*
Y356619D01*
X171575D02*
X172825D01*
X173150Y233344D02*
X174400D01*
X173775D02*
Y237094D01*
X173150D02*
X174400D01*
X174437Y39563D02*
X175063Y39250D01*
X175375Y38625*
X175063Y38000*
X174437Y37687*
X172250*
Y41437*
X174437*
X175063Y41125*
X175375Y40500*
X175063Y39875*
X174437Y39563*
X172250*
X174150Y438431D02*
X175400D01*
X174776D02*
Y442181D01*
X174150D02*
X175400D01*
X175725Y328687D02*
X176975D01*
X176350D02*
Y332437D01*
X175725D02*
X176975D01*
X175725Y345906D02*
X176975D01*
X176350D02*
Y349656D01*
X175725D02*
X176975D01*
X175725Y354075D02*
X176975D01*
X176350D02*
Y357825D01*
X175725D02*
X176975D01*
X175725Y447224D02*
X176975D01*
X176350D02*
Y450974D01*
X175725D02*
X176975D01*
X178375Y496313D02*
X178063Y496000D01*
X177437Y495687*
X176500*
X175875Y496000*
X175563Y496313*
X175250Y496937*
Y498187*
X175563Y498813*
X175875Y499125*
X176500Y499437*
X177437*
X178063Y499125*
X178375Y498813*
Y506313D02*
X178063Y506000D01*
X177437Y505687*
X176500*
X175875Y506000*
X175563Y506313*
X175250Y506937*
Y508187*
X175563Y508813*
X175875Y509125*
X176500Y509437*
X177437*
X178063Y509125*
X178375Y508813*
X178262Y156113D02*
X179512D01*
X178887D02*
Y159863D01*
X178262D02*
X179512D01*
X178506Y307224D02*
X179756D01*
X179131D02*
Y310974D01*
X178506D02*
X179756D01*
X178506Y422869D02*
X179756D01*
X179131D02*
Y426619D01*
X178506D02*
X179756D01*
X179444Y236125D02*
X180694D01*
X180069D02*
Y239875D01*
X179444D02*
X180694D01*
X179444Y278687D02*
X180694D01*
X180069D02*
Y282437D01*
X179444D02*
X180694D01*
X179444Y290519D02*
X180694D01*
X180069D02*
Y294269D01*
X179444D02*
X180694D01*
X181043Y177687D02*
X182293D01*
X181669D02*
Y181437D01*
X181043D02*
X182293D01*
X182225Y249993D02*
X183475D01*
X182850D02*
Y253743D01*
X182225D02*
X183475D01*
X182225Y264506D02*
X183475D01*
X182850D02*
Y268256D01*
X182225D02*
X183475D01*
X182225Y304443D02*
X183475D01*
X182850D02*
Y308193D01*
X182225D02*
X183475D01*
X182225Y361469D02*
X183475D01*
X182850D02*
Y365219D01*
X182225D02*
X183475D01*
X183937Y400563D02*
X184563Y400250D01*
X184875Y399625*
X184563Y399000*
X183937Y398687*
X181750*
Y402437*
X183937*
X184563Y402125*
X184875Y401500*
X184563Y400875*
X183937Y400563*
X181750*
X183937Y420563D02*
X184563Y420250D01*
X184875Y419625*
X184563Y419000*
X183937Y418687*
X181750*
Y422437*
X183937*
X184563Y422125*
X184875Y421500*
X184563Y420875*
X183937Y420563*
X181750*
X183937Y440563D02*
X184563Y440250D01*
X184875Y439625*
X184563Y439000*
X183937Y438687*
X181750*
Y442437*
X183937*
X184563Y442125*
X184875Y441500*
X184563Y440875*
X183937Y440563*
X181750*
X183937Y461063D02*
X184563Y460750D01*
X184875Y460125*
X184563Y459500*
X183937Y459187*
X181750*
Y462937*
X183937*
X184563Y462625*
X184875Y462000*
X184563Y461375*
X183937Y461063*
X181750*
X183985Y380087D02*
X185235D01*
X184610D02*
Y383837D01*
X183985D02*
X185235D01*
X184019Y167687D02*
X185269D01*
X184644D02*
Y171437D01*
X184019D02*
X185269D01*
X184019Y181869D02*
X185269D01*
X184644D02*
Y185619D01*
X184019D02*
X185269D01*
X183250Y134687D02*
Y138437D01*
X186375*
X185750Y136563D02*
X183250D01*
X185006Y241687D02*
X186256D01*
X185631D02*
Y245437D01*
X185006D02*
X186256D01*
X186937Y103063D02*
X187563Y102750D01*
X187875Y102125*
X187563Y101500*
X186937Y101187*
X184750*
Y104937*
X186937*
X187563Y104625*
X187875Y104000*
X187563Y103375*
X186937Y103063*
X184750*
X186187Y463369D02*
X187437D01*
X186813D02*
Y467119D01*
X186187D02*
X187437D01*
X188375Y496313D02*
X188063Y496000D01*
X187437Y495687*
X186500*
X185875Y496000*
X185563Y496313*
X185250Y496937*
Y498187*
X185563Y498813*
X185875Y499125*
X186500Y499437*
X187437*
X188063Y499125*
X188375Y498813*
Y506313D02*
X188063Y506000D01*
X187437Y505687*
X186500*
X185875Y506000*
X185563Y506313*
X185250Y506937*
Y508187*
X185563Y508813*
X185875Y509125*
X186500Y509437*
X187437*
X188063Y509125*
X188375Y508813*
X192937Y260563D02*
X193563Y260250D01*
X193875Y259625*
X193563Y259000*
X192937Y258687*
X190750*
Y262437*
X192937*
X193563Y262125*
X193875Y261500*
X193563Y260875*
X192937Y260563*
X190750*
X192937Y270563D02*
X193563Y270250D01*
X193875Y269625*
X193563Y269000*
X192937Y268687*
X190750*
Y272437*
X192937*
X193563Y272125*
X193875Y271500*
X193563Y270875*
X192937Y270563*
X190750*
X192937Y280563D02*
X193563Y280250D01*
X193875Y279625*
X193563Y279000*
X192937Y278687*
X190750*
Y282437*
X192937*
X193563Y282125*
X193875Y281500*
X193563Y280875*
X192937Y280563*
X190750*
X192937Y290563D02*
X193563Y290250D01*
X193875Y289625*
X193563Y289000*
X192937Y288687*
X190750*
Y292437*
X192937*
X193563Y292125*
X193875Y291500*
X193563Y290875*
X192937Y290563*
X190750*
X192937Y300563D02*
X193563Y300250D01*
X193875Y299625*
X193563Y299000*
X192937Y298687*
X190750*
Y302437*
X192937*
X193563Y302125*
X193875Y301500*
X193563Y300875*
X192937Y300563*
X190750*
X192937Y310563D02*
X193563Y310250D01*
X193875Y309625*
X193563Y309000*
X192937Y308687*
X190750*
Y312437*
X192937*
X193563Y312125*
X193875Y311500*
X193563Y310875*
X192937Y310563*
X190750*
X192937Y320563D02*
X193563Y320250D01*
X193875Y319625*
X193563Y319000*
X192937Y318687*
X190750*
Y322437*
X192937*
X193563Y322125*
X193875Y321500*
X193563Y320875*
X192937Y320563*
X190750*
X192937Y330563D02*
X193563Y330250D01*
X193875Y329625*
X193563Y329000*
X192937Y328687*
X190750*
Y332437*
X192937*
X193563Y332125*
X193875Y331500*
X193563Y330875*
X192937Y330563*
X190750*
X192937Y340563D02*
X193563Y340250D01*
X193875Y339625*
X193563Y339000*
X192937Y338687*
X190750*
Y342437*
X192937*
X193563Y342125*
X193875Y341500*
X193563Y340875*
X192937Y340563*
X190750*
X192937Y350563D02*
X193563Y350250D01*
X193875Y349625*
X193563Y349000*
X192937Y348687*
X190750*
Y352437*
X192937*
X193563Y352125*
X193875Y351500*
X193563Y350875*
X192937Y350563*
X190750*
X192937Y360563D02*
X193563Y360250D01*
X193875Y359625*
X193563Y359000*
X192937Y358687*
X190750*
Y362437*
X192937*
X193563Y362125*
X193875Y361500*
X193563Y360875*
X192937Y360563*
X190750*
X192937Y370563D02*
X193563Y370250D01*
X193875Y369625*
X193563Y369000*
X192937Y368687*
X190750*
Y372437*
X192937*
X193563Y372125*
X193875Y371500*
X193563Y370875*
X192937Y370563*
X190750*
X192937Y380563D02*
X193563Y380250D01*
X193875Y379625*
X193563Y379000*
X192937Y378687*
X190750*
Y382437*
X192937*
X193563Y382125*
X193875Y381500*
X193563Y380875*
X192937Y380563*
X190750*
X192937Y390563D02*
X193563Y390250D01*
X193875Y389625*
X193563Y389000*
X192937Y388687*
X190750*
Y392437*
X192937*
X193563Y392125*
X193875Y391500*
X193563Y390875*
X192937Y390563*
X190750*
X192937Y400563D02*
X193563Y400250D01*
X193875Y399625*
X193563Y399000*
X192937Y398687*
X190750*
Y402437*
X192937*
X193563Y402125*
X193875Y401500*
X193563Y400875*
X192937Y400563*
X190750*
X192937Y410563D02*
X193563Y410250D01*
X193875Y409625*
X193563Y409000*
X192937Y408687*
X190750*
Y412437*
X192937*
X193563Y412125*
X193875Y411500*
X193563Y410875*
X192937Y410563*
X190750*
X192937Y420563D02*
X193563Y420250D01*
X193875Y419625*
X193563Y419000*
X192937Y418687*
X190750*
Y422437*
X192937*
X193563Y422125*
X193875Y421500*
X193563Y420875*
X192937Y420563*
X190750*
X192937Y430563D02*
X193563Y430250D01*
X193875Y429625*
X193563Y429000*
X192937Y428687*
X190750*
Y432437*
X192937*
X193563Y432125*
X193875Y431500*
X193563Y430875*
X192937Y430563*
X190750*
X192937Y440563D02*
X193563Y440250D01*
X193875Y439625*
X193563Y439000*
X192937Y438687*
X190750*
Y442437*
X192937*
X193563Y442125*
X193875Y441500*
X193563Y440875*
X192937Y440563*
X190750*
X192937Y450563D02*
X193563Y450250D01*
X193875Y449625*
X193563Y449000*
X192937Y448687*
X190750*
Y452437*
X192937*
X193563Y452125*
X193875Y451500*
X193563Y450875*
X192937Y450563*
X190750*
X192937Y461063D02*
X193563Y460750D01*
X193875Y460125*
X193563Y459500*
X192937Y459187*
X190750*
Y462937*
X192937*
X193563Y462625*
X193875Y462000*
X193563Y461375*
X192937Y461063*
X190750*
X192762Y62369D02*
X194012D01*
X193387D02*
Y66119D01*
X192762D02*
X194012D01*
X192762Y99613D02*
X194012D01*
X193387D02*
Y103363D01*
X192762D02*
X194012D01*
X195937Y159563D02*
X196563Y159250D01*
X196875Y158625*
X196563Y158000*
X195937Y157687*
X193750*
Y161437*
X195937*
X196563Y161125*
X196875Y160500*
X196563Y159875*
X195937Y159563*
X193750*
X195937Y169563D02*
X196563Y169250D01*
X196875Y168625*
X196563Y168000*
X195937Y167687*
X193750*
Y171437*
X195937*
X196563Y171125*
X196875Y170500*
X196563Y169875*
X195937Y169563*
X193750*
X195937Y179563D02*
X196563Y179250D01*
X196875Y178625*
X196563Y178000*
X195937Y177687*
X193750*
Y181437*
X195937*
X196563Y181125*
X196875Y180500*
X196563Y179875*
X195937Y179563*
X193750*
X195937Y189563D02*
X196563Y189250D01*
X196875Y188625*
X196563Y188000*
X195937Y187687*
X193750*
Y191437*
X195937*
X196563Y191125*
X196875Y190500*
X196563Y189875*
X195937Y189563*
X193750*
X195937Y199563D02*
X196563Y199250D01*
X196875Y198625*
X196563Y198000*
X195937Y197687*
X193750*
Y201437*
X195937*
X196563Y201125*
X196875Y200500*
X196563Y199875*
X195937Y199563*
X193750*
X195937Y209563D02*
X196563Y209250D01*
X196875Y208625*
X196563Y208000*
X195937Y207687*
X193750*
Y211437*
X195937*
X196563Y211125*
X196875Y210500*
X196563Y209875*
X195937Y209563*
X193750*
X195937Y219563D02*
X196563Y219250D01*
X196875Y218625*
X196563Y218000*
X195937Y217687*
X193750*
Y221437*
X195937*
X196563Y221125*
X196875Y220500*
X196563Y219875*
X195937Y219563*
X193750*
X195937Y229563D02*
X196563Y229250D01*
X196875Y228625*
X196563Y228000*
X195937Y227687*
X193750*
Y231437*
X195937*
X196563Y231125*
X196875Y230500*
X196563Y229875*
X195937Y229563*
X193750*
X195543Y94050D02*
X196793D01*
X196169D02*
Y97800D01*
X195543D02*
X196793D01*
X195543Y114006D02*
X196793D01*
X196169D02*
Y117756D01*
X195543D02*
X196793D01*
X198375Y496313D02*
X198063Y496000D01*
X197437Y495687*
X196500*
X195875Y496000*
X195563Y496313*
X195250Y496937*
Y498187*
X195563Y498813*
X195875Y499125*
X196500Y499437*
X197437*
X198063Y499125*
X198375Y498813*
Y506313D02*
X198063Y506000D01*
X197437Y505687*
X196500*
X195875Y506000*
X195563Y506313*
X195250Y506937*
Y508187*
X195563Y508813*
X195875Y509125*
X196500Y509437*
X197437*
X198063Y509125*
X198375Y508813*
X198369Y254506D02*
X199619D01*
X198994D02*
Y258256D01*
X198369D02*
X199619D01*
X198369Y362869D02*
X199619D01*
X198994D02*
Y366619D01*
X198369D02*
X199619D01*
X198369Y457287D02*
X199619D01*
X198994D02*
Y461037D01*
X198369D02*
X199619D01*
X201369Y173506D02*
X202619D01*
X201994D02*
Y177256D01*
X201369D02*
X202619D01*
X201369Y290519D02*
X202619D01*
X201994D02*
Y294269D01*
X201369D02*
X202619D01*
X205375Y58813D02*
X205063Y58500D01*
X204437Y58187*
X203500*
X202875Y58500*
X202563Y58813*
X202250Y59437*
Y60687*
X202563Y61313*
X202875Y61625*
X203500Y61937*
X204437*
X205063Y61625*
X205375Y61313*
Y118813D02*
X205063Y118500D01*
X204437Y118187*
X203500*
X202875Y118500*
X202563Y118813*
X202250Y119437*
Y120687*
X202563Y121313*
X202875Y121625*
X203500Y121937*
X204437*
X205063Y121625*
X205375Y121313*
X203406Y374443D02*
X204656D01*
X204031D02*
Y378193D01*
X203406D02*
X204656D01*
X205356Y226300D02*
X206606D01*
X205981D02*
Y230050D01*
X205356D02*
X206606D01*
X205356Y338687D02*
X206606D01*
X205981D02*
Y342437D01*
X205356D02*
X206606D01*
X206187Y480055D02*
X207437D01*
X206813D02*
Y483805D01*
X206187D02*
X207437D01*
X208375Y496313D02*
X208063Y496000D01*
X207437Y495687*
X206500*
X205875Y496000*
X205563Y496313*
X205250Y496937*
Y498187*
X205563Y498813*
X205875Y499125*
X206500Y499437*
X207437*
X208063Y499125*
X208375Y498813*
Y506313D02*
X208063Y506000D01*
X207437Y505687*
X206500*
X205875Y506000*
X205563Y506313*
X205250Y506937*
Y508187*
X205563Y508813*
X205875Y509125*
X206500Y509437*
X207437*
X208063Y509125*
X208375Y508813*
X207762Y358687D02*
X209012D01*
X208387D02*
Y362437D01*
X207762D02*
X209012D01*
X208137Y268687D02*
X209387D01*
X208762D02*
Y272437D01*
X208137D02*
X209387D01*
X210918Y177687D02*
X212168D01*
X211543D02*
Y181437D01*
X210918D02*
X212168D01*
X210918Y256081D02*
X212168D01*
X211543D02*
Y259831D01*
X210918D02*
X212168D01*
X210944Y149163D02*
X212194D01*
X211569D02*
Y152913D01*
X210944D02*
X212194D01*
X212239Y388687D02*
X213489D01*
X212864D02*
Y392437D01*
X212239D02*
X213489D01*
X215375Y58813D02*
X215063Y58500D01*
X214437Y58187*
X213500*
X212875Y58500*
X212563Y58813*
X212250Y59437*
Y60687*
X212563Y61313*
X212875Y61625*
X213500Y61937*
X214437*
X215063Y61625*
X215375Y61313*
Y118813D02*
X215063Y118500D01*
X214437Y118187*
X213500*
X212875Y118500*
X212563Y118813*
X212250Y119437*
Y120687*
X212563Y121313*
X212875Y121625*
X213500Y121937*
X214437*
X215063Y121625*
X215375Y121313*
X213406Y294506D02*
X214656D01*
X214031D02*
Y298256D01*
X213406D02*
X214656D01*
X213406Y315906D02*
X214656D01*
X214031D02*
Y319656D01*
X213406D02*
X214656D01*
X215020Y438687D02*
X216270D01*
X215645D02*
Y442437D01*
X215020D02*
X216270D01*
X218375Y496313D02*
X218063Y496000D01*
X217437Y495687*
X216500*
X215875Y496000*
X215563Y496313*
X215250Y496937*
Y498187*
X215563Y498813*
X215875Y499125*
X216500Y499437*
X217437*
X218063Y499125*
X218375Y498813*
Y506313D02*
X218063Y506000D01*
X217437Y505687*
X216500*
X215875Y506000*
X215563Y506313*
X215250Y506937*
Y508187*
X215563Y508813*
X215875Y509125*
X216500Y509437*
X217437*
X218063Y509125*
X218375Y508813*
X216506Y153506D02*
X217756D01*
X217131D02*
Y157256D01*
X216506D02*
X217756D01*
X219225Y480055D02*
X220475D01*
X219850D02*
Y483805D01*
X219225D02*
X220475D01*
X219287Y251687D02*
X220537D01*
X219913D02*
Y255437D01*
X219287D02*
X220537D01*
X219287Y313300D02*
X220537D01*
X219913D02*
Y317050D01*
X219287D02*
X220537D01*
X220494Y317306D02*
X221744D01*
X221119D02*
Y321056D01*
X220494D02*
X221744D01*
X220494Y322869D02*
X221744D01*
X221119D02*
Y326619D01*
X220494D02*
X221744D01*
X222937Y461063D02*
X223563Y460750D01*
X223875Y460125*
X223563Y459500*
X222937Y459187*
X220750*
Y462937*
X222937*
X223563Y462625*
X223875Y462000*
X223563Y461375*
X222937Y461063*
X220750*
X223087Y345906D02*
X224337D01*
X223713D02*
Y349656D01*
X223087D02*
X224337D01*
X225375Y58813D02*
X225063Y58500D01*
X224437Y58187*
X223500*
X222875Y58500*
X222563Y58813*
X222250Y59437*
Y60687*
X222563Y61313*
X222875Y61625*
X223500Y61937*
X224437*
X225063Y61625*
X225375Y61313*
Y118813D02*
X225063Y118500D01*
X224437Y118187*
X223500*
X222875Y118500*
X222563Y118813*
X222250Y119437*
Y120687*
X222563Y121313*
X222875Y121625*
X223500Y121937*
X224437*
X225063Y121625*
X225375Y121313*
X224437Y159563D02*
X225063Y159250D01*
X225375Y158625*
X225063Y158000*
X224437Y157687*
X222250*
Y161437*
X224437*
X225063Y161125*
X225375Y160500*
X225063Y159875*
X224437Y159563*
X222250*
X224437Y169563D02*
X225063Y169250D01*
X225375Y168625*
X225063Y168000*
X224437Y167687*
X222250*
Y171437*
X224437*
X225063Y171125*
X225375Y170500*
X225063Y169875*
X224437Y169563*
X222250*
X224437Y179563D02*
X225063Y179250D01*
X225375Y178625*
X225063Y178000*
X224437Y177687*
X222250*
Y181437*
X224437*
X225063Y181125*
X225375Y180500*
X225063Y179875*
X224437Y179563*
X222250*
X224437Y189563D02*
X225063Y189250D01*
X225375Y188625*
X225063Y188000*
X224437Y187687*
X222250*
Y191437*
X224437*
X225063Y191125*
X225375Y190500*
X225063Y189875*
X224437Y189563*
X222250*
X224437Y199563D02*
X225063Y199250D01*
X225375Y198625*
X225063Y198000*
X224437Y197687*
X222250*
Y201437*
X224437*
X225063Y201125*
X225375Y200500*
X225063Y199875*
X224437Y199563*
X222250*
X224437Y209563D02*
X225063Y209250D01*
X225375Y208625*
X225063Y208000*
X224437Y207687*
X222250*
Y211437*
X224437*
X225063Y211125*
X225375Y210500*
X225063Y209875*
X224437Y209563*
X222250*
X224437Y219563D02*
X225063Y219250D01*
X225375Y218625*
X225063Y218000*
X224437Y217687*
X222250*
Y221437*
X224437*
X225063Y221125*
X225375Y220500*
X225063Y219875*
X224437Y219563*
X222250*
X223262Y362869D02*
X224512D01*
X223887D02*
Y366619D01*
X223262D02*
X224512D01*
X228375Y496313D02*
X228063Y496000D01*
X227437Y495687*
X226500*
X225875Y496000*
X225563Y496313*
X225250Y496937*
Y498187*
X225563Y498813*
X225875Y499125*
X226500Y499437*
X227437*
X228063Y499125*
X228375Y498813*
Y506313D02*
X228063Y506000D01*
X227437Y505687*
X226500*
X225875Y506000*
X225563Y506313*
X225250Y506937*
Y508187*
X225563Y508813*
X225875Y509125*
X226500Y509437*
X227437*
X228063Y509125*
X228375Y508813*
X227087Y268687D02*
X228337D01*
X227713D02*
Y272437D01*
X227087D02*
X228337D01*
X227087Y276300D02*
X228337D01*
X227713D02*
Y280050D01*
X227087D02*
X228337D01*
X227087Y325650D02*
X228337D01*
X227713D02*
Y329400D01*
X227087D02*
X228337D01*
X227087Y358687D02*
X228337D01*
X227713D02*
Y362437D01*
X227087D02*
X228337D01*
X227087Y480055D02*
X228337D01*
X227713D02*
Y483805D01*
X227087D02*
X228337D01*
X229869Y153506D02*
X231119D01*
X230494D02*
Y157256D01*
X229869D02*
X231119D01*
X229869Y171869D02*
X231119D01*
X230494D02*
Y175619D01*
X229869D02*
X231119D01*
X229869Y298687D02*
X231119D01*
X230494D02*
Y302437D01*
X229869D02*
X231119D01*
X229869Y314506D02*
X231119D01*
X230494D02*
Y318256D01*
X229869D02*
X231119D01*
X233150Y161869D02*
X234400D01*
X233775D02*
Y165619D01*
X233150D02*
X234400D01*
X235375Y58813D02*
X235063Y58500D01*
X234437Y58187*
X233500*
X232875Y58500*
X232563Y58813*
X232250Y59437*
Y60687*
X232563Y61313*
X232875Y61625*
X233500Y61937*
X234437*
X235063Y61625*
X235375Y61313*
Y118813D02*
X235063Y118500D01*
X234437Y118187*
X233500*
X232875Y118500*
X232563Y118813*
X232250Y119437*
Y120687*
X232563Y121313*
X232875Y121625*
X233500Y121937*
X234437*
X235063Y121625*
X235375Y121313*
X236187Y283300D02*
X237437D01*
X236813D02*
Y287050D01*
X236187D02*
X237437D01*
X238375Y496313D02*
X238063Y496000D01*
X237437Y495687*
X236500*
X235875Y496000*
X235563Y496313*
X235250Y496937*
Y498187*
X235563Y498813*
X235875Y499125*
X236500Y499437*
X237437*
X238063Y499125*
X238375Y498813*
Y506313D02*
X238063Y506000D01*
X237437Y505687*
X236500*
X235875Y506000*
X235563Y506313*
X235250Y506937*
Y508187*
X235563Y508813*
X235875Y509125*
X236500Y509437*
X237437*
X238063Y509125*
X238375Y508813*
X238969Y191869D02*
X240219D01*
X239594D02*
Y195619D01*
X238969D02*
X240219D01*
X238969Y340262D02*
X240219D01*
X239594D02*
Y344012D01*
X238969D02*
X240219D01*
X238969Y368687D02*
X240219D01*
X239594D02*
Y372437D01*
X238969D02*
X240219D01*
X241750Y320087D02*
X243000D01*
X242375D02*
Y323837D01*
X241750D02*
X243000D01*
X241750Y328687D02*
X243000D01*
X242375D02*
Y332437D01*
X241750D02*
X243000D01*
X245375Y58813D02*
X245063Y58500D01*
X244437Y58187*
X243500*
X242875Y58500*
X242563Y58813*
X242250Y59437*
Y60687*
X242563Y61313*
X242875Y61625*
X243500Y61937*
X244437*
X245063Y61625*
X245375Y61313*
X243187Y65869D02*
X244437D01*
X243813D02*
Y69619D01*
X243187D02*
X244437D01*
X245375Y118813D02*
X245063Y118500D01*
X244437Y118187*
X243500*
X242875Y118500*
X242563Y118813*
X242250Y119437*
Y120687*
X242563Y121313*
X242875Y121625*
X243500Y121937*
X244437*
X245063Y121625*
X245375Y121313*
X243213Y388687D02*
X244463D01*
X243838D02*
Y392437D01*
X243213D02*
X244463D01*
X245006Y471712D02*
X246256D01*
X245631D02*
Y475462D01*
X245006D02*
X246256D01*
X245790Y382869D02*
X247040D01*
X246415D02*
Y386619D01*
X245790D02*
X247040D01*
X248375Y496313D02*
X248063Y496000D01*
X247437Y495687*
X246500*
X245875Y496000*
X245563Y496313*
X245250Y496937*
Y498187*
X245563Y498813*
X245875Y499125*
X246500Y499437*
X247437*
X248063Y499125*
X248375Y498813*
Y506313D02*
X248063Y506000D01*
X247437Y505687*
X246500*
X245875Y506000*
X245563Y506313*
X245250Y506937*
Y508187*
X245563Y508813*
X245875Y509125*
X246500Y509437*
X247437*
X248063Y509125*
X248375Y508813*
X252937Y260563D02*
X253563Y260250D01*
X253875Y259625*
X253563Y259000*
X252937Y258687*
X250750*
Y262437*
X252937*
X253563Y262125*
X253875Y261500*
X253563Y260875*
X252937Y260563*
X250750*
X252937Y270563D02*
X253563Y270250D01*
X253875Y269625*
X253563Y269000*
X252937Y268687*
X250750*
Y272437*
X252937*
X253563Y272125*
X253875Y271500*
X253563Y270875*
X252937Y270563*
X250750*
X252937Y280563D02*
X253563Y280250D01*
X253875Y279625*
X253563Y279000*
X252937Y278687*
X250750*
Y282437*
X252937*
X253563Y282125*
X253875Y281500*
X253563Y280875*
X252937Y280563*
X250750*
X252937Y290563D02*
X253563Y290250D01*
X253875Y289625*
X253563Y289000*
X252937Y288687*
X250750*
Y292437*
X252937*
X253563Y292125*
X253875Y291500*
X253563Y290875*
X252937Y290563*
X250750*
X252937Y300563D02*
X253563Y300250D01*
X253875Y299625*
X253563Y299000*
X252937Y298687*
X250750*
Y302437*
X252937*
X253563Y302125*
X253875Y301500*
X253563Y300875*
X252937Y300563*
X250750*
X252937Y310563D02*
X253563Y310250D01*
X253875Y309625*
X253563Y309000*
X252937Y308687*
X250750*
Y312437*
X252937*
X253563Y312125*
X253875Y311500*
X253563Y310875*
X252937Y310563*
X250750*
X252937Y320563D02*
X253563Y320250D01*
X253875Y319625*
X253563Y319000*
X252937Y318687*
X250750*
Y322437*
X252937*
X253563Y322125*
X253875Y321500*
X253563Y320875*
X252937Y320563*
X250750*
X252937Y330563D02*
X253563Y330250D01*
X253875Y329625*
X253563Y329000*
X252937Y328687*
X250750*
Y332437*
X252937*
X253563Y332125*
X253875Y331500*
X253563Y330875*
X252937Y330563*
X250750*
X252937Y340563D02*
X253563Y340250D01*
X253875Y339625*
X253563Y339000*
X252937Y338687*
X250750*
Y342437*
X252937*
X253563Y342125*
X253875Y341500*
X253563Y340875*
X252937Y340563*
X250750*
X252937Y350563D02*
X253563Y350250D01*
X253875Y349625*
X253563Y349000*
X252937Y348687*
X250750*
Y352437*
X252937*
X253563Y352125*
X253875Y351500*
X253563Y350875*
X252937Y350563*
X250750*
X252937Y360563D02*
X253563Y360250D01*
X253875Y359625*
X253563Y359000*
X252937Y358687*
X250750*
Y362437*
X252937*
X253563Y362125*
X253875Y361500*
X253563Y360875*
X252937Y360563*
X250750*
X252937Y370563D02*
X253563Y370250D01*
X253875Y369625*
X253563Y369000*
X252937Y368687*
X250750*
Y372437*
X252937*
X253563Y372125*
X253875Y371500*
X253563Y370875*
X252937Y370563*
X250750*
X252937Y380563D02*
X253563Y380250D01*
X253875Y379625*
X253563Y379000*
X252937Y378687*
X250750*
Y382437*
X252937*
X253563Y382125*
X253875Y381500*
X253563Y380875*
X252937Y380563*
X250750*
X252937Y390563D02*
X253563Y390250D01*
X253875Y389625*
X253563Y389000*
X252937Y388687*
X250750*
Y392437*
X252937*
X253563Y392125*
X253875Y391500*
X253563Y390875*
X252937Y390563*
X250750*
X252937Y400563D02*
X253563Y400250D01*
X253875Y399625*
X253563Y399000*
X252937Y398687*
X250750*
Y402437*
X252937*
X253563Y402125*
X253875Y401500*
X253563Y400875*
X252937Y400563*
X250750*
X252937Y410563D02*
X253563Y410250D01*
X253875Y409625*
X253563Y409000*
X252937Y408687*
X250750*
Y412437*
X252937*
X253563Y412125*
X253875Y411500*
X253563Y410875*
X252937Y410563*
X250750*
X252937Y420563D02*
X253563Y420250D01*
X253875Y419625*
X253563Y419000*
X252937Y418687*
X250750*
Y422437*
X252937*
X253563Y422125*
X253875Y421500*
X253563Y420875*
X252937Y420563*
X250750*
X252937Y430563D02*
X253563Y430250D01*
X253875Y429625*
X253563Y429000*
X252937Y428687*
X250750*
Y432437*
X252937*
X253563Y432125*
X253875Y431500*
X253563Y430875*
X252937Y430563*
X250750*
X252937Y440563D02*
X253563Y440250D01*
X253875Y439625*
X253563Y439000*
X252937Y438687*
X250750*
Y442437*
X252937*
X253563Y442125*
X253875Y441500*
X253563Y440875*
X252937Y440563*
X250750*
X252937Y450563D02*
X253563Y450250D01*
X253875Y449625*
X253563Y449000*
X252937Y448687*
X250750*
Y452437*
X252937*
X253563Y452125*
X253875Y451500*
X253563Y450875*
X252937Y450563*
X250750*
X251687Y455650D02*
X252937D01*
X252313D02*
Y459400D01*
X251687D02*
X252937D01*
X255375Y58813D02*
X255063Y58500D01*
X254437Y58187*
X253500*
X252875Y58500*
X252563Y58813*
X252250Y59437*
Y60687*
X252563Y61313*
X252875Y61625*
X253500Y61937*
X254437*
X255063Y61625*
X255375Y61313*
Y118813D02*
X255063Y118500D01*
X254437Y118187*
X253500*
X252875Y118500*
X252563Y118813*
X252250Y119437*
Y120687*
X252563Y121313*
X252875Y121625*
X253500Y121937*
X254437*
X255063Y121625*
X255375Y121313*
X254437Y159563D02*
X255063Y159250D01*
X255375Y158625*
X255063Y158000*
X254437Y157687*
X252250*
Y161437*
X254437*
X255063Y161125*
X255375Y160500*
X255063Y159875*
X254437Y159563*
X252250*
X254437Y169563D02*
X255063Y169250D01*
X255375Y168625*
X255063Y168000*
X254437Y167687*
X252250*
Y171437*
X254437*
X255063Y171125*
X255375Y170500*
X255063Y169875*
X254437Y169563*
X252250*
X254437Y179563D02*
X255063Y179250D01*
X255375Y178625*
X255063Y178000*
X254437Y177687*
X252250*
Y181437*
X254437*
X255063Y181125*
X255375Y180500*
X255063Y179875*
X254437Y179563*
X252250*
X254437Y189563D02*
X255063Y189250D01*
X255375Y188625*
X255063Y188000*
X254437Y187687*
X252250*
Y191437*
X254437*
X255063Y191125*
X255375Y190500*
X255063Y189875*
X254437Y189563*
X252250*
X254437Y199563D02*
X255063Y199250D01*
X255375Y198625*
X255063Y198000*
X254437Y197687*
X252250*
Y201437*
X254437*
X255063Y201125*
X255375Y200500*
X255063Y199875*
X254437Y199563*
X252250*
X254437Y209563D02*
X255063Y209250D01*
X255375Y208625*
X255063Y208000*
X254437Y207687*
X252250*
Y211437*
X254437*
X255063Y211125*
X255375Y210500*
X255063Y209875*
X254437Y209563*
X252250*
X254437Y219563D02*
X255063Y219250D01*
X255375Y218625*
X255063Y218000*
X254437Y217687*
X252250*
Y221437*
X254437*
X255063Y221125*
X255375Y220500*
X255063Y219875*
X254437Y219563*
X252250*
X258375Y496313D02*
X258063Y496000D01*
X257437Y495687*
X256500*
X255875Y496000*
X255563Y496313*
X255250Y496937*
Y498187*
X255563Y498813*
X255875Y499125*
X256500Y499437*
X257437*
X258063Y499125*
X258375Y498813*
Y506313D02*
X258063Y506000D01*
X257437Y505687*
X256500*
X255875Y506000*
X255563Y506313*
X255250Y506937*
Y508187*
X255563Y508813*
X255875Y509125*
X256500Y509437*
X257437*
X258063Y509125*
X258375Y508813*
X257162Y490300D02*
X258412D01*
X257787D02*
Y494050D01*
X257162D02*
X258412D01*
X258369Y272869D02*
X259619D01*
X258994D02*
Y276619D01*
X258369D02*
X259619D01*
X258369Y294506D02*
X259619D01*
X258994D02*
Y298256D01*
X258369D02*
X259619D01*
X258369Y362869D02*
X259619D01*
X258994D02*
Y366619D01*
X258369D02*
X259619D01*
X259575Y221869D02*
X260825D01*
X260200D02*
Y225619D01*
X259575D02*
X260825D01*
X259943Y463369D02*
X261193D01*
X260569D02*
Y467119D01*
X259943D02*
X261193D01*
X261150Y378687D02*
X262400D01*
X261775D02*
Y382437D01*
X261150D02*
X262400D01*
X265375Y58813D02*
X265063Y58500D01*
X264437Y58187*
X263500*
X262875Y58500*
X262563Y58813*
X262250Y59437*
Y60687*
X262563Y61313*
X262875Y61625*
X263500Y61937*
X264437*
X265063Y61625*
X265375Y61313*
Y118813D02*
X265063Y118500D01*
X264437Y118187*
X263500*
X262875Y118500*
X262563Y118813*
X262250Y119437*
Y120687*
X262563Y121313*
X262875Y121625*
X263500Y121937*
X264437*
X265063Y121625*
X265375Y121313*
X263444Y243519D02*
X264694D01*
X264069D02*
Y247269D01*
X263444D02*
X264694D01*
X263444Y281764D02*
X264694D01*
X264069D02*
Y285514D01*
X263444D02*
X264694D01*
X268375Y496313D02*
X268063Y496000D01*
X267437Y495687*
X266500*
X265875Y496000*
X265563Y496313*
X265250Y496937*
Y498187*
X265563Y498813*
X265875Y499125*
X266500Y499437*
X267437*
X268063Y499125*
X268375Y498813*
Y506313D02*
X268063Y506000D01*
X267437Y505687*
X266500*
X265875Y506000*
X265563Y506313*
X265250Y506937*
Y508187*
X265563Y508813*
X265875Y509125*
X266500Y509437*
X267437*
X268063Y509125*
X268375Y508813*
X266225Y151944D02*
X267475D01*
X266850D02*
Y155694D01*
X266225D02*
X267475D01*
X266225Y238906D02*
X267475D01*
X266850D02*
Y242656D01*
X266225D02*
X267475D01*
X266225Y278906D02*
X267475D01*
X266850D02*
Y282656D01*
X266225D02*
X267475D01*
X266225Y355650D02*
X267475D01*
X266850D02*
Y359400D01*
X266225D02*
X267475D01*
X267918Y438687D02*
X269168D01*
X268543D02*
Y442437D01*
X267918D02*
X269168D01*
X267918Y448687D02*
X269168D01*
X268543D02*
Y452437D01*
X267918D02*
X269168D01*
X269006Y50000D02*
X270256D01*
X269631D02*
Y53750D01*
X269006D02*
X270256D01*
X275375Y58813D02*
X275063Y58500D01*
X274437Y58187*
X273500*
X272875Y58500*
X272563Y58813*
X272250Y59437*
Y60687*
X272563Y61313*
X272875Y61625*
X273500Y61937*
X274437*
X275063Y61625*
X275375Y61313*
Y118813D02*
X275063Y118500D01*
X274437Y118187*
X273500*
X272875Y118500*
X272563Y118813*
X272250Y119437*
Y120687*
X272563Y121313*
X272875Y121625*
X273500Y121937*
X274437*
X275063Y121625*
X275375Y121313*
X274006Y197506D02*
X275256D01*
X274631D02*
Y201256D01*
X274006D02*
X275256D01*
X274006Y257506D02*
X275256D01*
X274631D02*
Y261256D01*
X274006D02*
X275256D01*
X274006Y285869D02*
X275256D01*
X274631D02*
Y289619D01*
X274006D02*
X275256D01*
X275969Y308687D02*
X277219D01*
X276594D02*
Y312437D01*
X275969D02*
X277219D01*
X278375Y496313D02*
X278063Y496000D01*
X277437Y495687*
X276500*
X275875Y496000*
X275563Y496313*
X275250Y496937*
Y498187*
X275563Y498813*
X275875Y499125*
X276500Y499437*
X277437*
X278063Y499125*
X278375Y498813*
Y506313D02*
X278063Y506000D01*
X277437Y505687*
X276500*
X275875Y506000*
X275563Y506313*
X275250Y506937*
Y508187*
X275563Y508813*
X275875Y509125*
X276500Y509437*
X277437*
X278063Y509125*
X278375Y508813*
X281937Y163563D02*
X282563Y163250D01*
X282875Y162625*
X282563Y162000*
X281937Y161687*
X279750*
Y165437*
X281937*
X282563Y165125*
X282875Y164500*
X282563Y163875*
X281937Y163563*
X279750*
X281937Y173563D02*
X282563Y173250D01*
X282875Y172625*
X282563Y172000*
X281937Y171687*
X279750*
Y175437*
X281937*
X282563Y175125*
X282875Y174500*
X282563Y173875*
X281937Y173563*
X279750*
X281937Y183563D02*
X282563Y183250D01*
X282875Y182625*
X282563Y182000*
X281937Y181687*
X279750*
Y185437*
X281937*
X282563Y185125*
X282875Y184500*
X282563Y183875*
X281937Y183563*
X279750*
X281937Y193563D02*
X282563Y193250D01*
X282875Y192625*
X282563Y192000*
X281937Y191687*
X279750*
Y195437*
X281937*
X282563Y195125*
X282875Y194500*
X282563Y193875*
X281937Y193563*
X279750*
X281937Y203563D02*
X282563Y203250D01*
X282875Y202625*
X282563Y202000*
X281937Y201687*
X279750*
Y205437*
X281937*
X282563Y205125*
X282875Y204500*
X282563Y203875*
X281937Y203563*
X279750*
X281937Y213563D02*
X282563Y213250D01*
X282875Y212625*
X282563Y212000*
X281937Y211687*
X279750*
Y215437*
X281937*
X282563Y215125*
X282875Y214500*
X282563Y213875*
X281937Y213563*
X279750*
X281937Y223563D02*
X282563Y223250D01*
X282875Y222625*
X282563Y222000*
X281937Y221687*
X279750*
Y225437*
X281937*
X282563Y225125*
X282875Y224500*
X282563Y223875*
X281937Y223563*
X279750*
X281937Y233563D02*
X282563Y233250D01*
X282875Y232625*
X282563Y232000*
X281937Y231687*
X279750*
Y235437*
X281937*
X282563Y235125*
X282875Y234500*
X282563Y233875*
X281937Y233563*
X279750*
X281937Y243563D02*
X282563Y243250D01*
X282875Y242625*
X282563Y242000*
X281937Y241687*
X279750*
Y245437*
X281937*
X282563Y245125*
X282875Y244500*
X282563Y243875*
X281937Y243563*
X279750*
X281937Y253563D02*
X282563Y253250D01*
X282875Y252625*
X282563Y252000*
X281937Y251687*
X279750*
Y255437*
X281937*
X282563Y255125*
X282875Y254500*
X282563Y253875*
X281937Y253563*
X279750*
X281937Y263563D02*
X282563Y263250D01*
X282875Y262625*
X282563Y262000*
X281937Y261687*
X279750*
Y265437*
X281937*
X282563Y265125*
X282875Y264500*
X282563Y263875*
X281937Y263563*
X279750*
X281937Y273563D02*
X282563Y273250D01*
X282875Y272625*
X282563Y272000*
X281937Y271687*
X279750*
Y275437*
X281937*
X282563Y275125*
X282875Y274500*
X282563Y273875*
X281937Y273563*
X279750*
X281937Y283563D02*
X282563Y283250D01*
X282875Y282625*
X282563Y282000*
X281937Y281687*
X279750*
Y285437*
X281937*
X282563Y285125*
X282875Y284500*
X282563Y283875*
X281937Y283563*
X279750*
X281937Y293563D02*
X282563Y293250D01*
X282875Y292625*
X282563Y292000*
X281937Y291687*
X279750*
Y295437*
X281937*
X282563Y295125*
X282875Y294500*
X282563Y293875*
X281937Y293563*
X279750*
X280687Y304506D02*
X281937D01*
X281313D02*
Y308256D01*
X280687D02*
X281937D01*
Y320563D02*
X282563Y320250D01*
X282875Y319625*
X282563Y319000*
X281937Y318687*
X279750*
Y322437*
X281937*
X282563Y322125*
X282875Y321500*
X282563Y320875*
X281937Y320563*
X279750*
X281937Y330563D02*
X282563Y330250D01*
X282875Y329625*
X282563Y329000*
X281937Y328687*
X279750*
Y332437*
X281937*
X282563Y332125*
X282875Y331500*
X282563Y330875*
X281937Y330563*
X279750*
X281937Y340563D02*
X282563Y340250D01*
X282875Y339625*
X282563Y339000*
X281937Y338687*
X279750*
Y342437*
X281937*
X282563Y342125*
X282875Y341500*
X282563Y340875*
X281937Y340563*
X279750*
X281937Y350563D02*
X282563Y350250D01*
X282875Y349625*
X282563Y349000*
X281937Y348687*
X279750*
Y352437*
X281937*
X282563Y352125*
X282875Y351500*
X282563Y350875*
X281937Y350563*
X279750*
X281937Y360563D02*
X282563Y360250D01*
X282875Y359625*
X282563Y359000*
X281937Y358687*
X279750*
Y362437*
X281937*
X282563Y362125*
X282875Y361500*
X282563Y360875*
X281937Y360563*
X279750*
X281937Y370563D02*
X282563Y370250D01*
X282875Y369625*
X282563Y369000*
X281937Y368687*
X279750*
Y372437*
X281937*
X282563Y372125*
X282875Y371500*
X282563Y370875*
X281937Y370563*
X279750*
X281937Y380563D02*
X282563Y380250D01*
X282875Y379625*
X282563Y379000*
X281937Y378687*
X279750*
Y382437*
X281937*
X282563Y382125*
X282875Y381500*
X282563Y380875*
X281937Y380563*
X279750*
X281937Y390563D02*
X282563Y390250D01*
X282875Y389625*
X282563Y389000*
X281937Y388687*
X279750*
Y392437*
X281937*
X282563Y392125*
X282875Y391500*
X282563Y390875*
X281937Y390563*
X279750*
X281937Y400563D02*
X282563Y400250D01*
X282875Y399625*
X282563Y399000*
X281937Y398687*
X279750*
Y402437*
X281937*
X282563Y402125*
X282875Y401500*
X282563Y400875*
X281937Y400563*
X279750*
X281937Y410563D02*
X282563Y410250D01*
X282875Y409625*
X282563Y409000*
X281937Y408687*
X279750*
Y412437*
X281937*
X282563Y412125*
X282875Y411500*
X282563Y410875*
X281937Y410563*
X279750*
X281937Y420563D02*
X282563Y420250D01*
X282875Y419625*
X282563Y419000*
X281937Y418687*
X279750*
Y422437*
X281937*
X282563Y422125*
X282875Y421500*
X282563Y420875*
X281937Y420563*
X279750*
X281937Y430563D02*
X282563Y430250D01*
X282875Y429625*
X282563Y429000*
X281937Y428687*
X279750*
Y432437*
X281937*
X282563Y432125*
X282875Y431500*
X282563Y430875*
X281937Y430563*
X279750*
X281937Y440563D02*
X282563Y440250D01*
X282875Y439625*
X282563Y439000*
X281937Y438687*
X279750*
Y442437*
X281937*
X282563Y442125*
X282875Y441500*
X282563Y440875*
X281937Y440563*
X279750*
X281937Y450563D02*
X282563Y450250D01*
X282875Y449625*
X282563Y449000*
X281937Y448687*
X279750*
Y452437*
X281937*
X282563Y452125*
X282875Y451500*
X282563Y450875*
X281937Y450563*
X279750*
X280687Y466150D02*
X281937D01*
X281313D02*
Y469900D01*
X280687D02*
X281937D01*
X285375Y58813D02*
X285063Y58500D01*
X284437Y58187*
X283500*
X282875Y58500*
X282563Y58813*
X282250Y59437*
Y60687*
X282563Y61313*
X282875Y61625*
X283500Y61937*
X284437*
X285063Y61625*
X285375Y61313*
X283187Y94050D02*
X284437D01*
X283813D02*
Y97800D01*
X283187D02*
X284437D01*
X285375Y118813D02*
X285063Y118500D01*
X284437Y118187*
X283500*
X282875Y118500*
X282563Y118813*
X282250Y119437*
Y120687*
X282563Y121313*
X282875Y121625*
X283500Y121937*
X284437*
X285063Y121625*
X285375Y121313*
X283469Y301469D02*
X284719D01*
X284094D02*
Y305219D01*
X283469D02*
X284719D01*
X288375Y496313D02*
X288063Y496000D01*
X287437Y495687*
X286500*
X285875Y496000*
X285563Y496313*
X285250Y496937*
Y498187*
X285563Y498813*
X285875Y499125*
X286500Y499437*
X287437*
X288063Y499125*
X288375Y498813*
Y506313D02*
X288063Y506000D01*
X287437Y505687*
X286500*
X285875Y506000*
X285563Y506313*
X285250Y506937*
Y508187*
X285563Y508813*
X285875Y509125*
X286500Y509437*
X287437*
X288063Y509125*
X288375Y508813*
X287369Y157506D02*
X288619D01*
X287994D02*
Y161256D01*
X287369D02*
X288619D01*
X287369Y295869D02*
X288619D01*
X287994D02*
Y299619D01*
X287369D02*
X288619D01*
X287369Y308687D02*
X288619D01*
X287994D02*
Y312437D01*
X287369D02*
X288619D01*
X287369Y314506D02*
X288619D01*
X287994D02*
Y318256D01*
X287369D02*
X288619D01*
X287369Y322869D02*
X288619D01*
X287994D02*
Y326619D01*
X287369D02*
X288619D01*
X287369Y332869D02*
X288619D01*
X287994D02*
Y336619D01*
X287369D02*
X288619D01*
X287369Y344506D02*
X288619D01*
X287994D02*
Y348256D01*
X287369D02*
X288619D01*
X287369Y372869D02*
X288619D01*
X287994D02*
Y376619D01*
X287369D02*
X288619D01*
X287369Y442869D02*
X288619D01*
X287994D02*
Y446619D01*
X287369D02*
X288619D01*
X288575Y396856D02*
X289825D01*
X289200D02*
Y400606D01*
X288575D02*
X289825D01*
X290150Y285869D02*
X291400D01*
X290775D02*
Y289619D01*
X290150D02*
X291400D01*
X290150Y335906D02*
X291400D01*
X290775D02*
Y339656D01*
X290150D02*
X291400D01*
X290150Y358687D02*
X291400D01*
X290775D02*
Y362437D01*
X290150D02*
X291400D01*
X290150Y424506D02*
X291400D01*
X290775D02*
Y428256D01*
X290150D02*
X291400D01*
X290150Y445906D02*
X291400D01*
X290775D02*
Y449656D01*
X290150D02*
X291400D01*
X291724Y323300D02*
X292974D01*
X292350D02*
Y327050D01*
X291724D02*
X292974D01*
X295375Y58813D02*
X295063Y58500D01*
X294437Y58187*
X293500*
X292875Y58500*
X292563Y58813*
X292250Y59437*
Y60687*
X292563Y61313*
X292875Y61625*
X293500Y61937*
X294437*
X295063Y61625*
X295375Y61313*
Y118813D02*
X295063Y118500D01*
X294437Y118187*
X293500*
X292875Y118500*
X292563Y118813*
X292250Y119437*
Y120687*
X292563Y121313*
X292875Y121625*
X293500Y121937*
X294437*
X295063Y121625*
X295375Y121313*
X293187Y311725D02*
X294437D01*
X293813D02*
Y315475D01*
X293187D02*
X294437D01*
X297369Y62369D02*
X298619D01*
X297994D02*
Y66119D01*
X297369D02*
X298619D01*
X300581Y323300D02*
X301831D01*
X301206D02*
Y327050D01*
X300581D02*
X301831D01*
X302813Y149163D02*
X304063D01*
X303439D02*
Y152913D01*
X302813D02*
X304063D01*
X305375Y58813D02*
X305063Y58500D01*
X304437Y58187*
X303500*
X302875Y58500*
X302563Y58813*
X302250Y59437*
Y60687*
X302563Y61313*
X302875Y61625*
X303500Y61937*
X304437*
X305063Y61625*
X305375Y61313*
Y118813D02*
X305063Y118500D01*
X304437Y118187*
X303500*
X302875Y118500*
X302563Y118813*
X302250Y119437*
Y120687*
X302563Y121313*
X302875Y121625*
X303500Y121937*
X304437*
X305063Y121625*
X305375Y121313*
X303725Y332869D02*
X304975D01*
X304350D02*
Y336619D01*
X303725D02*
X304975D01*
X305594Y311725D02*
X306844D01*
X306220D02*
Y315475D01*
X305594D02*
X306844D01*
X305594Y315906D02*
X306844D01*
X306220D02*
Y319656D01*
X305594D02*
X306844D01*
X306506Y340069D02*
X307756D01*
X307131D02*
Y343819D01*
X306506D02*
X307756D01*
X307369Y17951D02*
X308619D01*
X307994D02*
Y21701D01*
X307369D02*
X308619D01*
X307369Y122369D02*
X308619D01*
X307994D02*
Y126119D01*
X307369D02*
X308619D01*
X310150Y44437D02*
X311400D01*
X310775D02*
Y48187D01*
X310150D02*
X311400D01*
X311937Y304563D02*
X312563Y304250D01*
X312875Y303625*
X312563Y303000*
X311937Y302687*
X309750*
Y306437*
X311937*
X312563Y306125*
X312875Y305500*
X312563Y304875*
X311937Y304563*
X309750*
X311937Y461063D02*
X312563Y460750D01*
X312875Y460125*
X312563Y459500*
X311937Y459187*
X309750*
Y462937*
X311937*
X312563Y462625*
X312875Y462000*
X312563Y461375*
X311937Y461063*
X309750*
X313187Y47219D02*
X314437D01*
X313813D02*
Y50969D01*
X313187D02*
X314437D01*
X315375Y58813D02*
X315063Y58500D01*
X314437Y58187*
X313500*
X312875Y58500*
X312563Y58813*
X312250Y59437*
Y60687*
X312563Y61313*
X312875Y61625*
X313500Y61937*
X314437*
X315063Y61625*
X315375Y61313*
Y118813D02*
X315063Y118500D01*
X314437Y118187*
X313500*
X312875Y118500*
X312563Y118813*
X312250Y119437*
Y120687*
X312563Y121313*
X312875Y121625*
X313500Y121937*
X314437*
X315063Y121625*
X315375Y121313*
X313469Y154725D02*
X314719D01*
X314094D02*
Y158475D01*
X313469D02*
X314719D01*
X313469Y241687D02*
X314719D01*
X314094D02*
Y245437D01*
X313469D02*
X314719D01*
X314869Y394075D02*
X316119D01*
X315494D02*
Y397825D01*
X314869D02*
X316119D01*
X314869Y463369D02*
X316119D01*
X315494D02*
Y467119D01*
X314869D02*
X316119D01*
X315043Y318687D02*
X316293D01*
X315669D02*
Y322437D01*
X315043D02*
X316293D01*
X315043Y354506D02*
X316293D01*
X315669D02*
Y358256D01*
X315043D02*
X316293D01*
X317650Y261687D02*
X318900D01*
X318275D02*
Y265437D01*
X317650D02*
X318900D01*
X317650Y267506D02*
X318900D01*
X318275D02*
Y271256D01*
X317650D02*
X318900D01*
X317650Y451725D02*
X318900D01*
X318275D02*
Y455475D01*
X317650D02*
X318900D01*
X317650Y457287D02*
X318900D01*
X318275D02*
Y461037D01*
X317650D02*
X318900D01*
X317824Y328687D02*
X319074D01*
X318450D02*
Y332437D01*
X317824D02*
X319074D01*
X320431Y191687D02*
X321681D01*
X321056D02*
Y195437D01*
X320431D02*
X321681D01*
X320431Y201687D02*
X321681D01*
X321056D02*
Y205437D01*
X320431D02*
X321681D01*
X320431Y308687D02*
X321681D01*
X321056D02*
Y312437D01*
X320431D02*
X321681D01*
X320431Y368687D02*
X321681D01*
X321056D02*
Y372437D01*
X320431D02*
X321681D01*
X320431Y403300D02*
X321681D01*
X321056D02*
Y407050D01*
X320431D02*
X321681D01*
X320431Y416856D02*
X321681D01*
X321056D02*
Y420606D01*
X320431D02*
X321681D01*
X320431Y505687D02*
X321681D01*
X321056D02*
Y509437D01*
X320431D02*
X321681D01*
X320606Y332869D02*
X321856D01*
X321231D02*
Y336619D01*
X320606D02*
X321856D01*
X322882Y314506D02*
X324132D01*
X323507D02*
Y318256D01*
X322882D02*
X324132D01*
X325375Y58813D02*
X325063Y58500D01*
X324437Y58187*
X323500*
X322875Y58500*
X322563Y58813*
X322250Y59437*
Y60687*
X322563Y61313*
X322875Y61625*
X323500Y61937*
X324437*
X325063Y61625*
X325375Y61313*
Y118813D02*
X325063Y118500D01*
X324437Y118187*
X323500*
X322875Y118500*
X322563Y118813*
X322250Y119437*
Y120687*
X322563Y121313*
X322875Y121625*
X323500Y121937*
X324437*
X325063Y121625*
X325375Y121313*
X323212Y231687D02*
X324462D01*
X323837D02*
Y235437D01*
X323212D02*
X324462D01*
X323212Y270287D02*
X324462D01*
X323837D02*
Y274037D01*
X323212D02*
X324462D01*
X325663Y348687D02*
X326913D01*
X326288D02*
Y352437D01*
X325663D02*
X326913D01*
X326168Y368687D02*
X327418D01*
X326793D02*
Y372437D01*
X326168D02*
X327418D01*
X328444Y188906D02*
X329694D01*
X329069D02*
Y192656D01*
X328444D02*
X329694D01*
X328444Y328687D02*
X329694D01*
X329069D02*
Y332437D01*
X328444D02*
X329694D01*
X331225Y181687D02*
X332475D01*
X331850D02*
Y185437D01*
X331225D02*
X332475D01*
X331225Y333300D02*
X332475D01*
X331850D02*
Y337050D01*
X331225D02*
X332475D01*
X331225Y438687D02*
X332475D01*
X331850D02*
Y442437D01*
X331225D02*
X332475D01*
X335375Y58813D02*
X335063Y58500D01*
X334437Y58187*
X333500*
X332875Y58500*
X332563Y58813*
X332250Y59437*
Y60687*
X332563Y61313*
X332875Y61625*
X333500Y61937*
X334437*
X335063Y61625*
X335375Y61313*
Y118813D02*
X335063Y118500D01*
X334437Y118187*
X333500*
X332875Y118500*
X332563Y118813*
X332250Y119437*
Y120687*
X332563Y121313*
X332875Y121625*
X333500Y121937*
X334437*
X335063Y121625*
X335375Y121313*
X334006Y157506D02*
X335256D01*
X334631D02*
Y161256D01*
X334006D02*
X335256D01*
X336506Y463369D02*
X337756D01*
X337131D02*
Y467119D01*
X336506D02*
X337756D01*
X336506Y501075D02*
X337756D01*
X337131D02*
Y504825D01*
X336506D02*
X337756D01*
X337369Y50019D02*
X338619D01*
X337994D02*
Y53769D01*
X337369D02*
X338619D01*
X340687Y149163D02*
X341937D01*
X341313D02*
Y152913D01*
X340687D02*
X341937D01*
Y163563D02*
X342563Y163250D01*
X342875Y162625*
X342563Y162000*
X341937Y161687*
X339750*
Y165437*
X341937*
X342563Y165125*
X342875Y164500*
X342563Y163875*
X341937Y163563*
X339750*
X341937Y173563D02*
X342563Y173250D01*
X342875Y172625*
X342563Y172000*
X341937Y171687*
X339750*
Y175437*
X341937*
X342563Y175125*
X342875Y174500*
X342563Y173875*
X341937Y173563*
X339750*
X341937Y183563D02*
X342563Y183250D01*
X342875Y182625*
X342563Y182000*
X341937Y181687*
X339750*
Y185437*
X341937*
X342563Y185125*
X342875Y184500*
X342563Y183875*
X341937Y183563*
X339750*
X341937Y193563D02*
X342563Y193250D01*
X342875Y192625*
X342563Y192000*
X341937Y191687*
X339750*
Y195437*
X341937*
X342563Y195125*
X342875Y194500*
X342563Y193875*
X341937Y193563*
X339750*
X341937Y203563D02*
X342563Y203250D01*
X342875Y202625*
X342563Y202000*
X341937Y201687*
X339750*
Y205437*
X341937*
X342563Y205125*
X342875Y204500*
X342563Y203875*
X341937Y203563*
X339750*
X341937Y213563D02*
X342563Y213250D01*
X342875Y212625*
X342563Y212000*
X341937Y211687*
X339750*
Y215437*
X341937*
X342563Y215125*
X342875Y214500*
X342563Y213875*
X341937Y213563*
X339750*
X341937Y223563D02*
X342563Y223250D01*
X342875Y222625*
X342563Y222000*
X341937Y221687*
X339750*
Y225437*
X341937*
X342563Y225125*
X342875Y224500*
X342563Y223875*
X341937Y223563*
X339750*
X341937Y233563D02*
X342563Y233250D01*
X342875Y232625*
X342563Y232000*
X341937Y231687*
X339750*
Y235437*
X341937*
X342563Y235125*
X342875Y234500*
X342563Y233875*
X341937Y233563*
X339750*
X341937Y243563D02*
X342563Y243250D01*
X342875Y242625*
X342563Y242000*
X341937Y241687*
X339750*
Y245437*
X341937*
X342563Y245125*
X342875Y244500*
X342563Y243875*
X341937Y243563*
X339750*
X341937Y253563D02*
X342563Y253250D01*
X342875Y252625*
X342563Y252000*
X341937Y251687*
X339750*
Y255437*
X341937*
X342563Y255125*
X342875Y254500*
X342563Y253875*
X341937Y253563*
X339750*
X341937Y263563D02*
X342563Y263250D01*
X342875Y262625*
X342563Y262000*
X341937Y261687*
X339750*
Y265437*
X341937*
X342563Y265125*
X342875Y264500*
X342563Y263875*
X341937Y263563*
X339750*
X341937Y273563D02*
X342563Y273250D01*
X342875Y272625*
X342563Y272000*
X341937Y271687*
X339750*
Y275437*
X341937*
X342563Y275125*
X342875Y274500*
X342563Y273875*
X341937Y273563*
X339750*
X341937Y283563D02*
X342563Y283250D01*
X342875Y282625*
X342563Y282000*
X341937Y281687*
X339750*
Y285437*
X341937*
X342563Y285125*
X342875Y284500*
X342563Y283875*
X341937Y283563*
X339750*
X341937Y293563D02*
X342563Y293250D01*
X342875Y292625*
X342563Y292000*
X341937Y291687*
X339750*
Y295437*
X341937*
X342563Y295125*
X342875Y294500*
X342563Y293875*
X341937Y293563*
X339750*
X341937Y304563D02*
X342563Y304250D01*
X342875Y303625*
X342563Y303000*
X341937Y302687*
X339750*
Y306437*
X341937*
X342563Y306125*
X342875Y305500*
X342563Y304875*
X341937Y304563*
X339750*
X341937Y320563D02*
X342563Y320250D01*
X342875Y319625*
X342563Y319000*
X341937Y318687*
X339750*
Y322437*
X341937*
X342563Y322125*
X342875Y321500*
X342563Y320875*
X341937Y320563*
X339750*
X341937Y330563D02*
X342563Y330250D01*
X342875Y329625*
X342563Y329000*
X341937Y328687*
X339750*
Y332437*
X341937*
X342563Y332125*
X342875Y331500*
X342563Y330875*
X341937Y330563*
X339750*
X341937Y340563D02*
X342563Y340250D01*
X342875Y339625*
X342563Y339000*
X341937Y338687*
X339750*
Y342437*
X341937*
X342563Y342125*
X342875Y341500*
X342563Y340875*
X341937Y340563*
X339750*
X341937Y350563D02*
X342563Y350250D01*
X342875Y349625*
X342563Y349000*
X341937Y348687*
X339750*
Y352437*
X341937*
X342563Y352125*
X342875Y351500*
X342563Y350875*
X341937Y350563*
X339750*
X341937Y360563D02*
X342563Y360250D01*
X342875Y359625*
X342563Y359000*
X341937Y358687*
X339750*
Y362437*
X341937*
X342563Y362125*
X342875Y361500*
X342563Y360875*
X341937Y360563*
X339750*
X341937Y370563D02*
X342563Y370250D01*
X342875Y369625*
X342563Y369000*
X341937Y368687*
X339750*
Y372437*
X341937*
X342563Y372125*
X342875Y371500*
X342563Y370875*
X341937Y370563*
X339750*
X341937Y380563D02*
X342563Y380250D01*
X342875Y379625*
X342563Y379000*
X341937Y378687*
X339750*
Y382437*
X341937*
X342563Y382125*
X342875Y381500*
X342563Y380875*
X341937Y380563*
X339750*
X341937Y390563D02*
X342563Y390250D01*
X342875Y389625*
X342563Y389000*
X341937Y388687*
X339750*
Y392437*
X341937*
X342563Y392125*
X342875Y391500*
X342563Y390875*
X341937Y390563*
X339750*
X341937Y400563D02*
X342563Y400250D01*
X342875Y399625*
X342563Y399000*
X341937Y398687*
X339750*
Y402437*
X341937*
X342563Y402125*
X342875Y401500*
X342563Y400875*
X341937Y400563*
X339750*
X341937Y410563D02*
X342563Y410250D01*
X342875Y409625*
X342563Y409000*
X341937Y408687*
X339750*
Y412437*
X341937*
X342563Y412125*
X342875Y411500*
X342563Y410875*
X341937Y410563*
X339750*
X341937Y420563D02*
X342563Y420250D01*
X342875Y419625*
X342563Y419000*
X341937Y418687*
X339750*
Y422437*
X341937*
X342563Y422125*
X342875Y421500*
X342563Y420875*
X341937Y420563*
X339750*
X341937Y430563D02*
X342563Y430250D01*
X342875Y429625*
X342563Y429000*
X341937Y428687*
X339750*
Y432437*
X341937*
X342563Y432125*
X342875Y431500*
X342563Y430875*
X341937Y430563*
X339750*
X341937Y440563D02*
X342563Y440250D01*
X342875Y439625*
X342563Y439000*
X341937Y438687*
X339750*
Y442437*
X341937*
X342563Y442125*
X342875Y441500*
X342563Y440875*
X341937Y440563*
X339750*
X341937Y450563D02*
X342563Y450250D01*
X342875Y449625*
X342563Y449000*
X341937Y448687*
X339750*
Y452437*
X341937*
X342563Y452125*
X342875Y451500*
X342563Y450875*
X341937Y450563*
X339750*
X341937Y461063D02*
X342563Y460750D01*
X342875Y460125*
X342563Y459500*
X341937Y459187*
X339750*
Y462937*
X341937*
X342563Y462625*
X342875Y462000*
X342563Y461375*
X341937Y461063*
X339750*
X345375Y58813D02*
X345063Y58500D01*
X344437Y58187*
X343500*
X342875Y58500*
X342563Y58813*
X342250Y59437*
Y60687*
X342563Y61313*
X342875Y61625*
X343500Y61937*
X344437*
X345063Y61625*
X345375Y61313*
Y118813D02*
X345063Y118500D01*
X344437Y118187*
X343500*
X342875Y118500*
X342563Y118813*
X342250Y119437*
Y120687*
X342563Y121313*
X342875Y121625*
X343500Y121937*
X344437*
X345063Y121625*
X345375Y121313*
X344869Y455006D02*
X346119D01*
X345494D02*
Y458756D01*
X344869D02*
X346119D01*
X345250Y21687D02*
X346813Y25437D01*
X348375Y21687*
X345875Y23250D02*
X347750D01*
X345250Y533187D02*
X346813Y536937D01*
X348375Y533187*
X345875Y534750D02*
X347750D01*
X347369Y177506D02*
X348619D01*
X347994D02*
Y181256D01*
X347369D02*
X348619D01*
X347369Y245869D02*
X348619D01*
X347994D02*
Y249619D01*
X347369D02*
X348619D01*
X347369Y422869D02*
X348619D01*
X347994D02*
Y426619D01*
X347369D02*
X348619D01*
X348575Y270287D02*
X349825D01*
X349200D02*
Y274037D01*
X348575D02*
X349825D01*
X351356Y193075D02*
X352606D01*
X351981D02*
Y196825D01*
X351356D02*
X352606D01*
X351356Y261687D02*
X352606D01*
X351981D02*
Y265437D01*
X351356D02*
X352606D01*
X354137Y241687D02*
X355387D01*
X354762D02*
Y245437D01*
X354137D02*
X355387D01*
X354137Y522568D02*
X355387D01*
X354762D02*
Y526318D01*
X354137D02*
X355387D01*
D02*
D76*
X24494Y47788D03*
X26069Y418569D03*
X27750Y15750D03*
Y527250D03*
X28569Y36309D03*
Y509668D03*
X32750Y90750D03*
Y110250D03*
Y120250D03*
Y129250D03*
Y151750D03*
Y161750D03*
Y171750D03*
Y181750D03*
Y191750D03*
Y201750D03*
Y211750D03*
Y242250D03*
Y252750D03*
Y262750D03*
Y272750D03*
Y282750D03*
Y292750D03*
Y302750D03*
Y312750D03*
Y322750D03*
Y332750D03*
Y342750D03*
Y352750D03*
Y362750D03*
Y372750D03*
Y382750D03*
Y392750D03*
Y402750D03*
Y412750D03*
Y422750D03*
Y432750D03*
Y442750D03*
Y452750D03*
X34024Y36309D03*
X36805Y24805D03*
X38569Y50569D03*
Y94931D03*
X43250Y31628D03*
Y55250D03*
Y90750D03*
X49750Y201750D03*
X50507Y36309D03*
Y59931D03*
X53288Y108263D03*
Y112250D03*
Y246431D03*
X58569Y456931D03*
X58750Y300919D03*
X60967Y31628D03*
Y55250D03*
X62750Y151750D03*
Y161750D03*
Y171750D03*
Y181750D03*
Y191750D03*
Y201750D03*
Y211750D03*
Y242250D03*
Y452750D03*
X64750Y275250D03*
X72750Y90750D03*
Y110250D03*
Y129250D03*
Y206363D03*
X73738Y285531D03*
Y382750D03*
X76750Y268250D03*
X76931Y134231D03*
X79300Y290144D03*
Y422750D03*
Y502531D03*
X80788Y99931D03*
X82081Y306931D03*
X82250Y201750D03*
Y222250D03*
X84863Y300919D03*
Y312750D03*
X85250Y489750D03*
Y499750D03*
X86069Y327494D03*
X87750Y117750D03*
X91750Y151750D03*
Y161750D03*
Y171750D03*
Y181750D03*
Y191750D03*
Y201750D03*
Y211750D03*
Y222250D03*
X92250Y22250D03*
Y46856D03*
X92469Y460212D03*
Y474118D03*
X92750Y252750D03*
Y262750D03*
Y272750D03*
Y282750D03*
Y292750D03*
Y302750D03*
Y312750D03*
Y322750D03*
Y332750D03*
Y342750D03*
Y352750D03*
Y362750D03*
Y372750D03*
Y382750D03*
Y392750D03*
Y402750D03*
Y412750D03*
Y422750D03*
Y432750D03*
Y442750D03*
X95250Y489750D03*
Y499750D03*
X99431Y230188D03*
Y446931D03*
Y468556D03*
X100637Y352750D03*
Y392750D03*
X101469Y201750D03*
X102212Y262750D03*
Y346931D03*
Y432750D03*
X102750Y117750D03*
X105250Y489750D03*
Y499750D03*
X105825Y140444D03*
Y298137D03*
X106931Y46863D03*
Y110788D03*
X107081Y355531D03*
Y362750D03*
X109507Y147569D03*
Y292750D03*
X109863Y338137D03*
X111148Y35045D03*
X112288Y143226D03*
Y197569D03*
Y218069D03*
X112644Y374150D03*
Y382750D03*
X115069Y157506D03*
X115250Y428569D03*
Y489750D03*
Y499750D03*
X116069Y276931D03*
X117769Y134231D03*
X118569Y336931D03*
Y382750D03*
X119863Y398506D03*
X120750Y95750D03*
X121384Y63175D03*
X121750Y151750D03*
Y161750D03*
Y171750D03*
Y181750D03*
Y191750D03*
Y201750D03*
Y211750D03*
Y222250D03*
X122750Y252750D03*
Y262750D03*
Y272750D03*
Y282750D03*
Y292750D03*
Y302750D03*
Y312750D03*
Y322750D03*
Y333250D03*
X123250Y113810D03*
Y128750D03*
X124788Y346931D03*
X125250Y489750D03*
Y499750D03*
X125950Y99931D03*
X127569Y449069D03*
X128731Y123269D03*
X129431Y226431D03*
X131750Y392750D03*
Y412750D03*
Y432750D03*
Y453250D03*
X132250Y31750D03*
Y64750D03*
X133150Y292750D03*
X135250Y489750D03*
Y499750D03*
X135750Y95750D03*
X135931Y262750D03*
Y408137D03*
X137569Y69431D03*
X138712Y418137D03*
X140300Y211750D03*
Y247363D03*
X142250Y64750D03*
X143081Y207569D03*
Y337431D03*
X145250Y489750D03*
Y499750D03*
X146069Y120637D03*
X147569Y74694D03*
X152250Y64750D03*
X152750Y252750D03*
Y262750D03*
Y272750D03*
Y282750D03*
Y292750D03*
Y302750D03*
Y312750D03*
Y322750D03*
Y333250D03*
Y468556D03*
X153750Y151750D03*
Y161750D03*
Y171750D03*
Y181750D03*
Y191750D03*
Y201750D03*
Y211750D03*
Y221750D03*
Y426931D03*
X155250Y489750D03*
Y499750D03*
X156931Y337431D03*
Y434150D03*
X157081Y443700D03*
X159750Y95250D03*
X160431Y147569D03*
Y167569D03*
Y175931D03*
X160637Y322750D03*
Y346931D03*
X162212Y227407D03*
X162250Y31750D03*
X163213Y432493D03*
X164788Y322750D03*
Y339969D03*
Y348137D03*
Y441287D03*
X165250Y489750D03*
Y499750D03*
X167325Y150175D03*
X167569Y301287D03*
Y416931D03*
X168507Y230188D03*
Y272750D03*
Y284581D03*
X170106Y171750D03*
X171288Y244056D03*
Y258569D03*
Y298506D03*
Y355531D03*
X171750Y392750D03*
Y412750D03*
Y432750D03*
Y453250D03*
X173048Y374150D03*
X173081Y161750D03*
Y175931D03*
X173250Y128750D03*
X174069Y235750D03*
X174750Y95250D03*
X175250Y457431D03*
Y489750D03*
Y499750D03*
X180750Y252750D03*
Y262750D03*
Y272750D03*
Y282750D03*
Y292750D03*
Y302750D03*
Y312750D03*
Y322750D03*
Y332750D03*
Y342750D03*
Y352750D03*
Y362750D03*
Y372750D03*
Y382750D03*
Y392750D03*
Y402750D03*
Y412750D03*
Y422750D03*
Y432750D03*
Y442750D03*
Y453250D03*
X181825Y56431D03*
Y93675D03*
X183750Y151750D03*
Y161750D03*
Y171750D03*
Y181750D03*
Y191750D03*
Y201750D03*
Y211750D03*
Y221750D03*
X184606Y88113D03*
Y108069D03*
X185250Y489750D03*
Y499750D03*
X187431Y248569D03*
Y356931D03*
Y451350D03*
X190431Y167569D03*
Y284581D03*
X192250Y52250D03*
Y112250D03*
X192469Y368506D03*
X194419Y220363D03*
Y332750D03*
X195250Y474118D03*
Y489750D03*
Y499750D03*
X196825Y352750D03*
X197200Y262750D03*
X199981Y171750D03*
Y250144D03*
X200007Y143226D03*
X201301Y382750D03*
X202250Y52250D03*
Y112250D03*
X202469Y288569D03*
Y309969D03*
X204082Y432750D03*
X205250Y489750D03*
Y499750D03*
X205569Y147569D03*
X208288Y474118D03*
X208350Y245750D03*
Y307363D03*
X209556Y311369D03*
Y316931D03*
X210750Y453250D03*
X212150Y339969D03*
X212250Y52250D03*
Y112250D03*
Y151750D03*
Y161750D03*
Y171750D03*
Y181750D03*
Y191750D03*
Y201750D03*
Y211750D03*
X212325Y356931D03*
X215250Y489750D03*
Y499750D03*
X216150Y262750D03*
Y270363D03*
Y319712D03*
Y352750D03*
Y474118D03*
X218931Y147569D03*
Y165931D03*
Y292750D03*
Y308569D03*
X222212Y155931D03*
X222250Y52250D03*
Y112250D03*
X225250Y277363D03*
Y489750D03*
Y499750D03*
X228031Y185931D03*
Y334325D03*
Y362750D03*
X230812Y314150D03*
Y322750D03*
X232250Y52250D03*
Y59931D03*
Y112250D03*
X232275Y382750D03*
X234069Y465774D03*
X234853Y376931D03*
X235250Y489750D03*
Y499750D03*
X240750Y252750D03*
Y262750D03*
Y272750D03*
Y282750D03*
Y292750D03*
Y302750D03*
Y312750D03*
Y322750D03*
Y332750D03*
Y342750D03*
Y352750D03*
Y362750D03*
Y372750D03*
Y382750D03*
Y392750D03*
Y402750D03*
Y412750D03*
Y422750D03*
Y432750D03*
Y442750D03*
Y449712D03*
X242250Y52250D03*
Y112250D03*
Y151750D03*
Y161750D03*
Y171750D03*
Y181750D03*
Y191750D03*
Y201750D03*
Y211750D03*
X245250Y489750D03*
Y499750D03*
X246225Y484363D03*
X247431Y266931D03*
Y288569D03*
Y356931D03*
X248637Y215931D03*
X249006Y457431D03*
X250212Y372750D03*
X252250Y52250D03*
Y112250D03*
X252507Y237581D03*
Y275826D03*
X255250Y489750D03*
Y499750D03*
X255288Y146007D03*
Y232969D03*
Y272969D03*
Y349712D03*
X256981Y432750D03*
Y442750D03*
X258069Y44062D03*
X262250Y52250D03*
Y112250D03*
X263069Y191569D03*
Y251569D03*
Y279931D03*
X265031Y302750D03*
X265250Y489750D03*
Y499750D03*
X269750Y155750D03*
Y165750D03*
Y175750D03*
Y185750D03*
Y195750D03*
Y205750D03*
Y215750D03*
Y225750D03*
Y235750D03*
Y245750D03*
Y255750D03*
Y265750D03*
Y275750D03*
Y285750D03*
Y298569D03*
Y312750D03*
Y322750D03*
Y332750D03*
Y342750D03*
Y352750D03*
Y362750D03*
Y372750D03*
Y382750D03*
Y392750D03*
Y402750D03*
Y412750D03*
Y422750D03*
Y432750D03*
Y442750D03*
Y460212D03*
X272250Y52250D03*
Y88113D03*
Y112250D03*
X272531Y295531D03*
X275250Y489750D03*
Y499750D03*
X276431Y151569D03*
Y289931D03*
Y302750D03*
Y308569D03*
Y316931D03*
Y326931D03*
Y338569D03*
Y366931D03*
Y436931D03*
X277637Y390919D03*
X279212Y279931D03*
Y329969D03*
Y352750D03*
Y418569D03*
Y439969D03*
X280787Y317363D03*
X282250Y52250D03*
Y112250D03*
Y305788D03*
X286431Y56431D03*
X289644Y317363D03*
X291876Y143226D03*
X292250Y52250D03*
Y112250D03*
X292788Y326931D03*
X294657Y305788D03*
Y309969D03*
X295569Y334131D03*
X296431Y12014D03*
Y116431D03*
X299212Y38500D03*
X299750Y296750D03*
Y453250D03*
X302250Y41281D03*
Y52250D03*
Y112250D03*
X302531Y148788D03*
Y235750D03*
X303931Y388137D03*
Y457431D03*
X304106Y312750D03*
Y348569D03*
X306712Y255750D03*
Y261569D03*
Y445788D03*
Y451350D03*
X306887Y322750D03*
X309493Y185750D03*
Y195750D03*
Y302750D03*
Y362750D03*
Y397363D03*
Y410919D03*
Y499750D03*
X309668Y326931D03*
X311944Y308569D03*
X312250Y52250D03*
Y112250D03*
X312274Y225750D03*
Y264350D03*
X314726Y342750D03*
X315230Y362750D03*
X317507Y182969D03*
Y322750D03*
X320288Y175750D03*
Y327363D03*
Y432750D03*
X322250Y52250D03*
Y112250D03*
X323069Y151569D03*
X325569Y457431D03*
Y495137D03*
X326431Y44081D03*
X329750Y143226D03*
Y155750D03*
Y165750D03*
Y175750D03*
Y185750D03*
Y195750D03*
Y205750D03*
Y215750D03*
Y225750D03*
Y235750D03*
Y245750D03*
Y255750D03*
Y265750D03*
Y275750D03*
Y285750D03*
Y296750D03*
Y312750D03*
Y322750D03*
Y332750D03*
Y342750D03*
Y352750D03*
Y362750D03*
Y372750D03*
Y382750D03*
Y392750D03*
Y402750D03*
Y412750D03*
Y422750D03*
Y432750D03*
Y442750D03*
Y453250D03*
X332250Y52250D03*
Y112250D03*
X333931Y449069D03*
X335250Y15750D03*
Y527250D03*
X336431Y171569D03*
Y239931D03*
Y416931D03*
X337637Y264350D03*
X340419Y187137D03*
Y255750D03*
X343200Y235750D03*
Y516630D03*
X0Y0D02*
M02*
