G04 EasyPC Gerber Version 20.0.2 Build 4112 *
G04 #@! TF.Part,Single*
G04 #@! TF.FileFunction,Legend,Bot *
%FSLAX35Y35*%
%MOIN*%
%ADD99C,0.00100*%
%ADD98C,0.01181*%
X0Y0D02*
D02*
D98*
X186750Y60250D02*
Y104250D01*
X337750*
Y60250*
X186750*
D02*
D99*
X254606Y67238D02*
X254609Y67226D01*
X254621Y67219*
X254637Y67211*
X254663*
X254698*
X254744Y67215*
X254802*
X254867Y67222*
X254929Y67226*
X254986Y67230*
X255033*
X255071*
X255109*
X255159*
X255221Y67226*
X255290Y67222*
X255356Y67215*
X255417*
X255467Y67211*
X255509*
X255548Y67215*
X255578Y67234*
X255606Y67261*
X255632Y67300*
X255648Y67334*
X255667Y67372*
X255686Y67422*
X255713Y67480*
X255740Y67546*
X255774Y67619*
X255809Y67699*
X255848Y67788*
X255890Y67884*
X255932Y67988*
X255982Y68099*
X256032Y68219*
X256086Y68345*
X256144Y68480*
X256205Y68622*
X256270Y68776*
X256286Y68807*
X256305Y68833*
X256332Y68857*
X256363Y68876*
X256394Y68895*
X256436Y68910*
X256478Y68922*
X256528Y68930*
X256540*
X256563*
X256593Y68933*
X256628*
X256674*
X256724*
X256782*
X256843*
X256959*
X257063*
X257151Y68930*
X257232*
X257297Y68926*
X257351*
X257389Y68922*
X257420Y68918*
X257435Y68914*
X257451Y68903*
X257462Y68887*
X257474Y68868*
X257481Y68845*
X257489Y68814*
X257493Y68780*
Y68741*
Y68676*
Y68603*
X257489Y68522*
X257485Y68433*
Y68337*
X257481Y68234*
X257474Y68122*
X257470Y68007*
X257466Y67888*
X257459Y67776*
X257455Y67672*
X257451Y67576*
Y67492*
X257447Y67411*
Y67338*
Y67272*
X257451Y67242*
X257466Y67219*
X257485Y67203*
X257516Y67200*
X257559*
X257605Y67203*
X257662Y67207*
X257731Y67215*
X257797Y67222*
X257855Y67226*
X257904Y67230*
X257947*
X257981*
X258024*
X258070Y67226*
X258128Y67222*
X258185Y67215*
X258235*
X258278Y67211*
X258312*
X258350Y67215*
X258378Y67230*
X258396Y67257*
X258400Y67292*
Y67396*
X258396Y67511*
Y67638*
X258393Y67780*
X258385Y67930*
X258381Y68095*
X258374Y68272*
X258362Y68461*
X258354Y68653*
X258347Y68830*
X258343Y68991*
X258335Y69145*
X258331Y69283*
Y69414*
X258328Y69530*
Y69633*
Y69914*
X258331Y70194*
X258339Y70487*
X258347Y70779*
X258358Y71075*
X258374Y71379*
X258389Y71686*
X258408Y71998*
X258412Y72056*
Y72071*
X258404Y72086*
X258393Y72098*
X258378Y72106*
X258354Y72113*
X258331Y72121*
X258300Y72124*
X258266*
X258185*
X258093*
X257997Y72128*
X257889*
X257770Y72132*
X257643*
X257505Y72136*
X257359Y72140*
X257216Y72144*
X257078Y72148*
X256951Y72152*
X256836*
X256728Y72156*
X256628*
X256540*
X256459*
X256270Y72152*
X256090Y72132*
X255917Y72106*
X255759Y72063*
X255606Y72009*
X255463Y71948*
X255332Y71871*
X255209Y71782*
X255148Y71732*
X255086Y71675*
X255033Y71617*
X254983Y71556*
X254936Y71494*
X254894Y71429*
X254856Y71359*
X254821Y71286*
X254790Y71213*
X254763Y71137*
X254740Y71056*
X254721Y70975*
X254709Y70891*
X254698Y70802*
X254690Y70710*
Y70617*
X254694Y70491*
X254698Y70371*
X254709Y70260*
X254725Y70152*
X254744Y70056*
X254767Y69964*
X254798Y69879*
X254829Y69798*
X254871Y69722*
X254921Y69645*
X254975Y69568*
X255040Y69491*
X255113Y69418*
X255194Y69345*
X255282Y69272*
X255378Y69199*
X255406Y69176*
X255428Y69156*
X255440Y69133*
X255444Y69110*
Y69103*
X255436Y69087*
X255428Y69064*
X255417Y69033*
X255402Y68999*
X255386Y68957*
X255363Y68910*
X255340Y68853*
X255313Y68791*
X255282Y68726*
X255248Y68649*
X255209Y68568*
X255167Y68480*
X255125Y68387*
X255075Y68287*
X255025Y68180*
X254975Y68072*
X254925Y67972*
X254883Y67876*
X254840Y67788*
X254802Y67707*
X254771Y67634*
X254737Y67565*
X254709Y67503*
X254687Y67446*
X254663Y67396*
X254648Y67353*
X254633Y67319*
X254621Y67288*
X254613Y67265*
X254606Y67250*
Y67238*
X255567Y70421D02*
X255571Y70571D01*
X255590Y70713*
X255617Y70837*
X255659Y70952*
X255709Y71052*
X255771Y71137*
X255848Y71209*
X255932Y71271*
X256005Y71306*
X256094Y71340*
X256194Y71367*
X256309Y71390*
X256440Y71406*
X256582Y71417*
X256736Y71425*
X256905Y71429*
X256974*
X257039*
X257097Y71425*
X257155Y71421*
X257205*
X257251Y71417*
X257297Y71409*
X257335Y71406*
X257366Y71398*
X257397Y71394*
X257424Y71386*
X257443Y71379*
X257459Y71367*
X257474Y71359*
X257481Y71348*
X257485Y71336*
Y71309*
X257489Y71279*
X257493Y71244*
Y71202*
X257497Y71156*
Y71106*
X257501Y71048*
Y70987*
X257505Y70921*
Y70852*
Y70775*
X257509Y70694*
Y70610*
Y70517*
Y70421*
Y70321*
Y69652*
X257493Y69645*
X257462Y69637*
X257428Y69633*
X257378Y69630*
X257324Y69626*
X257255Y69622*
X257085Y69610*
X256909Y69606*
X256724Y69602*
X256536*
X256420Y69606*
X256309Y69614*
X256205Y69630*
X256113Y69652*
X256024Y69683*
X255944Y69718*
X255874Y69760*
X255809Y69806*
X255752Y69860*
X255702Y69922*
X255663Y69991*
X255628Y70064*
X255602Y70141*
X255582Y70229*
X255571Y70321*
X255567Y70421*
X250884Y70394D02*
Y70325D01*
Y70252*
X250888Y70168*
Y70072*
X250892Y69972*
X250896Y69864*
X250900Y69744*
X250903Y69622*
X250911Y69495*
X250915Y69376*
X250919Y69268*
X250922Y69168*
Y69072*
X250926Y68987*
Y68910*
Y68841*
Y68776*
Y68699*
X250922Y68614*
Y68522*
X250919Y68422*
Y68315*
X250915Y68199*
X250911Y68076*
X250907Y67953*
X250903Y67834*
X250900Y67726*
Y67626*
X250896Y67534*
Y67453*
Y67376*
Y67307*
X250900Y67276*
X250911Y67250*
X250934Y67230*
X250961Y67215*
X250969*
X250980*
X250996*
X251019*
X251042Y67211*
X251076*
X251111*
X251153*
X251203*
X251253*
X251311*
X251376*
X251441*
X251515*
X251591*
X251676*
X251687Y67215*
X251695Y67226*
X251703Y67246*
X251711Y67276*
X251715Y67311*
X251722Y67357*
X251726Y67411*
Y67472*
X251730Y67534*
X251734Y67588*
X251737Y67634*
X251741Y67672*
X251749Y67699*
X251753Y67722*
X251761Y67734*
X251769Y67738*
X251780*
X251791Y67730*
X251803Y67722*
X251822Y67707*
X251895Y67645*
X251968Y67588*
X252041Y67534*
X252114Y67484*
X252183Y67438*
X252257Y67396*
X252330Y67357*
X252403Y67322*
X252476Y67292*
X252549Y67269*
X252618Y67246*
X252691Y67226*
X252764Y67215*
X252833Y67203*
X252906Y67196*
X252980*
X253072Y67200*
X253164Y67203*
X253248Y67215*
X253333Y67230*
X253410Y67250*
X253483Y67272*
X253556Y67303*
X253622Y67334*
X253683Y67372*
X253741Y67415*
X253794Y67461*
X253844Y67511*
X253891Y67565*
X253933Y67626*
X253967Y67688*
X254002Y67757*
X254021Y67803*
X254037Y67853*
X254052Y67907*
X254067Y67965*
X254083Y68030*
X254094Y68095*
X254106Y68169*
X254117Y68245*
X254125Y68322*
X254133Y68407*
X254141Y68499*
X254144Y68591*
X254152Y68687*
Y68791*
X254156Y68895*
Y69006*
X254152Y69206*
X254148Y69399*
X254137Y69583*
X254121Y69760*
X254106Y69929*
X254083Y70091*
X254056Y70244*
X254025Y70387*
X254017Y70421*
X254006Y70448*
X253994Y70471*
X253979Y70491*
X253964Y70506*
X253948Y70517*
X253929Y70521*
X253910Y70525*
X253852*
X253783*
X253698Y70521*
X253606*
X253510*
X253426Y70517*
X253356*
X253298*
X253268Y70514*
X253248Y70498*
X253233Y70475*
X253229Y70441*
Y70402*
X253233Y70360*
X253237Y70314*
X253241Y70256*
X253248Y70198*
X253256Y70133*
X253264Y70060*
X253276Y69983*
X253287Y69902*
X253295Y69826*
X253306Y69756*
X253310Y69695*
X253318Y69637*
X253322Y69587*
X253326Y69541*
Y69502*
X253329Y69395*
X253333Y69280*
X253337Y69164*
Y69037*
Y68891*
X253333Y68757*
X253326Y68633*
X253314Y68526*
X253302Y68430*
X253287Y68345*
X253272Y68272*
X253248Y68215*
X253206Y68122*
X253152Y68045*
X253083Y67980*
X253006Y67930*
X252918Y67888*
X252818Y67857*
X252703Y67838*
X252580Y67834*
X252522Y67838*
X252464Y67845*
X252403Y67865*
X252337Y67888*
X252272Y67919*
X252203Y67957*
X252130Y67999*
X252057Y68053*
X251983Y68107*
X251918Y68165*
X251861Y68219*
X251815Y68276*
X251780Y68330*
X251753Y68383*
X251737Y68437*
X251730Y68491*
X251726Y68530*
X251722Y68576*
Y68637*
Y68707*
X251719Y68783*
Y68876*
X251715Y68976*
Y69087*
Y69206*
Y69337*
X251711Y69480*
Y69633*
Y69794*
Y69968*
Y70152*
Y70344*
X251707Y70387*
X251703Y70421*
X251691Y70452*
X251676Y70475*
X251653Y70494*
X251630Y70506*
X251599Y70514*
X251565Y70517*
X250988*
X250942Y70510*
X250911Y70487*
X250892Y70448*
X250884Y70394*
X246916D02*
Y70325D01*
Y70252*
X246920Y70168*
Y70072*
X246924Y69972*
X246928Y69864*
X246931Y69744*
X246935Y69622*
X246943Y69495*
X246947Y69376*
X246951Y69268*
X246955Y69168*
Y69072*
X246959Y68987*
Y68910*
Y68841*
Y68776*
Y68699*
X246955Y68614*
Y68522*
X246951Y68422*
Y68315*
X246947Y68199*
X246943Y68076*
X246939Y67953*
X246935Y67834*
X246931Y67726*
Y67626*
X246928Y67534*
Y67453*
Y67376*
Y67307*
X246931Y67276*
X246943Y67250*
X246966Y67230*
X246993Y67215*
X247001*
X247012*
X247028*
X247051*
X247074Y67211*
X247109*
X247143*
X247185*
X247235*
X247285*
X247343*
X247408*
X247474*
X247547*
X247624*
X247708*
X247720Y67215*
X247728Y67226*
X247735Y67246*
X247743Y67276*
X247747Y67311*
X247754Y67357*
X247758Y67411*
Y67472*
X247762Y67534*
X247766Y67588*
X247770Y67634*
X247774Y67672*
X247781Y67699*
X247785Y67722*
X247793Y67734*
X247800Y67738*
X247812*
X247824Y67730*
X247835Y67722*
X247854Y67707*
X247928Y67645*
X248000Y67588*
X248074Y67534*
X248146Y67484*
X248216Y67438*
X248289Y67396*
X248362Y67357*
X248435Y67322*
X248508Y67292*
X248581Y67269*
X248650Y67246*
X248723Y67226*
X248796Y67215*
X248866Y67203*
X248939Y67196*
X249012*
X249104Y67200*
X249196Y67203*
X249281Y67215*
X249365Y67230*
X249442Y67250*
X249515Y67272*
X249588Y67303*
X249654Y67334*
X249715Y67372*
X249773Y67415*
X249827Y67461*
X249877Y67511*
X249923Y67565*
X249965Y67626*
X250000Y67688*
X250034Y67757*
X250054Y67803*
X250069Y67853*
X250084Y67907*
X250100Y67965*
X250115Y68030*
X250127Y68095*
X250138Y68169*
X250150Y68245*
X250157Y68322*
X250165Y68407*
X250173Y68499*
X250177Y68591*
X250184Y68687*
Y68791*
X250188Y68895*
Y69006*
X250184Y69206*
X250180Y69399*
X250169Y69583*
X250154Y69760*
X250138Y69929*
X250115Y70091*
X250088Y70244*
X250057Y70387*
X250050Y70421*
X250038Y70448*
X250027Y70471*
X250011Y70491*
X249996Y70506*
X249981Y70517*
X249961Y70521*
X249942Y70525*
X249884*
X249815*
X249731Y70521*
X249638*
X249542*
X249457Y70517*
X249389*
X249331*
X249300Y70514*
X249281Y70498*
X249265Y70475*
X249261Y70441*
Y70402*
X249265Y70360*
X249269Y70314*
X249273Y70256*
X249281Y70198*
X249289Y70133*
X249296Y70060*
X249308Y69983*
X249319Y69902*
X249327Y69826*
X249339Y69756*
X249342Y69695*
X249350Y69637*
X249354Y69587*
X249358Y69541*
Y69502*
X249361Y69395*
X249365Y69280*
X249369Y69164*
Y69037*
Y68891*
X249365Y68757*
X249358Y68633*
X249346Y68526*
X249335Y68430*
X249319Y68345*
X249304Y68272*
X249281Y68215*
X249239Y68122*
X249185Y68045*
X249115Y67980*
X249039Y67930*
X248950Y67888*
X248850Y67857*
X248735Y67838*
X248612Y67834*
X248554Y67838*
X248496Y67845*
X248435Y67865*
X248370Y67888*
X248304Y67919*
X248235Y67957*
X248162Y67999*
X248089Y68053*
X248016Y68107*
X247950Y68165*
X247893Y68219*
X247847Y68276*
X247812Y68330*
X247785Y68383*
X247770Y68437*
X247762Y68491*
X247758Y68530*
X247754Y68576*
Y68637*
Y68707*
X247750Y68783*
Y68876*
X247747Y68976*
Y69087*
Y69206*
Y69337*
X247743Y69480*
Y69633*
Y69794*
Y69968*
Y70152*
Y70344*
X247739Y70387*
X247735Y70421*
X247724Y70452*
X247708Y70475*
X247685Y70494*
X247662Y70506*
X247631Y70514*
X247597Y70517*
X247020*
X246974Y70510*
X246943Y70487*
X246924Y70448*
X246916Y70394*
X242826Y72109D02*
Y71986D01*
X242829Y71852*
Y71706*
X242837Y71544*
X242841Y71367*
X242848Y71175*
X242856Y70971*
X242864Y70752*
X242876Y70533*
X242883Y70325*
X242891Y70137*
X242894Y69960*
X242898Y69798*
X242902Y69648*
X242906Y69518*
Y69399*
Y69226*
Y69060*
X242902Y68899*
Y68745*
X242898Y68595*
Y68453*
X242894Y68311*
X242891Y68180*
X242887Y68049*
X242883Y67926*
X242879Y67807*
X242872Y67695*
X242868Y67588*
X242860Y67484*
X242856Y67388*
X242848Y67296*
X242845Y67253*
X242848Y67234*
X242868Y67222*
X242898Y67211*
X242941Y67207*
X242976Y67203*
X243022*
X243072*
X243129Y67207*
X243164*
X243194Y67211*
X243218*
X243237Y67215*
X243252*
X243260*
X243268*
X243294*
X243329*
X243371Y67211*
X243421Y67207*
X243468Y67200*
X243510*
X243544Y67196*
X243575*
X243587Y67200*
X243598Y67211*
X243606Y67230*
X243614Y67257*
X243621Y67292*
X243625Y67334*
X243629Y67384*
X243633Y67438*
X243637Y67496*
Y67546*
X243641Y67588*
X243644Y67622*
X243648Y67649*
X243652Y67672*
X243656Y67684*
X243660Y67688*
X243683Y67672*
X243714Y67642*
X243771Y67580*
X243837Y67519*
X243898Y67465*
X243963Y67415*
X244029Y67369*
X244094Y67326*
X244159Y67288*
X244229Y67253*
X244298Y67222*
X244371Y67196*
X244440Y67172*
X244513Y67153*
X244590Y67142*
X244663Y67130*
X244740Y67122*
X244817*
X244906Y67126*
X244994Y67130*
X245075Y67142*
X245159Y67157*
X245236Y67176*
X245317Y67200*
X245390Y67226*
X245463Y67257*
X245536Y67292*
X245605Y67334*
X245674Y67376*
X245740Y67426*
X245805Y67480*
X245867Y67538*
X245928Y67599*
X245986Y67665*
X246086Y67795*
X246174Y67930*
X246247Y68076*
X246309Y68226*
X246355Y68380*
X246389Y68545*
X246409Y68714*
X246417Y68891*
X246409Y69076*
X246389Y69252*
X246355Y69418*
X246309Y69580*
X246247Y69733*
X246170Y69879*
X246082Y70018*
X245982Y70148*
X245924Y70214*
X245863Y70275*
X245801Y70329*
X245736Y70383*
X245667Y70429*
X245598Y70475*
X245528Y70514*
X245455Y70548*
X245378Y70579*
X245302Y70606*
X245221Y70629*
X245140Y70648*
X245056Y70663*
X244971Y70675*
X244882Y70679*
X244790Y70683*
X244683Y70679*
X244575Y70667*
X244475Y70644*
X244375Y70617*
X244279Y70583*
X244191Y70537*
X244102Y70483*
X244017Y70421*
X243717Y70160*
X243698Y70175*
X243691Y70210*
Y71348*
Y71409*
X243694Y71490*
Y71586*
X243702Y71698*
X243706Y71806*
X243710Y71902*
Y71986*
Y72052*
Y72090*
X243698Y72113*
X243679Y72132*
X243656Y72136*
X243621*
X243583*
X243541Y72140*
X243494*
X243444Y72144*
X243391Y72148*
X243329Y72156*
X243268Y72159*
X243206Y72163*
X243148Y72171*
X243094Y72174*
X243044*
X242998Y72178*
X242956Y72182*
X242918*
X242887*
X242860Y72178*
X242841Y72163*
X242829Y72140*
X242826Y72109*
X243706Y68910D02*
X243710Y69014D01*
X243721Y69118*
X243741Y69214*
X243771Y69306*
X243806Y69399*
X243852Y69487*
X243906Y69572*
X243967Y69652*
X244037Y69733*
X244113Y69802*
X244191Y69860*
X244275Y69910*
X244363Y69944*
X244456Y69972*
X244552Y69991*
X244652Y69994*
X244759Y69991*
X244859Y69972*
X244956Y69948*
X245048Y69910*
X245132Y69864*
X245217Y69806*
X245294Y69737*
X245367Y69656*
X245428Y69576*
X245482Y69491*
X245528Y69402*
X245567Y69310*
X245594Y69214*
X245617Y69110*
X245628Y69006*
X245632Y68899*
X245628Y68795*
X245613Y68695*
X245594Y68599*
X245563Y68503*
X245524Y68415*
X245474Y68326*
X245421Y68245*
X245355Y68165*
X245282Y68087*
X245206Y68019*
X245125Y67961*
X245036Y67915*
X244948Y67880*
X244856Y67853*
X244756Y67838*
X244652Y67834*
X244552Y67838*
X244452Y67853*
X244359Y67880*
X244267Y67919*
X244183Y67965*
X244106Y68022*
X244029Y68087*
X243960Y68169*
X243898Y68249*
X243848Y68330*
X243806Y68418*
X243767Y68511*
X243741Y68603*
X243721Y68703*
X243710Y68807*
X243706Y68910*
X237374Y69537D02*
Y69418D01*
Y69314*
X237378Y69222*
X237381Y69145*
X237385Y69080*
X237389Y69026*
X237397Y68987*
X237404Y68960*
X237412Y68937*
X237424Y68910*
X237439Y68880*
X237458Y68841*
X237481Y68803*
X237508Y68757*
X237539Y68707*
X237574Y68649*
X237612Y68587*
X237650Y68526*
X237696Y68457*
X237746Y68380*
X237796Y68303*
X237854Y68219*
X237912Y68130*
X237973Y68038*
X238039Y67941*
X238100Y67853*
X238158Y67769*
X238212Y67692*
X238266Y67619*
X238312Y67553*
X238358Y67492*
X238400Y67438*
X238435Y67388*
X238469Y67346*
X238500Y67311*
X238531Y67276*
X238554Y67253*
X238577Y67234*
X238593Y67219*
X238608Y67211*
X238623Y67207*
X238646Y67203*
X238673Y67200*
X238708Y67196*
X238746Y67192*
X238793*
X238843*
X238904Y67188*
X238957Y67192*
X239011*
X239057*
X239096Y67196*
X239135Y67200*
X239165Y67203*
X239192Y67207*
X239211Y67211*
X239227Y67219*
X239242Y67230*
X239265Y67250*
X239288Y67272*
X239315Y67303*
X239346Y67338*
X239381Y67376*
X239419Y67426*
X239461Y67476*
X239507Y67534*
X239557Y67599*
X239607Y67669*
X239665Y67745*
X239723Y67826*
X239788Y67911*
X239854Y68003*
X239919Y68095*
X239976Y68180*
X240034Y68261*
X240088Y68337*
X240138Y68411*
X240184Y68480*
X240226Y68541*
X240265Y68599*
X240300Y68653*
X240334Y68703*
X240361Y68749*
X240384Y68791*
X240407Y68826*
X240422Y68857*
X240434Y68883*
X240446Y68907*
X240465Y68964*
X240484Y69033*
X240496Y69106*
X240507Y69187*
X240519Y69280*
X240526Y69376*
X240530Y69480*
Y69591*
Y69630*
Y69672*
Y69718*
X240526Y69772*
Y69829*
Y69887*
X240522Y69952*
Y70022*
X240519Y70094*
Y70160*
Y70218*
X240515Y70275*
Y70325*
Y70375*
Y70417*
Y70456*
X240511Y70491*
X240496Y70514*
X240472Y70529*
X240438Y70533*
X240372*
X240292Y70529*
X240200Y70525*
X240092Y70521*
X239984Y70517*
X239892Y70514*
X239811*
X239746Y70510*
X239719Y70506*
X239700Y70494*
X239688Y70471*
X239684Y70441*
Y70379*
X239688Y70302*
X239692Y70214*
X239696Y70110*
X239704Y70006*
X239707Y69918*
X239711Y69841*
Y69779*
X239707Y69618*
X239704Y69468*
X239692Y69326*
X239677Y69187*
X239669Y69149*
X239646Y69095*
X239619Y69033*
X239581Y68957*
X239531Y68868*
X239469Y68768*
X239400Y68657*
X239319Y68533*
X239281Y68472*
X239238Y68411*
X239204Y68357*
X239169Y68307*
X239135Y68261*
X239104Y68219*
X239073Y68180*
X239046Y68145*
X239023Y68115*
X239000Y68087*
X238977Y68065*
X238957Y68045*
X238942Y68034*
X238927Y68022*
X238911Y68015*
X238900*
X238892*
X238877Y68022*
X238865Y68034*
X238850Y68045*
X238831Y68065*
X238811Y68087*
X238789Y68111*
X238765Y68141*
X238743Y68176*
X238715Y68215*
X238689Y68257*
X238658Y68299*
X238623Y68349*
X238589Y68403*
X238554Y68461*
X238515Y68522*
X238446Y68641*
X238385Y68749*
X238331Y68845*
X238285Y68930*
X238246Y69003*
X238219Y69064*
X238200Y69114*
X238193Y69153*
X238185Y69199*
X238181Y69256*
X238177Y69318*
X238173Y69391*
X238170Y69472*
X238166Y69556*
Y69652*
Y69756*
Y69822*
X238170Y69902*
X238177Y69994*
X238189Y70102*
X238200Y70214*
X238204Y70306*
X238212Y70387*
Y70452*
X238208Y70475*
X238200Y70491*
X238181Y70502*
X238158Y70506*
X238093*
X238016*
X237924Y70510*
X237820Y70517*
X237712Y70521*
X237620Y70525*
X237543Y70529*
X237481*
X237470Y70525*
X237454Y70514*
X237443Y70494*
X237435Y70467*
X237424Y70433*
X237416Y70391*
X237408Y70337*
X237400Y70279*
X237393Y70214*
X237389Y70141*
X237385Y70060*
X237381Y69972*
X237378Y69872*
X237374Y69768*
Y69656*
Y69537*
X233356Y70387D02*
Y70379D01*
X233360Y70364*
Y70344*
X233367Y70325*
X233398Y70125*
X233425Y69937*
X233448Y69752*
X233467Y69576*
X233483Y69406*
X233494Y69241*
X233498Y69087*
X233502Y68937*
Y68926*
Y68903*
X233498Y68872*
Y68826*
X233494Y68768*
X233491Y68699*
X233487Y68618*
X233479Y68526*
X233475Y68422*
X233467Y68307*
X233460Y68176*
X233452Y68038*
X233444Y67888*
X233433Y67722*
X233425Y67549*
X233413Y67361*
X233410Y67311*
X233413Y67269*
X233433Y67234*
X233460Y67215*
X233502Y67211*
X233556Y67207*
X233625Y67203*
X233702Y67196*
X233794Y67188*
X233887Y67176*
X233967Y67169*
X234033Y67165*
X234086*
X234102Y67169*
X234117Y67180*
X234133Y67200*
X234144Y67226*
X234156Y67261*
X234167Y67303*
X234179Y67353*
X234186Y67411*
X234198Y67469*
X234206Y67519*
X234213Y67561*
X234221Y67595*
X234233Y67622*
X234240Y67642*
X234248Y67653*
X234256Y67657*
X234263Y67653*
X234275Y67649*
X234290Y67638*
X234313Y67622*
X234340Y67603*
X234371Y67580*
X234406Y67553*
X234444Y67519*
X234548Y67442*
X234644Y67372*
X234740Y67311*
X234832Y67265*
X234902Y67230*
X234971Y67203*
X235040Y67176*
X235109Y67157*
X235178Y67142*
X235248Y67130*
X235317Y67126*
X235386Y67122*
X235470Y67126*
X235551Y67130*
X235632Y67142*
X235713Y67157*
X235790Y67176*
X235867Y67200*
X235939Y67226*
X236013Y67257*
X236082Y67296*
X236151Y67334*
X236220Y67380*
X236285Y67430*
X236351Y67480*
X236413Y67538*
X236474Y67599*
X236531Y67669*
X236635Y67799*
X236724Y67938*
X236801Y68080*
X236862Y68230*
X236912Y68383*
X236947Y68545*
X236966Y68707*
X236974Y68880*
X236966Y69068*
X236947Y69252*
X236912Y69426*
X236862Y69591*
X236801Y69748*
X236724Y69894*
X236631Y70037*
X236528Y70168*
X236470Y70233*
X236409Y70291*
X236343Y70348*
X236278Y70398*
X236209Y70448*
X236136Y70491*
X236063Y70529*
X235989Y70564*
X235909Y70598*
X235828Y70625*
X235747Y70644*
X235663Y70663*
X235574Y70679*
X235486Y70691*
X235394Y70694*
X235301Y70698*
X235167Y70691*
X235040Y70675*
X234917Y70644*
X234798Y70606*
X234682Y70552*
X234571Y70487*
X234467Y70414*
X234363Y70325*
X234329Y70287*
X234286Y70237*
X234236Y70183*
X234179Y70122*
X234167Y70114*
X234156Y70110*
X234152Y70114*
X234144Y70125*
X234140Y70141*
X234133Y70164*
X234125Y70194*
X234117Y70233*
X234106Y70279*
X234098Y70329*
X234086Y70383*
X234075Y70429*
X234063Y70464*
X234052Y70498*
X234040Y70521*
X234029Y70537*
X234013Y70548*
X233998Y70552*
X233971*
X233940Y70548*
X233906Y70544*
X233863Y70537*
X233817Y70533*
X233763Y70521*
X233706Y70510*
X233644Y70498*
X233575Y70483*
X233517Y70467*
X233467Y70452*
X233429Y70441*
X233394Y70425*
X233375Y70414*
X233360Y70398*
X233356Y70387*
X234252Y68922D02*
X234256Y69026D01*
X234267Y69130*
X234286Y69226*
X234317Y69322*
X234352Y69410*
X234394Y69498*
X234448Y69583*
X234509Y69660*
X234578Y69741*
X234652Y69806*
X234732Y69864*
X234817Y69910*
X234906Y69948*
X234998Y69975*
X235098Y69991*
X235198Y69994*
X235301Y69991*
X235401Y69975*
X235494Y69948*
X235586Y69910*
X235670Y69864*
X235751Y69810*
X235828Y69741*
X235901Y69664*
X235963Y69583*
X236017Y69498*
X236067Y69410*
X236101Y69322*
X236132Y69226*
X236155Y69126*
X236167Y69026*
X236170Y68922*
X236167Y68814*
X236155Y68714*
X236132Y68618*
X236101Y68522*
X236067Y68433*
X236017Y68345*
X235963Y68265*
X235901Y68184*
X235828Y68107*
X235751Y68041*
X235670Y67984*
X235586Y67938*
X235494Y67903*
X235401Y67876*
X235301Y67861*
X235198Y67857*
X235098Y67861*
X235002Y67876*
X234909Y67903*
X234821Y67941*
X234736Y67988*
X234659Y68045*
X234582Y68111*
X234509Y68191*
X234452Y68268*
X234398Y68353*
X234352Y68437*
X234317Y68530*
X234286Y68622*
X234267Y68718*
X234256Y68818*
X234252Y68922*
X229688Y67280D02*
X229692Y67246D01*
X229707Y67222*
X229730Y67207*
X229761Y67203*
X229822*
X229903*
X229996Y67207*
X230103*
X230211*
X230307Y67211*
X230384*
X230449*
X230476Y67219*
X230495Y67238*
X230507Y67269*
X230511Y67311*
Y67357*
Y67411*
Y67465*
Y67530*
X230507Y67595*
Y67672*
X230503Y67749*
Y67834*
X230499Y67922*
X230495Y67999*
Y68076*
Y68141*
X230492Y68207*
Y68265*
Y68315*
Y68361*
Y68399*
Y68441*
Y68487*
Y68537*
Y68591*
Y68653*
X230495Y68714*
Y68783*
Y68849*
Y68914*
Y68972*
X230499Y69026*
Y69076*
Y69122*
Y69164*
Y69203*
Y69299*
X230507Y69387*
X230515Y69468*
X230526Y69545*
X230545Y69610*
X230565Y69668*
X230588Y69722*
X230615Y69768*
X230653Y69814*
X230699Y69852*
X230753Y69887*
X230815Y69914*
X230884Y69937*
X230961Y69952*
X231045Y69960*
X231137Y69964*
X231183Y69960*
X231233Y69952*
X231287Y69937*
X231345Y69914*
X231411Y69887*
X231476Y69852*
X231549Y69814*
X231626Y69768*
X231703Y69714*
X231772Y69664*
X231826Y69618*
X231872Y69568*
X231910Y69526*
X231937Y69480*
X231953Y69437*
X231956Y69395*
Y67292*
X231960Y67253*
X231972Y67226*
X231995Y67211*
X232022Y67203*
X232087*
X232164*
X232252Y67207*
X232360*
X232464*
X232556Y67211*
X232633*
X232694*
X232729Y67215*
X232752Y67230*
X232764Y67257*
X232772Y67292*
Y67365*
X232768Y67446*
Y67538*
Y67638*
Y67745*
X232764Y67865*
Y67988*
X232760Y68122*
Y68257*
X232756Y68383*
Y68499*
Y68611*
X232752Y68711*
Y68803*
Y68883*
Y68960*
X232756Y69145*
X232764Y69326*
X232775Y69502*
X232791Y69676*
X232814Y69848*
X232841Y70014*
X232875Y70179*
X232910Y70337*
X232918Y70364*
X232921Y70383*
X232918Y70398*
X232910Y70414*
X232894Y70425*
X232875Y70433*
X232864Y70437*
X232841*
X232806Y70444*
X232764Y70452*
X232706Y70460*
X232641Y70471*
X232564Y70483*
X232476Y70498*
X232387Y70514*
X232310Y70525*
X232241Y70537*
X232187Y70544*
X232145Y70552*
X232110Y70556*
X232091Y70560*
X232080*
X232072Y70556*
X232064Y70544*
X232056Y70529*
X232052Y70502*
X232041Y70394*
X232022Y70283*
X231999Y70175*
X231972Y70064*
X231872Y70141*
X231760Y70225*
X231633Y70321*
X231491Y70421*
X231399Y70475*
X231307Y70521*
X231218Y70560*
X231126Y70591*
X231037Y70617*
X230949Y70633*
X230861Y70644*
X230776Y70648*
X230619Y70641*
X230472Y70625*
X230338Y70594*
X230219Y70552*
X230115Y70498*
X230019Y70433*
X229938Y70356*
X229872Y70264*
X229830Y70191*
X229792Y70102*
X229761Y70006*
X229738Y69898*
X229719Y69779*
X229704Y69648*
X229696Y69506*
X229692Y69356*
Y69295*
X229696Y69218*
Y69126*
X229700Y69022*
Y68918*
X229704Y68826*
Y68749*
Y68683*
Y68622*
Y68553*
Y68476*
Y68391*
X229700Y68299*
Y68203*
Y68095*
X229696Y67984*
Y67869*
X229692Y67765*
Y67665*
Y67572*
Y67492*
X229688Y67415*
Y67342*
Y67280*
X223844Y71417D02*
X223848Y71390D01*
X223863Y71367*
X223886Y71356*
X223917Y71352*
X223990*
X224075*
X224171Y71356*
X224278Y71359*
X224398Y71363*
X224524Y71371*
X224667Y71375*
X224817Y71383*
X224959Y71390*
X225090Y71394*
X225217Y71398*
X225332Y71402*
X225440Y71406*
X225539*
X225632*
X225717*
X225970Y71402*
X226028*
X226078Y71398*
X226124*
X226159*
X226189Y71394*
X226209*
X226224*
X226231Y71390*
X226247Y71383*
X226262Y71367*
X226274Y71348*
X226281Y71321*
X226289Y71290*
X226297Y71256*
X226301Y71213*
Y71171*
Y70321*
Y70268*
X226293Y70218*
X226285Y70175*
X226274Y70141*
X226262Y70118*
X226243Y70098*
X226224Y70087*
X226201Y70083*
X226109*
X226009*
X225893Y70087*
X225770Y70091*
X225639Y70094*
X225493Y70098*
X225340Y70106*
X225174Y70114*
X225005Y70122*
X224851Y70125*
X224705Y70133*
X224574Y70137*
X224452Y70141*
X224336*
X224236Y70144*
X224148*
X224113Y70141*
X224090Y70129*
X224079Y70114*
X224071Y70087*
X224075Y70056*
Y70014*
X224079Y69968*
X224082Y69910*
X224086Y69856*
Y69806*
X224090Y69768*
Y69733*
Y69698*
Y69652*
X224086Y69602*
X224082Y69541*
X224079Y69483*
Y69430*
X224075Y69387*
Y69352*
X224082Y69333*
X224094Y69318*
X224117Y69310*
X224152*
X224213*
X224286*
X224367*
X224456Y69314*
X224552*
X224655Y69318*
X224767*
X224886Y69322*
X225005Y69326*
X225117Y69330*
X225220*
X225317Y69333*
X225405*
X225486Y69337*
X225559*
X225624*
X225732*
X225824*
X225909*
X225978Y69333*
X226035*
X226081*
X226113*
X226135Y69330*
X226174Y69326*
X226205Y69314*
X226231Y69302*
X226255Y69287*
X226270Y69272*
X226281Y69249*
X226289Y69226*
X226293Y69199*
Y69118*
Y69022*
X226289Y68918*
Y68807*
X226285Y68683*
X226281Y68549*
Y68407*
X226274Y68253*
X226270Y68099*
X226266Y67957*
Y67822*
X226262Y67699*
Y67588*
X226259Y67484*
Y67388*
Y67307*
X226262Y67261*
X226278Y67226*
X226305Y67207*
X226343Y67200*
X226381*
X226431Y67203*
X226485Y67207*
X226551Y67215*
X226616Y67222*
X226674Y67226*
X226724Y67230*
X226762*
X226797*
X226839*
X226889Y67226*
X226947Y67222*
X227004Y67215*
X227054*
X227093Y67211*
X227128*
X227166Y67215*
X227193Y67230*
X227212Y67253*
X227216Y67288*
Y67392*
X227212Y67507*
Y67634*
X227208Y67776*
X227204Y67930*
X227196Y68095*
X227189Y68272*
X227181Y68461*
X227174Y68649*
X227170Y68826*
X227162Y68991*
X227158Y69145*
X227154Y69287*
X227150Y69414*
Y69530*
Y69633*
Y69687*
Y69748*
X227154Y69826*
Y69918*
X227158Y70018*
X227162Y70133*
X227166Y70264*
X227170Y70402*
X227174Y70556*
X227178Y70721*
X227185Y70902*
X227193Y71094*
X227200Y71298*
X227208Y71513*
X227216Y71744*
X227224Y71986*
Y72032*
X227220Y72067*
X227204Y72090*
X227174Y72109*
X227135Y72117*
X227124*
X227097*
X227058*
X227012Y72113*
X226947*
X226874Y72109*
X226789*
X226689Y72106*
X226420Y72102*
X226159*
X225909*
X225670*
X225505Y72106*
X225328Y72109*
X225144Y72117*
X224948Y72124*
X224740Y72132*
X224521Y72144*
X224290Y72159*
X224052Y72174*
X224021*
X223990Y72171*
X223967Y72163*
X223948Y72152*
X223929Y72132*
X223917Y72113*
X223906Y72086*
X223902Y72059*
Y72006*
X223898Y71940*
X223894Y71859*
X223886Y71771*
X223875Y71706*
X223867Y71648*
X223859Y71594*
X223856Y71548*
X223852Y71506*
X223848Y71471*
X223844Y71440*
Y71417*
X219980Y70387D02*
Y70379D01*
X219984Y70364*
Y70344*
X219992Y70325*
X220022Y70125*
X220049Y69937*
X220072Y69752*
X220092Y69576*
X220107Y69406*
X220119Y69241*
X220122Y69087*
X220126Y68937*
Y68926*
Y68903*
X220122Y68872*
Y68826*
X220119Y68768*
X220115Y68699*
X220111Y68618*
X220103Y68526*
X220099Y68422*
X220092Y68307*
X220084Y68176*
X220076Y68038*
X220069Y67888*
X220057Y67722*
X220049Y67549*
X220038Y67361*
X220034Y67311*
X220038Y67269*
X220057Y67234*
X220084Y67215*
X220126Y67211*
X220180Y67207*
X220249Y67203*
X220326Y67196*
X220419Y67188*
X220511Y67176*
X220591Y67169*
X220657Y67165*
X220711*
X220726Y67169*
X220741Y67180*
X220757Y67200*
X220768Y67226*
X220780Y67261*
X220791Y67303*
X220803Y67353*
X220811Y67411*
X220822Y67469*
X220830Y67519*
X220837Y67561*
X220845Y67595*
X220857Y67622*
X220864Y67642*
X220872Y67653*
X220880Y67657*
X220887Y67653*
X220899Y67649*
X220914Y67638*
X220937Y67622*
X220964Y67603*
X220995Y67580*
X221030Y67553*
X221068Y67519*
X221172Y67442*
X221268Y67372*
X221364Y67311*
X221456Y67265*
X221526Y67230*
X221595Y67203*
X221664Y67176*
X221733Y67157*
X221802Y67142*
X221872Y67130*
X221941Y67126*
X222010Y67122*
X222094Y67126*
X222176Y67130*
X222256Y67142*
X222337Y67157*
X222414Y67176*
X222491Y67200*
X222564Y67226*
X222637Y67257*
X222706Y67296*
X222775Y67334*
X222844Y67380*
X222910Y67430*
X222975Y67480*
X223037Y67538*
X223098Y67599*
X223156Y67669*
X223259Y67799*
X223348Y67938*
X223425Y68080*
X223487Y68230*
X223537Y68383*
X223571Y68545*
X223590Y68707*
X223598Y68880*
X223590Y69068*
X223571Y69252*
X223537Y69426*
X223487Y69591*
X223425Y69748*
X223348Y69894*
X223256Y70037*
X223152Y70168*
X223094Y70233*
X223033Y70291*
X222967Y70348*
X222902Y70398*
X222833Y70448*
X222760Y70491*
X222687Y70529*
X222614Y70564*
X222533Y70598*
X222452Y70625*
X222372Y70644*
X222287Y70663*
X222198Y70679*
X222110Y70691*
X222018Y70694*
X221926Y70698*
X221791Y70691*
X221664Y70675*
X221541Y70644*
X221422Y70606*
X221307Y70552*
X221195Y70487*
X221091Y70414*
X220987Y70325*
X220953Y70287*
X220911Y70237*
X220861Y70183*
X220803Y70122*
X220791Y70114*
X220780Y70110*
X220776Y70114*
X220768Y70125*
X220765Y70141*
X220757Y70164*
X220749Y70194*
X220741Y70233*
X220730Y70279*
X220722Y70329*
X220711Y70383*
X220699Y70429*
X220687Y70464*
X220676Y70498*
X220665Y70521*
X220653Y70537*
X220637Y70548*
X220622Y70552*
X220595*
X220565Y70548*
X220530Y70544*
X220487Y70537*
X220441Y70533*
X220388Y70521*
X220330Y70510*
X220269Y70498*
X220199Y70483*
X220142Y70467*
X220092Y70452*
X220053Y70441*
X220019Y70425*
X219999Y70414*
X219984Y70398*
X219980Y70387*
X220876Y68922D02*
X220880Y69026D01*
X220891Y69130*
X220911Y69226*
X220941Y69322*
X220976Y69410*
X221018Y69498*
X221072Y69583*
X221133Y69660*
X221203Y69741*
X221276Y69806*
X221356Y69864*
X221441Y69910*
X221530Y69948*
X221622Y69975*
X221722Y69991*
X221822Y69994*
X221926Y69991*
X222026Y69975*
X222118Y69948*
X222210Y69910*
X222294Y69864*
X222375Y69810*
X222452Y69741*
X222525Y69664*
X222587Y69583*
X222641Y69498*
X222691Y69410*
X222725Y69322*
X222756Y69226*
X222779Y69126*
X222791Y69026*
X222794Y68922*
X222791Y68814*
X222779Y68714*
X222756Y68618*
X222725Y68522*
X222691Y68433*
X222641Y68345*
X222587Y68265*
X222525Y68184*
X222452Y68107*
X222375Y68041*
X222294Y67984*
X222210Y67938*
X222118Y67903*
X222026Y67876*
X221926Y67861*
X221822Y67857*
X221722Y67861*
X221626Y67876*
X221533Y67903*
X221445Y67941*
X221360Y67988*
X221283Y68045*
X221207Y68111*
X221133Y68191*
X221076Y68268*
X221022Y68353*
X220976Y68437*
X220941Y68530*
X220911Y68622*
X220891Y68718*
X220880Y68818*
X220876Y68922*
X218519Y72078D02*
X218523Y72032D01*
X218542Y71713*
X218557Y71406*
X218569Y71106*
X218581Y70821*
X218588Y70544*
X218596Y70283*
X218600Y70029*
Y69791*
Y69679*
Y69556*
X218596Y69418*
Y69268*
Y69106*
X218592Y68930*
X218588Y68741*
X218584Y68537*
X218581Y68337*
Y68149*
X218577Y67972*
Y67811*
X218573Y67661*
Y67526*
Y67403*
Y67292*
X218577Y67257*
X218584Y67230*
X218604Y67215*
X218627Y67211*
X219296*
X219322Y67215*
X219346Y67230*
X219357Y67257*
X219361Y67292*
Y67403*
Y67526*
X219357Y67661*
Y67811*
Y67972*
Y68149*
X219354Y68337*
Y68537*
X219350Y68741*
Y68930*
Y69106*
X219346Y69268*
Y69418*
Y69556*
Y69679*
Y69791*
Y69891*
X219350Y70002*
Y70129*
X219354Y70264*
X219361Y70414*
X219365Y70575*
X219372Y70744*
X219380Y70929*
X219392Y71113*
X219400Y71286*
X219404Y71444*
X219411Y71594*
X219415Y71729*
Y71856*
X219419Y71967*
Y72067*
X219415Y72098*
X219400Y72117*
X219376Y72132*
X219346Y72136*
X219311*
X219265Y72132*
X219215Y72128*
X219157Y72124*
X219096Y72121*
X219046Y72117*
X219004*
X218969Y72113*
X218930Y72117*
X218884*
X218830Y72121*
X218773Y72124*
X218711Y72128*
X218657Y72132*
X218615Y72136*
X218577*
X218550Y72132*
X218531Y72121*
X218523Y72106*
X218519Y72078*
X216908Y71409D02*
X216916Y71309D01*
X216939Y71221*
X216977Y71148*
X217027Y71087*
X217096Y71040*
X217177Y71006*
X217277Y70987*
X217389Y70979*
X217504Y70987*
X217604Y71006*
X217685Y71040*
X217754Y71087*
X217808Y71148*
X217846Y71221*
X217869Y71309*
X217877Y71409*
X217873Y71456*
X217869Y71502*
X217854Y71544*
X217839Y71586*
X217819Y71625*
X217793Y71659*
X217762Y71694*
X217727Y71729*
X217654Y71782*
X217573Y71817*
X217485Y71840*
X217389Y71848*
X217293Y71840*
X217204Y71817*
X217124Y71778*
X217050Y71725*
X217016Y71694*
X216989Y71659*
X216962Y71625*
X216943Y71586*
X216927Y71544*
X216916Y71502*
X216912Y71456*
X216908Y71409*
X216935Y70460D02*
Y70387D01*
Y70306*
X216939Y70218*
X216943Y70118*
X216946Y70014*
X216954Y69898*
X216958Y69776*
X216966Y69641*
X216974Y69510*
X216981Y69387*
X216989Y69272*
X216993Y69164*
X216996Y69064*
Y68976*
X217000Y68895*
Y68822*
Y68753*
Y68680*
Y68595*
X216996Y68503*
Y68403*
X216993Y68295*
Y68180*
X216989Y68057*
Y67930*
X216985Y67815*
Y67707*
X216981Y67611*
Y67519*
Y67434*
Y67361*
Y67292*
X216985Y67261*
X216996Y67238*
X217016Y67222*
X217043Y67219*
X217727*
X217746Y67222*
X217762Y67226*
X217773Y67238*
X217785Y67253*
X217793Y67276*
X217796Y67300*
X217800Y67330*
Y67361*
Y67426*
Y67499*
Y67576*
Y67665*
X217796Y67761*
Y67861*
X217793Y67972*
X217789Y68091*
X217785Y68207*
Y68318*
X217781Y68422*
Y68518*
X217777Y68603*
Y68683*
Y68757*
Y68822*
Y68895*
X217781Y68976*
Y69064*
X217789Y69164*
X217793Y69272*
X217800Y69387*
X217808Y69510*
X217815Y69645*
X217827Y69776*
X217835Y69898*
X217843Y70018*
X217846Y70122*
X217850Y70221*
X217854Y70310*
X217858Y70391*
Y70464*
X217854Y70491*
X217839Y70510*
X217815Y70521*
X217785Y70525*
X217746*
X217704Y70521*
X217650Y70514*
X217589Y70506*
X217527Y70498*
X217473Y70494*
X217427Y70491*
X217393*
X217354*
X217308Y70494*
X217254Y70498*
X217193Y70506*
X217131Y70514*
X217077Y70521*
X217031Y70525*
X216996*
X216970Y70521*
X216950Y70510*
X216939Y70487*
X216935Y70460*
X213267Y69095D02*
X213271Y69033D01*
X213283Y68976*
X213298Y68926*
X213325Y68880*
X213356Y68837*
X213394Y68803*
X213440Y68772*
X213490Y68749*
X213517Y68741*
X213559Y68733*
X213613Y68726*
X213682Y68714*
X213767Y68703*
X213867Y68691*
X213978Y68680*
X214109Y68668*
X214252Y68657*
X214409Y68641*
X214582Y68626*
X214767Y68611*
X214967Y68595*
X215182Y68576*
X215413Y68561*
X215659Y68541*
X215643Y68465*
X215620Y68391*
X215589Y68322*
X215551Y68253*
X215505Y68191*
X215451Y68130*
X215389Y68069*
X215320Y68015*
X215247Y67965*
X215178Y67922*
X215101Y67888*
X215028Y67857*
X214951Y67834*
X214874Y67819*
X214797Y67811*
X214717Y67807*
X214578Y67811*
X214444Y67830*
X214313Y67857*
X214186Y67895*
X214059Y67945*
X213936Y68007*
X213817Y68080*
X213702Y68161*
X213590Y68253*
X213567Y68249*
X213552Y68245*
X213548Y68241*
X213540Y68226*
X213529Y68207*
X213513Y68180*
X213498Y68145*
X213475Y68107*
X213448Y68057*
X213421Y68003*
X213390Y67945*
X213367Y67899*
X213344Y67857*
X213329Y67822*
X213313Y67792*
X213306Y67772*
X213298Y67757*
Y67749*
X213302Y67734*
X213313Y67719*
X213329Y67695*
X213356Y67669*
X213421Y67603*
X213486Y67542*
X213559Y67484*
X213629Y67430*
X213706Y67380*
X213782Y67334*
X213859Y67296*
X213944Y67257*
X214024Y67226*
X214113Y67200*
X214202Y67176*
X214290Y67157*
X214386Y67142*
X214478Y67130*
X214578Y67126*
X214678Y67122*
X214874Y67130*
X215063Y67153*
X215239Y67192*
X215409Y67246*
X215566Y67311*
X215713Y67396*
X215847Y67496*
X215974Y67607*
X216089Y67734*
X216185Y67872*
X216270Y68019*
X216335Y68176*
X216389Y68341*
X216428Y68522*
X216451Y68707*
X216458Y68907*
X216451Y69083*
X216428Y69256*
X216393Y69422*
X216343Y69583*
X216278Y69737*
X216197Y69887*
X216105Y70029*
X215997Y70168*
X215935Y70233*
X215870Y70298*
X215805Y70356*
X215739Y70410*
X215670Y70460*
X215597Y70506*
X215528Y70548*
X215451Y70587*
X215378Y70617*
X215301Y70644*
X215220Y70671*
X215139Y70691*
X215059Y70706*
X214974Y70717*
X214886Y70721*
X214801Y70725*
X214640Y70717*
X214482Y70694*
X214336Y70656*
X214194Y70602*
X214059Y70537*
X213932Y70452*
X213813Y70352*
X213698Y70241*
X213598Y70122*
X213509Y69991*
X213436Y69860*
X213375Y69718*
X213329Y69572*
X213294Y69422*
X213275Y69260*
X213267Y69095*
X214102Y69310D02*
X214105Y69383D01*
X214117Y69452*
X214132Y69518*
X214159Y69583*
X214190Y69648*
X214232Y69710*
X214278Y69768*
X214332Y69826*
X214390Y69879*
X214448Y69925*
X214509Y69964*
X214574Y69994*
X214640Y70022*
X214709Y70037*
X214778Y70048*
X214847Y70052*
X214928Y70048*
X215005Y70037*
X215078Y70014*
X215151Y69987*
X215220Y69948*
X215289Y69906*
X215355Y69852*
X215420Y69791*
X215478Y69726*
X215528Y69656*
X215574Y69587*
X215609Y69514*
X215635Y69441*
X215655Y69364*
X215666Y69287*
X215670Y69206*
X215666Y69191*
X215663Y69176*
X215651Y69160*
X215639Y69153*
X215620Y69145*
X215601Y69137*
X215574Y69133*
X215543*
X215413*
X215274Y69141*
X215128Y69149*
X214974Y69160*
X214817Y69176*
X214651Y69191*
X214482Y69214*
X214305Y69241*
X214255Y69245*
X214217Y69252*
X214182Y69264*
X214152Y69272*
X214128Y69280*
X214113Y69291*
X214105Y69299*
X214102Y69310*
X210764Y70510D02*
X210768Y70321D01*
X210776Y70141*
X210795Y69968*
X210818Y69806*
X210826Y69772*
X210841Y69744*
X210860Y69729*
X210887Y69726*
X210930*
X210980Y69729*
X211041Y69733*
X211110Y69741*
X211180Y69748*
X211241Y69752*
X211295Y69756*
X211337*
X211441Y69752*
X211537Y69741*
X211622Y69722*
X211698Y69695*
X211764Y69660*
X211822Y69614*
X211868Y69564*
X211902Y69506*
X211918Y69464*
X211933Y69410*
X211944Y69349*
X211956Y69276*
X211964Y69191*
X211972Y69095*
X211975Y68991*
Y68880*
Y68491*
Y68441*
Y68380*
X211972Y68315*
Y68245*
X211968Y68169*
Y68084*
X211964Y67991*
X211960Y67895*
X211956Y67799*
X211952Y67707*
Y67622*
X211948Y67546*
Y67476*
X211944Y67411*
Y67349*
Y67300*
X211948Y67257*
X211964Y67226*
X211991Y67211*
X212025Y67203*
X212087*
X212164*
X212252Y67207*
X212356*
X212460*
X212548Y67211*
X212625*
X212687*
X212721Y67215*
X212744Y67234*
X212760Y67261*
X212767Y67300*
X212763Y67372*
Y67457*
Y67553*
Y67653*
Y67765*
X212760Y67888*
Y68015*
X212756Y68153*
Y68291*
X212752Y68422*
Y68545*
Y68657*
X212748Y68760*
Y68853*
Y68937*
Y69014*
X212752Y69226*
X212760Y69426*
X212771Y69618*
X212791Y69794*
X212809Y69964*
X212841Y70122*
X212871Y70271*
X212909Y70406*
X212917Y70433*
Y70448*
X212913Y70467*
X212906Y70487*
X212891Y70498*
X212871Y70510*
X212802Y70517*
X212717Y70525*
X212617Y70537*
X212506Y70552*
X212417Y70567*
X212344Y70583*
X212279Y70594*
X212229Y70602*
X212191Y70610*
X212168Y70617*
X212156Y70621*
X212141Y70617*
X212129Y70610*
X212118Y70591*
X212110Y70571*
X212098Y70541*
X212094Y70506*
X212087Y70464*
X212083Y70414*
X212075Y70368*
X212071Y70325*
X212064Y70291*
X212056Y70260*
X212048Y70237*
X212041Y70221*
X212029Y70214*
X212018Y70210*
X212010*
X211998Y70218*
X211714Y70398*
X211633Y70444*
X211552Y70483*
X211472Y70514*
X211391Y70541*
X211314Y70560*
X211233Y70571*
X211141Y70579*
X211037Y70583*
X210976*
X210918Y70579*
X210872Y70571*
X210833Y70564*
X210803Y70552*
X210780Y70541*
X210768Y70525*
X210764Y70510*
X209407Y68049D02*
Y67961D01*
X209415Y67872*
X209422Y67792*
X209438Y67711*
X209453Y67630*
X209476Y67557*
X209503Y67484*
X209530Y67411*
X209553Y67365*
X209584Y67311*
X209626Y67250*
X209676Y67184*
X209730Y67111*
X209795Y67034*
X209869Y66950*
X209953Y66857*
X210041Y66761*
X210122Y66677*
X210195Y66604*
X210265Y66546*
X210322Y66500*
X210376Y66469*
X210422Y66450*
X210457Y66442*
X210468Y66446*
X210480Y66454*
X210499Y66465*
X210518Y66480*
X210537Y66504*
X210564Y66530*
X210595Y66565*
X210626Y66604*
X210660Y66642*
X210687Y66677*
X210710Y66707*
X210730Y66734*
X210745Y66757*
X210757Y66776*
X210760Y66792*
X210764Y66804*
X210760Y66807*
X210753Y66819*
X210737Y66838*
X210718Y66861*
X210691Y66896*
X210660Y66942*
X210622Y66992*
X210580Y67050*
X210533Y67111*
X210495Y67169*
X210464Y67226*
X210437Y67280*
X210414Y67330*
X210399Y67380*
X210387Y67426*
X210380Y67469*
Y67484*
Y67511*
Y67549*
Y67603*
Y67669*
Y67749*
Y67838*
X210372Y67872*
X210357Y67907*
X210326Y67938*
X210283Y67969*
X210230Y67995*
X210165Y68022*
X210087Y68049*
X209995Y68076*
X209849Y68111*
X209715Y68134*
X209595Y68149*
X209484Y68153*
X209449Y68145*
X209426Y68126*
X209411Y68095*
X209407Y68049*
X203998Y67857D02*
Y67799D01*
X204001Y67726*
Y67642*
X204009Y67542*
X204013Y67442*
X204017Y67357*
Y67284*
Y67222*
X204024Y67192*
X204048Y67165*
X204082Y67153*
X204136Y67146*
X204132*
X204140Y67150*
X204163*
X204197Y67153*
X204247Y67157*
X204305Y67161*
X204378Y67169*
X204467Y67176*
X204563Y67180*
X204674Y67188*
X204793Y67192*
X204928Y67196*
X205070Y67200*
X205224Y67203*
X205389*
X205566*
X205631*
X205708*
X205789*
X205878Y67200*
X205978*
X206081Y67196*
X206197*
X206320Y67192*
X206443*
X206554Y67188*
X206662*
X206758Y67184*
X206850*
X206935*
X207008*
X207077Y67180*
X207112Y67188*
X207143Y67200*
X207162Y67222*
X207177Y67253*
X207269Y67757*
X207265Y67769*
X207254Y67776*
X207235Y67788*
X207208Y67799*
X207173Y67811*
X207131Y67819*
X207081Y67830*
X207023Y67841*
X206958Y67853*
X206900Y67865*
X206846Y67880*
X206800Y67891*
X206762Y67907*
X206727Y67922*
X206700Y67934*
X206677Y67949*
X206558Y68057*
X206435Y68172*
X206316Y68291*
X206197Y68415*
X206074Y68541*
X205958Y68672*
X205839Y68810*
X205720Y68953*
X205647Y69045*
X205578Y69137*
X205512Y69222*
X205455Y69306*
X205401Y69391*
X205351Y69468*
X205305Y69545*
X205263Y69618*
X205228Y69687*
X205197Y69752*
X205170Y69818*
X205151Y69879*
X205135Y69937*
X205120Y69994*
X205116Y70048*
X205113Y70098*
X205116Y70175*
X205128Y70252*
X205147Y70321*
X205178Y70391*
X205213Y70452*
X205259Y70514*
X205313Y70571*
X205374Y70625*
X205435Y70667*
X205497Y70710*
X205566Y70741*
X205635Y70767*
X205708Y70791*
X205781Y70806*
X205858Y70813*
X205939Y70817*
X206093Y70810*
X206250Y70787*
X206404Y70748*
X206562Y70694*
X206670Y70648*
X206777Y70598*
X206885Y70537*
X206993Y70471*
X207035Y70441*
X207069Y70417*
X207100Y70394*
X207127Y70379*
X207146Y70364*
X207162Y70356*
X207169Y70348*
X207173*
X207196*
X207212Y70352*
X207227Y70368*
X207239Y70391*
X207250Y70429*
X207254Y70475*
X207258Y70521*
X207262Y70579*
X207265Y70644*
X207277Y70717*
X207293Y70791*
X207308Y70856*
X207319Y70906*
X207331Y70944*
X207339Y70971*
X207346Y70987*
X207350*
Y70979*
X207346Y70994*
X207339Y71009*
X207319Y71025*
X207296Y71044*
X207223Y71098*
X207146Y71148*
X207066Y71194*
X206977Y71240*
X206885Y71283*
X206785Y71321*
X206681Y71359*
X206574Y71394*
X206470Y71425*
X206366Y71452*
X206262Y71475*
X206162Y71490*
X206062Y71506*
X205966Y71517*
X205870Y71521*
X205774Y71525*
X205616Y71521*
X205466Y71506*
X205320Y71483*
X205185Y71448*
X205055Y71406*
X204932Y71356*
X204817Y71294*
X204709Y71221*
X204597Y71133*
X204501Y71033*
X204420Y70929*
X204355Y70810*
X204301Y70687*
X204267Y70552*
X204244Y70410*
X204236Y70256*
X204240Y70171*
X204255Y70079*
X204278Y69983*
X204313Y69883*
X204355Y69779*
X204409Y69668*
X204474Y69556*
X204543Y69441*
X204628Y69318*
X204720Y69191*
X204820Y69060*
X204932Y68926*
X205051Y68787*
X205181Y68645*
X205324Y68499*
X205474Y68349*
X205509Y68303*
X205551Y68257*
X205597Y68207*
X205651Y68153*
X205705Y68091*
X205766Y68026*
X205831Y67961*
X205904Y67888*
X205854Y67884*
X205801*
X205743Y67880*
X205678*
X205501*
X205320Y67884*
X205132Y67891*
X204939Y67903*
X204736Y67915*
X204532Y67926*
X204317Y67945*
X204098Y67965*
X204070Y67969*
X204040Y67961*
X204017Y67938*
X204001Y67903*
X203998Y67857*
X199815Y69322D02*
X199818Y69214D01*
X199822Y69106*
X199833Y68999*
X199845Y68895*
X199865Y68795*
X199887Y68695*
X199915Y68595*
X199945Y68499*
X199980Y68407*
X200018Y68315*
X200061Y68222*
X200111Y68134*
X200161Y68049*
X200214Y67961*
X200276Y67880*
X200337Y67799*
X200410Y67715*
X200483Y67638*
X200556Y67565*
X200637Y67499*
X200718Y67438*
X200799Y67380*
X200887Y67330*
X200972Y67284*
X201064Y67246*
X201156Y67211*
X201252Y67180*
X201348Y67157*
X201448Y67138*
X201552Y67126*
X201656Y67119*
X201764Y67115*
X201871Y67119*
X201975Y67126*
X202075Y67138*
X202175Y67157*
X202275Y67180*
X202367Y67211*
X202459Y67246*
X202552Y67284*
X202640Y67330*
X202725Y67380*
X202806Y67438*
X202886Y67499*
X202967Y67565*
X203040Y67638*
X203113Y67715*
X203186Y67799*
X203252Y67880*
X203309Y67965*
X203367Y68049*
X203417Y68134*
X203463Y68222*
X203506Y68315*
X203548Y68407*
X203582Y68503*
X203613Y68599*
X203640Y68695*
X203663Y68795*
X203678Y68899*
X203694Y68999*
X203705Y69106*
X203709Y69214*
X203713Y69322*
X203709Y69433*
X203705Y69541*
X203694Y69645*
X203678Y69748*
X203663Y69848*
X203640Y69948*
X203613Y70048*
X203582Y70141*
X203548Y70237*
X203506Y70329*
X203463Y70417*
X203417Y70506*
X203367Y70591*
X203309Y70675*
X203252Y70760*
X203186Y70841*
X203113Y70921*
X203040Y70998*
X202967Y71071*
X202886Y71137*
X202806Y71198*
X202725Y71252*
X202640Y71302*
X202552Y71348*
X202459Y71386*
X202367Y71421*
X202275Y71452*
X202175Y71475*
X202075Y71494*
X201975Y71506*
X201871Y71513*
X201764Y71517*
X201656Y71513*
X201552Y71506*
X201448Y71494*
X201348Y71475*
X201252Y71452*
X201156Y71421*
X201064Y71386*
X200972Y71348*
X200887Y71302*
X200799Y71252*
X200718Y71198*
X200637Y71137*
X200556Y71071*
X200483Y71002*
X200410Y70925*
X200337Y70844*
X200276Y70763*
X200214Y70679*
X200161Y70594*
X200111Y70510*
X200061Y70421*
X200018Y70333*
X199980Y70241*
X199945Y70144*
X199915Y70048*
X199887Y69952*
X199865Y69852*
X199845Y69748*
X199833Y69645*
X199822Y69541*
X199818Y69433*
X199815Y69322*
X200641D02*
X200645Y69456D01*
X200660Y69583*
X200680Y69706*
X200710Y69826*
X200752Y69941*
X200802Y70052*
X200860Y70156*
X200926Y70256*
X201006Y70360*
X201095Y70448*
X201191Y70521*
X201294Y70583*
X201402Y70629*
X201518Y70663*
X201637Y70683*
X201764Y70691*
X201894Y70683*
X202014Y70663*
X202129Y70629*
X202237Y70583*
X202337Y70521*
X202433Y70448*
X202521Y70360*
X202602Y70256*
X202667Y70160*
X202721Y70056*
X202771Y69944*
X202809Y69829*
X202840Y69710*
X202859Y69587*
X202875Y69456*
X202879Y69322*
X202875Y69191*
X202859Y69060*
X202840Y68937*
X202809Y68818*
X202767Y68703*
X202721Y68591*
X202663Y68487*
X202598Y68383*
X202517Y68280*
X202429Y68191*
X202333Y68115*
X202233Y68053*
X202125Y68003*
X202010Y67969*
X201891Y67949*
X201764Y67941*
X201644Y67949*
X201525Y67969*
X201414Y68007*
X201310Y68053*
X201206Y68119*
X201110Y68195*
X201022Y68287*
X200937Y68395*
X200868Y68499*
X200806Y68607*
X200756Y68718*
X200714Y68833*
X200683Y68949*
X200660Y69072*
X200645Y69195*
X200641Y69322*
X197996Y71367D02*
Y71340D01*
X198000Y71302*
X198007Y71221*
X198019Y71129*
X198027Y71037*
X198034Y70933*
X198042Y70825*
X198050Y70710*
X198054Y70591*
X198061Y70464*
X198065Y70329*
X198069Y70191*
X198073Y70044*
X198077Y69891*
Y69729*
X198080Y69564*
Y69395*
Y69214*
Y69133*
Y69041*
Y68941*
Y68830*
X198077Y68707*
Y68576*
Y68433*
X198073Y68284*
Y68134*
X198069Y67995*
Y67861*
Y67742*
Y67630*
X198065Y67526*
Y67438*
Y67353*
X198069Y67322*
X198073Y67296*
X198084Y67269*
X198096Y67250*
X198111Y67238*
X198130Y67226*
X198154Y67219*
X198180*
X198246Y67215*
X198323*
X198411*
X198515Y67211*
X198615Y67207*
X198703Y67203*
X198780*
X198842*
X198888Y67207*
X198922Y67226*
X198942Y67253*
X198949Y67292*
Y67303*
Y67326*
Y67357*
X198946Y67399*
Y67449*
X198942Y67507*
Y67572*
X198938Y67649*
X198934Y67734*
X198930Y67830*
X198926Y67934*
X198922Y68045*
X198919Y68165*
X198915Y68295*
X198911Y68433*
X198903Y68583*
Y68657*
X198899Y68737*
Y68822*
X198896Y68910*
X198892Y69003*
Y69099*
Y69203*
X198888Y69306*
Y69418*
Y69530*
X198884Y69648*
Y69772*
Y69898*
Y70029*
Y70164*
Y70302*
X198888Y70337*
X198892Y70364*
X198903Y70379*
X198919Y70383*
X198969Y70379*
X199026Y70368*
X199099Y70352*
X199184Y70325*
X199269Y70302*
X199341Y70287*
X199403Y70275*
X199453Y70271*
X199488Y70275*
X199511Y70283*
X199526Y70294*
X199534Y70314*
X199530Y70337*
Y70368*
X199526Y70398*
X199522Y70441*
X199519Y70479*
Y70514*
X199515Y70544*
Y70567*
Y70587*
Y70614*
X199519Y70644*
X199522Y70683*
X199526Y70717*
Y70748*
X199530Y70775*
Y70798*
X199522Y70821*
X199511Y70841*
X199484Y70860*
X199453Y70875*
X199349Y70925*
X199242Y70991*
X199134Y71071*
X199019Y71163*
X199015Y71171*
X199003Y71183*
X198988Y71198*
X198969Y71221*
X198942Y71252*
X198907Y71286*
X198869Y71329*
X198826Y71375*
X198792Y71417*
X198757Y71452*
X198730Y71479*
X198703Y71506*
X198684Y71525*
X198669Y71536*
X198657Y71544*
X198653Y71548*
X198650*
X198634Y71544*
X198615Y71540*
X198580Y71532*
X198542Y71525*
X198488Y71513*
X198430Y71498*
X198361Y71486*
X198300Y71475*
X198226Y71463*
X198142Y71452*
X198046Y71433*
X198023Y71421*
X198007Y71409*
X198000Y71390*
X197996Y71367*
X194528Y71098D02*
Y71044D01*
Y71002*
X194532Y70967*
X194535Y70944*
Y70937*
X194543Y70921*
X194555Y70906*
X194570Y70883*
X194593Y70852*
X194617Y70817*
X194647Y70779*
X194678Y70737*
X194797Y70571*
X194909Y70394*
X195016Y70206*
X195120Y70006*
X195220Y69791*
X195320Y69564*
X195412Y69326*
X195501Y69072*
X195581Y68826*
X195654Y68591*
X195720Y68365*
X195781Y68141*
X195831Y67930*
X195874Y67730*
X195912Y67534*
X195943Y67349*
X195946Y67311*
X195954Y67280*
X195958Y67253*
X195966Y67238*
X195981Y67215*
X196000Y67196*
X196028Y67180*
X196058Y67169*
X196085Y67165*
X196120Y67157*
X196162Y67153*
X196208Y67150*
X196266Y67146*
X196327Y67142*
X196396*
X196470*
X196546*
X196619*
X196681Y67146*
X196735Y67150*
X196781Y67153*
X196819Y67157*
X196850Y67165*
X196873Y67169*
X196893Y67180*
X196904Y67200*
X196912Y67222*
X196915Y67253*
X196912Y67369*
X196893Y67499*
X196865Y67642*
X196827Y67795*
X196777Y67965*
X196716Y68145*
X196643Y68341*
X196562Y68549*
X196496Y68695*
X196431Y68849*
X196358Y69010*
X196277Y69183*
X196193Y69360*
X196100Y69548*
X196000Y69744*
X195896Y69948*
X195854Y70033*
X195816Y70114*
X195778Y70187*
X195743Y70252*
X195712Y70318*
X195681Y70375*
X195654Y70429*
X195631Y70475*
X195612Y70517*
X195593Y70552*
X195578Y70587*
X195566Y70614*
X195554Y70633*
X195547Y70648*
X195543Y70660*
Y70663*
X195547Y70687*
X195566Y70702*
X195593Y70713*
X195635Y70717*
X195716*
X195804Y70713*
X195904Y70710*
X196012Y70706*
X196131Y70698*
X196262Y70691*
X196400Y70679*
X196546Y70667*
X196693Y70656*
X196831Y70644*
X196962Y70637*
X197081Y70629*
X197189Y70625*
X197289Y70621*
X197377Y70617*
X197457*
X197500Y70621*
X197531Y70633*
X197546Y70652*
X197554Y70679*
Y70717*
X197550Y70760*
X197542Y70806*
X197531Y70856*
X197519Y70921*
X197511Y70975*
X197504Y71013*
X197500Y71037*
Y71056*
X197496Y71083*
Y71121*
Y71163*
X197492Y71217*
Y71279*
Y71348*
Y71425*
X197488Y71456*
X197469Y71479*
X197439Y71494*
X197396Y71498*
X197331*
X197258Y71494*
X197169Y71490*
X197077Y71486*
X196969Y71479*
X196854Y71471*
X196727Y71463*
X196593Y71452*
X196543Y71448*
X196481Y71444*
X196412*
X196335Y71440*
X196246Y71436*
X196150*
X196043Y71433*
X195928*
X195800Y71429*
X195666*
X195524*
X195370Y71425*
X195205*
X195035*
X194851*
X194663*
X194632Y71421*
X194605Y71406*
X194582Y71379*
X194563Y71344*
X194547Y71298*
X194535Y71240*
X194532Y71175*
X194528Y71098*
X210322Y66500D02*
X210534D01*
X210207Y66593D02*
X210618D01*
X210112Y66687D02*
X210695D01*
X210023Y66781D02*
X210758D01*
X209937Y66874D02*
X210708D01*
X209852Y66968D02*
X210640D01*
X209772Y67062D02*
X210570D01*
X196120Y67156D02*
X196813D01*
X201348D02*
X202169D01*
X204075D02*
X204224D01*
X209697D02*
X210504D01*
X214290D02*
X215073D01*
X221733D02*
X222331D01*
X235109D02*
X235706D01*
X244504D02*
X245153D01*
X195960Y67249D02*
X196915D01*
X198096D02*
X198939D01*
X201055D02*
X202468D01*
X204017D02*
X207175D01*
X209626D02*
X210453D01*
X211952D02*
X212753D01*
X213965D02*
X215417D01*
X216991D02*
X217782D01*
X218579D02*
X219354D01*
X220049D02*
X220776D01*
X221488D02*
X222618D01*
X226267D02*
X227209D01*
X229691D02*
X230500D01*
X231962D02*
X232760D01*
X233424D02*
X234152D01*
X234864D02*
X235994D01*
X238559D02*
X239265D01*
X242846D02*
X243611D01*
X244238D02*
X245444D01*
X246943D02*
X247736D01*
X248640D02*
X249441D01*
X250911D02*
X251704D01*
X252607D02*
X253409D01*
X254606D02*
X255594D01*
X257450D02*
X258391D01*
X195943Y67343D02*
X196913D01*
X198066D02*
X198949D01*
X200865D02*
X202661D01*
X204017D02*
X207194D01*
X209566D02*
X210410D01*
X211944D02*
X212765D01*
X213767D02*
X215621D01*
X216981D02*
X217800D01*
X218573D02*
X219361D01*
X220036D02*
X220800D01*
X221314D02*
X222789D01*
X226259D02*
X227216D01*
X229688D02*
X230511D01*
X231956D02*
X232772D01*
X233412D02*
X234176D01*
X234690D02*
X236165D01*
X238472D02*
X239351D01*
X242852D02*
X243626D01*
X244069D02*
X245620D01*
X246928D02*
X247752D01*
X248392D02*
X249668D01*
X250896D02*
X251720D01*
X252359D02*
X253636D01*
X254643D02*
X255652D01*
X257447D02*
X258400D01*
X195928Y67437D02*
X196902D01*
X198065D02*
X198946D01*
X200718D02*
X202804D01*
X204013D02*
X207211D01*
X209520D02*
X210385D01*
X211946D02*
X212763D01*
X213620D02*
X215768D01*
X216981D02*
X217800D01*
X218573D02*
X219361D01*
X220043D02*
X220816D01*
X221179D02*
X222918D01*
X226259D02*
X227214D01*
X229689D02*
X230511D01*
X231956D02*
X232768D01*
X233418D02*
X234191D01*
X234555D02*
X236294D01*
X238400D02*
X239428D01*
X242858D02*
X243633D01*
X243935D02*
X245752D01*
X246928D02*
X247758D01*
X248216D02*
X249798D01*
X250896D02*
X251726D01*
X252183D02*
X253766D01*
X254682D02*
X255693D01*
X257448D02*
X258399D01*
X195913Y67530D02*
X196887D01*
X198065D02*
X198942D01*
X200599D02*
X202925D01*
X204009D02*
X207228D01*
X209486D02*
X210380D01*
X211948D02*
X212763D01*
X213501D02*
X215886D01*
X216981D02*
X217800D01*
X218573D02*
X219361D01*
X220048D02*
X220832D01*
X221055D02*
X223029D01*
X226260D02*
X227212D01*
X229692D02*
X230511D01*
X231956D02*
X232768D01*
X233424D02*
X234208D01*
X234431D02*
X236405D01*
X238329D02*
X239505D01*
X242863D02*
X243637D01*
X243824D02*
X245859D01*
X246928D02*
X247762D01*
X248079D02*
X249893D01*
X250896D02*
X251730D01*
X252046D02*
X253861D01*
X254722D02*
X255733D01*
X257451D02*
X258396D01*
X195894Y67624D02*
X196869D01*
X198069D02*
X198939D01*
X200497D02*
X203026D01*
X204003D02*
X207245D01*
X209455D02*
X210380D01*
X211952D02*
X212763D01*
X213400D02*
X215989D01*
X216981D02*
X217800D01*
X218573D02*
X219358D01*
X220053D02*
X220857D01*
X220937D02*
X223119D01*
X226262D02*
X227212D01*
X229692D02*
X230507D01*
X231956D02*
X232768D01*
X233428D02*
X234233D01*
X234313D02*
X236494D01*
X238262D02*
X239575D01*
X242869D02*
X243645D01*
X243730D02*
X245950D01*
X246931D02*
X247769D01*
X247954D02*
X249963D01*
X250900D02*
X251737D01*
X251922D02*
X253931D01*
X254766D02*
X255777D01*
X257453D02*
X258396D01*
X195876Y67718D02*
X196846D01*
X198069D02*
X198935D01*
X200407D02*
X203116D01*
X204001D02*
X207262D01*
X209437D02*
X210380D01*
X211953D02*
X212763D01*
X213313D02*
X216075D01*
X216985D02*
X217798D01*
X218574D02*
X219357D01*
X220057D02*
X223195D01*
X226263D02*
X227210D01*
X229692D02*
X230505D01*
X231956D02*
X232768D01*
X233432D02*
X236570D01*
X238194D02*
X239644D01*
X242873D02*
X246026D01*
X246931D02*
X247784D01*
X247841D02*
X250015D01*
X250900D02*
X251752D01*
X251809D02*
X253982D01*
X254807D02*
X255817D01*
X257456D02*
X258394D01*
X195856Y67811D02*
X196822D01*
X198069D02*
X198931D01*
X200328D02*
X203196D01*
X203998D02*
X207169D01*
X209420D02*
X210380D01*
X211957D02*
X212762D01*
X213323D02*
X214573D01*
X214797D02*
X216143D01*
X216985D02*
X217796D01*
X218577D02*
X219357D01*
X220063D02*
X223267D01*
X226266D02*
X227207D01*
X229694D02*
X230503D01*
X231956D02*
X232765D01*
X233439D02*
X236643D01*
X238129D02*
X239712D01*
X242879D02*
X246096D01*
X246935D02*
X250056D01*
X250902D02*
X254024D01*
X254852D02*
X255858D01*
X257461D02*
X258391D01*
X195836Y67905D02*
X196795D01*
X198069D02*
X198928D01*
X200257D02*
X203269D01*
X204002D02*
X204904D01*
X205887D02*
X206767D01*
X209412D02*
X210357D01*
X211960D02*
X212760D01*
X213370D02*
X214161D01*
X215139D02*
X216204D01*
X216988D02*
X217794D01*
X218577D02*
X219357D01*
X220069D02*
X221529D01*
X222123D02*
X223327D01*
X226266D02*
X227205D01*
X229696D02*
X230500D01*
X231956D02*
X232764D01*
X233445D02*
X234904D01*
X235499D02*
X236703D01*
X238064D02*
X239784D01*
X242882D02*
X244299D01*
X245012D02*
X246158D01*
X246938D02*
X248333D01*
X248987D02*
X250084D01*
X250906D02*
X252300D01*
X252954D02*
X254052D01*
X254895D02*
X255898D01*
X257467D02*
X258386D01*
X195815Y67999D02*
X196765D01*
X198069D02*
X198924D01*
X200191D02*
X201437D01*
X202111D02*
X203333D01*
X205793D02*
X206622D01*
X209407D02*
X210221D01*
X211964D02*
X212760D01*
X213419D02*
X213952D01*
X215297D02*
X216259D01*
X216989D02*
X217792D01*
X218577D02*
X219357D01*
X220074D02*
X221346D01*
X222315D02*
X223381D01*
X226267D02*
X227201D01*
X229696D02*
X230495D01*
X231956D02*
X232763D01*
X233450D02*
X234722D01*
X235691D02*
X236757D01*
X238000D02*
X239850D01*
X242885D02*
X244137D01*
X245178D02*
X246209D01*
X246941D02*
X248162D01*
X249135D02*
X250107D01*
X250909D02*
X252130D01*
X253103D02*
X254075D01*
X254938D02*
X255937D01*
X257470D02*
X258383D01*
X195793Y68093D02*
X196734D01*
X198072D02*
X198921D01*
X200135D02*
X201248D01*
X202297D02*
X203393D01*
X205705D02*
X206520D01*
X209411D02*
X209926D01*
X211968D02*
X212757D01*
X213467D02*
X213799D01*
X215413D02*
X216301D01*
X216990D02*
X217789D01*
X218580D02*
X219357D01*
X220080D02*
X221228D01*
X222435D02*
X223430D01*
X226270D02*
X227196D01*
X229700D02*
X230495D01*
X231956D02*
X232761D01*
X233455D02*
X234604D01*
X235811D02*
X236806D01*
X237937D02*
X238806D01*
X239004D02*
X239917D01*
X242888D02*
X244024D01*
X245287D02*
X246254D01*
X246944D02*
X248035D01*
X249218D02*
X250126D01*
X250911D02*
X252003D01*
X253185D02*
X254094D01*
X254984D02*
X255979D01*
X257473D02*
X258381D01*
X195769Y68186D02*
X196700D01*
X198073D02*
X198918D01*
X200081D02*
X201122D01*
X202422D02*
X203444D01*
X205617D02*
X206421D01*
X211969D02*
X212756D01*
X213517D02*
X213670D01*
X215500D02*
X216339D01*
X216993D02*
X217785D01*
X218581D02*
X219356D01*
X220085D02*
X221138D01*
X222527D02*
X223469D01*
X226272D02*
X227193D01*
X229700D02*
X230493D01*
X231956D02*
X232760D01*
X233460D02*
X234514D01*
X235903D02*
X236844D01*
X237875D02*
X238735D01*
X239078D02*
X239981D01*
X242891D02*
X243946D01*
X245373D02*
X246293D01*
X246946D02*
X247927D01*
X249268D02*
X250141D01*
X250915D02*
X251895D01*
X253235D02*
X254109D01*
X255028D02*
X256019D01*
X257478D02*
X258377D01*
X195743Y68280D02*
X196665D01*
X198073D02*
X198915D01*
X200034D02*
X201029D01*
X202517D02*
X203490D01*
X205530D02*
X206327D01*
X211972D02*
X212756D01*
X215566D02*
X216369D01*
X216993D02*
X217785D01*
X218581D02*
X219355D01*
X220090D02*
X221069D01*
X222597D02*
X223503D01*
X226275D02*
X227189D01*
X229700D02*
X230492D01*
X231956D02*
X232759D01*
X233466D02*
X234444D01*
X235973D02*
X236878D01*
X237812D02*
X238672D01*
X239149D02*
X240048D01*
X242894D02*
X243879D01*
X245444D02*
X246325D01*
X246950D02*
X247844D01*
X249306D02*
X250153D01*
X250917D02*
X251812D01*
X253273D02*
X254121D01*
X255071D02*
X256058D01*
X257483D02*
X258373D01*
X195717Y68374D02*
X196630D01*
X198075D02*
X198913D01*
X199994D02*
X200954D01*
X202591D02*
X203533D01*
X205450D02*
X206236D01*
X211975D02*
X212754D01*
X215612D02*
X216396D01*
X216995D02*
X217783D01*
X218581D02*
X219354D01*
X220096D02*
X221011D01*
X222657D02*
X223533D01*
X226280D02*
X227185D01*
X229703D02*
X230492D01*
X231956D02*
X232757D01*
X233472D02*
X234386D01*
X236033D02*
X236909D01*
X237750D02*
X238607D01*
X239215D02*
X240113D01*
X242896D02*
X243827D01*
X245501D02*
X246353D01*
X246951D02*
X247790D01*
X249324D02*
X250162D01*
X250919D02*
X251758D01*
X253292D02*
X254130D01*
X255118D02*
X256098D01*
X257485D02*
X258367D01*
X195690Y68467D02*
X196594D01*
X198077D02*
X198909D01*
X199957D02*
X200889D01*
X202651D02*
X203570D01*
X205356D02*
X206146D01*
X211975D02*
X212752D01*
X215644D02*
X216416D01*
X216996D02*
X217781D01*
X218583D02*
X219354D01*
X220101D02*
X220965D01*
X222704D02*
X223554D01*
X226281D02*
X227181D01*
X229704D02*
X230492D01*
X231956D02*
X232756D01*
X233477D02*
X234341D01*
X236080D02*
X236930D01*
X237689D02*
X238550D01*
X239278D02*
X240176D01*
X242898D02*
X243785D01*
X245548D02*
X246373D01*
X246953D02*
X247765D01*
X249339D02*
X250170D01*
X250920D02*
X251733D01*
X253307D02*
X254138D01*
X255161D02*
X256138D01*
X257487D02*
X258362D01*
X195663Y68561D02*
X196556D01*
X198077D02*
X198904D01*
X199926D02*
X200832D01*
X202704D02*
X203601D01*
X205263D02*
X206056D01*
X211975D02*
X212752D01*
X215413D02*
X216432D01*
X216999D02*
X217779D01*
X218585D02*
X219353D01*
X220106D02*
X220931D01*
X222738D02*
X223573D01*
X226282D02*
X227177D01*
X229704D02*
X230492D01*
X231956D02*
X232756D01*
X233482D02*
X234307D01*
X236114D02*
X236949D01*
X237629D02*
X238493D01*
X239337D02*
X240240D01*
X242898D02*
X243753D01*
X245581D02*
X246391D01*
X246955D02*
X247756D01*
X249350D02*
X250176D01*
X250922D02*
X251723D01*
X253318D02*
X254143D01*
X255206D02*
X256179D01*
X257491D02*
X258358D01*
X195635Y68655D02*
X196515D01*
X198077D02*
X198903D01*
X199898D02*
X200785D01*
X202747D02*
X203629D01*
X205173D02*
X205974D01*
X211975D02*
X212752D01*
X214272D02*
X216444D01*
X217000D02*
X217777D01*
X218587D02*
X219351D01*
X220113D02*
X220904D01*
X222765D02*
X223584D01*
X226285D02*
X227174D01*
X229704D02*
X230492D01*
X231956D02*
X232755D01*
X233489D02*
X234280D01*
X236141D02*
X236960D01*
X237570D02*
X238439D01*
X239399D02*
X240301D01*
X242900D02*
X243731D01*
X245605D02*
X246402D01*
X246957D02*
X247754D01*
X249359D02*
X250182D01*
X250924D02*
X251722D01*
X253327D02*
X254150D01*
X255250D02*
X256219D01*
X257493D02*
X258354D01*
X195606Y68748D02*
X196474D01*
X198078D02*
X198899D01*
X199875D02*
X200745D01*
X202784D02*
X203652D01*
X205087D02*
X205893D01*
X211975D02*
X212748D01*
X213490D02*
X216452D01*
X217000D02*
X217777D01*
X218588D02*
X219350D01*
X220117D02*
X220888D01*
X222783D02*
X223592D01*
X226287D02*
X227171D01*
X229704D02*
X230495D01*
X231956D02*
X232752D01*
X233493D02*
X234263D01*
X236159D02*
X236968D01*
X237513D02*
X238385D01*
X239457D02*
X240361D01*
X242902D02*
X243716D01*
X245621D02*
X246410D01*
X246959D02*
X247752D01*
X249365D02*
X250184D01*
X250926D02*
X251720D01*
X253333D02*
X254152D01*
X255293D02*
X256259D01*
X257493D02*
X258350D01*
X195576Y68842D02*
X196434D01*
X198080D02*
X198898D01*
X199856D02*
X200712D01*
X202816D02*
X203670D01*
X205004D02*
X205812D01*
X211975D02*
X212748D01*
X213352D02*
X216456D01*
X217000D02*
X217777D01*
X218590D02*
X219350D01*
X220122D02*
X220879D01*
X222792D02*
X223596D01*
X226289D02*
X227169D01*
X229703D02*
X230495D01*
X231956D02*
X232752D01*
X233498D02*
X234255D01*
X236167D02*
X236972D01*
X237458D02*
X238333D01*
X239515D02*
X240415D01*
X242902D02*
X243709D01*
X245630D02*
X246414D01*
X246959D02*
X247750D01*
X249368D02*
X250186D01*
X250926D02*
X251719D01*
X253335D02*
X254154D01*
X255335D02*
X256315D01*
X257482D02*
X258346D01*
X195545Y68936D02*
X196392D01*
X198080D02*
X198894D01*
X199841D02*
X200687D01*
X202840D02*
X203684D01*
X204923D02*
X205734D01*
X211975D02*
X212748D01*
X213295D02*
X216457D01*
X216998D02*
X217779D01*
X218592D02*
X219350D01*
X220126D02*
X220876D01*
X222794D02*
X223596D01*
X226290D02*
X227165D01*
X229700D02*
X230495D01*
X231956D02*
X232752D01*
X233502D02*
X234252D01*
X236170D02*
X236971D01*
X237412D02*
X238282D01*
X239569D02*
X240456D01*
X242903D02*
X243707D01*
X245631D02*
X246415D01*
X246959D02*
X247748D01*
X249369D02*
X250188D01*
X250926D02*
X251716D01*
X253337D02*
X254156D01*
X255376D02*
X258344D01*
X195515Y69030D02*
X196349D01*
X198080D02*
X198892D01*
X199830D02*
X200668D01*
X202855D02*
X203697D01*
X204846D02*
X205659D01*
X211974D02*
X212748D01*
X213272D02*
X216453D01*
X216996D02*
X217781D01*
X218594D02*
X219350D01*
X220124D02*
X220880D01*
X222790D02*
X223592D01*
X226293D02*
X227161D01*
X229699D02*
X230499D01*
X231956D02*
X232754D01*
X233500D02*
X234256D01*
X236166D02*
X236968D01*
X237389D02*
X238235D01*
X239617D02*
X240483D01*
X242906D02*
X243711D01*
X245626D02*
X246411D01*
X246957D02*
X247747D01*
X249369D02*
X250188D01*
X250924D02*
X251715D01*
X253337D02*
X254156D01*
X255415D02*
X258341D01*
X195483Y69123D02*
X196305D01*
X198080D02*
X198892D01*
X199821D02*
X200654D01*
X202867D02*
X203706D01*
X204772D02*
X205588D01*
X211969D02*
X212750D01*
X213269D02*
X216445D01*
X216994D02*
X217785D01*
X218596D02*
X219349D01*
X220122D02*
X220891D01*
X222780D02*
X223584D01*
X226293D02*
X227159D01*
X229696D02*
X230499D01*
X231956D02*
X232756D01*
X233497D02*
X234266D01*
X236155D02*
X236960D01*
X237383D02*
X238198D01*
X239658D02*
X240498D01*
X242906D02*
X243722D01*
X245614D02*
X246404D01*
X246955D02*
X247747D01*
X249369D02*
X250186D01*
X250922D02*
X251715D01*
X253337D02*
X254154D01*
X255442D02*
X258336D01*
X195450Y69217D02*
X196261D01*
X198080D02*
X198891D01*
X199818D02*
X200644D01*
X202876D02*
X203709D01*
X204702D02*
X205516D01*
X211961D02*
X212752D01*
X213273D02*
X214464D01*
X215670D02*
X216433D01*
X216991D02*
X217791D01*
X218596D02*
X219347D01*
X220119D02*
X220909D01*
X222758D02*
X223574D01*
X226291D02*
X227156D01*
X229696D02*
X230499D01*
X231956D02*
X232759D01*
X233495D02*
X234285D01*
X236134D02*
X236950D01*
X237378D02*
X238184D01*
X239680D02*
X240511D01*
X242906D02*
X243741D01*
X245593D02*
X246393D01*
X246953D02*
X247747D01*
X249367D02*
X250184D01*
X250920D02*
X251715D01*
X253335D02*
X254152D01*
X255354D02*
X258333D01*
X195417Y69311D02*
X196216D01*
X198080D02*
X198888D01*
X199815D02*
X200641D01*
X202878D02*
X203713D01*
X204633D02*
X205452D01*
X211951D02*
X212756D01*
X213281D02*
X214102D01*
X215663D02*
X216416D01*
X216986D02*
X217795D01*
X218596D02*
X219346D01*
X220114D02*
X220938D01*
X222729D02*
X223559D01*
X224117D02*
X224376D01*
X226213D02*
X227154D01*
X229692D02*
X230500D01*
X231956D02*
X232763D01*
X233489D02*
X234313D01*
X236105D02*
X236935D01*
X237374D02*
X238178D01*
X239691D02*
X240521D01*
X242906D02*
X243773D01*
X245567D02*
X246377D01*
X246949D02*
X247747D01*
X249364D02*
X250182D01*
X250917D02*
X251715D01*
X253332D02*
X254150D01*
X255235D02*
X258331D01*
X195382Y69404D02*
X196171D01*
X198080D02*
X198888D01*
X199817D02*
X200643D01*
X202876D02*
X203710D01*
X204569D02*
X205392D01*
X211934D02*
X212759D01*
X213292D02*
X214109D01*
X215644D02*
X216396D01*
X216980D02*
X217801D01*
X218596D02*
X219346D01*
X220107D02*
X220974D01*
X222693D02*
X223541D01*
X224076D02*
X227151D01*
X229693D02*
X230509D01*
X231956D02*
X232769D01*
X233483D02*
X234349D01*
X236069D02*
X236917D01*
X237374D02*
X238173D01*
X239698D02*
X240528D01*
X242906D02*
X243809D01*
X245527D02*
X246358D01*
X246946D02*
X247745D01*
X249361D02*
X250180D01*
X250914D02*
X251713D01*
X253329D02*
X254148D01*
X255128D02*
X258331D01*
X195346Y69498D02*
X196125D01*
X198080D02*
X198888D01*
X199820D02*
X200650D01*
X202870D02*
X203707D01*
X204509D02*
X205333D01*
X211906D02*
X212764D01*
X213312D02*
X214128D01*
X215615D02*
X216369D01*
X216974D02*
X217807D01*
X218598D02*
X219346D01*
X220099D02*
X221018D01*
X222641D02*
X223515D01*
X224080D02*
X227150D01*
X229695D02*
X230519D01*
X231926D02*
X232775D01*
X233474D02*
X234394D01*
X236017D02*
X236890D01*
X237374D02*
X238169D01*
X239704D02*
X240530D01*
X242906D02*
X243859D01*
X245478D02*
X246332D01*
X246943D02*
X247743D01*
X249358D02*
X250174D01*
X250911D02*
X251711D01*
X253326D02*
X254142D01*
X255034D02*
X258328D01*
X195308Y69592D02*
X196078D01*
X198080D02*
X198886D01*
X199828D02*
X200661D01*
X202859D02*
X203700D01*
X204454D02*
X205278D01*
X211842D02*
X212770D01*
X213335D02*
X214163D01*
X215571D02*
X216339D01*
X216969D02*
X217813D01*
X218600D02*
X219346D01*
X220090D02*
X221079D01*
X222580D02*
X223486D01*
X224085D02*
X227150D01*
X229700D02*
X230540D01*
X231850D02*
X232783D01*
X233466D02*
X234455D01*
X235956D02*
X236862D01*
X237374D02*
X238166D01*
X239707D02*
X240530D01*
X242904D02*
X243921D01*
X245416D02*
X246304D01*
X246937D02*
X247743D01*
X249354D02*
X250168D01*
X250905D02*
X251711D01*
X253321D02*
X254136D01*
X254958D02*
X258328D01*
X195267Y69685D02*
X196031D01*
X198078D02*
X198884D01*
X199838D02*
X200676D01*
X202844D02*
X203688D01*
X204400D02*
X205229D01*
X211716D02*
X212779D01*
X213365D02*
X214215D01*
X215507D02*
X216300D01*
X216963D02*
X217819D01*
X218600D02*
X219346D01*
X220080D02*
X221155D01*
X222505D02*
X223450D01*
X224090D02*
X227150D01*
X229708D02*
X230572D01*
X231742D02*
X232792D01*
X233456D02*
X234531D01*
X235881D02*
X236825D01*
X237374D02*
X238166D01*
X239709D02*
X240530D01*
X242902D02*
X243996D01*
X245341D02*
X246266D01*
X246933D02*
X247743D01*
X249343D02*
X250160D01*
X250901D02*
X251711D01*
X253311D02*
X254128D01*
X254894D02*
X256019D01*
X257509D02*
X258328D01*
X195225Y69779D02*
X195983D01*
X198077D02*
X198884D01*
X199851D02*
X200698D01*
X202822D02*
X203674D01*
X204355D02*
X205186D01*
X210824D02*
X212789D01*
X213401D02*
X214289D01*
X215431D02*
X216255D01*
X216958D02*
X217828D01*
X218600D02*
X219346D01*
X220069D02*
X221245D01*
X222409D02*
X223409D01*
X224089D02*
X227152D01*
X229719D02*
X230624D01*
X231607D02*
X232804D01*
X233445D02*
X234621D01*
X235785D02*
X236785D01*
X237374D02*
X238166D01*
X239711D02*
X240526D01*
X242899D02*
X244088D01*
X245247D02*
X246223D01*
X246930D02*
X247743D01*
X249335D02*
X250152D01*
X250898D02*
X251711D01*
X253302D02*
X254120D01*
X254839D02*
X255848D01*
X257509D02*
X258328D01*
X195182Y69873D02*
X195935D01*
X198077D02*
X198884D01*
X199869D02*
X200728D01*
X202795D02*
X203657D01*
X204317D02*
X205153D01*
X210809D02*
X212799D01*
X213443D02*
X214383D01*
X215330D02*
X216204D01*
X216955D02*
X217833D01*
X218600D02*
X219346D01*
X220057D02*
X221373D01*
X222278D02*
X223359D01*
X224085D02*
X227154D01*
X229734D02*
X230731D01*
X231437D02*
X232818D01*
X233433D02*
X234749D01*
X235654D02*
X236735D01*
X237378D02*
X238168D01*
X239710D02*
X240526D01*
X242896D02*
X244213D01*
X245116D02*
X246174D01*
X246928D02*
X247743D01*
X249322D02*
X250143D01*
X250895D02*
X251711D01*
X253290D02*
X254111D01*
X254800D02*
X255741D01*
X257509D02*
X258328D01*
X195139Y69967D02*
X195887D01*
X198075D02*
X198884D01*
X199891D02*
X200764D01*
X202761D02*
X203635D01*
X204284D02*
X205128D01*
X210795D02*
X212810D01*
X213496D02*
X214515D01*
X215188D02*
X216145D01*
X216950D02*
X217839D01*
X218600D02*
X219348D01*
X220045D02*
X221592D01*
X222056D02*
X223302D01*
X224079D02*
X227156D01*
X229753D02*
X232833D01*
X233421D02*
X234968D01*
X235431D02*
X236677D01*
X237381D02*
X238175D01*
X239705D02*
X240522D01*
X242894D02*
X244438D01*
X244881D02*
X246115D01*
X246924D02*
X247743D01*
X249310D02*
X250133D01*
X250892D02*
X251711D01*
X253278D02*
X254100D01*
X254767D02*
X255676D01*
X257509D02*
X258328D01*
X195092Y70060D02*
X195841D01*
X198072D02*
X198884D01*
X199919D02*
X200807D01*
X202719D02*
X203609D01*
X204260D02*
X205115D01*
X210785D02*
X212828D01*
X213556D02*
X216081D01*
X216945D02*
X217844D01*
X218600D02*
X219350D01*
X220031D02*
X223237D01*
X224074D02*
X227160D01*
X229778D02*
X232850D01*
X233407D02*
X236613D01*
X237385D02*
X238184D01*
X239700D02*
X240520D01*
X242893D02*
X246049D01*
X246920D02*
X247743D01*
X249296D02*
X250119D01*
X250888D02*
X251711D01*
X253264D02*
X254087D01*
X254743D02*
X255630D01*
X257509D02*
X258330D01*
X195043Y70154D02*
X195795D01*
X198070D02*
X198884D01*
X199949D02*
X200859D01*
X202670D02*
X203578D01*
X204243D02*
X205115D01*
X210775D02*
X212847D01*
X213625D02*
X216007D01*
X216941D02*
X217847D01*
X218598D02*
X219350D01*
X220018D02*
X220760D01*
X220833D02*
X223163D01*
X226278D02*
X227163D01*
X229814D02*
X231854D01*
X231994D02*
X232870D01*
X233394D02*
X234136D01*
X234209D02*
X236539D01*
X237390D02*
X238194D01*
X239694D02*
X240519D01*
X242890D02*
X245977D01*
X246920D02*
X247743D01*
X249286D02*
X250104D01*
X250888D02*
X251711D01*
X253254D02*
X254072D01*
X254725D02*
X255599D01*
X257509D02*
X258331D01*
X194993Y70248D02*
X195745D01*
X198067D02*
X198884D01*
X199983D02*
X200920D01*
X202607D02*
X203543D01*
X204236D02*
X205127D01*
X210771D02*
X211951D01*
X212052D02*
X212867D01*
X213705D02*
X215921D01*
X216938D02*
X217851D01*
X218596D02*
X219353D01*
X220004D02*
X220738D01*
X220920D02*
X223079D01*
X226298D02*
X227165D01*
X229863D02*
X231731D01*
X232014D02*
X232890D01*
X233379D02*
X234114D01*
X234296D02*
X236454D01*
X237397D02*
X238202D01*
X239691D02*
X240517D01*
X242886D02*
X243691D01*
X243818D02*
X245891D01*
X246917D02*
X247743D01*
X249274D02*
X250087D01*
X250884D02*
X251711D01*
X253242D02*
X254055D01*
X254711D02*
X255580D01*
X257509D02*
X258333D01*
X194939Y70341D02*
X195700D01*
X198065D02*
X198889D01*
X199133D02*
X199530D01*
X200022D02*
X200992D01*
X202535D02*
X203500D01*
X204240D02*
X205156D01*
X210768D02*
X211804D01*
X212073D02*
X212891D01*
X213802D02*
X215821D01*
X216935D02*
X217856D01*
X218594D02*
X219357D01*
X219985D02*
X220719D01*
X221006D02*
X222975D01*
X226301D02*
X227168D01*
X229928D02*
X231605D01*
X232032D02*
X232911D01*
X233361D02*
X234095D01*
X234382D02*
X236351D01*
X237409D02*
X238207D01*
X239686D02*
X240515D01*
X242883D02*
X243691D01*
X243926D02*
X245786D01*
X246916D02*
X247743D01*
X249267D02*
X250067D01*
X250884D02*
X251711D01*
X253235D02*
X254035D01*
X254701D02*
X255570D01*
X257509D02*
X258335D01*
X194883Y70435D02*
X195652D01*
X198062D02*
X199522D01*
X200069D02*
X201081D01*
X202446D02*
X203454D01*
X204248D02*
X205203D01*
X207043D02*
X207250D01*
X210766D02*
X211650D01*
X212085D02*
X212917D01*
X213912D02*
X215704D01*
X216935D02*
X217858D01*
X218591D02*
X219361D01*
X220041D02*
X220697D01*
X221122D02*
X222851D01*
X226301D02*
X227170D01*
X230021D02*
X231468D01*
X232045D02*
X232848D01*
X233417D02*
X234073D01*
X234497D02*
X236227D01*
X237424D02*
X238212D01*
X239684D02*
X240515D01*
X242879D02*
X243691D01*
X244036D02*
X245658D01*
X246922D02*
X247730D01*
X249261D02*
X250044D01*
X250890D02*
X251698D01*
X253229D02*
X254011D01*
X254696D02*
X255567D01*
X257509D02*
X258337D01*
X194824Y70529D02*
X195606D01*
X198057D02*
X199517D01*
X200122D02*
X201204D01*
X202324D02*
X203404D01*
X204263D02*
X205273D01*
X206898D02*
X207258D01*
X210771D02*
X211426D01*
X212097D02*
X212686D01*
X214047D02*
X215560D01*
X218589D02*
X219364D01*
X220423D02*
X220659D01*
X221267D02*
X222687D01*
X226301D02*
X227173D01*
X230174D02*
X231289D01*
X232056D02*
X232289D01*
X233799D02*
X234035D01*
X234643D02*
X236063D01*
X240292D02*
X240476D01*
X242876D02*
X243691D01*
X244178D02*
X245496D01*
X254693D02*
X255570D01*
X257509D02*
X258340D01*
X194760Y70622D02*
X195561D01*
X197289D02*
X197503D01*
X198052D02*
X199516D01*
X200178D02*
X201387D01*
X202144D02*
X203345D01*
X204285D02*
X205371D01*
X206725D02*
X207264D01*
X214248D02*
X215363D01*
X218586D02*
X219367D01*
X221473D02*
X222461D01*
X226301D02*
X227175D01*
X230460D02*
X231008D01*
X234849D02*
X235836D01*
X242871D02*
X243691D01*
X244394D02*
X245244D01*
X254690D02*
X255578D01*
X257509D02*
X258343D01*
X194693Y70716D02*
X197554D01*
X198049D02*
X199526D01*
X200241D02*
X203281D01*
X204314D02*
X205511D01*
X206498D02*
X207277D01*
X214640D02*
X215001D01*
X218583D02*
X219371D01*
X226301D02*
X227178D01*
X242866D02*
X243691D01*
X254691D02*
X255591D01*
X257507D02*
X258345D01*
X194622Y70810D02*
X197541D01*
X198043D02*
X199526D01*
X200311D02*
X203211D01*
X204355D02*
X205822D01*
X206093D02*
X207297D01*
X218581D02*
X219375D01*
X226301D02*
X227181D01*
X242862D02*
X243691D01*
X254699D02*
X255611D01*
X257505D02*
X258348D01*
X194556Y70904D02*
X197522D01*
X198036D02*
X199394D01*
X200391D02*
X203130D01*
X204407D02*
X207319D01*
X218577D02*
X219379D01*
X226301D02*
X227185D01*
X242859D02*
X243691D01*
X254711D02*
X255641D01*
X257505D02*
X258352D01*
X194528Y70997D02*
X197507D01*
X198030D02*
X199233D01*
X200479D02*
X203041D01*
X204474D02*
X207345D01*
X217222D02*
X217559D01*
X218573D02*
X219385D01*
X226301D02*
X227189D01*
X242855D02*
X243691D01*
X254726D02*
X255682D01*
X257501D02*
X258355D01*
X194528Y71091D02*
X197496D01*
X198022D02*
X199109D01*
X200581D02*
X202943D01*
X204557D02*
X207233D01*
X217024D02*
X217758D01*
X218570D02*
X219390D01*
X226301D02*
X227193D01*
X242852D02*
X243691D01*
X254750D02*
X255737D01*
X257498D02*
X258359D01*
X194532Y71185D02*
X197494D01*
X198012D02*
X199001D01*
X200700D02*
X202823D01*
X204663D02*
X207082D01*
X216958D02*
X217827D01*
X218566D02*
X219395D01*
X226301D02*
X227196D01*
X242848D02*
X243691D01*
X254780D02*
X255822D01*
X257494D02*
X258364D01*
X194543Y71278D02*
X197492D01*
X198002D02*
X198915D01*
X200845D02*
X202680D01*
X204793D02*
X206894D01*
X216924D02*
X217861D01*
X218562D02*
X219399D01*
X226292D02*
X227200D01*
X242844D02*
X243691D01*
X254818D02*
X255948D01*
X257489D02*
X258369D01*
X194578Y71372D02*
X197492D01*
X197997D02*
X198829D01*
X201030D02*
X202494D01*
X204972D02*
X206642D01*
X216911D02*
X217874D01*
X218559D02*
X219402D01*
X223860D02*
X224567D01*
X226257D02*
X227203D01*
X242841D02*
X243691D01*
X254863D02*
X256218D01*
X257452D02*
X258373D01*
X196767Y71466D02*
X197480D01*
X198241D02*
X198743D01*
X201311D02*
X202214D01*
X205254D02*
X206303D01*
X216913D02*
X217872D01*
X218554D02*
X219405D01*
X223847D02*
X227207D01*
X242839D02*
X243693D01*
X254918D02*
X258378D01*
X216933Y71559D02*
X217848D01*
X218550D02*
X219409D01*
X223856D02*
X227210D01*
X242836D02*
X243694D01*
X254986D02*
X258383D01*
X216984Y71653D02*
X217797D01*
X218545D02*
X219413D01*
X223868D02*
X227213D01*
X242831D02*
X243699D01*
X255066D02*
X258387D01*
X217081Y71747D02*
X217702D01*
X218540D02*
X219415D01*
X223882D02*
X227216D01*
X242829D02*
X243704D01*
X255166D02*
X258393D01*
X217293Y71841D02*
X217480D01*
X218534D02*
X219415D01*
X223893D02*
X227219D01*
X242829D02*
X243707D01*
X255290D02*
X258398D01*
X218529Y71934D02*
X219418D01*
X223898D02*
X227222D01*
X242827D02*
X243710D01*
X255440D02*
X258404D01*
X218523Y72028D02*
X219419D01*
X223902D02*
X227224D01*
X242826D02*
X243710D01*
X255659D02*
X258410D01*
X218531Y72122D02*
X218818D01*
X219096D02*
X219393D01*
X223922D02*
X225020D01*
X242827D02*
X243690D01*
X256021D02*
X258324D01*
X302858Y83714D02*
X302870Y83679D01*
X302916Y83656*
X302996Y83633*
X303112*
X303227*
X303354*
X303515Y83644*
X303700Y83656*
X303873Y83668*
X304035*
X304173Y83679*
X304288*
X304392*
X304530Y83668*
X304692*
X304888Y83656*
X305072Y83644*
X305234Y83633*
X305372*
X305488*
X305522Y83644*
X305557Y83656*
X305603Y83691*
X305638Y83737*
X305684Y83783*
X305730Y83852*
X305776Y83933*
X305822Y84037*
X305869Y84141*
X305915Y84256*
X305961Y84383*
X306019Y84533*
X306065Y84683*
X306122Y84856*
X306180Y85040*
X306226Y85225*
X306283Y85421*
X306341Y85606*
X306399Y85767*
X306457Y85928*
X306514Y86078*
X306572Y86205*
X306630Y86320*
X306687Y86436*
X306745Y86528*
X306803Y86609*
X306860Y86678*
X306918Y86736*
X306976Y86782*
X307033Y86817*
X307091Y86839*
X307149Y86851*
X307264*
X307414Y86863*
X307610*
X307841*
X308118*
X308417Y86874*
X308763*
X309156*
X310794*
X311197*
X311555*
X311866Y86863*
X312143*
X312362*
X312535*
X312662Y86851*
X312743*
X312789Y86839*
X312846Y86817*
X312893Y86782*
X312939Y86736*
X312985Y86678*
X313043Y86609*
X313089Y86517*
X313146Y86424*
X313193Y86320*
X313250Y86194*
X313308Y86067*
X313354Y85917*
X313412Y85767*
X313469Y85594*
X313527Y85409*
X313585Y85225*
X313643Y85029*
X313700Y84844*
X313758Y84683*
X313804Y84521*
X313862Y84383*
X313908Y84256*
X313954Y84141*
X314000Y84025*
X314046Y83933*
X314092Y83852*
X314127Y83783*
X314173Y83737*
X314207Y83691*
X314242Y83656*
X314277Y83644*
X314311Y83633*
X316665*
X316757Y83644*
X316826Y83668*
X316861Y83725*
X316883Y83794*
X316872Y83864*
X316837Y83967*
X316791Y84117*
X316733Y84291*
X314092Y91326*
X314046Y91442*
X313989Y91592*
X313919Y91753*
X313850Y91949*
X313758Y92168*
X313654Y92411*
X313539Y92687*
X313423Y92976*
X313296Y93299*
X313146Y93644*
X312996Y94014*
X312835Y94406*
X312662Y94821*
X312478Y95271*
X312281Y95732*
X312074Y96228*
X311993Y96413*
X311912Y96609*
X311820Y96828*
X311716Y97070*
X311613Y97335*
X311497Y97624*
X311382Y97924*
X311255Y98258*
X311220Y98351*
X311186Y98431*
X311151Y98500*
X311128Y98558*
X311093Y98604*
X311047Y98639*
X311013Y98662*
X310978*
X310863*
X310736Y98650*
X310574Y98628*
X310390Y98604*
X310205Y98581*
X310044Y98570*
X309906Y98558*
X309802*
X309686*
X309559Y98570*
X309398Y98593*
X309225Y98616*
X309040Y98639*
X308891Y98662*
X308752Y98674*
X308660*
X308625Y98662*
X308602Y98650*
X308567Y98616*
X308544Y98581*
X308510Y98524*
X308475Y98454*
X308429Y98385*
X308394Y98293*
X308348Y98201*
X308302Y98062*
X308233Y97889*
X308141Y97670*
X308048Y97417*
X307933Y97117*
X307806Y96782*
X307656Y96401*
X307495Y95986*
X307322Y95525*
X307137Y95029*
X306930Y94487*
X306710Y93898*
X306468Y93287*
X306215Y92618*
X305949Y91915*
X305765Y91419*
X305580Y90934*
X305396Y90461*
X305222Y90011*
X305061Y89573*
X304900Y89158*
X304750Y88743*
X304600Y88362*
X304461Y87981*
X304323Y87624*
X304196Y87278*
X304069Y86955*
X303954Y86643*
X303839Y86344*
X303735Y86067*
X303631Y85802*
X303539Y85559*
X303446Y85328*
X303365Y85109*
X303296Y84902*
X303227Y84717*
X303158Y84556*
X303100Y84394*
X303054Y84256*
X303008Y84141*
X302962Y84025*
X302939Y83933*
X302904Y83864*
X302881Y83806*
X302870Y83760*
X302858Y83725*
Y83714*
X307714Y89561D02*
X307726Y89608D01*
X307748Y89665*
X307772Y89735*
X307806Y89827*
X307852Y89942*
X307898Y90069*
X307956Y90207*
X308014Y90369*
X308083Y90542*
X308152Y90738*
X308233Y90946*
X308314Y91176*
X308406Y91430*
X308510Y91684*
X308613Y91972*
X308717Y92261*
X308833Y92561*
X308937Y92837*
X309029Y93103*
X309133Y93356*
X309213Y93587*
X309306Y93818*
X309386Y94037*
X309456Y94233*
X309536Y94429*
X309594Y94602*
X309663Y94775*
X309721Y94925*
X309767Y95063*
X309813Y95190*
X309859Y95306*
X309894Y95409*
X310159Y94741*
X310413Y94106*
X310644Y93506*
X310851Y92964*
X311047Y92445*
X311232Y91984*
X311393Y91557*
X311532Y91176*
X311659Y90830*
X311774Y90530*
X311866Y90265*
X311947Y90046*
X312005Y89873*
X312051Y89735*
X312074Y89642*
X312085Y89585*
X312074Y89504*
X312028Y89423*
X311970Y89354*
X311889Y89308*
X311774Y89250*
X311635Y89215*
X311474Y89193*
X311289Y89169*
X311267*
X311209Y89158*
X311128*
X311013*
X310874*
X310701*
X310505*
X310274*
X309202*
X309017*
X308844*
X308694Y89169*
X308544Y89181*
X308417Y89193*
X308291Y89215*
X308175Y89239*
X308083Y89262*
X307991Y89285*
X307922Y89319*
X307852Y89354*
X307806Y89389*
X307760Y89423*
X307737Y89469*
X307714Y89515*
Y89561*
X291035Y88696D02*
X291059Y88166D01*
X291116Y87670*
X291220Y87174*
X291370Y86701*
X291566Y86251*
X291797Y85813*
X292074Y85398*
X292385Y84994*
X292569Y84798*
X292754Y84613*
X292939Y84441*
X293135Y84279*
X293331Y84129*
X293538Y83991*
X293757Y83864*
X293965Y83760*
X294196Y83656*
X294415Y83575*
X294657Y83506*
X294888Y83448*
X295130Y83402*
X295384Y83368*
X295637Y83356*
X295891Y83344*
X296214Y83356*
X296526Y83391*
X296826Y83460*
X297126Y83541*
X297402Y83656*
X297679Y83794*
X297933Y83967*
X298187Y84152*
X299075Y84983*
X299098Y84959*
X299121Y84925*
X299144Y84879*
X299156Y84809*
Y84786*
Y84717*
X299167Y84613*
Y84487*
Y84325*
Y84129*
Y83898*
Y83633*
X299179Y80669*
X299190Y80519*
X299236Y80415*
X299317Y80357*
X299421Y80334*
X299802*
X300148*
X300447*
X300701Y80346*
X300920*
X301105Y80357*
X301231Y80369*
X301335Y80380*
X301439Y80404*
X301509Y80461*
X301555Y80542*
X301578Y80646*
Y81003*
Y81407*
X301566Y81845*
Y82330*
Y82860*
Y83425*
X301555Y84037*
Y84694*
X301543Y85352*
Y85963*
Y86528*
X301531Y87059*
Y87543*
Y87981*
Y88385*
Y88743*
X301555Y89954*
X301612Y91142*
X301705Y92283*
X301843Y93391*
X301866Y93495*
Y93552*
X301854Y93610*
X301843Y93644*
X301808Y93679*
X301762Y93702*
X301543Y93714*
X301266Y93737*
X300955Y93772*
X300597Y93818*
X300355Y93864*
X300136Y93898*
X299951Y93933*
X299790Y93956*
X299663Y93979*
X299559Y93991*
X299490Y94002*
X299444*
X299398Y93991*
X299363Y93968*
X299328Y93910*
X299294Y93841*
X299271Y93760*
X299248Y93644*
X299225Y93518*
X299213Y93368*
X299156Y92537*
X299144Y92457*
X299098Y92376*
X299017Y92433*
X298925Y92514*
X298740Y92699*
X298556Y92872*
X298371Y93033*
X298187Y93183*
X298002Y93310*
X297818Y93437*
X297633Y93552*
X297448Y93644*
X297252Y93737*
X297068Y93818*
X296883Y93875*
X296699Y93933*
X296503Y93968*
X296318Y94002*
X296133Y94014*
X295937Y94025*
X295684Y94014*
X295430Y94002*
X295176Y93968*
X294934Y93922*
X294703Y93864*
X294472Y93794*
X294242Y93714*
X294011Y93622*
X293804Y93506*
X293585Y93391*
X293377Y93252*
X293181Y93103*
X292973Y92941*
X292789Y92780*
X292604Y92595*
X292420Y92387*
X292096Y91995*
X291808Y91569*
X291578Y91142*
X291381Y90680*
X291231Y90207*
X291116Y89723*
X291059Y89215*
X291035Y88696*
X293504Y88743D02*
X293515Y89054D01*
X293550Y89354*
X293619Y89642*
X293700Y89931*
X293815Y90196*
X293954Y90461*
X294115Y90715*
X294300Y90957*
X294507Y91200*
X294738Y91407*
X294980Y91580*
X295234Y91730*
X295499Y91834*
X295776Y91915*
X296064Y91972*
X296376Y91984*
X296676Y91972*
X296964Y91915*
X297229Y91834*
X297483Y91719*
X297737Y91569*
X297956Y91396*
X298175Y91176*
X298383Y90934*
X298544Y90692*
X298694Y90438*
X298821Y90173*
X298913Y89907*
X298994Y89619*
X299052Y89331*
X299086Y89031*
X299098Y88720*
X299086Y88408*
X299052Y88097*
X298994Y87808*
X298913Y87520*
X298809Y87243*
X298683Y86978*
X298533Y86724*
X298360Y86482*
X298152Y86251*
X297921Y86044*
X297691Y85859*
X297437Y85721*
X297172Y85606*
X296895Y85524*
X296595Y85478*
X296295Y85467*
X295995Y85478*
X295707Y85536*
X295441Y85617*
X295176Y85732*
X294934Y85882*
X294703Y86067*
X294472Y86286*
X294265Y86528*
X294080Y86782*
X293931Y87035*
X293804Y87301*
X293688Y87578*
X293607Y87854*
X293550Y88143*
X293515Y88443*
X293504Y88743*
X278867Y88696D02*
X278890Y88166D01*
X278948Y87670*
X279052Y87174*
X279201Y86701*
X279397Y86251*
X279628Y85813*
X279905Y85398*
X280217Y84994*
X280401Y84798*
X280585Y84613*
X280770Y84441*
X280966Y84279*
X281162Y84129*
X281370Y83991*
X281589Y83864*
X281796Y83760*
X282027Y83656*
X282246Y83575*
X282489Y83506*
X282719Y83448*
X282961Y83402*
X283215Y83368*
X283469Y83356*
X283723Y83344*
X284046Y83356*
X284357Y83391*
X284657Y83460*
X284957Y83541*
X285234Y83656*
X285511Y83794*
X285764Y83967*
X286018Y84152*
X286906Y84983*
X286929Y84959*
X286952Y84925*
X286975Y84879*
X286987Y84809*
Y84786*
Y84717*
X286998Y84613*
Y84487*
Y84325*
Y84129*
Y83898*
Y83633*
X287010Y80669*
X287022Y80519*
X287068Y80415*
X287148Y80357*
X287252Y80334*
X287633*
X287979*
X288279*
X288533Y80346*
X288752*
X288936Y80357*
X289063Y80369*
X289167Y80380*
X289271Y80404*
X289340Y80461*
X289386Y80542*
X289409Y80646*
Y81003*
Y81407*
X289398Y81845*
Y82330*
Y82860*
Y83425*
X289386Y84037*
Y84694*
X289374Y85352*
Y85963*
Y86528*
X289363Y87059*
Y87543*
Y87981*
Y88385*
Y88743*
X289386Y89954*
X289444Y91142*
X289536Y92283*
X289674Y93391*
X289698Y93495*
Y93552*
X289686Y93610*
X289674Y93644*
X289640Y93679*
X289594Y93702*
X289374Y93714*
X289098Y93737*
X288786Y93772*
X288429Y93818*
X288187Y93864*
X287967Y93898*
X287783Y93933*
X287621Y93956*
X287494Y93979*
X287391Y93991*
X287321Y94002*
X287275*
X287229Y93991*
X287194Y93968*
X287160Y93910*
X287125Y93841*
X287102Y93760*
X287079Y93644*
X287056Y93518*
X287044Y93368*
X286987Y92537*
X286975Y92457*
X286929Y92376*
X286848Y92433*
X286756Y92514*
X286572Y92699*
X286387Y92872*
X286203Y93033*
X286018Y93183*
X285833Y93310*
X285649Y93437*
X285465Y93552*
X285280Y93644*
X285084Y93737*
X284899Y93818*
X284715Y93875*
X284530Y93933*
X284334Y93968*
X284150Y94002*
X283965Y94014*
X283769Y94025*
X283515Y94014*
X283261Y94002*
X283007Y93968*
X282765Y93922*
X282535Y93864*
X282304Y93794*
X282073Y93714*
X281843Y93622*
X281635Y93506*
X281416Y93391*
X281208Y93252*
X281012Y93103*
X280805Y92941*
X280620Y92780*
X280435Y92595*
X280251Y92387*
X279928Y91995*
X279640Y91569*
X279409Y91142*
X279213Y90680*
X279063Y90207*
X278948Y89723*
X278890Y89215*
X278867Y88696*
X281335Y88743D02*
X281347Y89054D01*
X281381Y89354*
X281450Y89642*
X281531Y89931*
X281646Y90196*
X281785Y90461*
X281946Y90715*
X282131Y90957*
X282339Y91200*
X282569Y91407*
X282811Y91580*
X283065Y91730*
X283331Y91834*
X283607Y91915*
X283896Y91972*
X284207Y91984*
X284507Y91972*
X284795Y91915*
X285061Y91834*
X285315Y91719*
X285568Y91569*
X285787Y91396*
X286007Y91176*
X286214Y90934*
X286376Y90692*
X286526Y90438*
X286652Y90173*
X286745Y89907*
X286826Y89619*
X286883Y89331*
X286918Y89031*
X286929Y88720*
X286918Y88408*
X286883Y88097*
X286826Y87808*
X286745Y87520*
X286641Y87243*
X286514Y86978*
X286364Y86724*
X286191Y86482*
X285983Y86251*
X285753Y86044*
X285522Y85859*
X285269Y85721*
X285003Y85606*
X284726Y85524*
X284426Y85478*
X284126Y85467*
X283826Y85478*
X283538Y85536*
X283273Y85617*
X283007Y85732*
X282765Y85882*
X282535Y86067*
X282304Y86286*
X282096Y86528*
X281912Y86782*
X281762Y87035*
X281635Y87301*
X281520Y87578*
X281439Y87854*
X281381Y88143*
X281347Y88443*
X281335Y88743*
X274576Y98235D02*
X274588Y98097D01*
X274645Y97139*
X274691Y96217*
X274726Y95317*
X274761Y94464*
X274784Y93633*
X274807Y92849*
X274819Y92087*
Y91372*
Y91038*
Y90669*
X274807Y90254*
Y89804*
Y89319*
X274795Y88789*
X274784Y88224*
X274772Y87612*
X274761Y87013*
Y86447*
X274749Y85917*
Y85432*
X274738Y84983*
Y84579*
Y84210*
Y83875*
X274749Y83771*
X274772Y83691*
X274830Y83644*
X274899Y83633*
X276906*
X276987Y83644*
X277056Y83691*
X277091Y83771*
X277102Y83875*
Y84210*
Y84579*
X277091Y84983*
Y85432*
Y85917*
Y86447*
X277079Y87013*
Y87612*
X277067Y88224*
Y88789*
Y89319*
X277056Y89804*
Y90254*
Y90669*
Y91038*
Y91372*
Y91672*
X277067Y92007*
Y92387*
X277079Y92791*
X277102Y93241*
X277114Y93726*
X277137Y94233*
X277160Y94787*
X277194Y95340*
X277217Y95859*
X277229Y96332*
X277252Y96782*
X277264Y97186*
Y97566*
X277275Y97901*
Y98201*
X277264Y98293*
X277217Y98351*
X277148Y98397*
X277056Y98408*
X276952*
X276814Y98397*
X276664Y98385*
X276491Y98374*
X276306Y98362*
X276156Y98351*
X276030*
X275926Y98339*
X275810Y98351*
X275672*
X275510Y98362*
X275337Y98374*
X275153Y98385*
X274991Y98397*
X274865Y98408*
X274749*
X274669Y98397*
X274611Y98362*
X274588Y98316*
X274576Y98235*
X263572Y89285D02*
X263584Y89100D01*
X263619Y88927*
X263665Y88777*
X263746Y88639*
X263838Y88512*
X263953Y88408*
X264091Y88316*
X264241Y88247*
X264322Y88224*
X264449Y88200*
X264611Y88178*
X264818Y88143*
X265072Y88108*
X265372Y88074*
X265706Y88039*
X266098Y88004*
X266525Y87970*
X266998Y87924*
X267517Y87878*
X268071Y87831*
X268670Y87785*
X269317Y87728*
X270009Y87681*
X270747Y87624*
X270701Y87393*
X270631Y87174*
X270539Y86967*
X270424Y86759*
X270285Y86574*
X270124Y86390*
X269939Y86205*
X269732Y86044*
X269513Y85894*
X269305Y85767*
X269074Y85663*
X268855Y85571*
X268624Y85502*
X268394Y85456*
X268163Y85432*
X267921Y85421*
X267506Y85432*
X267102Y85490*
X266710Y85571*
X266329Y85686*
X265948Y85836*
X265580Y86020*
X265222Y86240*
X264876Y86482*
X264541Y86759*
X264472Y86747*
X264426Y86736*
X264415Y86724*
X264391Y86678*
X264357Y86620*
X264311Y86540*
X264265Y86436*
X264195Y86320*
X264115Y86170*
X264034Y86009*
X263942Y85836*
X263872Y85698*
X263803Y85571*
X263757Y85467*
X263711Y85375*
X263688Y85317*
X263665Y85271*
Y85248*
X263676Y85202*
X263711Y85156*
X263757Y85086*
X263838Y85006*
X264034Y84809*
X264230Y84625*
X264449Y84452*
X264657Y84291*
X264887Y84141*
X265118Y84002*
X265349Y83887*
X265602Y83771*
X265845Y83679*
X266110Y83598*
X266375Y83529*
X266641Y83472*
X266929Y83425*
X267206Y83391*
X267506Y83379*
X267806Y83368*
X268394Y83391*
X268959Y83460*
X269489Y83575*
X269997Y83737*
X270470Y83933*
X270908Y84187*
X271312Y84487*
X271693Y84821*
X272039Y85202*
X272327Y85617*
X272581Y86055*
X272777Y86528*
X272938Y87024*
X273054Y87566*
X273123Y88120*
X273146Y88720*
X273123Y89250*
X273054Y89769*
X272950Y90265*
X272800Y90750*
X272604Y91211*
X272361Y91661*
X272085Y92087*
X271762Y92503*
X271577Y92699*
X271381Y92895*
X271185Y93068*
X270989Y93230*
X270781Y93380*
X270562Y93518*
X270355Y93644*
X270124Y93760*
X269905Y93852*
X269674Y93933*
X269432Y94014*
X269190Y94071*
X268947Y94118*
X268694Y94152*
X268428Y94164*
X268175Y94175*
X267690Y94152*
X267217Y94083*
X266779Y93968*
X266352Y93806*
X265948Y93610*
X265568Y93356*
X265210Y93056*
X264864Y92722*
X264565Y92365*
X264299Y91972*
X264080Y91580*
X263895Y91153*
X263757Y90715*
X263653Y90265*
X263596Y89781*
X263572Y89285*
X266076Y89931D02*
X266087Y90150D01*
X266122Y90357*
X266168Y90554*
X266248Y90750*
X266341Y90946*
X266468Y91130*
X266606Y91303*
X266767Y91476*
X266941Y91638*
X267113Y91776*
X267298Y91891*
X267494Y91984*
X267690Y92065*
X267898Y92111*
X268106Y92145*
X268313Y92157*
X268555Y92145*
X268786Y92111*
X269005Y92041*
X269224Y91961*
X269432Y91845*
X269639Y91719*
X269835Y91557*
X270031Y91372*
X270205Y91176*
X270355Y90969*
X270493Y90761*
X270597Y90542*
X270678Y90323*
X270735Y90092*
X270770Y89861*
X270781Y89619*
X270770Y89573*
X270758Y89527*
X270724Y89481*
X270689Y89458*
X270631Y89435*
X270574Y89412*
X270493Y89400*
X270401*
X270009*
X269593Y89423*
X269155Y89446*
X268694Y89481*
X268221Y89527*
X267725Y89573*
X267217Y89642*
X266687Y89723*
X266537Y89735*
X266421Y89757*
X266318Y89792*
X266225Y89815*
X266156Y89839*
X266110Y89873*
X266087Y89896*
X266076Y89931*
X252926Y96102D02*
Y96021D01*
X252938Y95906*
X252961Y95663*
X252996Y95386*
X253019Y95109*
X253042Y94798*
X253065Y94475*
X253088Y94129*
X253100Y93772*
X253122Y93391*
X253134Y92987*
X253146Y92572*
X253157Y92134*
X253169Y91672*
Y91188*
X253180Y90692*
Y90184*
Y89642*
Y89400*
Y89123*
Y88823*
Y88489*
X253169Y88120*
Y87728*
Y87301*
X253157Y86851*
Y86401*
X253146Y85986*
Y85582*
Y85225*
Y84890*
X253134Y84579*
Y84313*
Y84060*
X253146Y83967*
X253157Y83887*
X253192Y83806*
X253226Y83748*
X253272Y83714*
X253330Y83679*
X253399Y83656*
X253480*
X253676Y83644*
X253907*
X254172*
X254483Y83633*
X254783Y83622*
X255049Y83610*
X255280*
X255464*
X255602Y83622*
X255706Y83679*
X255764Y83760*
X255787Y83875*
Y83910*
Y83979*
Y84071*
X255775Y84198*
Y84348*
X255764Y84521*
Y84717*
X255752Y84948*
X255741Y85202*
X255729Y85490*
X255718Y85802*
X255706Y86136*
X255694Y86493*
X255683Y86886*
X255672Y87301*
X255648Y87751*
Y87970*
X255637Y88212*
Y88466*
X255626Y88731*
X255614Y89008*
Y89296*
Y89608*
X255602Y89919*
Y90254*
Y90588*
X255591Y90946*
Y91315*
Y91695*
Y92087*
Y92491*
Y92906*
X255602Y93010*
X255614Y93091*
X255648Y93137*
X255694Y93149*
X255844Y93137*
X256018Y93103*
X256237Y93056*
X256491Y92976*
X256744Y92906*
X256963Y92860*
X257148Y92826*
X257298Y92814*
X257402Y92826*
X257471Y92849*
X257517Y92883*
X257540Y92941*
X257529Y93010*
Y93103*
X257517Y93195*
X257506Y93322*
X257494Y93437*
Y93541*
X257482Y93633*
Y93702*
Y93760*
Y93841*
X257494Y93933*
X257506Y94048*
X257517Y94152*
Y94244*
X257529Y94325*
Y94394*
X257506Y94464*
X257471Y94521*
X257390Y94579*
X257298Y94625*
X256987Y94775*
X256663Y94971*
X256341Y95213*
X255994Y95490*
X255983Y95513*
X255948Y95548*
X255902Y95594*
X255844Y95663*
X255764Y95756*
X255660Y95859*
X255545Y95986*
X255418Y96124*
X255314Y96252*
X255210Y96355*
X255130Y96436*
X255049Y96517*
X254991Y96574*
X254945Y96609*
X254910Y96632*
X254899Y96644*
X254887*
X254841Y96632*
X254783Y96620*
X254680Y96597*
X254564Y96574*
X254403Y96540*
X254230Y96494*
X254022Y96459*
X253838Y96424*
X253619Y96390*
X253365Y96355*
X253076Y96298*
X253007Y96263*
X252961Y96228*
X252938Y96171*
X252926Y96102*
X230435Y83898D02*
X230446Y83783D01*
X230504Y83702*
X230585Y83644*
X230700Y83633*
X230804*
X230942Y83644*
X231092*
X231277Y83668*
X231450Y83679*
X231611Y83691*
X231738*
X231854*
X231957*
X232084*
X232246Y83679*
X232430Y83668*
X232615Y83644*
X232776*
X232903Y83633*
X233007*
X233122Y83656*
X233215Y83714*
X233261Y83829*
X233272Y83979*
Y84337*
Y84729*
X233261Y85167*
X233249Y85652*
X233237Y86170*
X233226Y86736*
X233215Y87347*
X233191Y87993*
X233169Y88639*
X233157Y89239*
X233145Y89804*
X233122Y90334*
Y90807*
X233111Y91246*
Y91649*
Y92007*
Y92087*
X233122Y92157*
X233157Y92191*
X233191Y92203*
X233237Y92191*
X233272Y92168*
X233307Y92134*
X233341Y92087*
X233411Y91926*
X233491Y91742*
X233595Y91522*
X233699Y91269*
X233814Y90992*
X233941Y90692*
X234080Y90346*
X234241Y89977*
X234402Y89585*
X234576Y89158*
X234760Y88696*
X234956Y88212*
X235164Y87693*
X235394Y87139*
X235625Y86563*
X235867Y85963*
X235948Y85709*
X236040Y85456*
X236144Y85179*
X236259Y84879*
X236386Y84579*
X236513Y84256*
X236652Y83921*
X236802Y83575*
X236825Y83541*
X236871Y83506*
X236940Y83483*
X237021Y83460*
X237136Y83448*
X237252Y83437*
X237402Y83425*
X237563*
X237805*
X238013Y83437*
X238186Y83448*
X238347Y83472*
X238463Y83494*
X238567Y83529*
X238635Y83564*
X238670Y83610*
X238763Y83829*
X238866Y84071*
X238981Y84337*
X239108Y84625*
X239235Y84936*
X239385Y85271*
X239535Y85617*
X239697Y85998*
X239800Y86263*
X239928Y86551*
X240054Y86851*
X240193Y87163*
X240331Y87497*
X240481Y87843*
X240631Y88212*
X240804Y88593*
X240965Y88985*
X241150Y89400*
X241335Y89827*
X241531Y90277*
X241727Y90738*
X241934Y91211*
X242154Y91707*
X242372Y92215*
X242419Y92283*
X242511Y92365*
X242546Y92318*
X242569Y92272*
X242592Y92203*
Y92134*
Y91765*
Y91361*
Y90922*
X242580Y90427*
Y89896*
X242569Y89331*
X242557Y88708*
X242546Y88051*
X242534Y87393*
X242522Y86782*
Y86205*
X242511Y85674*
Y85179*
X242500Y84740*
Y84337*
Y83979*
X242522Y83818*
X242569Y83714*
X242650Y83644*
X242765Y83622*
X242869Y83633*
X242984*
X243134Y83644*
X243307Y83656*
X243480Y83668*
X243630Y83679*
X243757Y83691*
X243861*
X243964*
X244091Y83679*
X244241Y83668*
X244414Y83656*
X244599Y83644*
X244749Y83633*
X244876*
X244980Y83622*
X245095Y83644*
X245176Y83679*
X245233Y83737*
X245244Y83829*
Y84141*
X245233Y84487*
Y84867*
X245222Y85282*
X245198Y85744*
X245187Y86240*
X245164Y86759*
X245129Y87324*
X245106Y87889*
X245083Y88420*
X245072Y88916*
X245048Y89377*
X245037Y89792*
Y90173*
X245026Y90519*
Y90830*
Y91153*
X245037Y91511*
Y91915*
X245048Y92353*
X245072Y92826*
X245083Y93333*
X245106Y93887*
X245129Y94475*
X245164Y95063*
X245187Y95606*
X245198Y96124*
X245222Y96597*
X245233Y97036*
Y97428*
X245244Y97785*
Y98108*
X245233Y98201*
X245187Y98270*
X245106Y98316*
X245002Y98351*
X244656Y98385*
X244333Y98431*
X244033Y98454*
X243745Y98489*
X243491Y98512*
X243249Y98524*
X243042Y98535*
X242846*
X242822Y98524*
X242788Y98512*
X242753Y98478*
X242719Y98431*
X242684Y98362*
X242638Y98293*
X242592Y98201*
X242546Y98097*
X241923Y96724*
X241323Y95375*
X240746Y94071*
X240181Y92803*
X239650Y91569*
X239131Y90369*
X238647Y89215*
X238174Y88097*
X238070Y87854*
X237978Y87647*
X237897Y87462*
X237828Y87324*
X237770Y87209*
X237724Y87128*
X237690Y87082*
X237655Y87059*
X237632Y87070*
X237598Y87116*
X237551Y87174*
X237494Y87266*
X237436Y87393*
X237367Y87531*
X237286Y87705*
X237205Y87901*
X237021Y88339*
X236836Y88812*
X236629Y89296*
X236421Y89815*
X236202Y90357*
X235971Y90934*
X235741Y91522*
X235498Y92145*
X235244Y92791*
X234979Y93460*
X234714Y94164*
X234437Y94891*
X234149Y95640*
X233849Y96413*
X233549Y97209*
X233237Y98039*
X233191Y98143*
X233145Y98224*
X233111Y98293*
X233065Y98351*
X233019Y98397*
X232972Y98431*
X232926Y98443*
X232880Y98454*
X232672*
X232430Y98443*
X232142Y98431*
X231796Y98408*
X231461Y98397*
X231173Y98385*
X230919Y98374*
X230723*
X230608Y98351*
X230527Y98304*
X230469Y98224*
X230458Y98120*
Y97797*
Y97439*
X230469Y97036*
X230481Y96597*
X230493Y96124*
X230504Y95617*
X230515Y95063*
X230539Y94475*
X230561Y93887*
X230573Y93333*
X230585Y92826*
X230596Y92353*
X230608Y91915*
X230619Y91522*
Y91165*
Y90842*
Y90530*
X230608Y90184*
Y89804*
X230596Y89389*
X230585Y88939*
X230561Y88443*
X230550Y87924*
X230527Y87359*
X230504Y86805*
X230481Y86274*
X230469Y85790*
X230458Y85340*
X230446Y84925*
X230435Y84544*
Y84198*
Y83898*
X225487Y96228D02*
X225509Y95928D01*
X225579Y95663*
X225694Y95444*
X225844Y95259*
X226052Y95121*
X226294Y95017*
X226594Y94959*
X226928Y94937*
X227274Y94959*
X227574Y95017*
X227817Y95121*
X228024Y95259*
X228185Y95444*
X228301Y95663*
X228370Y95928*
X228393Y96228*
X228381Y96367*
X228370Y96505*
X228324Y96632*
X228278Y96759*
X228220Y96874*
X228139Y96978*
X228047Y97082*
X227943Y97186*
X227724Y97347*
X227482Y97451*
X227217Y97520*
X226928Y97543*
X226640Y97520*
X226375Y97451*
X226132Y97335*
X225913Y97174*
X225809Y97082*
X225729Y96978*
X225648Y96874*
X225591Y96759*
X225544Y96632*
X225509Y96505*
X225498Y96367*
X225487Y96228*
X225567Y93380D02*
Y93160D01*
Y92918*
X225579Y92653*
X225591Y92353*
X225602Y92041*
X225625Y91695*
X225637Y91326*
X225659Y90922*
X225683Y90530*
X225706Y90161*
X225729Y89815*
X225740Y89493*
X225752Y89193*
Y88927*
X225763Y88685*
Y88466*
Y88258*
Y88039*
Y87785*
X225752Y87509*
Y87209*
X225740Y86886*
Y86540*
X225729Y86170*
Y85790*
X225717Y85444*
Y85121*
X225706Y84833*
Y84556*
Y84302*
Y84083*
Y83875*
X225717Y83783*
X225752Y83714*
X225809Y83668*
X225890Y83656*
X227943*
X228001Y83668*
X228047Y83679*
X228082Y83714*
X228117Y83760*
X228139Y83829*
X228151Y83898*
X228163Y83991*
Y84083*
Y84279*
Y84498*
Y84729*
Y84994*
X228151Y85282*
Y85582*
X228139Y85917*
X228128Y86274*
X228117Y86620*
Y86955*
X228105Y87266*
Y87555*
X228093Y87808*
Y88051*
Y88270*
Y88466*
Y88685*
X228105Y88927*
Y89193*
X228128Y89493*
X228139Y89815*
X228163Y90161*
X228185Y90530*
X228209Y90934*
X228243Y91326*
X228266Y91695*
X228289Y92053*
X228301Y92365*
X228313Y92664*
X228324Y92930*
X228335Y93172*
Y93391*
X228324Y93472*
X228278Y93530*
X228209Y93564*
X228117Y93576*
X228001*
X227874Y93564*
X227713Y93541*
X227528Y93518*
X227344Y93495*
X227182Y93483*
X227044Y93472*
X226940*
X226824*
X226686Y93483*
X226525Y93495*
X226340Y93518*
X226156Y93541*
X225994Y93564*
X225856Y93576*
X225752*
X225671Y93564*
X225613Y93530*
X225579Y93460*
X225567Y93380*
X214194Y83841D02*
X214206Y83737D01*
X214252Y83668*
X214321Y83622*
X214414Y83610*
X214598*
X214841*
X215117Y83622*
X215440*
X215763*
X216052Y83633*
X216282*
X216478*
X216559Y83656*
X216617Y83714*
X216651Y83806*
X216663Y83933*
Y84071*
Y84233*
Y84394*
Y84590*
X216651Y84786*
Y85017*
X216640Y85248*
Y85502*
X216628Y85767*
X216617Y85998*
Y86228*
Y86424*
X216605Y86620*
Y86793*
Y86943*
Y87082*
Y87197*
Y87324*
Y87462*
Y87612*
Y87774*
Y87958*
X216617Y88143*
Y88350*
Y88546*
Y88743*
Y88916*
X216628Y89077*
Y89227*
Y89365*
Y89493*
Y89608*
Y89896*
X216651Y90161*
X216674Y90404*
X216709Y90634*
X216767Y90830*
X216824Y91004*
X216894Y91165*
X216974Y91303*
X217090Y91442*
X217228Y91557*
X217389Y91661*
X217574Y91742*
X217782Y91811*
X218012Y91857*
X218266Y91880*
X218543Y91891*
X218681Y91880*
X218831Y91857*
X218993Y91811*
X219166Y91742*
X219362Y91661*
X219558Y91557*
X219777Y91442*
X220008Y91303*
X220239Y91142*
X220446Y90992*
X220607Y90854*
X220746Y90704*
X220861Y90577*
X220942Y90438*
X220988Y90311*
X221000Y90184*
Y83875*
X221011Y83760*
X221046Y83679*
X221115Y83633*
X221196Y83610*
X221392*
X221622*
X221888Y83622*
X222211*
X222522*
X222799Y83633*
X223030*
X223214*
X223318Y83644*
X223387Y83691*
X223422Y83771*
X223445Y83875*
Y84094*
X223433Y84337*
Y84613*
Y84913*
Y85236*
X223422Y85594*
Y85963*
X223410Y86367*
Y86770*
X223399Y87151*
Y87497*
Y87831*
X223387Y88131*
Y88408*
Y88650*
Y88881*
X223399Y89435*
X223422Y89977*
X223457Y90507*
X223503Y91026*
X223572Y91545*
X223653Y92041*
X223756Y92537*
X223860Y93010*
X223883Y93091*
X223895Y93149*
X223883Y93195*
X223860Y93241*
X223814Y93276*
X223756Y93299*
X223722Y93310*
X223653*
X223549Y93333*
X223422Y93356*
X223249Y93380*
X223053Y93414*
X222822Y93448*
X222557Y93495*
X222292Y93541*
X222061Y93576*
X221853Y93610*
X221692Y93633*
X221565Y93656*
X221461Y93668*
X221404Y93679*
X221369*
X221346Y93668*
X221323Y93633*
X221300Y93587*
X221288Y93506*
X221254Y93183*
X221196Y92849*
X221127Y92526*
X221046Y92191*
X220746Y92422*
X220411Y92676*
X220031Y92964*
X219604Y93264*
X219327Y93426*
X219050Y93564*
X218785Y93679*
X218508Y93772*
X218243Y93852*
X217978Y93898*
X217713Y93933*
X217459Y93944*
X216986Y93922*
X216548Y93875*
X216144Y93783*
X215786Y93656*
X215475Y93495*
X215187Y93299*
X214944Y93068*
X214748Y92791*
X214621Y92572*
X214506Y92307*
X214414Y92019*
X214344Y91695*
X214287Y91338*
X214241Y90946*
X214218Y90519*
X214206Y90069*
Y89885*
X214218Y89654*
Y89377*
X214229Y89066*
Y88754*
X214241Y88477*
Y88247*
Y88051*
Y87866*
Y87658*
Y87428*
Y87174*
X214229Y86897*
Y86609*
Y86286*
X214218Y85951*
Y85606*
X214206Y85294*
Y84994*
Y84717*
Y84475*
X214194Y84244*
Y84025*
Y83841*
X209454Y96228D02*
X209477Y95928D01*
X209546Y95663*
X209662Y95444*
X209811Y95259*
X210019Y95121*
X210261Y95017*
X210561Y94959*
X210896Y94937*
X211242Y94959*
X211542Y95017*
X211784Y95121*
X211992Y95259*
X212153Y95444*
X212269Y95663*
X212337Y95928*
X212361Y96228*
X212349Y96367*
X212337Y96505*
X212291Y96632*
X212245Y96759*
X212188Y96874*
X212107Y96978*
X212015Y97082*
X211911Y97186*
X211692Y97347*
X211450Y97451*
X211184Y97520*
X210896Y97543*
X210607Y97520*
X210342Y97451*
X210100Y97335*
X209881Y97174*
X209777Y97082*
X209696Y96978*
X209615Y96874*
X209558Y96759*
X209512Y96632*
X209477Y96505*
X209465Y96367*
X209454Y96228*
X209535Y93380D02*
Y93160D01*
Y92918*
X209546Y92653*
X209558Y92353*
X209569Y92041*
X209593Y91695*
X209604Y91326*
X209627Y90922*
X209650Y90530*
X209673Y90161*
X209696Y89815*
X209708Y89493*
X209719Y89193*
Y88927*
X209731Y88685*
Y88466*
Y88258*
Y88039*
Y87785*
X209719Y87509*
Y87209*
X209708Y86886*
Y86540*
X209696Y86170*
Y85790*
X209685Y85444*
Y85121*
X209673Y84833*
Y84556*
Y84302*
Y84083*
Y83875*
X209685Y83783*
X209719Y83714*
X209777Y83668*
X209858Y83656*
X211911*
X211969Y83668*
X212015Y83679*
X212049Y83714*
X212084Y83760*
X212107Y83829*
X212119Y83898*
X212130Y83991*
Y84083*
Y84279*
Y84498*
Y84729*
Y84994*
X212119Y85282*
Y85582*
X212107Y85917*
X212095Y86274*
X212084Y86620*
Y86955*
X212072Y87266*
Y87555*
X212061Y87808*
Y88051*
Y88270*
Y88466*
Y88685*
X212072Y88927*
Y89193*
X212095Y89493*
X212107Y89815*
X212130Y90161*
X212153Y90530*
X212176Y90934*
X212211Y91326*
X212234Y91695*
X212257Y92053*
X212269Y92365*
X212280Y92664*
X212291Y92930*
X212303Y93172*
Y93391*
X212291Y93472*
X212245Y93530*
X212176Y93564*
X212084Y93576*
X211969*
X211842Y93564*
X211680Y93541*
X211496Y93518*
X211311Y93495*
X211150Y93483*
X211011Y93472*
X210907*
X210792*
X210654Y93483*
X210492Y93495*
X210307Y93518*
X210123Y93541*
X209961Y93564*
X209823Y93576*
X209719*
X209639Y93564*
X209581Y93530*
X209546Y93460*
X209535Y93380*
X287124Y80374D02*
X289113D01*
X299293D02*
X301281D01*
X287044Y80468D02*
X289344D01*
X299213D02*
X301513D01*
X287018Y80562D02*
X289391D01*
X299187D02*
X301559D01*
X287011Y80656D02*
X289409D01*
X299180D02*
X301578D01*
X287009Y80749D02*
X289409D01*
X299178D02*
X301578D01*
X287009Y80843D02*
X289409D01*
X299178D02*
X301578D01*
X287009Y80937D02*
X289409D01*
X299178D02*
X301578D01*
X287008Y81030D02*
X289409D01*
X299177D02*
X301578D01*
X287008Y81124D02*
X289409D01*
X299177D02*
X301578D01*
X287008Y81218D02*
X289409D01*
X299176D02*
X301578D01*
X287007Y81311D02*
X289409D01*
X299176D02*
X301578D01*
X287007Y81405D02*
X289409D01*
X299176D02*
X301578D01*
X287007Y81499D02*
X289407D01*
X299176D02*
X301575D01*
X287006Y81593D02*
X289404D01*
X299175D02*
X301573D01*
X287006Y81686D02*
X289402D01*
X299175D02*
X301570D01*
X287006Y81780D02*
X289399D01*
X299174D02*
X301568D01*
X287005Y81874D02*
X289398D01*
X299174D02*
X301566D01*
X287005Y81967D02*
X289398D01*
X299174D02*
X301566D01*
X287004Y82061D02*
X289398D01*
X299173D02*
X301566D01*
X287004Y82155D02*
X289398D01*
X299173D02*
X301566D01*
X287004Y82248D02*
X289398D01*
X299172D02*
X301566D01*
X287004Y82342D02*
X289398D01*
X299172D02*
X301566D01*
X287003Y82436D02*
X289398D01*
X299172D02*
X301566D01*
X287003Y82530D02*
X289398D01*
X299171D02*
X301566D01*
X287002Y82623D02*
X289398D01*
X299171D02*
X301566D01*
X287002Y82717D02*
X289398D01*
X299170D02*
X301566D01*
X287002Y82811D02*
X289398D01*
X299170D02*
X301566D01*
X287001Y82904D02*
X289398D01*
X299170D02*
X301566D01*
X287001Y82998D02*
X289398D01*
X299169D02*
X301566D01*
X287000Y83092D02*
X289398D01*
X299169D02*
X301566D01*
X287000Y83185D02*
X289398D01*
X299169D02*
X301566D01*
X287000Y83279D02*
X289398D01*
X299169D02*
X301566D01*
X267671Y83373D02*
X267935D01*
X283178D02*
X284194D01*
X287000D02*
X289398D01*
X295346D02*
X296363D01*
X299168D02*
X301566D01*
X236998Y83467D02*
X238312D01*
X266672D02*
X268990D01*
X282647D02*
X284682D01*
X286999D02*
X289397D01*
X294816D02*
X296850D01*
X299168D02*
X301565D01*
X236811Y83560D02*
X238628D01*
X266256D02*
X269420D01*
X282299D02*
X285004D01*
X286999D02*
X289395D01*
X294468D02*
X297173D01*
X299167D02*
X301564D01*
X214273Y83654D02*
X216552D01*
X221084D02*
X223332D01*
X230572D02*
X231167D01*
X232540D02*
X233112D01*
X236767D02*
X238689D01*
X242639D02*
X243277D01*
X244446D02*
X245117D01*
X253514D02*
X255661D01*
X265928D02*
X269737D01*
X274818D02*
X277001D01*
X282033D02*
X285229D01*
X286998D02*
X289393D01*
X294201D02*
X297398D01*
X299167D02*
X301562D01*
X302923D02*
X303668D01*
X304920D02*
X305551D01*
X314248D02*
X316785D01*
X209702Y83748D02*
X212075D01*
X214205D02*
X216630D01*
X221017D02*
X223412D01*
X225735D02*
X228107D01*
X230472D02*
X233228D01*
X236727D02*
X238728D01*
X242554D02*
X245234D01*
X253226D02*
X255755D01*
X265665D02*
X270023D01*
X274756D02*
X277080D01*
X281824D02*
X285417D01*
X286998D02*
X289392D01*
X293992D02*
X297585D01*
X299167D02*
X301560D01*
X302865D02*
X305649D01*
X314162D02*
X316868D01*
X209678Y83841D02*
X212109D01*
X214194D02*
X216654D01*
X221003D02*
X223437D01*
X225710D02*
X228141D01*
X230441D02*
X233261D01*
X236686D02*
X238768D01*
X242519D02*
X245244D01*
X253176D02*
X255780D01*
X265448D02*
X270249D01*
X274741D02*
X277098D01*
X281634D02*
X285580D01*
X286998D02*
X289390D01*
X293802D02*
X297748D01*
X299167D02*
X301558D01*
X302895D02*
X305723D01*
X314098D02*
X316876D01*
X209673Y83935D02*
X212123D01*
X214194D02*
X216663D01*
X221000D02*
X223445D01*
X225706D02*
X228156D01*
X230435D02*
X233269D01*
X236646D02*
X238808D01*
X242506D02*
X245244D01*
X253150D02*
X255787D01*
X265252D02*
X270474D01*
X274738D02*
X277102D01*
X281466D02*
X285717D01*
X286998D02*
X289388D01*
X293634D02*
X297886D01*
X299167D02*
X301557D01*
X302939D02*
X305777D01*
X314045D02*
X316848D01*
X209673Y84029D02*
X212130D01*
X214194D02*
X216663D01*
X221000D02*
X223445D01*
X225706D02*
X228163D01*
X230435D02*
X233272D01*
X236607D02*
X238848D01*
X242500D02*
X245244D01*
X253138D02*
X255787D01*
X265074D02*
X270635D01*
X274738D02*
X277102D01*
X281313D02*
X285849D01*
X286998D02*
X289386D01*
X293481D02*
X298017D01*
X299167D02*
X301555D01*
X302963D02*
X305819D01*
X313998D02*
X316819D01*
X209673Y84122D02*
X212130D01*
X214194D02*
X216663D01*
X221000D02*
X223444D01*
X225706D02*
X228163D01*
X230435D02*
X233272D01*
X236569D02*
X238889D01*
X242500D02*
X245244D01*
X253134D02*
X255782D01*
X264918D02*
X270797D01*
X274738D02*
X277102D01*
X281172D02*
X285978D01*
X286998D02*
X289386D01*
X293341D02*
X298146D01*
X299167D02*
X301555D01*
X303001D02*
X305861D01*
X313961D02*
X316790D01*
X209673Y84216D02*
X212130D01*
X214194D02*
X216663D01*
X221000D02*
X223439D01*
X225706D02*
X228163D01*
X230435D02*
X233272D01*
X236530D02*
X238929D01*
X242500D02*
X245242D01*
X253134D02*
X255775D01*
X264771D02*
X270948D01*
X274738D02*
X277102D01*
X281048D02*
X286087D01*
X286998D02*
X289386D01*
X293217D02*
X298255D01*
X299167D02*
X301555D01*
X303038D02*
X305899D01*
X313924D02*
X316758D01*
X209673Y84310D02*
X212130D01*
X214198D02*
X216663D01*
X221000D02*
X223435D01*
X225706D02*
X228163D01*
X230435D02*
X233272D01*
X236492D02*
X238970D01*
X242500D02*
X245239D01*
X253134D02*
X255775D01*
X264632D02*
X271074D01*
X274738D02*
X277102D01*
X280928D02*
X286187D01*
X286998D02*
X289386D01*
X293097D02*
X298356D01*
X299167D02*
X301555D01*
X303072D02*
X305934D01*
X313888D02*
X316726D01*
X209673Y84404D02*
X212130D01*
X214203D02*
X216663D01*
X221000D02*
X223433D01*
X225706D02*
X228163D01*
X230435D02*
X233272D01*
X236455D02*
X239011D01*
X242500D02*
X245236D01*
X253134D02*
X255772D01*
X264511D02*
X271200D01*
X274738D02*
X277102D01*
X280815D02*
X286287D01*
X286998D02*
X289386D01*
X292983D02*
X298456D01*
X299167D02*
X301555D01*
X303104D02*
X305969D01*
X313853D02*
X316691D01*
X209673Y84497D02*
X212130D01*
X214206D02*
X216663D01*
X221000D02*
X223433D01*
X225706D02*
X228163D01*
X230435D02*
X233272D01*
X236419D02*
X239052D01*
X242500D02*
X245233D01*
X253134D02*
X255765D01*
X264392D02*
X271324D01*
X274738D02*
X277102D01*
X280709D02*
X286387D01*
X286998D02*
X289386D01*
X292878D02*
X298556D01*
X299167D02*
X301555D01*
X303137D02*
X306005D01*
X313814D02*
X316656D01*
X209673Y84591D02*
X212130D01*
X214206D02*
X216663D01*
X221000D02*
X223433D01*
X225706D02*
X228163D01*
X230436D02*
X233272D01*
X236381D02*
X239093D01*
X242500D02*
X245233D01*
X253134D02*
X255764D01*
X264273D02*
X271431D01*
X274738D02*
X277102D01*
X280609D02*
X286487D01*
X286998D02*
X289386D01*
X292778D02*
X298656D01*
X299167D02*
X301555D01*
X303173D02*
X306036D01*
X313784D02*
X316621D01*
X209673Y84685D02*
X212130D01*
X214206D02*
X216657D01*
X221000D02*
X223433D01*
X225706D02*
X228163D01*
X230439D02*
X233272D01*
X236341D02*
X239133D01*
X242500D02*
X245233D01*
X253138D02*
X255764D01*
X264167D02*
X271537D01*
X274738D02*
X277099D01*
X280514D02*
X286588D01*
X286991D02*
X289386D01*
X292683D02*
X298756D01*
X299159D02*
X301555D01*
X303213D02*
X306065D01*
X313757D02*
X316585D01*
X209673Y84778D02*
X212130D01*
X214206D02*
X216652D01*
X221000D02*
X223433D01*
X225706D02*
X228163D01*
X230442D02*
X233271D01*
X236302D02*
X239171D01*
X242501D02*
X245233D01*
X253141D02*
X255761D01*
X264067D02*
X271644D01*
X274738D02*
X277096D01*
X280420D02*
X286688D01*
X286987D02*
X289385D01*
X292589D02*
X298856D01*
X299156D02*
X301553D01*
X303250D02*
X306096D01*
X313724D02*
X316550D01*
X209675Y84872D02*
X212130D01*
X214206D02*
X216651D01*
X221000D02*
X223433D01*
X225707D02*
X228163D01*
X230445D02*
X233269D01*
X236262D02*
X239209D01*
X242503D02*
X245233D01*
X253145D02*
X255756D01*
X263971D02*
X271739D01*
X274738D02*
X277094D01*
X280331D02*
X286788D01*
X286976D02*
X289383D01*
X292500D02*
X298957D01*
X299145D02*
X301552D01*
X303285D02*
X306127D01*
X313691D02*
X316515D01*
X209678Y84966D02*
X212130D01*
X214206D02*
X216651D01*
X221000D02*
X223433D01*
X225711D02*
X228163D01*
X230448D02*
X233266D01*
X236226D02*
X239249D01*
X242506D02*
X245230D01*
X253146D02*
X255752D01*
X263878D02*
X271824D01*
X274738D02*
X277091D01*
X280243D02*
X286888D01*
X286923D02*
X289381D01*
X292412D02*
X299057D01*
X299092D02*
X301550D01*
X303318D02*
X306157D01*
X313662D02*
X316480D01*
X209682Y85059D02*
X212127D01*
X214206D02*
X216649D01*
X221000D02*
X223433D01*
X225715D02*
X228160D01*
X230450D02*
X233263D01*
X236190D02*
X239291D01*
X242508D02*
X245228D01*
X253146D02*
X255747D01*
X263784D02*
X271909D01*
X274740D02*
X277091D01*
X280166D02*
X289380D01*
X292335D02*
X301548D01*
X303349D02*
X306185D01*
X313633D02*
X316445D01*
X209685Y85153D02*
X212124D01*
X214206D02*
X216644D01*
X221000D02*
X223433D01*
X225717D02*
X228156D01*
X230453D02*
X233261D01*
X236154D02*
X239333D01*
X242510D02*
X245225D01*
X253146D02*
X255743D01*
X263713D02*
X271994D01*
X274742D02*
X277091D01*
X280094D02*
X289378D01*
X292262D02*
X301546D01*
X303381D02*
X306208D01*
X313606D02*
X316409D01*
X209685Y85247D02*
X212120D01*
X214206D02*
X216640D01*
X221000D02*
X223433D01*
X225717D02*
X228152D01*
X230455D02*
X233259D01*
X236119D02*
X239375D01*
X242511D02*
X245222D01*
X253146D02*
X255739D01*
X263665D02*
X272070D01*
X274744D02*
X277091D01*
X280022D02*
X289376D01*
X292190D02*
X301545D01*
X303416D02*
X306232D01*
X313578D02*
X316374D01*
X209685Y85341D02*
X212119D01*
X214208D02*
X216640D01*
X221000D02*
X223430D01*
X225717D02*
X228151D01*
X230458D02*
X233257D01*
X236083D02*
X239416D01*
X242511D02*
X245219D01*
X253146D02*
X255735D01*
X263697D02*
X272135D01*
X274747D02*
X277091D01*
X279949D02*
X289375D01*
X292118D02*
X301543D01*
X303451D02*
X306260D01*
X313548D02*
X316339D01*
X209685Y85434D02*
X212119D01*
X214211D02*
X216640D01*
X221000D02*
X223427D01*
X225717D02*
X228151D01*
X230460D02*
X233254D01*
X236048D02*
X239456D01*
X242511D02*
X245214D01*
X253146D02*
X255731D01*
X263741D02*
X267492D01*
X268183D02*
X272200D01*
X274749D02*
X277091D01*
X279881D02*
X289374D01*
X292049D02*
X301543D01*
X303489D02*
X306288D01*
X313519D02*
X316304D01*
X209687Y85528D02*
X212119D01*
X214215D02*
X216639D01*
X221000D02*
X223424D01*
X225720D02*
X228151D01*
X230463D02*
X233252D01*
X236014D02*
X239496D01*
X242511D02*
X245209D01*
X253146D02*
X255728D01*
X263784D02*
X266919D01*
X268712D02*
X272265D01*
X274749D02*
X277091D01*
X279818D02*
X283580D01*
X284739D02*
X289374D01*
X291987D02*
X295748D01*
X296907D02*
X301543D01*
X303526D02*
X306317D01*
X313490D02*
X316269D01*
X209691Y85622D02*
X212117D01*
X214218D02*
X216635D01*
X221000D02*
X223422D01*
X225723D02*
X228150D01*
X230465D02*
X233250D01*
X235980D02*
X239537D01*
X242511D02*
X245205D01*
X253146D02*
X255724D01*
X263831D02*
X266542D01*
X268976D02*
X272330D01*
X274749D02*
X277091D01*
X279756D02*
X283262D01*
X285040D02*
X289374D01*
X291924D02*
X295430D01*
X297209D02*
X301543D01*
X303562D02*
X306347D01*
X313460D02*
X316234D01*
X209694Y85715D02*
X212114D01*
X214218D02*
X216631D01*
X221000D02*
X223422D01*
X225726D02*
X228146D01*
X230467D02*
X233248D01*
X235946D02*
X239577D01*
X242512D02*
X245200D01*
X253146D02*
X255721D01*
X263881D02*
X266255D01*
X269191D02*
X272384D01*
X274749D02*
X277091D01*
X279693D02*
X283046D01*
X285256D02*
X289374D01*
X291862D02*
X295215D01*
X297424D02*
X301543D01*
X303598D02*
X306380D01*
X313429D02*
X316198D01*
X209696Y85809D02*
X212111D01*
X214218D02*
X216626D01*
X221000D02*
X223422D01*
X225729D02*
X228143D01*
X230470D02*
X233246D01*
X235916D02*
X239617D01*
X242514D02*
X245197D01*
X253146D02*
X255717D01*
X263928D02*
X266017D01*
X269374D02*
X272438D01*
X274749D02*
X277091D01*
X279631D02*
X282883D01*
X285430D02*
X289374D01*
X291800D02*
X295052D01*
X297599D02*
X301543D01*
X303633D02*
X306414D01*
X313396D02*
X316163D01*
X209696Y85903D02*
X212107D01*
X214218D02*
X216622D01*
X221000D02*
X223422D01*
X225729D02*
X228140D01*
X230472D02*
X233243D01*
X235887D02*
X239657D01*
X242516D02*
X245195D01*
X253146D02*
X255714D01*
X263977D02*
X265815D01*
X269526D02*
X272493D01*
X274749D02*
X277091D01*
X279581D02*
X282740D01*
X285577D02*
X289374D01*
X291750D02*
X294908D01*
X297745D02*
X301543D01*
X303670D02*
X306448D01*
X313359D02*
X316128D01*
X209696Y85996D02*
X212104D01*
X214219D02*
X216617D01*
X221000D02*
X223421D01*
X225729D02*
X228137D01*
X230474D02*
X233241D01*
X235854D02*
X239696D01*
X242518D02*
X245193D01*
X253146D02*
X255711D01*
X264027D02*
X265628D01*
X269663D02*
X272547D01*
X274751D02*
X277091D01*
X279531D02*
X282622D01*
X285694D02*
X289374D01*
X291700D02*
X294791D01*
X297862D02*
X301543D01*
X303707D02*
X306483D01*
X313330D02*
X316093D01*
X209696Y86090D02*
X212101D01*
X214222D02*
X216617D01*
X221000D02*
X223419D01*
X225729D02*
X228134D01*
X230476D02*
X233239D01*
X235816D02*
X239733D01*
X242520D02*
X245191D01*
X253148D02*
X255708D01*
X264074D02*
X265466D01*
X269792D02*
X272595D01*
X274753D02*
X277091D01*
X279482D02*
X282510D01*
X285804D02*
X289374D01*
X291651D02*
X294678D01*
X297973D02*
X301543D01*
X303743D02*
X306520D01*
X313297D02*
X316058D01*
X209696Y86184D02*
X212098D01*
X214226D02*
X216617D01*
X221000D02*
X223416D01*
X225729D02*
X228131D01*
X230479D02*
X233237D01*
X235778D02*
X239770D01*
X242522D02*
X245188D01*
X253151D02*
X255705D01*
X264122D02*
X265313D01*
X269912D02*
X272634D01*
X274755D02*
X277091D01*
X279433D02*
X282411D01*
X285909D02*
X289374D01*
X291602D02*
X294580D01*
X298077D02*
X301543D01*
X303779D02*
X306562D01*
X313255D02*
X316023D01*
X209700Y86278D02*
X212095D01*
X214229D02*
X216617D01*
X221000D02*
X223413D01*
X225732D02*
X228128D01*
X230481D02*
X233235D01*
X235740D02*
X239807D01*
X242522D02*
X245185D01*
X253154D02*
X255702D01*
X264172D02*
X265168D01*
X270012D02*
X272673D01*
X274757D02*
X277091D01*
X279386D02*
X282313D01*
X286007D02*
X289374D01*
X291555D02*
X294481D01*
X298176D02*
X301543D01*
X303814D02*
X306608D01*
X313212D02*
X315987D01*
X209702Y86371D02*
X212092D01*
X214229D02*
X216617D01*
X221000D02*
X223410D01*
X225735D02*
X228125D01*
X230485D02*
X233233D01*
X235702D02*
X239848D01*
X242522D02*
X245181D01*
X253156D02*
X255698D01*
X264226D02*
X265034D01*
X270106D02*
X272712D01*
X274759D02*
X277091D01*
X279345D02*
X282231D01*
X286091D02*
X289374D01*
X291514D02*
X294399D01*
X298260D02*
X301543D01*
X303849D02*
X306655D01*
X313170D02*
X315952D01*
X209706Y86465D02*
X212089D01*
X214229D02*
X216615D01*
X221000D02*
X223410D01*
X225738D02*
X228122D01*
X230489D02*
X233231D01*
X235665D02*
X239889D01*
X242522D02*
X245177D01*
X253157D02*
X255695D01*
X264278D02*
X264900D01*
X270190D02*
X272751D01*
X274761D02*
X277090D01*
X279304D02*
X282150D01*
X286176D02*
X289374D01*
X291473D02*
X294319D01*
X298344D02*
X301543D01*
X303885D02*
X306706D01*
X313121D02*
X315917D01*
X209708Y86559D02*
X212086D01*
X214229D02*
X216609D01*
X221000D02*
X223410D01*
X225740D02*
X228119D01*
X230493D02*
X233230D01*
X235627D02*
X239931D01*
X242522D02*
X245173D01*
X253157D02*
X255693D01*
X264321D02*
X264783D01*
X270272D02*
X272787D01*
X274761D02*
X277088D01*
X279263D02*
X282074D01*
X286246D02*
X289374D01*
X291432D02*
X294243D01*
X298415D02*
X301542D01*
X303921D02*
X306767D01*
X313068D02*
X315882D01*
X209708Y86652D02*
X212084D01*
X214229D02*
X216605D01*
X221000D02*
X223410D01*
X225740D02*
X228117D01*
X230497D02*
X233228D01*
X235589D02*
X239970D01*
X242522D02*
X245169D01*
X253157D02*
X255690D01*
X264376D02*
X264670D01*
X270344D02*
X272817D01*
X274761D02*
X277086D01*
X279222D02*
X282006D01*
X286313D02*
X289372D01*
X291391D02*
X294174D01*
X298481D02*
X301540D01*
X303957D02*
X306839D01*
X313006D02*
X315847D01*
X209708Y86746D02*
X212084D01*
X214229D02*
X216605D01*
X221000D02*
X223410D01*
X225740D02*
X228117D01*
X230501D02*
X233226D01*
X235552D02*
X240010D01*
X242522D02*
X245164D01*
X253157D02*
X255687D01*
X264472D02*
X264557D01*
X270414D02*
X272848D01*
X274761D02*
X277085D01*
X279187D02*
X281938D01*
X286377D02*
X289370D01*
X291356D02*
X294106D01*
X298546D02*
X301538D01*
X303992D02*
X306931D01*
X312929D02*
X315812D01*
X209708Y86840D02*
X212084D01*
X214229D02*
X216605D01*
X221000D02*
X223408D01*
X225740D02*
X228117D01*
X230506D02*
X233224D01*
X235514D02*
X240050D01*
X242524D02*
X245159D01*
X253157D02*
X255684D01*
X270469D02*
X272878D01*
X274761D02*
X277083D01*
X279157D02*
X281878D01*
X286433D02*
X289368D01*
X291326D02*
X294046D01*
X298601D02*
X301536D01*
X304026D02*
X307093D01*
X312789D02*
X315776D01*
X209709Y86933D02*
X212084D01*
X214231D02*
X216605D01*
X221000D02*
X223406D01*
X225742D02*
X228117D01*
X230509D02*
X233222D01*
X235477D02*
X240091D01*
X242525D02*
X245153D01*
X253159D02*
X255682D01*
X270520D02*
X272909D01*
X274761D02*
X277081D01*
X279128D02*
X281822D01*
X286488D02*
X289366D01*
X291296D02*
X293991D01*
X298656D02*
X301534D01*
X304061D02*
X315741D01*
X209713Y87027D02*
X212081D01*
X214235D02*
X216605D01*
X221000D02*
X223402D01*
X225745D02*
X228114D01*
X230513D02*
X233220D01*
X235439D02*
X240132D01*
X242527D02*
X245147D01*
X253161D02*
X255679D01*
X270566D02*
X272939D01*
X274761D02*
X277079D01*
X279098D02*
X281767D01*
X286538D02*
X289364D01*
X291267D02*
X293935D01*
X298706D02*
X301532D01*
X304097D02*
X315706D01*
X209716Y87121D02*
X212078D01*
X214238D02*
X216605D01*
X221000D02*
X223400D01*
X225749D02*
X228110D01*
X230517D02*
X233219D01*
X235402D02*
X237594D01*
X237719D02*
X240174D01*
X242529D02*
X245142D01*
X253164D02*
X255677D01*
X270608D02*
X272959D01*
X274763D02*
X277079D01*
X279069D02*
X281721D01*
X286582D02*
X289363D01*
X291237D02*
X293890D01*
X298751D02*
X301531D01*
X304134D02*
X315671D01*
X209719Y87215D02*
X212074D01*
X214241D02*
X216605D01*
X221000D02*
X223399D01*
X225752D02*
X228107D01*
X230521D02*
X233217D01*
X235363D02*
X237526D01*
X237774D02*
X240214D01*
X242531D02*
X245136D01*
X253166D02*
X255674D01*
X270644D02*
X272979D01*
X274765D02*
X277079D01*
X279043D02*
X281676D01*
X286627D02*
X289363D01*
X291211D02*
X293845D01*
X298796D02*
X301531D01*
X304171D02*
X315636D01*
X209719Y87308D02*
X212072D01*
X214241D02*
X216605D01*
X221000D02*
X223399D01*
X225752D02*
X228105D01*
X230525D02*
X233215D01*
X235324D02*
X237474D01*
X237820D02*
X240253D01*
X242533D02*
X245130D01*
X253169D02*
X255671D01*
X270674D02*
X272999D01*
X274766D02*
X277079D01*
X279024D02*
X281632D01*
X286665D02*
X289363D01*
X291192D02*
X293800D01*
X298834D02*
X301531D01*
X304207D02*
X315600D01*
X209719Y87402D02*
X212072D01*
X214241D02*
X216605D01*
X221000D02*
X223399D01*
X225752D02*
X228105D01*
X230529D02*
X233213D01*
X235285D02*
X237431D01*
X237867D02*
X240292D01*
X242534D02*
X245126D01*
X253169D02*
X255667D01*
X270702D02*
X273019D01*
X274768D02*
X277079D01*
X279004D02*
X281593D01*
X286700D02*
X289363D01*
X291172D02*
X293761D01*
X298869D02*
X301531D01*
X304241D02*
X315565D01*
X209719Y87496D02*
X212072D01*
X214241D02*
X216605D01*
X221000D02*
X223399D01*
X225752D02*
X228105D01*
X230533D02*
X233209D01*
X235246D02*
X237385D01*
X237912D02*
X240331D01*
X242536D02*
X245122D01*
X253169D02*
X255661D01*
X270721D02*
X273039D01*
X274770D02*
X277079D01*
X278984D02*
X281554D01*
X286736D02*
X289363D01*
X291153D02*
X293722D01*
X298904D02*
X301531D01*
X304276D02*
X315530D01*
X209722Y87589D02*
X212071D01*
X214241D02*
X216605D01*
X221000D02*
X223399D01*
X225755D02*
X228103D01*
X230537D02*
X233206D01*
X235207D02*
X237340D01*
X237953D02*
X240371D01*
X242538D02*
X245119D01*
X253169D02*
X255657D01*
X270740D02*
X273056D01*
X274772D02*
X277079D01*
X278965D02*
X281516D01*
X286764D02*
X289363D01*
X291133D02*
X293685D01*
X298933D02*
X301531D01*
X304310D02*
X315495D01*
X209726Y87683D02*
X212067D01*
X214241D02*
X216605D01*
X221000D02*
X223399D01*
X225759D02*
X228099D01*
X230540D02*
X233202D01*
X235168D02*
X237296D01*
X237994D02*
X240412D01*
X242539D02*
X245115D01*
X253169D02*
X255652D01*
X270009D02*
X273068D01*
X274773D02*
X277078D01*
X278946D02*
X281489D01*
X286791D02*
X289363D01*
X291115D02*
X293657D01*
X298959D02*
X301531D01*
X304346D02*
X315460D01*
X209730Y87777D02*
X212062D01*
X214241D02*
X216605D01*
X221000D02*
X223399D01*
X225763D02*
X228095D01*
X230544D02*
X233199D01*
X235130D02*
X237256D01*
X238036D02*
X240452D01*
X242541D02*
X245111D01*
X253169D02*
X255648D01*
X268767D02*
X273080D01*
X274775D02*
X277076D01*
X278935D02*
X281461D01*
X286817D02*
X289363D01*
X291104D02*
X293630D01*
X298985D02*
X301531D01*
X304382D02*
X315425D01*
X209731Y87870D02*
X212061D01*
X214241D02*
X216605D01*
X221000D02*
X223397D01*
X225763D02*
X228093D01*
X230548D02*
X233196D01*
X235093D02*
X237218D01*
X238078D02*
X240492D01*
X242543D02*
X245107D01*
X253169D02*
X255648D01*
X267602D02*
X273092D01*
X274777D02*
X277074D01*
X278924D02*
X281436D01*
X286838D02*
X289363D01*
X291093D02*
X293604D01*
X299006D02*
X301531D01*
X304419D02*
X315389D01*
X209731Y87964D02*
X212061D01*
X214241D02*
X216606D01*
X221000D02*
X223394D01*
X225763D02*
X228093D01*
X230551D02*
X233193D01*
X235056D02*
X237178D01*
X238117D02*
X240530D01*
X242544D02*
X245103D01*
X253169D02*
X255648D01*
X266582D02*
X273104D01*
X274779D02*
X277072D01*
X278913D02*
X281417D01*
X286857D02*
X289363D01*
X291082D02*
X293585D01*
X299025D02*
X301531D01*
X304455D02*
X315354D01*
X209731Y88058D02*
X212061D01*
X214241D02*
X216611D01*
X221000D02*
X223390D01*
X225763D02*
X228093D01*
X230553D02*
X233189D01*
X235018D02*
X237139D01*
X238157D02*
X240569D01*
X242546D02*
X245099D01*
X253169D02*
X255644D01*
X265524D02*
X273115D01*
X274781D02*
X277070D01*
X278902D02*
X281398D01*
X286875D02*
X289363D01*
X291071D02*
X293567D01*
X299044D02*
X301531D01*
X304489D02*
X315319D01*
X209731Y88152D02*
X212061D01*
X214241D02*
X216617D01*
X221000D02*
X223387D01*
X225763D02*
X228093D01*
X230555D02*
X233186D01*
X234981D02*
X237100D01*
X238197D02*
X240606D01*
X242547D02*
X245095D01*
X253170D02*
X255640D01*
X264766D02*
X273124D01*
X274782D02*
X277069D01*
X278891D02*
X281380D01*
X286889D02*
X289363D01*
X291060D02*
X293549D01*
X299057D02*
X301531D01*
X304523D02*
X315284D01*
X209731Y88245D02*
X212061D01*
X214241D02*
X216617D01*
X221000D02*
X223387D01*
X225763D02*
X228093D01*
X230557D02*
X233182D01*
X234943D02*
X237060D01*
X238237D02*
X240646D01*
X242549D02*
X245091D01*
X253172D02*
X255637D01*
X264241D02*
X273128D01*
X274784D02*
X277067D01*
X278886D02*
X281370D01*
X286900D02*
X289363D01*
X291055D02*
X293538D01*
X299068D02*
X301531D01*
X304557D02*
X315249D01*
X209731Y88339D02*
X212061D01*
X214241D02*
X216617D01*
X221000D02*
X223387D01*
X225763D02*
X228093D01*
X230559D02*
X233179D01*
X234905D02*
X237021D01*
X238276D02*
X240689D01*
X242551D02*
X245087D01*
X253176D02*
X255637D01*
X264057D02*
X273131D01*
X274786D02*
X277067D01*
X278882D02*
X281359D01*
X286910D02*
X289363D01*
X291051D02*
X293527D01*
X299078D02*
X301531D01*
X304591D02*
X315214D01*
X209731Y88433D02*
X212061D01*
X214241D02*
X216617D01*
X221000D02*
X223387D01*
X225763D02*
X228093D01*
X230561D02*
X233176D01*
X234867D02*
X236984D01*
X238316D02*
X240731D01*
X242552D02*
X245083D01*
X253178D02*
X255637D01*
X263926D02*
X273135D01*
X274788D02*
X277067D01*
X278878D02*
X281348D01*
X286919D02*
X289363D01*
X291047D02*
X293517D01*
X299087D02*
X301531D01*
X304628D02*
X315178D01*
X209731Y88526D02*
X212061D01*
X214239D02*
X216617D01*
X221000D02*
X223387D01*
X225763D02*
X228093D01*
X230565D02*
X233172D01*
X234829D02*
X236948D01*
X238356D02*
X240774D01*
X242554D02*
X245081D01*
X253180D02*
X255634D01*
X263827D02*
X273139D01*
X274790D02*
X277067D01*
X278874D02*
X281344D01*
X286922D02*
X289363D01*
X291043D02*
X293512D01*
X299091D02*
X301531D01*
X304664D02*
X315143D01*
X209731Y88620D02*
X212061D01*
X214235D02*
X216617D01*
X221000D02*
X223387D01*
X225763D02*
X228093D01*
X230570D02*
X233169D01*
X234791D02*
X236911D01*
X238395D02*
X240815D01*
X242556D02*
X245078D01*
X253180D02*
X255630D01*
X263759D02*
X273142D01*
X274792D02*
X277067D01*
X278870D02*
X281340D01*
X286926D02*
X289363D01*
X291039D02*
X293509D01*
X299094D02*
X301531D01*
X304701D02*
X315108D01*
X209730Y88714D02*
X212062D01*
X214231D02*
X216617D01*
X221000D02*
X223387D01*
X225762D02*
X228094D01*
X230574D02*
X233167D01*
X234753D02*
X236874D01*
X238435D02*
X240854D01*
X242557D02*
X245076D01*
X253180D02*
X255626D01*
X263702D02*
X273146D01*
X274794D02*
X277067D01*
X278868D02*
X281336D01*
X286929D02*
X289363D01*
X291036D02*
X293505D01*
X299098D02*
X301531D01*
X304738D02*
X315073D01*
X209725Y88807D02*
X212067D01*
X214229D02*
X216617D01*
X221000D02*
X223387D01*
X225757D02*
X228099D01*
X230578D02*
X233165D01*
X234716D02*
X236838D01*
X238475D02*
X240893D01*
X242559D02*
X245074D01*
X253180D02*
X255622D01*
X263656D02*
X273142D01*
X274796D02*
X277067D01*
X278872D02*
X281337D01*
X286926D02*
X289364D01*
X291041D02*
X293506D01*
X299095D02*
X301533D01*
X304773D02*
X315038D01*
X209720Y88901D02*
X212071D01*
X214229D02*
X216617D01*
X221000D02*
X223388D01*
X225753D02*
X228104D01*
X230583D02*
X233163D01*
X234678D02*
X236798D01*
X238514D02*
X240931D01*
X242561D02*
X245072D01*
X253180D02*
X255619D01*
X263626D02*
X273138D01*
X274798D02*
X277067D01*
X278876D02*
X281341D01*
X286922D02*
X289366D01*
X291044D02*
X293510D01*
X299091D02*
X301535D01*
X304807D02*
X315003D01*
X209719Y88995D02*
X212072D01*
X214229D02*
X216622D01*
X221000D02*
X223390D01*
X225752D02*
X228105D01*
X230586D02*
X233161D01*
X234641D02*
X236758D01*
X238554D02*
X240970D01*
X242563D02*
X245068D01*
X253180D02*
X255614D01*
X263605D02*
X273134D01*
X274800D02*
X277067D01*
X278880D02*
X281344D01*
X286919D02*
X289368D01*
X291049D02*
X293513D01*
X299087D02*
X301536D01*
X304841D02*
X314967D01*
X209719Y89089D02*
X212072D01*
X214228D02*
X216628D01*
X221000D02*
X223392D01*
X225752D02*
X228105D01*
X230589D02*
X233160D01*
X234603D02*
X236718D01*
X238594D02*
X241011D01*
X242564D02*
X245063D01*
X253180D02*
X255614D01*
X263586D02*
X273130D01*
X274802D02*
X277067D01*
X278884D02*
X281351D01*
X286911D02*
X289370D01*
X291053D02*
X293519D01*
X299080D02*
X301538D01*
X304874D02*
X314932D01*
X209719Y89182D02*
X212072D01*
X214225D02*
X216628D01*
X221000D02*
X223394D01*
X225752D02*
X228105D01*
X230591D02*
X233158D01*
X234566D02*
X236678D01*
X238633D02*
X241053D01*
X242566D02*
X245058D01*
X253180D02*
X255614D01*
X263579D02*
X273126D01*
X274804D02*
X277067D01*
X278888D02*
X281362D01*
X286900D02*
X289371D01*
X291057D02*
X293530D01*
X299069D02*
X301540D01*
X304909D02*
X308531D01*
X311393D02*
X314897D01*
X209716Y89276D02*
X212079D01*
X214221D02*
X216628D01*
X221000D02*
X223396D01*
X225749D02*
X228111D01*
X230593D02*
X233156D01*
X234528D02*
X236637D01*
X238673D02*
X241095D01*
X242568D02*
X245054D01*
X253180D02*
X255614D01*
X263573D02*
X273119D01*
X274806D02*
X277067D01*
X278897D02*
X281372D01*
X286889D02*
X289373D01*
X291065D02*
X293541D01*
X299058D02*
X301542D01*
X304946D02*
X308026D01*
X311826D02*
X314862D01*
X209713Y89370D02*
X212086D01*
X214218D02*
X216628D01*
X221000D02*
X223398D01*
X225745D02*
X228119D01*
X230596D02*
X233154D01*
X234490D02*
X236599D01*
X238712D02*
X241137D01*
X242570D02*
X245049D01*
X253180D02*
X255614D01*
X263576D02*
X273107D01*
X274807D02*
X277066D01*
X278907D02*
X281385D01*
X286875D02*
X289375D01*
X291076D02*
X293554D01*
X299044D02*
X301544D01*
X304982D02*
X307831D01*
X311983D02*
X314827D01*
X209709Y89463D02*
X212093D01*
X214218D02*
X216628D01*
X221000D02*
X223400D01*
X225741D02*
X228126D01*
X230598D02*
X233152D01*
X234452D02*
X236562D01*
X238751D02*
X241178D01*
X242572D02*
X245046D01*
X253180D02*
X255614D01*
X263581D02*
X268924D01*
X270697D02*
X273094D01*
X274807D02*
X277064D01*
X278918D02*
X281407D01*
X286857D02*
X289377D01*
X291087D02*
X293576D01*
X299025D02*
X301545D01*
X305019D02*
X307740D01*
X312050D02*
X314791D01*
X209706Y89557D02*
X212098D01*
X214218D02*
X216628D01*
X221000D02*
X223404D01*
X225738D02*
X228130D01*
X230601D02*
X233150D01*
X234413D02*
X236524D01*
X238791D02*
X241218D01*
X242574D02*
X245043D01*
X253180D02*
X255614D01*
X263585D02*
X267899D01*
X270766D02*
X273082D01*
X274807D02*
X277062D01*
X278929D02*
X281430D01*
X286838D02*
X289379D01*
X291097D02*
X293598D01*
X299006D02*
X301547D01*
X305055D02*
X307714D01*
X312081D02*
X314756D01*
X209702Y89651D02*
X212101D01*
X214218D02*
X216628D01*
X221000D02*
X223408D01*
X225735D02*
X228133D01*
X230604D02*
X233148D01*
X234375D02*
X236487D01*
X238830D02*
X241259D01*
X242575D02*
X245041D01*
X253180D02*
X255612D01*
X263590D02*
X267161D01*
X270780D02*
X273069D01*
X274807D02*
X277059D01*
X278939D02*
X281453D01*
X286817D02*
X289380D01*
X291108D02*
X293621D01*
X298985D02*
X301549D01*
X305090D02*
X307743D01*
X312072D02*
X314721D01*
X209699Y89744D02*
X212104D01*
X214213D02*
X216628D01*
X221000D02*
X223412D01*
X225731D02*
X228137D01*
X230606D02*
X233146D01*
X234337D02*
X236449D01*
X238869D02*
X241299D01*
X242577D02*
X245038D01*
X253180D02*
X255609D01*
X263594D02*
X266487D01*
X270775D02*
X273057D01*
X274807D02*
X277057D01*
X278953D02*
X281479D01*
X286791D02*
X289382D01*
X291121D02*
X293648D01*
X298959D02*
X301551D01*
X305124D02*
X307775D01*
X312048D02*
X314686D01*
X209694Y89838D02*
X212108D01*
X214209D02*
X216628D01*
X221000D02*
X223416D01*
X225727D02*
X228141D01*
X230608D02*
X233144D01*
X234298D02*
X236412D01*
X238909D02*
X241340D01*
X242579D02*
X245037D01*
X253180D02*
X255606D01*
X263602D02*
X266157D01*
X270771D02*
X273039D01*
X274807D02*
X277056D01*
X278975D02*
X281505D01*
X286764D02*
X289384D01*
X291144D02*
X293674D01*
X298933D02*
X301552D01*
X305159D02*
X307811D01*
X312016D02*
X314651D01*
X209688Y89932D02*
X212115D01*
X214206D02*
X216631D01*
X221000D02*
X223420D01*
X225721D02*
X228147D01*
X230608D02*
X233140D01*
X234259D02*
X236374D01*
X238948D02*
X241380D01*
X242580D02*
X245037D01*
X253180D02*
X255602D01*
X263614D02*
X266076D01*
X270759D02*
X273019D01*
X274807D02*
X277056D01*
X278997D02*
X281531D01*
X286736D02*
X289386D01*
X291166D02*
X293700D01*
X298905D02*
X301554D01*
X305193D02*
X307848D01*
X311985D02*
X314616D01*
X209682Y90026D02*
X212121D01*
X214206D02*
X216639D01*
X221000D02*
X223425D01*
X225715D02*
X228154D01*
X230608D02*
X233135D01*
X234220D02*
X236336D01*
X238987D02*
X241421D01*
X242580D02*
X245037D01*
X253180D02*
X255602D01*
X263625D02*
X266081D01*
X270745D02*
X273000D01*
X274807D02*
X277056D01*
X279020D02*
X281572D01*
X286704D02*
X289390D01*
X291188D02*
X293741D01*
X298872D02*
X301558D01*
X305228D02*
X307883D01*
X311954D02*
X314580D01*
X209676Y90119D02*
X212127D01*
X214207D02*
X216648D01*
X221000D02*
X223431D01*
X225708D02*
X228160D01*
X230608D02*
X233131D01*
X234179D02*
X236298D01*
X239027D02*
X241462D01*
X242580D02*
X245037D01*
X253180D02*
X255602D01*
X263636D02*
X266085D01*
X270728D02*
X272980D01*
X274807D02*
X277056D01*
X279042D02*
X281613D01*
X286671D02*
X289394D01*
X291211D02*
X293782D01*
X298839D02*
X301563D01*
X305264D02*
X307919D01*
X311920D02*
X314545D01*
X209670Y90213D02*
X212133D01*
X214210D02*
X216656D01*
X220997D02*
X223437D01*
X225702D02*
X228166D01*
X230609D02*
X233127D01*
X234138D02*
X236260D01*
X239066D02*
X241503D01*
X242580D02*
X245036D01*
X253180D02*
X255602D01*
X263647D02*
X266098D01*
X270705D02*
X272961D01*
X274807D02*
X277056D01*
X279065D02*
X281655D01*
X286633D02*
X289399D01*
X291233D02*
X293824D01*
X298802D02*
X301567D01*
X305300D02*
X307958D01*
X311885D02*
X314510D01*
X209664Y90307D02*
X212139D01*
X214212D02*
X216665D01*
X220989D02*
X223444D01*
X225696D02*
X228172D01*
X230612D02*
X233123D01*
X234097D02*
X236222D01*
X239106D02*
X241543D01*
X242580D02*
X245033D01*
X253180D02*
X255602D01*
X263663D02*
X266113D01*
X270681D02*
X272937D01*
X274808D02*
X277056D01*
X279094D02*
X281704D01*
X286589D02*
X289403D01*
X291263D02*
X293873D01*
X298757D02*
X301572D01*
X305336D02*
X307992D01*
X311852D02*
X314475D01*
X209658Y90400D02*
X212145D01*
X214215D02*
X216674D01*
X220956D02*
X223450D01*
X225691D02*
X228178D01*
X230615D02*
X233122D01*
X234058D02*
X236185D01*
X239145D02*
X241583D01*
X242580D02*
X245030D01*
X253180D02*
X255602D01*
X263684D02*
X266132D01*
X270649D02*
X272908D01*
X274811D02*
X277056D01*
X279124D02*
X281753D01*
X286544D02*
X289408D01*
X291293D02*
X293922D01*
X298712D02*
X301576D01*
X305372D02*
X308026D01*
X311819D02*
X314440D01*
X209652Y90494D02*
X212151D01*
X214217D02*
X216688D01*
X220909D02*
X223456D01*
X225685D02*
X228183D01*
X230618D02*
X233122D01*
X234020D02*
X236147D01*
X239186D02*
X241623D01*
X242582D02*
X245026D01*
X253180D02*
X255602D01*
X263706D02*
X266154D01*
X270615D02*
X272879D01*
X274813D02*
X277056D01*
X279154D02*
X281806D01*
X286493D02*
X289412D01*
X291322D02*
X293974D01*
X298661D02*
X301581D01*
X305408D02*
X308064D01*
X311787D02*
X314405D01*
X209646Y90588D02*
X212156D01*
X214221D02*
X216702D01*
X220852D02*
X223464D01*
X225679D02*
X228189D01*
X230619D02*
X233122D01*
X233983D02*
X236110D01*
X239226D02*
X241663D01*
X242584D02*
X245026D01*
X253180D02*
X255602D01*
X263728D02*
X266182D01*
X270575D02*
X272850D01*
X274816D02*
X277056D01*
X279183D02*
X281865D01*
X286437D02*
X289417D01*
X291352D02*
X294034D01*
X298606D02*
X301585D01*
X305445D02*
X308099D01*
X311752D02*
X314369D01*
X209641Y90681D02*
X212162D01*
X214226D02*
X216723D01*
X220766D02*
X223472D01*
X225674D02*
X228194D01*
X230619D02*
X233122D01*
X233945D02*
X236072D01*
X239267D02*
X241703D01*
X242586D02*
X245026D01*
X253180D02*
X255599D01*
X263749D02*
X266220D01*
X270531D02*
X272821D01*
X274819D02*
X277056D01*
X279213D02*
X281925D01*
X286381D02*
X289421D01*
X291381D02*
X294094D01*
X298550D02*
X301590D01*
X305481D02*
X308132D01*
X311716D02*
X314334D01*
X209636Y90775D02*
X212167D01*
X214231D02*
X216750D01*
X220680D02*
X223480D01*
X225668D02*
X228200D01*
X230619D02*
X233122D01*
X233906D02*
X236035D01*
X239307D02*
X241743D01*
X242588D02*
X245026D01*
X253178D02*
X255596D01*
X263776D02*
X266261D01*
X270483D02*
X272789D01*
X274819D02*
X277056D01*
X279253D02*
X281993D01*
X286320D02*
X289426D01*
X291422D02*
X294161D01*
X298489D02*
X301594D01*
X305518D02*
X308167D01*
X311680D02*
X314299D01*
X209630Y90869D02*
X212172D01*
X214237D02*
X216780D01*
X220589D02*
X223489D01*
X225663D02*
X228205D01*
X230619D02*
X233120D01*
X233866D02*
X235997D01*
X239348D02*
X241784D01*
X242591D02*
X245026D01*
X253176D02*
X255593D01*
X263806D02*
X266304D01*
X270421D02*
X272749D01*
X274819D02*
X277056D01*
X279293D02*
X282064D01*
X286257D02*
X289430D01*
X291462D02*
X294232D01*
X298426D02*
X301599D01*
X305554D02*
X308203D01*
X311644D02*
X314264D01*
X209625Y90963D02*
X212178D01*
X214243D02*
X216811D01*
X220480D02*
X223497D01*
X225657D02*
X228211D01*
X230619D02*
X233118D01*
X233826D02*
X235960D01*
X239388D02*
X241825D01*
X242592D02*
X245026D01*
X253174D02*
X255591D01*
X263835D02*
X266352D01*
X270359D02*
X272709D01*
X274819D02*
X277056D01*
X279333D02*
X282136D01*
X286190D02*
X289435D01*
X291502D02*
X294304D01*
X298358D02*
X301604D01*
X305591D02*
X308239D01*
X311610D02*
X314229D01*
X209619Y91056D02*
X212187D01*
X214254D02*
X216847D01*
X220357D02*
X223507D01*
X225652D02*
X228219D01*
X230619D02*
X233116D01*
X233787D02*
X235923D01*
X239429D02*
X241867D01*
X242592D02*
X245026D01*
X253172D02*
X255591D01*
X263865D02*
X266417D01*
X270292D02*
X272670D01*
X274819D02*
X277056D01*
X279373D02*
X282216D01*
X286109D02*
X289440D01*
X291541D02*
X294385D01*
X298278D02*
X301608D01*
X305626D02*
X308272D01*
X311576D02*
X314194D01*
X209614Y91150D02*
X212195D01*
X214265D02*
X216887D01*
X220227D02*
X223519D01*
X225646D02*
X228228D01*
X230619D02*
X233113D01*
X233748D02*
X235887D01*
X239469D02*
X241907D01*
X242592D02*
X245026D01*
X253169D02*
X255591D01*
X263894D02*
X266483D01*
X270224D02*
X272630D01*
X274819D02*
X277056D01*
X279413D02*
X282296D01*
X286029D02*
X289444D01*
X291582D02*
X294465D01*
X298198D02*
X301613D01*
X305662D02*
X308305D01*
X311542D02*
X314158D01*
X209609Y91244D02*
X212203D01*
X214276D02*
X216940D01*
X220093D02*
X223532D01*
X225641D02*
X228236D01*
X230619D02*
X233111D01*
X233709D02*
X235850D01*
X239510D02*
X241949D01*
X242592D02*
X245028D01*
X253169D02*
X255591D01*
X263935D02*
X266558D01*
X270145D02*
X272586D01*
X274819D02*
X277056D01*
X279464D02*
X282388D01*
X285939D02*
X289452D01*
X291633D02*
X294556D01*
X298108D02*
X301620D01*
X305698D02*
X308338D01*
X311507D02*
X314123D01*
X209604Y91337D02*
X212211D01*
X214287D02*
X217003D01*
X219951D02*
X223544D01*
X225636D02*
X228244D01*
X230619D02*
X233111D01*
X233671D02*
X235813D01*
X239550D02*
X241990D01*
X242592D02*
X245031D01*
X253169D02*
X255591D01*
X263975D02*
X266638D01*
X270063D02*
X272536D01*
X274819D02*
X277056D01*
X279515D02*
X282492D01*
X285846D02*
X289459D01*
X291683D02*
X294660D01*
X298014D02*
X301628D01*
X305733D02*
X308372D01*
X311473D02*
X314088D01*
X209601Y91431D02*
X212217D01*
X214302D02*
X217081D01*
X219795D02*
X223557D01*
X225633D02*
X228250D01*
X230619D02*
X233111D01*
X233633D02*
X235776D01*
X239591D02*
X242031D01*
X242592D02*
X245035D01*
X253169D02*
X255591D01*
X264015D02*
X266725D01*
X269969D02*
X272485D01*
X274819D02*
X277056D01*
X279565D02*
X282603D01*
X285743D02*
X289467D01*
X291734D02*
X294772D01*
X297911D02*
X301636D01*
X305769D02*
X308406D01*
X311439D02*
X314050D01*
X209598Y91525D02*
X212223D01*
X214317D02*
X217189D01*
X219619D02*
X223569D01*
X225630D02*
X228256D01*
X230619D02*
X233111D01*
X233594D02*
X235740D01*
X239631D02*
X242073D01*
X242592D02*
X245037D01*
X253169D02*
X255591D01*
X264056D02*
X266819D01*
X269870D02*
X272435D01*
X274819D02*
X277056D01*
X279616D02*
X282734D01*
X285624D02*
X289475D01*
X291785D02*
X294903D01*
X297792D02*
X301643D01*
X305804D02*
X308445D01*
X311405D02*
X314014D01*
X209595Y91619D02*
X212229D01*
X214332D02*
X217324D01*
X219442D02*
X223584D01*
X225627D02*
X228261D01*
X230617D02*
X233111D01*
X233550D02*
X235703D01*
X239672D02*
X242115D01*
X242592D02*
X245037D01*
X253169D02*
X255591D01*
X264102D02*
X266920D01*
X269761D02*
X272384D01*
X274819D02*
X277056D01*
X279674D02*
X282877D01*
X285483D02*
X289482D01*
X291842D02*
X295046D01*
X297652D02*
X301651D01*
X305839D02*
X308483D01*
X311370D02*
X313977D01*
X209591Y91712D02*
X212235D01*
X214348D02*
X217507D01*
X219237D02*
X223599D01*
X225624D02*
X228267D01*
X230614D02*
X233111D01*
X233506D02*
X235667D01*
X239712D02*
X242156D01*
X242592D02*
X245037D01*
X253168D02*
X255591D01*
X264154D02*
X267033D01*
X269647D02*
X272328D01*
X274819D02*
X277057D01*
X279737D02*
X283035D01*
X285325D02*
X289490D01*
X291905D02*
X295204D01*
X297494D02*
X301658D01*
X305874D02*
X308520D01*
X311335D02*
X313937D01*
X209585Y91806D02*
X212241D01*
X214368D02*
X217768D01*
X219005D02*
X223615D01*
X225617D02*
X228273D01*
X230611D02*
X233111D01*
X233463D02*
X235630D01*
X239752D02*
X242196D01*
X242592D02*
X245037D01*
X253165D02*
X255591D01*
X264206D02*
X267161D01*
X269496D02*
X272267D01*
X274819D02*
X277061D01*
X279800D02*
X283259D01*
X285122D02*
X289497D01*
X291969D02*
X295428D01*
X297291D02*
X301666D01*
X305909D02*
X308554D01*
X311299D02*
X313901D01*
X209579Y91900D02*
X212247D01*
X214388D02*
X223630D01*
X225611D02*
X228280D01*
X230608D02*
X233111D01*
X233422D02*
X235594D01*
X239793D02*
X242237D01*
X242592D02*
X245037D01*
X253163D02*
X255591D01*
X264259D02*
X267316D01*
X269334D02*
X272206D01*
X274819D02*
X277064D01*
X279863D02*
X283556D01*
X284844D02*
X289505D01*
X292032D02*
X295725D01*
X297013D02*
X301674D01*
X305944D02*
X308587D01*
X311264D02*
X313868D01*
X209572Y91993D02*
X212253D01*
X214408D02*
X223645D01*
X225605D02*
X228285D01*
X230606D02*
X233111D01*
X233382D02*
X235557D01*
X239833D02*
X242277D01*
X242592D02*
X245039D01*
X253161D02*
X255591D01*
X264314D02*
X267517D01*
X269135D02*
X272146D01*
X274819D02*
X277067D01*
X279927D02*
X289513D01*
X292095D02*
X301681D01*
X305979D02*
X308621D01*
X311228D02*
X313831D01*
X209568Y92087D02*
X212258D01*
X214436D02*
X223662D01*
X225600D02*
X228291D01*
X230603D02*
X233111D01*
X233341D02*
X235521D01*
X239873D02*
X242317D01*
X242592D02*
X245041D01*
X253158D02*
X255591D01*
X264377D02*
X267791D01*
X268861D02*
X272085D01*
X274819D02*
X277067D01*
X280004D02*
X289520D01*
X292172D02*
X301689D01*
X306014D02*
X308655D01*
X311191D02*
X313792D01*
X209564Y92181D02*
X212261D01*
X214466D02*
X223682D01*
X225597D02*
X228294D01*
X230601D02*
X233146D01*
X233253D02*
X235485D01*
X239914D02*
X242358D01*
X242592D02*
X245044D01*
X253156D02*
X255591D01*
X264440D02*
X272012D01*
X274817D02*
X277067D01*
X280081D02*
X289528D01*
X292249D02*
X301696D01*
X306050D02*
X308689D01*
X311153D02*
X313752D01*
X209561Y92274D02*
X212265D01*
X214496D02*
X220938D01*
X221066D02*
X223702D01*
X225593D02*
X228298D01*
X230598D02*
X235448D01*
X239954D02*
X242413D01*
X242568D02*
X245046D01*
X253154D02*
X255591D01*
X264504D02*
X271939D01*
X274816D02*
X277067D01*
X280158D02*
X289535D01*
X292326D02*
X301704D01*
X306085D02*
X308722D01*
X311116D02*
X313712D01*
X209557Y92368D02*
X212269D01*
X214533D02*
X220816D01*
X221089D02*
X223721D01*
X225590D02*
X228301D01*
X230596D02*
X235411D01*
X239994D02*
X245049D01*
X253151D02*
X255591D01*
X264568D02*
X271867D01*
X274814D02*
X277067D01*
X280235D02*
X289546D01*
X292404D02*
X301715D01*
X306120D02*
X308759D01*
X311078D02*
X313672D01*
X209554Y92462D02*
X212272D01*
X214573D02*
X220694D01*
X221111D02*
X223741D01*
X225586D02*
X228305D01*
X230593D02*
X235374D01*
X240035D02*
X245054D01*
X253148D02*
X255591D01*
X264646D02*
X271794D01*
X274813D02*
X277070D01*
X280317D02*
X286816D01*
X286976D02*
X289558D01*
X292486D02*
X298985D01*
X299145D02*
X301727D01*
X306156D02*
X308794D01*
X311041D02*
X313633D01*
X209550Y92556D02*
X212276D01*
X214614D02*
X220570D01*
X221133D02*
X223760D01*
X225583D02*
X228308D01*
X230591D02*
X235337D01*
X240075D02*
X245058D01*
X253146D02*
X255591D01*
X264724D02*
X271712D01*
X274811D02*
X277072D01*
X280400D02*
X286715D01*
X286988D02*
X289570D01*
X292569D02*
X298883D01*
X299157D02*
X301739D01*
X306191D02*
X308831D01*
X311006D02*
X313594D01*
X209546Y92649D02*
X212280D01*
X214666D02*
X220447D01*
X221153D02*
X223781D01*
X225579D02*
X228312D01*
X230589D02*
X235300D01*
X240115D02*
X245063D01*
X253143D02*
X255591D01*
X264803D02*
X271624D01*
X274810D02*
X277075D01*
X280490D02*
X286621D01*
X286995D02*
X289581D01*
X292658D02*
X298790D01*
X299163D02*
X301750D01*
X306226D02*
X308866D01*
X310970D02*
X313554D01*
X209543Y92743D02*
X212283D01*
X214720D02*
X220323D01*
X221173D02*
X223802D01*
X225575D02*
X228316D01*
X230587D02*
X235263D01*
X240156D02*
X245068D01*
X253141D02*
X255591D01*
X264886D02*
X271533D01*
X274808D02*
X277078D01*
X280583D02*
X286525D01*
X287001D02*
X289593D01*
X292752D02*
X298693D01*
X299170D02*
X301762D01*
X306262D02*
X308901D01*
X310935D02*
X313517D01*
X209538Y92837D02*
X212287D01*
X214780D02*
X220199D01*
X221193D02*
X223822D01*
X225571D02*
X228320D01*
X230584D02*
X235226D01*
X240196D02*
X245072D01*
X253138D02*
X255591D01*
X257089D02*
X257435D01*
X264983D02*
X271439D01*
X274807D02*
X277081D01*
X280685D02*
X286425D01*
X287008D02*
X289605D01*
X292854D02*
X298594D01*
X299176D02*
X301774D01*
X306297D02*
X308936D01*
X310899D02*
X313479D01*
X209535Y92930D02*
X212291D01*
X214847D02*
X220076D01*
X221210D02*
X223843D01*
X225567D02*
X228324D01*
X230582D02*
X235189D01*
X240238D02*
X245074D01*
X253135D02*
X255594D01*
X256656D02*
X257536D01*
X265080D02*
X271341D01*
X274804D02*
X277086D01*
X280793D02*
X286320D01*
X287014D02*
X289617D01*
X292961D02*
X298489D01*
X299183D02*
X301785D01*
X306333D02*
X308969D01*
X310864D02*
X313441D01*
X209535Y93024D02*
X212296D01*
X214913D02*
X219946D01*
X221226D02*
X223864D01*
X225567D02*
X228328D01*
X230580D02*
X235152D01*
X240280D02*
X245076D01*
X253133D02*
X255604D01*
X256338D02*
X257529D01*
X265177D02*
X271235D01*
X274802D02*
X277091D01*
X280911D02*
X286213D01*
X287021D02*
X289628D01*
X293080D02*
X298382D01*
X299189D02*
X301797D01*
X306369D02*
X309002D01*
X310828D02*
X313404D01*
X209535Y93118D02*
X212300D01*
X214996D02*
X219812D01*
X221242D02*
X223889D01*
X225567D02*
X228333D01*
X230578D02*
X235115D01*
X240322D02*
X245078D01*
X253130D02*
X255634D01*
X255942D02*
X257527D01*
X265283D02*
X271125D01*
X274799D02*
X277096D01*
X281032D02*
X286099D01*
X287027D02*
X289640D01*
X293200D02*
X298268D01*
X299196D02*
X301809D01*
X306404D02*
X309035D01*
X310793D02*
X313367D01*
X209535Y93211D02*
X212303D01*
X215095D02*
X219679D01*
X221257D02*
X223875D01*
X225567D02*
X228335D01*
X230576D02*
X235078D01*
X240363D02*
X245080D01*
X253128D02*
X257515D01*
X265395D02*
X271011D01*
X274796D02*
X277100D01*
X281155D02*
X285978D01*
X287034D02*
X289652D01*
X293323D02*
X298146D01*
X299202D02*
X301820D01*
X306439D02*
X309073D01*
X310757D02*
X313331D01*
X209535Y93305D02*
X212303D01*
X215196D02*
X219534D01*
X221267D02*
X223737D01*
X225567D02*
X228335D01*
X230574D02*
X235041D01*
X240405D02*
X245082D01*
X253125D02*
X257507D01*
X265507D02*
X270884D01*
X274793D02*
X277104D01*
X281287D02*
X285841D01*
X287040D02*
X289664D01*
X293456D02*
X298009D01*
X299209D02*
X301832D01*
X306475D02*
X309112D01*
X310721D02*
X313294D01*
X209537Y93399D02*
X212302D01*
X215333D02*
X219373D01*
X221277D02*
X223140D01*
X225570D02*
X228334D01*
X230572D02*
X235004D01*
X240447D02*
X245086D01*
X253122D02*
X257498D01*
X265631D02*
X270751D01*
X274791D02*
X277106D01*
X281431D02*
X285704D01*
X287047D02*
X289676D01*
X293600D02*
X297873D01*
X299215D02*
X301844D01*
X306512D02*
X309148D01*
X310685D02*
X313253D01*
X209563Y93493D02*
X210524D01*
X211279D02*
X212275D01*
X215471D02*
X219193D01*
X221287D02*
X222570D01*
X225595D02*
X226557D01*
X227311D02*
X228307D01*
X230570D02*
X234967D01*
X240489D02*
X245090D01*
X253117D02*
X257494D01*
X265772D02*
X270602D01*
X274788D02*
X277108D01*
X281609D02*
X285560D01*
X287054D02*
X289697D01*
X293778D02*
X297729D01*
X299223D02*
X301866D01*
X306550D02*
X309180D01*
X310649D02*
X313213D01*
X215651Y93586D02*
X218999D01*
X221300D02*
X221997D01*
X230568D02*
X234931D01*
X240530D02*
X245094D01*
X253111D02*
X257488D01*
X265913D02*
X270450D01*
X274785D02*
X277110D01*
X281779D02*
X285397D01*
X287069D02*
X289691D01*
X293948D02*
X297565D01*
X299237D02*
X301859D01*
X306587D02*
X309213D01*
X310613D02*
X313172D01*
X215853Y93680D02*
X218783D01*
X230566D02*
X234896D01*
X240572D02*
X245098D01*
X253105D02*
X257482D01*
X266092D02*
X270284D01*
X274783D02*
X277113D01*
X281989D02*
X285205D01*
X287086D02*
X289638D01*
X294157D02*
X297373D01*
X299255D02*
X301807D01*
X306624D02*
X309250D01*
X310577D02*
X313132D01*
X216117Y93774D02*
X218502D01*
X230564D02*
X234861D01*
X240614D02*
X245102D01*
X253100D02*
X257482D01*
X266285D02*
X270091D01*
X274780D02*
X277116D01*
X282244D02*
X285000D01*
X287106D02*
X288771D01*
X294413D02*
X297169D01*
X299275D02*
X300939D01*
X306661D02*
X309288D01*
X310541D02*
X313094D01*
X216513Y93867D02*
X218157D01*
X230562D02*
X234826D01*
X240656D02*
X245106D01*
X253096D02*
X257486D01*
X266514D02*
X269862D01*
X274777D02*
X277120D01*
X282549D02*
X284740D01*
X287139D02*
X288164D01*
X294717D02*
X296909D01*
X299307D02*
X300333D01*
X306698D02*
X309324D01*
X310505D02*
X313056D01*
X230559Y93961D02*
X234790D01*
X240697D02*
X245109D01*
X253093D02*
X257497D01*
X266761D02*
X269590D01*
X274775D02*
X277124D01*
X282972D02*
X284372D01*
X287191D02*
X287595D01*
X295141D02*
X296541D01*
X299359D02*
X299763D01*
X306733D02*
X309358D01*
X310469D02*
X313018D01*
X230555Y94055D02*
X234755D01*
X240739D02*
X245113D01*
X253090D02*
X257506D01*
X267109D02*
X269259D01*
X274772D02*
X277129D01*
X306769D02*
X309393D01*
X310433D02*
X312980D01*
X230551Y94148D02*
X234720D01*
X240781D02*
X245117D01*
X253087D02*
X257517D01*
X267663D02*
X268722D01*
X274769D02*
X277133D01*
X306804D02*
X309426D01*
X310396D02*
X312941D01*
X230548Y94242D02*
X234684D01*
X240822D02*
X245120D01*
X253080D02*
X257517D01*
X274767D02*
X277137D01*
X306838D02*
X309459D01*
X310359D02*
X312902D01*
X230544Y94336D02*
X234648D01*
X240863D02*
X245124D01*
X253074D02*
X257529D01*
X274764D02*
X277141D01*
X306873D02*
X309498D01*
X310321D02*
X312864D01*
X230541Y94430D02*
X234613D01*
X240905D02*
X245127D01*
X253068D02*
X257517D01*
X274761D02*
X277145D01*
X306908D02*
X309536D01*
X310283D02*
X312825D01*
X230537Y94523D02*
X234577D01*
X240946D02*
X245132D01*
X253061D02*
X257468D01*
X274758D02*
X277149D01*
X306944D02*
X309568D01*
X310246D02*
X312786D01*
X230533Y94617D02*
X234541D01*
X240988D02*
X245137D01*
X253055D02*
X257315D01*
X274754D02*
X277153D01*
X306980D02*
X309600D01*
X310209D02*
X312747D01*
X230529Y94711D02*
X234506D01*
X241029D02*
X245143D01*
X253048D02*
X257120D01*
X274751D02*
X277157D01*
X307015D02*
X309637D01*
X310171D02*
X312708D01*
X230526Y94804D02*
X234470D01*
X241070D02*
X245148D01*
X253041D02*
X256939D01*
X274747D02*
X277161D01*
X307051D02*
X309674D01*
X310134D02*
X312669D01*
X230522Y94898D02*
X234434D01*
X241112D02*
X245154D01*
X253034D02*
X256784D01*
X274743D02*
X277167D01*
X307087D02*
X309711D01*
X310096D02*
X312631D01*
X210394Y94992D02*
X211409D01*
X226426D02*
X227442D01*
X230518D02*
X234398D01*
X241154D02*
X245159D01*
X253027D02*
X256636D01*
X274739D02*
X277173D01*
X307123D02*
X309743D01*
X310059D02*
X312592D01*
X210102Y95085D02*
X211701D01*
X226135D02*
X227734D01*
X230515D02*
X234362D01*
X241195D02*
X245165D01*
X253020D02*
X256511D01*
X274735D02*
X277179D01*
X307158D02*
X309775D01*
X310022D02*
X312554D01*
X209932Y95179D02*
X211871D01*
X225964D02*
X227904D01*
X230513D02*
X234326D01*
X241236D02*
X245169D01*
X253013D02*
X256386D01*
X274731D02*
X277184D01*
X307193D02*
X309809D01*
X309985D02*
X312515D01*
X209800Y95273D02*
X212004D01*
X225833D02*
X228036D01*
X230511D02*
X234290D01*
X241278D02*
X245173D01*
X253005D02*
X256266D01*
X274728D02*
X277190D01*
X307228D02*
X309846D01*
X309948D02*
X312477D01*
X209725Y95367D02*
X212085D01*
X225757D02*
X228118D01*
X230509D02*
X234254D01*
X241319D02*
X245177D01*
X252997D02*
X256149D01*
X274724D02*
X277196D01*
X307263D02*
X309880D01*
X309911D02*
X312437D01*
X209653Y95460D02*
X212162D01*
X225685D02*
X228194D01*
X230507D02*
X234218D01*
X241361D02*
X245181D01*
X252986D02*
X256032D01*
X274720D02*
X277200D01*
X307298D02*
X312397D01*
X209604Y95554D02*
X212211D01*
X225636D02*
X228243D01*
X230505D02*
X234182D01*
X241402D02*
X245185D01*
X252975D02*
X255942D01*
X274717D02*
X277204D01*
X307333D02*
X312357D01*
X209555Y95648D02*
X212260D01*
X225587D02*
X228293D01*
X230503D02*
X234146D01*
X241444D02*
X245188D01*
X252963D02*
X255857D01*
X274713D02*
X277208D01*
X307368D02*
X312317D01*
X209526Y95741D02*
X212289D01*
X225558D02*
X228321D01*
X230501D02*
X234109D01*
X241486D02*
X245190D01*
X252954D02*
X255776D01*
X274710D02*
X277212D01*
X307403D02*
X312278D01*
X209502Y95835D02*
X212313D01*
X225534D02*
X228346D01*
X230499D02*
X234073D01*
X241528D02*
X245192D01*
X252944D02*
X255684D01*
X274706D02*
X277216D01*
X307438D02*
X312239D01*
X209477Y95929D02*
X212337D01*
X225509D02*
X228370D01*
X230497D02*
X234037D01*
X241569D02*
X245194D01*
X252935D02*
X255597D01*
X274702D02*
X277219D01*
X307473D02*
X312199D01*
X209470Y96022D02*
X212345D01*
X225502D02*
X228378D01*
X230495D02*
X234000D01*
X241611D02*
X245196D01*
X252926D02*
X255511D01*
X274699D02*
X277221D01*
X307509D02*
X312160D01*
X209463Y96116D02*
X212352D01*
X225495D02*
X228385D01*
X230493D02*
X233964D01*
X241652D02*
X245198D01*
X252929D02*
X255425D01*
X274695D02*
X277224D01*
X307545D02*
X312120D01*
X209456Y96210D02*
X212359D01*
X225488D02*
X228392D01*
X230491D02*
X233928D01*
X241694D02*
X245203D01*
X252954D02*
X255348D01*
X274692D02*
X277226D01*
X307582D02*
X312081D01*
X209460Y96304D02*
X212354D01*
X225493D02*
X228387D01*
X230488D02*
X233891D01*
X241736D02*
X245207D01*
X253106D02*
X255262D01*
X274687D02*
X277228D01*
X307619D02*
X312041D01*
X209468Y96397D02*
X212346D01*
X225500D02*
X228379D01*
X230486D02*
X233855D01*
X241778D02*
X245212D01*
X253666D02*
X255168D01*
X274682D02*
X277232D01*
X307655D02*
X312000D01*
X209476Y96491D02*
X212339D01*
X225508D02*
X228371D01*
X230483D02*
X233819D01*
X241819D02*
X245217D01*
X254213D02*
X255074D01*
X274678D02*
X277237D01*
X307692D02*
X311961D01*
X209499Y96585D02*
X212309D01*
X225531D02*
X228341D01*
X230481D02*
X233784D01*
X241861D02*
X245221D01*
X254616D02*
X254977D01*
X274673D02*
X277242D01*
X307729D02*
X311922D01*
X209529Y96678D02*
X212274D01*
X225561D02*
X228307D01*
X230479D02*
X233749D01*
X241902D02*
X245224D01*
X274668D02*
X277247D01*
X307765D02*
X311883D01*
X209564Y96772D02*
X212239D01*
X225597D02*
X228271D01*
X230476D02*
X233713D01*
X241944D02*
X245226D01*
X274664D02*
X277252D01*
X307802D02*
X311844D01*
X209611Y96866D02*
X212192D01*
X225644D02*
X228224D01*
X230474D02*
X233678D01*
X241987D02*
X245229D01*
X274659D02*
X277254D01*
X307838D02*
X311804D01*
X209681Y96959D02*
X212121D01*
X225714D02*
X228154D01*
X230471D02*
X233643D01*
X242030D02*
X245231D01*
X274654D02*
X277257D01*
X307874D02*
X311764D01*
X209755Y97053D02*
X212040D01*
X225787D02*
X228073D01*
X230469D02*
X233607D01*
X242072D02*
X245233D01*
X274650D02*
X277260D01*
X307909D02*
X311724D01*
X209850Y97147D02*
X211950D01*
X225883D02*
X227982D01*
X230466D02*
X233572D01*
X242115D02*
X245233D01*
X274645D02*
X277263D01*
X307945D02*
X311686D01*
X209971Y97241D02*
X211837D01*
X226004D02*
X227869D01*
X230463D02*
X233537D01*
X242157D02*
X245233D01*
X274639D02*
X277264D01*
X307981D02*
X311650D01*
X210100Y97334D02*
X211709D01*
X226132D02*
X227742D01*
X230461D02*
X233502D01*
X242200D02*
X245233D01*
X274633D02*
X277264D01*
X308017D02*
X311613D01*
X210294Y97428D02*
X211503D01*
X226327D02*
X227535D01*
X230458D02*
X233467D01*
X242242D02*
X245233D01*
X274628D02*
X277264D01*
X308053D02*
X311576D01*
X210607Y97522D02*
X211165D01*
X226640D02*
X227197D01*
X230458D02*
X233431D01*
X242285D02*
X245236D01*
X274622D02*
X277264D01*
X308087D02*
X311538D01*
X230458Y97615D02*
X233396D01*
X242327D02*
X245239D01*
X274617D02*
X277265D01*
X308120D02*
X311501D01*
X230458Y97709D02*
X233361D01*
X242370D02*
X245242D01*
X274611D02*
X277269D01*
X308157D02*
X311465D01*
X230458Y97803D02*
X233326D01*
X242412D02*
X245244D01*
X274606D02*
X277272D01*
X308196D02*
X311428D01*
X230458Y97896D02*
X233291D01*
X242455D02*
X245244D01*
X274600D02*
X277275D01*
X308236D02*
X311393D01*
X230458Y97990D02*
X233256D01*
X242497D02*
X245244D01*
X274594D02*
X277275D01*
X308273D02*
X311357D01*
X230458Y98084D02*
X233218D01*
X242540D02*
X245244D01*
X274589D02*
X277275D01*
X308309D02*
X311321D01*
X230464Y98178D02*
X233172D01*
X242581D02*
X245236D01*
X274581D02*
X277275D01*
X308341D02*
X311285D01*
X230504Y98271D02*
X233121D01*
X242627D02*
X245185D01*
X274581D02*
X277267D01*
X308383D02*
X311250D01*
X230680Y98365D02*
X233050D01*
X242685D02*
X244861D01*
X274615D02*
X275469D01*
X276351D02*
X277196D01*
X308422D02*
X311215D01*
X242739Y98459D02*
X243997D01*
X308477D02*
X311172D01*
X308527Y98552D02*
X311130D01*
X308598Y98646D02*
X308994D01*
X310705D02*
X311037D01*
X325090Y67238D02*
X325094Y67226D01*
X325106Y67219*
X325121Y67211*
X325148*
X325182*
X325228Y67215*
X325286*
X325352Y67222*
X325413Y67226*
X325470Y67230*
X325517*
X325555*
X325594*
X325644*
X325705Y67226*
X325774Y67222*
X325840Y67215*
X325901*
X325951Y67211*
X325994*
X326032Y67215*
X326063Y67234*
X326090Y67261*
X326117Y67300*
X326132Y67334*
X326151Y67372*
X326170Y67422*
X326197Y67480*
X326224Y67546*
X326259Y67619*
X326293Y67699*
X326332Y67788*
X326374Y67884*
X326417Y67988*
X326467Y68099*
X326517Y68219*
X326570Y68345*
X326628Y68480*
X326689Y68622*
X326755Y68776*
X326770Y68807*
X326789Y68833*
X326816Y68857*
X326847Y68876*
X326878Y68895*
X326920Y68910*
X326962Y68922*
X327012Y68930*
X327024*
X327047*
X327078Y68933*
X327112*
X327158*
X327208*
X327266*
X327328*
X327443*
X327547*
X327635Y68930*
X327716*
X327781Y68926*
X327835*
X327874Y68922*
X327904Y68918*
X327920Y68914*
X327935Y68903*
X327946Y68887*
X327958Y68868*
X327966Y68845*
X327974Y68814*
X327978Y68780*
Y68741*
Y68676*
Y68603*
X327974Y68522*
X327970Y68433*
Y68337*
X327966Y68234*
X327958Y68122*
X327954Y68007*
X327950Y67888*
X327943Y67776*
X327939Y67672*
X327935Y67576*
Y67492*
X327931Y67411*
Y67338*
Y67272*
X327935Y67242*
X327950Y67219*
X327970Y67203*
X328000Y67200*
X328043*
X328089Y67203*
X328146Y67207*
X328216Y67215*
X328281Y67222*
X328339Y67226*
X328389Y67230*
X328431*
X328466*
X328508*
X328554Y67226*
X328612Y67222*
X328669Y67215*
X328719*
X328762Y67211*
X328796*
X328835Y67215*
X328862Y67230*
X328881Y67257*
X328885Y67292*
Y67396*
X328881Y67511*
Y67638*
X328877Y67780*
X328869Y67930*
X328865Y68095*
X328858Y68272*
X328846Y68461*
X328839Y68653*
X328831Y68830*
X328827Y68991*
X328819Y69145*
X328815Y69283*
Y69414*
X328812Y69530*
Y69633*
Y69914*
X328815Y70194*
X328823Y70487*
X328831Y70779*
X328843Y71075*
X328858Y71379*
X328873Y71686*
X328893Y71998*
X328896Y72056*
Y72071*
X328889Y72086*
X328877Y72098*
X328862Y72106*
X328839Y72113*
X328815Y72121*
X328785Y72124*
X328750*
X328669*
X328577*
X328481Y72128*
X328373*
X328254Y72132*
X328127*
X327989Y72136*
X327843Y72140*
X327700Y72144*
X327562Y72148*
X327435Y72152*
X327320*
X327212Y72156*
X327112*
X327024*
X326943*
X326755Y72152*
X326574Y72132*
X326401Y72106*
X326243Y72063*
X326090Y72009*
X325947Y71948*
X325817Y71871*
X325694Y71782*
X325632Y71732*
X325570Y71675*
X325517Y71617*
X325467Y71556*
X325420Y71494*
X325378Y71429*
X325340Y71359*
X325305Y71286*
X325274Y71213*
X325248Y71137*
X325224Y71056*
X325206Y70975*
X325194Y70891*
X325182Y70802*
X325174Y70710*
Y70617*
X325178Y70491*
X325182Y70371*
X325194Y70260*
X325209Y70152*
X325228Y70056*
X325252Y69964*
X325282Y69879*
X325313Y69798*
X325355Y69722*
X325405Y69645*
X325459Y69568*
X325524Y69491*
X325598Y69418*
X325678Y69345*
X325767Y69272*
X325863Y69199*
X325890Y69176*
X325913Y69156*
X325924Y69133*
X325928Y69110*
Y69103*
X325920Y69087*
X325913Y69064*
X325901Y69033*
X325886Y68999*
X325870Y68957*
X325847Y68910*
X325824Y68853*
X325797Y68791*
X325767Y68726*
X325732Y68649*
X325694Y68568*
X325651Y68480*
X325609Y68387*
X325559Y68287*
X325509Y68180*
X325459Y68072*
X325409Y67972*
X325367Y67876*
X325324Y67788*
X325286Y67707*
X325256Y67634*
X325221Y67565*
X325194Y67503*
X325171Y67446*
X325148Y67396*
X325132Y67353*
X325117Y67319*
X325106Y67288*
X325098Y67265*
X325090Y67250*
Y67238*
X326051Y70421D02*
X326055Y70571D01*
X326074Y70713*
X326101Y70837*
X326143Y70952*
X326193Y71052*
X326255Y71137*
X326332Y71209*
X326417Y71271*
X326489Y71306*
X326578Y71340*
X326678Y71367*
X326793Y71390*
X326924Y71406*
X327066Y71417*
X327220Y71425*
X327389Y71429*
X327458*
X327524*
X327581Y71425*
X327639Y71421*
X327689*
X327735Y71417*
X327781Y71409*
X327820Y71406*
X327850Y71398*
X327881Y71394*
X327908Y71386*
X327928Y71379*
X327943Y71367*
X327958Y71359*
X327966Y71348*
X327970Y71336*
Y71309*
X327974Y71279*
X327978Y71244*
Y71202*
X327981Y71156*
Y71106*
X327985Y71048*
Y70987*
X327989Y70921*
Y70852*
Y70775*
X327993Y70694*
Y70610*
Y70517*
Y70421*
Y70321*
Y69652*
X327978Y69645*
X327946Y69637*
X327912Y69633*
X327862Y69630*
X327808Y69626*
X327739Y69622*
X327570Y69610*
X327393Y69606*
X327208Y69602*
X327020*
X326905Y69606*
X326793Y69614*
X326689Y69630*
X326597Y69652*
X326509Y69683*
X326428Y69718*
X326359Y69760*
X326293Y69806*
X326236Y69860*
X326186Y69922*
X326147Y69991*
X326113Y70064*
X326086Y70141*
X326067Y70229*
X326055Y70321*
X326051Y70421*
X321649Y69095D02*
X321653Y69033D01*
X321664Y68976*
X321680Y68926*
X321707Y68880*
X321737Y68837*
X321776Y68803*
X321822Y68772*
X321872Y68749*
X321899Y68741*
X321941Y68733*
X321995Y68726*
X322064Y68714*
X322149Y68703*
X322249Y68691*
X322360Y68680*
X322491Y68668*
X322633Y68657*
X322791Y68641*
X322964Y68626*
X323148Y68611*
X323348Y68595*
X323564Y68576*
X323794Y68561*
X324041Y68541*
X324025Y68465*
X324002Y68391*
X323971Y68322*
X323933Y68253*
X323887Y68191*
X323833Y68130*
X323771Y68069*
X323702Y68015*
X323629Y67965*
X323560Y67922*
X323483Y67888*
X323410Y67857*
X323333Y67834*
X323256Y67819*
X323179Y67811*
X323098Y67807*
X322960Y67811*
X322826Y67830*
X322695Y67857*
X322568Y67895*
X322441Y67945*
X322318Y68007*
X322199Y68080*
X322083Y68161*
X321972Y68253*
X321949Y68249*
X321933Y68245*
X321930Y68241*
X321922Y68226*
X321910Y68207*
X321895Y68180*
X321880Y68145*
X321857Y68107*
X321830Y68057*
X321803Y68003*
X321772Y67945*
X321749Y67899*
X321726Y67857*
X321711Y67822*
X321695Y67792*
X321687Y67772*
X321680Y67757*
Y67749*
X321683Y67734*
X321695Y67719*
X321711Y67695*
X321737Y67669*
X321803Y67603*
X321868Y67542*
X321941Y67484*
X322010Y67430*
X322087Y67380*
X322164Y67334*
X322241Y67296*
X322326Y67257*
X322406Y67226*
X322495Y67200*
X322583Y67176*
X322672Y67157*
X322768Y67142*
X322860Y67130*
X322960Y67126*
X323060Y67122*
X323256Y67130*
X323444Y67153*
X323621Y67192*
X323791Y67246*
X323948Y67311*
X324094Y67396*
X324229Y67496*
X324356Y67607*
X324471Y67734*
X324567Y67872*
X324652Y68019*
X324717Y68176*
X324771Y68341*
X324809Y68522*
X324832Y68707*
X324840Y68907*
X324832Y69083*
X324809Y69256*
X324775Y69422*
X324725Y69583*
X324659Y69737*
X324579Y69887*
X324486Y70029*
X324379Y70168*
X324317Y70233*
X324252Y70298*
X324187Y70356*
X324121Y70410*
X324052Y70460*
X323979Y70506*
X323910Y70548*
X323833Y70587*
X323760Y70617*
X323683Y70644*
X323602Y70671*
X323521Y70691*
X323441Y70706*
X323356Y70717*
X323268Y70721*
X323183Y70725*
X323022Y70717*
X322864Y70694*
X322718Y70656*
X322576Y70602*
X322441Y70537*
X322314Y70452*
X322195Y70352*
X322080Y70241*
X321980Y70122*
X321891Y69991*
X321818Y69860*
X321757Y69718*
X321711Y69572*
X321676Y69422*
X321657Y69260*
X321649Y69095*
X322483Y69310D02*
X322487Y69383D01*
X322499Y69452*
X322514Y69518*
X322541Y69583*
X322572Y69648*
X322614Y69710*
X322660Y69768*
X322714Y69826*
X322772Y69879*
X322829Y69925*
X322891Y69964*
X322956Y69994*
X323022Y70022*
X323091Y70037*
X323160Y70048*
X323229Y70052*
X323310Y70048*
X323387Y70037*
X323460Y70014*
X323533Y69987*
X323602Y69948*
X323671Y69906*
X323737Y69852*
X323802Y69791*
X323860Y69726*
X323910Y69656*
X323956Y69587*
X323991Y69514*
X324017Y69441*
X324037Y69364*
X324048Y69287*
X324052Y69206*
X324048Y69191*
X324044Y69176*
X324033Y69160*
X324021Y69153*
X324002Y69145*
X323983Y69137*
X323956Y69133*
X323925*
X323794*
X323656Y69141*
X323510Y69149*
X323356Y69160*
X323198Y69176*
X323033Y69191*
X322864Y69214*
X322687Y69241*
X322637Y69245*
X322598Y69252*
X322564Y69264*
X322533Y69272*
X322510Y69280*
X322495Y69291*
X322487Y69299*
X322483Y69310*
X318127Y69537D02*
Y69418D01*
Y69314*
X318131Y69222*
X318135Y69145*
X318139Y69080*
X318143Y69026*
X318150Y68987*
X318158Y68960*
X318166Y68937*
X318177Y68910*
X318193Y68880*
X318212Y68841*
X318235Y68803*
X318262Y68757*
X318293Y68707*
X318327Y68649*
X318366Y68587*
X318404Y68526*
X318450Y68457*
X318500Y68380*
X318550Y68303*
X318608Y68219*
X318665Y68130*
X318727Y68038*
X318792Y67941*
X318854Y67853*
X318911Y67769*
X318965Y67692*
X319019Y67619*
X319065Y67553*
X319111Y67492*
X319154Y67438*
X319188Y67388*
X319223Y67346*
X319254Y67311*
X319284Y67276*
X319307Y67253*
X319331Y67234*
X319346Y67219*
X319361Y67211*
X319377Y67207*
X319400Y67203*
X319427Y67200*
X319461Y67196*
X319500Y67192*
X319546*
X319596*
X319657Y67188*
X319711Y67192*
X319765*
X319811*
X319850Y67196*
X319888Y67200*
X319919Y67203*
X319946Y67207*
X319965Y67211*
X319980Y67219*
X319996Y67230*
X320019Y67250*
X320042Y67272*
X320069Y67303*
X320100Y67338*
X320134Y67376*
X320172Y67426*
X320215Y67476*
X320261Y67534*
X320311Y67599*
X320361Y67669*
X320419Y67745*
X320476Y67826*
X320542Y67911*
X320607Y68003*
X320672Y68095*
X320730Y68180*
X320788Y68261*
X320842Y68337*
X320892Y68411*
X320938Y68480*
X320980Y68541*
X321019Y68599*
X321053Y68653*
X321088Y68703*
X321115Y68749*
X321138Y68791*
X321161Y68826*
X321176Y68857*
X321187Y68883*
X321199Y68907*
X321219Y68964*
X321237Y69033*
X321249Y69106*
X321261Y69187*
X321272Y69280*
X321280Y69376*
X321284Y69480*
Y69591*
Y69630*
Y69672*
Y69718*
X321280Y69772*
Y69829*
Y69887*
X321276Y69952*
Y70022*
X321272Y70094*
Y70160*
Y70218*
X321269Y70275*
Y70325*
Y70375*
Y70417*
Y70456*
X321265Y70491*
X321249Y70514*
X321226Y70529*
X321191Y70533*
X321126*
X321045Y70529*
X320953Y70525*
X320845Y70521*
X320738Y70517*
X320646Y70514*
X320565*
X320499Y70510*
X320472Y70506*
X320453Y70494*
X320442Y70471*
X320438Y70441*
Y70379*
X320442Y70302*
X320446Y70214*
X320449Y70110*
X320457Y70006*
X320461Y69918*
X320465Y69841*
Y69779*
X320461Y69618*
X320457Y69468*
X320446Y69326*
X320430Y69187*
X320422Y69149*
X320400Y69095*
X320372Y69033*
X320334Y68957*
X320284Y68868*
X320222Y68768*
X320154Y68657*
X320072Y68533*
X320034Y68472*
X319992Y68411*
X319957Y68357*
X319923Y68307*
X319888Y68261*
X319857Y68219*
X319826Y68180*
X319800Y68145*
X319776Y68115*
X319754Y68087*
X319730Y68065*
X319711Y68045*
X319696Y68034*
X319680Y68022*
X319665Y68015*
X319654*
X319646*
X319630Y68022*
X319619Y68034*
X319604Y68045*
X319584Y68065*
X319565Y68087*
X319542Y68111*
X319519Y68141*
X319496Y68176*
X319469Y68215*
X319442Y68257*
X319411Y68299*
X319377Y68349*
X319342Y68403*
X319307Y68461*
X319269Y68522*
X319200Y68641*
X319138Y68749*
X319085Y68845*
X319038Y68930*
X319000Y69003*
X318973Y69064*
X318954Y69114*
X318946Y69153*
X318939Y69199*
X318935Y69256*
X318931Y69318*
X318927Y69391*
X318923Y69472*
X318919Y69556*
Y69652*
Y69756*
Y69822*
X318923Y69902*
X318931Y69994*
X318942Y70102*
X318954Y70214*
X318957Y70306*
X318965Y70387*
Y70452*
X318961Y70475*
X318954Y70491*
X318935Y70502*
X318911Y70506*
X318846*
X318769*
X318677Y70510*
X318573Y70517*
X318465Y70521*
X318373Y70525*
X318296Y70529*
X318235*
X318223Y70525*
X318208Y70514*
X318196Y70494*
X318189Y70467*
X318177Y70433*
X318169Y70391*
X318162Y70337*
X318154Y70279*
X318146Y70214*
X318143Y70141*
X318139Y70060*
X318135Y69972*
X318131Y69872*
X318127Y69768*
Y69656*
Y69537*
X316605Y71409D02*
X316612Y71309D01*
X316635Y71221*
X316674Y71148*
X316724Y71087*
X316793Y71040*
X316874Y71006*
X316974Y70987*
X317085Y70979*
X317201Y70987*
X317300Y71006*
X317381Y71040*
X317450Y71087*
X317504Y71148*
X317543Y71221*
X317566Y71309*
X317574Y71409*
X317570Y71456*
X317566Y71502*
X317550Y71544*
X317535Y71586*
X317516Y71625*
X317489Y71659*
X317458Y71694*
X317424Y71729*
X317350Y71782*
X317270Y71817*
X317181Y71840*
X317085Y71848*
X316989Y71840*
X316901Y71817*
X316820Y71778*
X316747Y71725*
X316712Y71694*
X316685Y71659*
X316659Y71625*
X316639Y71586*
X316624Y71544*
X316612Y71502*
X316609Y71456*
X316605Y71409*
X316631Y70460D02*
Y70387D01*
Y70306*
X316635Y70218*
X316639Y70118*
X316643Y70014*
X316651Y69898*
X316655Y69776*
X316662Y69641*
X316670Y69510*
X316678Y69387*
X316685Y69272*
X316689Y69164*
X316693Y69064*
Y68976*
X316697Y68895*
Y68822*
Y68753*
Y68680*
Y68595*
X316693Y68503*
Y68403*
X316689Y68295*
Y68180*
X316685Y68057*
Y67930*
X316681Y67815*
Y67707*
X316678Y67611*
Y67519*
Y67434*
Y67361*
Y67292*
X316681Y67261*
X316693Y67238*
X316712Y67222*
X316739Y67219*
X317424*
X317443Y67222*
X317458Y67226*
X317470Y67238*
X317481Y67253*
X317489Y67276*
X317493Y67300*
X317496Y67330*
Y67361*
Y67426*
Y67499*
Y67576*
Y67665*
X317493Y67761*
Y67861*
X317489Y67972*
X317485Y68091*
X317481Y68207*
Y68318*
X317478Y68422*
Y68518*
X317474Y68603*
Y68683*
Y68757*
Y68822*
Y68895*
X317478Y68976*
Y69064*
X317485Y69164*
X317489Y69272*
X317496Y69387*
X317504Y69510*
X317512Y69645*
X317524Y69776*
X317531Y69898*
X317539Y70018*
X317543Y70122*
X317546Y70221*
X317550Y70310*
X317554Y70391*
Y70464*
X317550Y70491*
X317535Y70510*
X317512Y70521*
X317481Y70525*
X317443*
X317400Y70521*
X317347Y70514*
X317285Y70506*
X317224Y70498*
X317170Y70494*
X317124Y70491*
X317089*
X317051*
X317004Y70494*
X316951Y70498*
X316889Y70506*
X316828Y70514*
X316774Y70521*
X316728Y70525*
X316693*
X316666Y70521*
X316647Y70510*
X316635Y70487*
X316631Y70460*
X314290Y68291D02*
X314298Y68165D01*
X314317Y68041*
X314348Y67930*
X314394Y67819*
X314456Y67719*
X314525Y67622*
X314609Y67534*
X314709Y67453*
X314806Y67384*
X314909Y67326*
X315017Y67276*
X315132Y67238*
X315251Y67203*
X315374Y67184*
X315501Y67169*
X315636Y67165*
X315686*
X315732*
X315770*
X315801Y67169*
X315828*
X315851*
X315867Y67172*
X315874Y67176*
X315901Y67196*
X315920Y67230*
X315932Y67284*
X315936Y67346*
Y67392*
X315939Y67446*
X315947Y67507*
X315955Y67580*
X315963Y67649*
X315970Y67715*
X315974Y67765*
Y67807*
X315970Y67830*
X315959Y67845*
X315939Y67857*
X315909Y67869*
X315886Y67872*
X315855*
X315820*
X315778Y67869*
X315732Y67861*
X315697*
X315678Y67857*
X315674*
X315593*
X315517Y67865*
X315447Y67872*
X315382Y67884*
X315320Y67895*
X315267Y67915*
X315217Y67934*
X315170Y67957*
X315132Y67984*
X315098Y68015*
X315070Y68049*
X315048Y68084*
X315028Y68126*
X315017Y68169*
X315009Y68215*
X315005Y68265*
X315009Y68311*
X315024Y68357*
X315048Y68403*
X315078Y68449*
X315120Y68491*
X315170Y68533*
X315228Y68576*
X315298Y68618*
X315409Y68680*
X315509Y68733*
X315597Y68783*
X315670Y68826*
X315732Y68864*
X315782Y68895*
X315820Y68918*
X315843Y68937*
X315913Y69003*
X315970Y69072*
X316020Y69145*
X316063Y69226*
X316093Y69310*
X316117Y69399*
X316132Y69491*
X316135Y69591*
X316128Y69718*
X316113Y69841*
X316078Y69952*
X316036Y70060*
X315982Y70156*
X315913Y70248*
X315832Y70333*
X315740Y70410*
X315643Y70475*
X315547Y70525*
X315444Y70571*
X315332Y70610*
X315217Y70637*
X315094Y70660*
X314963Y70671*
X314832Y70675*
X314809Y70671*
X314786Y70663*
X314771Y70648*
X314759Y70629*
X314752Y70614*
X314744Y70594*
X314736Y70567*
X314724Y70537*
X314713Y70498*
X314702Y70452*
X314686Y70402*
X314671Y70344*
X314656Y70291*
X314640Y70237*
X314632Y70194*
X314621Y70156*
X314613Y70122*
X314609Y70094*
X314606Y70075*
Y70060*
X314609Y70041*
X314621Y70025*
X314644Y70018*
X314671Y70010*
X315124Y69948*
X315190Y69929*
X315244Y69902*
X315290Y69872*
X315328Y69837*
X315359Y69798*
X315382Y69756*
X315394Y69706*
X315397Y69652*
X315394Y69614*
X315378Y69576*
X315359Y69533*
X315324Y69495*
X315286Y69452*
X315236Y69414*
X315178Y69376*
X315113Y69333*
X315013Y69276*
X314921Y69226*
X314840Y69176*
X314767Y69130*
X314706Y69091*
X314656Y69053*
X314613Y69022*
X314578Y68995*
X314509Y68922*
X314452Y68845*
X314402Y68768*
X314363Y68680*
X314332Y68591*
X314309Y68495*
X314294Y68395*
X314290Y68291*
X312871Y71409D02*
X312879Y71309D01*
X312902Y71221*
X312941Y71148*
X312991Y71087*
X313060Y71040*
X313141Y71006*
X313241Y70987*
X313352Y70979*
X313467Y70987*
X313567Y71006*
X313648Y71040*
X313717Y71087*
X313771Y71148*
X313809Y71221*
X313833Y71309*
X313840Y71409*
X313837Y71456*
X313833Y71502*
X313817Y71544*
X313802Y71586*
X313783Y71625*
X313756Y71659*
X313725Y71694*
X313691Y71729*
X313617Y71782*
X313537Y71817*
X313448Y71840*
X313352Y71848*
X313256Y71840*
X313167Y71817*
X313087Y71778*
X313014Y71725*
X312979Y71694*
X312952Y71659*
X312925Y71625*
X312906Y71586*
X312891Y71544*
X312879Y71502*
X312875Y71456*
X312871Y71409*
X312898Y70460D02*
Y70387D01*
Y70306*
X312902Y70218*
X312906Y70118*
X312910Y70014*
X312918Y69898*
X312921Y69776*
X312929Y69641*
X312937Y69510*
X312944Y69387*
X312952Y69272*
X312956Y69164*
X312960Y69064*
Y68976*
X312964Y68895*
Y68822*
Y68753*
Y68680*
Y68595*
X312960Y68503*
Y68403*
X312956Y68295*
Y68180*
X312952Y68057*
Y67930*
X312948Y67815*
Y67707*
X312944Y67611*
Y67519*
Y67434*
Y67361*
Y67292*
X312948Y67261*
X312960Y67238*
X312979Y67222*
X313006Y67219*
X313691*
X313709Y67222*
X313725Y67226*
X313737Y67238*
X313748Y67253*
X313756Y67276*
X313759Y67300*
X313763Y67330*
Y67361*
Y67426*
Y67499*
Y67576*
Y67665*
X313759Y67761*
Y67861*
X313756Y67972*
X313752Y68091*
X313748Y68207*
Y68318*
X313744Y68422*
Y68518*
X313740Y68603*
Y68683*
Y68757*
Y68822*
Y68895*
X313744Y68976*
Y69064*
X313752Y69164*
X313756Y69272*
X313763Y69387*
X313771Y69510*
X313779Y69645*
X313790Y69776*
X313798Y69898*
X313806Y70018*
X313809Y70122*
X313813Y70221*
X313817Y70310*
X313821Y70391*
Y70464*
X313817Y70491*
X313802Y70510*
X313779Y70521*
X313748Y70525*
X313709*
X313667Y70521*
X313613Y70514*
X313552Y70506*
X313491Y70498*
X313437Y70494*
X313391Y70491*
X313356*
X313317*
X313271Y70494*
X313217Y70498*
X313156Y70506*
X313094Y70514*
X313041Y70521*
X312994Y70525*
X312960*
X312933Y70521*
X312914Y70510*
X312902Y70487*
X312898Y70460*
X309023Y68922D02*
X309031Y68741D01*
X309054Y68568*
X309092Y68399*
X309142Y68241*
X309211Y68087*
X309292Y67941*
X309392Y67799*
X309504Y67669*
X309565Y67603*
X309630Y67542*
X309696Y67484*
X309765Y67434*
X309834Y67384*
X309903Y67342*
X309976Y67300*
X310053Y67265*
X310130Y67234*
X310207Y67207*
X310288Y67184*
X310372Y67165*
X310457Y67150*
X310541Y67138*
X310630Y67134*
X310722Y67130*
X310811Y67134*
X310899Y67138*
X310987Y67150*
X311072Y67165*
X311153Y67184*
X311233Y67203*
X311314Y67234*
X311391Y67265*
X311464Y67300*
X311537Y67338*
X311610Y67384*
X311680Y67430*
X311749Y67484*
X311814Y67538*
X311880Y67599*
X311941Y67665*
X312052Y67795*
X312152Y67934*
X312233Y68080*
X312302Y68234*
X312352Y68395*
X312391Y68561*
X312414Y68733*
X312422Y68914*
X312414Y69095*
X312391Y69268*
X312352Y69433*
X312302Y69595*
X312233Y69744*
X312152Y69891*
X312052Y70033*
X311941Y70164*
X311880Y70229*
X311814Y70287*
X311749Y70341*
X311680Y70394*
X311610Y70441*
X311537Y70483*
X311464Y70525*
X311387Y70560*
X311311Y70591*
X311233Y70617*
X311153Y70641*
X311068Y70656*
X310984Y70671*
X310899Y70683*
X310811Y70687*
X310722Y70691*
X310630Y70687*
X310541Y70683*
X310457Y70671*
X310372Y70656*
X310292Y70641*
X310211Y70617*
X310134Y70591*
X310057Y70560*
X309980Y70525*
X309907Y70483*
X309838Y70441*
X309769Y70394*
X309700Y70341*
X309634Y70287*
X309569Y70229*
X309507Y70164*
X309392Y70033*
X309296Y69894*
X309211Y69748*
X309142Y69595*
X309092Y69437*
X309054Y69272*
X309031Y69099*
X309023Y68922*
X309765Y68914D02*
X309769Y69018D01*
X309780Y69118*
X309803Y69218*
X309830Y69310*
X309869Y69399*
X309911Y69483*
X309965Y69568*
X310026Y69645*
X310099Y69718*
X310172Y69783*
X310253Y69837*
X310338Y69883*
X310426Y69918*
X310519Y69944*
X310619Y69960*
X310722Y69964*
X310822Y69960*
X310922Y69944*
X311015Y69918*
X311103Y69883*
X311187Y69841*
X311268Y69787*
X311345Y69722*
X311418Y69648*
X311480Y69568*
X311533Y69487*
X311576Y69402*
X311614Y69310*
X311641Y69218*
X311664Y69122*
X311676Y69018*
X311680Y68914*
X311676Y68810*
X311664Y68711*
X311641Y68614*
X311614Y68522*
X311576Y68430*
X311530Y68345*
X311476Y68261*
X311414Y68184*
X311341Y68107*
X311264Y68041*
X311183Y67984*
X311099Y67938*
X311011Y67903*
X310918Y67876*
X310822Y67861*
X310722Y67857*
X310619Y67861*
X310522Y67876*
X310426Y67903*
X310338Y67938*
X310253Y67984*
X310176Y68041*
X310099Y68107*
X310026Y68184*
X309965Y68261*
X309911Y68345*
X309869Y68430*
X309830Y68522*
X309803Y68614*
X309780Y68711*
X309769Y68810*
X309765Y68914*
X305432Y67280D02*
X305436Y67246D01*
X305451Y67222*
X305474Y67207*
X305505Y67203*
X305567*
X305647*
X305739Y67207*
X305847*
X305955*
X306051Y67211*
X306128*
X306193*
X306220Y67219*
X306239Y67238*
X306251Y67269*
X306255Y67311*
Y67357*
Y67411*
Y67465*
Y67530*
X306251Y67595*
Y67672*
X306247Y67749*
Y67834*
X306243Y67922*
X306239Y67999*
Y68076*
Y68141*
X306235Y68207*
Y68265*
Y68315*
Y68361*
Y68399*
Y68441*
Y68487*
Y68537*
Y68591*
Y68653*
X306239Y68714*
Y68783*
Y68849*
Y68914*
Y68972*
X306243Y69026*
Y69076*
Y69122*
Y69164*
Y69203*
Y69299*
X306251Y69387*
X306259Y69468*
X306270Y69545*
X306289Y69610*
X306309Y69668*
X306331Y69722*
X306358Y69768*
X306397Y69814*
X306443Y69852*
X306497Y69887*
X306558Y69914*
X306628Y69937*
X306704Y69952*
X306789Y69960*
X306881Y69964*
X306928Y69960*
X306978Y69952*
X307031Y69937*
X307089Y69914*
X307154Y69887*
X307220Y69852*
X307293Y69814*
X307370Y69768*
X307446Y69714*
X307516Y69664*
X307570Y69618*
X307616Y69568*
X307654Y69526*
X307681Y69480*
X307696Y69437*
X307700Y69395*
Y67292*
X307704Y67253*
X307716Y67226*
X307739Y67211*
X307766Y67203*
X307831*
X307908*
X307996Y67207*
X308104*
X308208*
X308300Y67211*
X308377*
X308439*
X308473Y67215*
X308496Y67230*
X308507Y67257*
X308515Y67292*
Y67365*
X308511Y67446*
Y67538*
Y67638*
Y67745*
X308507Y67865*
Y67988*
X308504Y68122*
Y68257*
X308500Y68383*
Y68499*
Y68611*
X308496Y68711*
Y68803*
Y68883*
Y68960*
X308500Y69145*
X308507Y69326*
X308519Y69502*
X308535Y69676*
X308557Y69848*
X308585Y70014*
X308619Y70179*
X308654Y70337*
X308661Y70364*
X308665Y70383*
X308661Y70398*
X308654Y70414*
X308638Y70425*
X308619Y70433*
X308607Y70437*
X308585*
X308550Y70444*
X308507Y70452*
X308450Y70460*
X308385Y70471*
X308308Y70483*
X308219Y70498*
X308131Y70514*
X308054Y70525*
X307985Y70537*
X307931Y70544*
X307889Y70552*
X307854Y70556*
X307835Y70560*
X307823*
X307816Y70556*
X307808Y70544*
X307800Y70529*
X307796Y70502*
X307785Y70394*
X307766Y70283*
X307743Y70175*
X307716Y70064*
X307616Y70141*
X307504Y70225*
X307377Y70321*
X307235Y70421*
X307143Y70475*
X307050Y70521*
X306962Y70560*
X306870Y70591*
X306781Y70617*
X306693Y70633*
X306604Y70644*
X306520Y70648*
X306362Y70641*
X306216Y70625*
X306081Y70594*
X305963Y70552*
X305859Y70498*
X305763Y70433*
X305682Y70356*
X305617Y70264*
X305574Y70191*
X305536Y70102*
X305505Y70006*
X305482Y69898*
X305463Y69779*
X305447Y69648*
X305439Y69506*
X305436Y69356*
Y69295*
X305439Y69218*
Y69126*
X305443Y69022*
Y68918*
X305447Y68826*
Y68749*
Y68683*
Y68622*
Y68553*
Y68476*
Y68391*
X305443Y68299*
Y68203*
Y68095*
X305439Y67984*
Y67869*
X305436Y67765*
Y67665*
Y67572*
Y67492*
X305432Y67415*
Y67342*
Y67280*
X301710Y71367D02*
Y71340D01*
X301714Y71302*
X301722Y71221*
X301733Y71129*
X301741Y71037*
X301748Y70933*
X301756Y70825*
X301764Y70710*
X301768Y70591*
X301776Y70464*
X301780Y70329*
X301783Y70191*
X301787Y70044*
X301791Y69891*
Y69729*
X301795Y69564*
Y69395*
Y69214*
Y69133*
Y69041*
Y68941*
Y68830*
X301791Y68707*
Y68576*
Y68433*
X301787Y68284*
Y68134*
X301783Y67995*
Y67861*
Y67742*
Y67630*
X301780Y67526*
Y67438*
Y67353*
X301783Y67322*
X301787Y67296*
X301798Y67269*
X301810Y67250*
X301826Y67238*
X301845Y67226*
X301868Y67219*
X301895*
X301960Y67215*
X302037*
X302126*
X302229Y67211*
X302329Y67207*
X302418Y67203*
X302494*
X302556*
X302602Y67207*
X302637Y67226*
X302656Y67253*
X302664Y67292*
Y67303*
Y67326*
Y67357*
X302660Y67399*
Y67449*
X302656Y67507*
Y67572*
X302652Y67649*
X302648Y67734*
X302644Y67830*
X302641Y67934*
X302637Y68045*
X302633Y68165*
X302629Y68295*
X302625Y68433*
X302618Y68583*
Y68657*
X302614Y68737*
Y68822*
X302610Y68910*
X302606Y69003*
Y69099*
Y69203*
X302602Y69306*
Y69418*
Y69530*
X302598Y69648*
Y69772*
Y69898*
Y70029*
Y70164*
Y70302*
X302602Y70337*
X302606Y70364*
X302618Y70379*
X302633Y70383*
X302683Y70379*
X302741Y70368*
X302814Y70352*
X302898Y70325*
X302983Y70302*
X303056Y70287*
X303117Y70275*
X303167Y70271*
X303202Y70275*
X303225Y70283*
X303241Y70294*
X303248Y70314*
X303244Y70337*
Y70368*
X303241Y70398*
X303237Y70441*
X303233Y70479*
Y70514*
X303229Y70544*
Y70567*
Y70587*
Y70614*
X303233Y70644*
X303237Y70683*
X303241Y70717*
Y70748*
X303244Y70775*
Y70798*
X303237Y70821*
X303225Y70841*
X303198Y70860*
X303167Y70875*
X303063Y70925*
X302956Y70991*
X302848Y71071*
X302733Y71163*
X302729Y71171*
X302717Y71183*
X302702Y71198*
X302683Y71221*
X302656Y71252*
X302621Y71286*
X302583Y71329*
X302541Y71375*
X302506Y71417*
X302471Y71452*
X302444Y71479*
X302418Y71506*
X302398Y71525*
X302383Y71536*
X302372Y71544*
X302368Y71548*
X302364*
X302348Y71544*
X302329Y71540*
X302294Y71532*
X302256Y71525*
X302202Y71513*
X302144Y71498*
X302076Y71486*
X302014Y71475*
X301941Y71463*
X301856Y71452*
X301760Y71433*
X301737Y71421*
X301722Y71409*
X301714Y71390*
X301710Y71367*
X310424Y67156D02*
X311020D01*
X322672D02*
X323455D01*
X301810Y67249D02*
X302653D01*
X305435D02*
X306244D01*
X307706D02*
X308504D01*
X310093D02*
X311352D01*
X312954D02*
X313745D01*
X315098D02*
X315924D01*
X316687D02*
X317478D01*
X319312D02*
X320019D01*
X322346D02*
X323799D01*
X325090D02*
X326078D01*
X327934D02*
X328875D01*
X301781Y67343D02*
X302664D01*
X305432D02*
X306255D01*
X307700D02*
X308515D01*
X309903D02*
X311546D01*
X312944D02*
X313763D01*
X314879D02*
X315936D01*
X316678D02*
X317496D01*
X319225D02*
X320104D01*
X322149D02*
X324003D01*
X325128D02*
X326137D01*
X327931D02*
X328885D01*
X301780Y67437D02*
X302660D01*
X305433D02*
X306255D01*
X307700D02*
X308512D01*
X309761D02*
X311688D01*
X312944D02*
X313763D01*
X314732D02*
X315939D01*
X316678D02*
X317496D01*
X319154D02*
X320181D01*
X322002D02*
X324149D01*
X325167D02*
X326177D01*
X327932D02*
X328883D01*
X301780Y67530D02*
X302656D01*
X305436D02*
X306255D01*
X307700D02*
X308511D01*
X309643D02*
X311805D01*
X312944D02*
X313763D01*
X314613D02*
X315950D01*
X316678D02*
X317496D01*
X319083D02*
X320258D01*
X321883D02*
X324268D01*
X325206D02*
X326218D01*
X327935D02*
X328881D01*
X301783Y67624D02*
X302653D01*
X305436D02*
X306251D01*
X307700D02*
X308511D01*
X309545D02*
X311903D01*
X312945D02*
X313763D01*
X314525D02*
X315960D01*
X316678D02*
X317496D01*
X319015D02*
X320329D01*
X321782D02*
X324371D01*
X325250D02*
X326261D01*
X327937D02*
X328881D01*
X301783Y67718D02*
X302649D01*
X305436D02*
X306248D01*
X307700D02*
X308511D01*
X309461D02*
X311986D01*
X312948D02*
X313761D01*
X314456D02*
X315971D01*
X316681D02*
X317494D01*
X318947D02*
X320398D01*
X321695D02*
X324456D01*
X325291D02*
X326301D01*
X327941D02*
X328879D01*
X301783Y67811D02*
X302645D01*
X305437D02*
X306247D01*
X307700D02*
X308509D01*
X309383D02*
X312064D01*
X312948D02*
X313759D01*
X314398D02*
X315973D01*
X316681D02*
X317493D01*
X318882D02*
X320466D01*
X321705D02*
X322954D01*
X323179D02*
X324525D01*
X325336D02*
X326342D01*
X327945D02*
X328876D01*
X301783Y67905D02*
X302642D01*
X305439D02*
X306244D01*
X307700D02*
X308507D01*
X309318D02*
X310421D01*
X311016D02*
X312131D01*
X312952D02*
X313758D01*
X314358D02*
X315293D01*
X316685D02*
X317491D01*
X318817D02*
X320537D01*
X321752D02*
X322543D01*
X323521D02*
X324586D01*
X325380D02*
X326383D01*
X327951D02*
X328870D01*
X301783Y67999D02*
X302638D01*
X305440D02*
X306239D01*
X307700D02*
X308507D01*
X309260D02*
X310233D01*
X311204D02*
X312188D01*
X312952D02*
X313755D01*
X314329D02*
X315115D01*
X316685D02*
X317488D01*
X318753D02*
X320604D01*
X321800D02*
X322334D01*
X323679D02*
X324640D01*
X325422D02*
X326422D01*
X327954D02*
X328868D01*
X301786Y68093D02*
X302635D01*
X305443D02*
X306239D01*
X307700D02*
X308505D01*
X309209D02*
X310116D01*
X311324D02*
X312239D01*
X312954D02*
X313752D01*
X314309D02*
X315044D01*
X316687D02*
X317485D01*
X318690D02*
X319560D01*
X319758D02*
X320670D01*
X321849D02*
X322181D01*
X323795D02*
X324682D01*
X325469D02*
X326463D01*
X327957D02*
X328865D01*
X301787Y68186D02*
X302632D01*
X305443D02*
X306237D01*
X307700D02*
X308504D01*
X309167D02*
X310024D01*
X311416D02*
X312281D01*
X312956D02*
X313749D01*
X314296D02*
X315014D01*
X316689D02*
X317482D01*
X318629D02*
X319489D01*
X319831D02*
X320734D01*
X321898D02*
X322052D01*
X323882D02*
X324720D01*
X325512D02*
X326503D01*
X327963D02*
X328861D01*
X301787Y68280D02*
X302630D01*
X305443D02*
X306235D01*
X307700D02*
X308503D01*
X309130D02*
X309953D01*
X311488D02*
X312317D01*
X312956D02*
X313748D01*
X314291D02*
X315006D01*
X316689D02*
X317481D01*
X318566D02*
X319425D01*
X319903D02*
X320801D01*
X323948D02*
X324751D01*
X325556D02*
X326543D01*
X327967D02*
X328857D01*
X301789Y68374D02*
X302627D01*
X305446D02*
X306235D01*
X307700D02*
X308500D01*
X309100D02*
X309897D01*
X311545D02*
X312346D01*
X312959D02*
X313746D01*
X314293D02*
X315033D01*
X316692D02*
X317479D01*
X318504D02*
X319361D01*
X319968D02*
X320867D01*
X323994D02*
X324778D01*
X325602D02*
X326582D01*
X327970D02*
X328852D01*
X301791Y68467D02*
X302624D01*
X305447D02*
X306235D01*
X307700D02*
X308500D01*
X309076D02*
X309853D01*
X311591D02*
X312369D01*
X312960D02*
X313744D01*
X314305D02*
X315097D01*
X316693D02*
X317478D01*
X318443D02*
X319303D01*
X320031D02*
X320930D01*
X324026D02*
X324798D01*
X325645D02*
X326622D01*
X327971D02*
X328846D01*
X301791Y68561D02*
X302619D01*
X305447D02*
X306235D01*
X307700D02*
X308500D01*
X309055D02*
X309819D01*
X311626D02*
X312391D01*
X312962D02*
X313742D01*
X314325D02*
X315208D01*
X316695D02*
X317476D01*
X318382D02*
X319246D01*
X320091D02*
X320993D01*
X323794D02*
X324814D01*
X325690D02*
X326663D01*
X327976D02*
X328843D01*
X301791Y68655D02*
X302618D01*
X305447D02*
X306235D01*
X307700D02*
X308498D01*
X309042D02*
X309794D01*
X311651D02*
X312404D01*
X312964D02*
X313740D01*
X314354D02*
X315364D01*
X316697D02*
X317474D01*
X318324D02*
X319192D01*
X320152D02*
X321054D01*
X322653D02*
X324826D01*
X325735D02*
X326703D01*
X327978D02*
X328839D01*
X301792Y68748D02*
X302614D01*
X305447D02*
X306239D01*
X307700D02*
X308496D01*
X309030D02*
X309776D01*
X311669D02*
X312415D01*
X312964D02*
X313740D01*
X314393D02*
X315535D01*
X316697D02*
X317474D01*
X318267D02*
X319139D01*
X320210D02*
X321114D01*
X321872D02*
X324834D01*
X325777D02*
X326743D01*
X327978D02*
X328835D01*
X301795Y68842D02*
X302613D01*
X305446D02*
X306239D01*
X307700D02*
X308496D01*
X309026D02*
X309768D01*
X311677D02*
X312419D01*
X312964D02*
X313740D01*
X314450D02*
X315697D01*
X316697D02*
X317474D01*
X318212D02*
X319086D01*
X320268D02*
X321169D01*
X321734D02*
X324838D01*
X325820D02*
X326799D01*
X327967D02*
X328831D01*
X301795Y68936D02*
X302609D01*
X305443D02*
X306239D01*
X307700D02*
X308496D01*
X309024D02*
X309766D01*
X311679D02*
X312421D01*
X312962D02*
X313742D01*
X314522D02*
X315842D01*
X316695D02*
X317476D01*
X318166D02*
X319035D01*
X320322D02*
X321209D01*
X321676D02*
X324839D01*
X325860D02*
X328828D01*
X301795Y69030D02*
X302606D01*
X305443D02*
X306243D01*
X307700D02*
X308498D01*
X309028D02*
X309770D01*
X311674D02*
X312417D01*
X312960D02*
X313744D01*
X314623D02*
X315935D01*
X316693D02*
X317478D01*
X318142D02*
X318988D01*
X320370D02*
X321236D01*
X321654D02*
X324835D01*
X325900D02*
X328825D01*
X301795Y69123D02*
X302606D01*
X305439D02*
X306243D01*
X307700D02*
X308500D01*
X309034D02*
X309781D01*
X311664D02*
X312410D01*
X312957D02*
X313749D01*
X314757D02*
X316006D01*
X316691D02*
X317482D01*
X318136D02*
X318952D01*
X320411D02*
X321252D01*
X321650D02*
X324827D01*
X325926D02*
X328820D01*
X301795Y69217D02*
X302606D01*
X305439D02*
X306243D01*
X307700D02*
X308503D01*
X309046D02*
X309803D01*
X311641D02*
X312398D01*
X312954D02*
X313754D01*
X314907D02*
X316058D01*
X316687D02*
X317487D01*
X318131D02*
X318937D01*
X320433D02*
X321264D01*
X321655D02*
X322846D01*
X324052D02*
X324815D01*
X325839D02*
X328817D01*
X301795Y69311D02*
X302602D01*
X305436D02*
X306244D01*
X307700D02*
X308507D01*
X309063D02*
X309830D01*
X311614D02*
X312381D01*
X312950D02*
X313758D01*
X315074D02*
X316093D01*
X316683D02*
X317491D01*
X318127D02*
X318931D01*
X320444D02*
X321274D01*
X321663D02*
X322483D01*
X324044D02*
X324798D01*
X325720D02*
X328815D01*
X301795Y69404D02*
X302602D01*
X305437D02*
X306252D01*
X307700D02*
X308513D01*
X309085D02*
X309871D01*
X311575D02*
X312359D01*
X312943D02*
X313765D01*
X315221D02*
X316117D01*
X316676D02*
X317498D01*
X318127D02*
X318926D01*
X320452D02*
X321281D01*
X321674D02*
X322491D01*
X324026D02*
X324778D01*
X325613D02*
X328815D01*
X301795Y69498D02*
X302602D01*
X305439D02*
X306263D01*
X307670D02*
X308519D01*
X309111D02*
X309920D01*
X311526D02*
X312332D01*
X312937D02*
X313770D01*
X315327D02*
X316132D01*
X316671D02*
X317504D01*
X318127D02*
X318922D01*
X320458D02*
X321284D01*
X321694D02*
X322509D01*
X323996D02*
X324751D01*
X325519D02*
X328813D01*
X301794Y69592D02*
X302600D01*
X305444D02*
X306284D01*
X307594D02*
X308527D01*
X309141D02*
X309984D01*
X311461D02*
X312303D01*
X312932D02*
X313776D01*
X315385D02*
X316135D01*
X316665D02*
X317509D01*
X318127D02*
X318919D01*
X320460D02*
X321284D01*
X321717D02*
X322545D01*
X323953D02*
X324721D01*
X325442D02*
X328812D01*
X301792Y69685D02*
X302598D01*
X305452D02*
X306316D01*
X307486D02*
X308536D01*
X309183D02*
X310067D01*
X311381D02*
X312260D01*
X312926D02*
X313782D01*
X315395D02*
X316130D01*
X316660D02*
X317516D01*
X318127D02*
X318919D01*
X320463D02*
X321284D01*
X321746D02*
X322597D01*
X323889D02*
X324681D01*
X325379D02*
X326503D01*
X327993D02*
X328812D01*
X301791Y69779D02*
X302598D01*
X305463D02*
X306368D01*
X307351D02*
X308548D01*
X309229D02*
X310168D01*
X311277D02*
X312214D01*
X312921D02*
X313791D01*
X315370D02*
X316120D01*
X316655D02*
X317524D01*
X318128D02*
X318919D01*
X320465D02*
X321280D01*
X321783D02*
X322671D01*
X323813D02*
X324637D01*
X325324D02*
X326332D01*
X327993D02*
X328812D01*
X301791Y69873D02*
X302598D01*
X305478D02*
X306475D01*
X307181D02*
X308561D01*
X309283D02*
X310319D01*
X311123D02*
X312162D01*
X312919D02*
X313796D01*
X315290D02*
X316103D01*
X316652D02*
X317530D01*
X318131D02*
X318922D01*
X320463D02*
X321280D01*
X321825D02*
X322765D01*
X323712D02*
X324586D01*
X325285D02*
X326225D01*
X327993D02*
X328812D01*
X301789Y69967D02*
X302598D01*
X305496D02*
X308577D01*
X309346D02*
X312099D01*
X312913D02*
X313802D01*
X314991D02*
X316072D01*
X316646D02*
X317535D01*
X318135D02*
X318928D01*
X320459D02*
X321276D01*
X321878D02*
X322897D01*
X323570D02*
X324527D01*
X325251D02*
X326161D01*
X327993D02*
X328813D01*
X301787Y70060D02*
X302598D01*
X305522D02*
X308594D01*
X309416D02*
X312029D01*
X312908D02*
X313807D01*
X314606D02*
X316035D01*
X316642D02*
X317541D01*
X318139D02*
X318938D01*
X320453D02*
X321274D01*
X321938D02*
X324462D01*
X325228D02*
X326114D01*
X327993D02*
X328814D01*
X301784Y70154D02*
X302598D01*
X305558D02*
X307598D01*
X307737D02*
X308614D01*
X309499D02*
X311949D01*
X312905D02*
X313811D01*
X314620D02*
X315983D01*
X316638D02*
X317544D01*
X318143D02*
X318948D01*
X320448D02*
X321272D01*
X322007D02*
X324389D01*
X325209D02*
X326083D01*
X327993D02*
X328815D01*
X301781Y70248D02*
X302598D01*
X305607D02*
X307475D01*
X307758D02*
X308634D01*
X309590D02*
X311859D01*
X312901D02*
X313815D01*
X314643D02*
X315913D01*
X316634D02*
X317548D01*
X318150D02*
X318955D01*
X320444D02*
X321270D01*
X322087D02*
X324303D01*
X325195D02*
X326064D01*
X327993D02*
X328817D01*
X301779Y70341D02*
X302603D01*
X302847D02*
X303244D01*
X305672D02*
X307349D01*
X307776D02*
X308655D01*
X309700D02*
X311748D01*
X312898D02*
X313819D01*
X314670D02*
X315822D01*
X316631D02*
X317552D01*
X318163D02*
X318961D01*
X320440D02*
X321269D01*
X322184D02*
X324203D01*
X325185D02*
X326054D01*
X327993D02*
X328819D01*
X301776Y70435D02*
X303237D01*
X305765D02*
X307211D01*
X307789D02*
X308592D01*
X309830D02*
X311619D01*
X312898D02*
X313821D01*
X314696D02*
X315703D01*
X316631D02*
X317554D01*
X318178D02*
X318965D01*
X320438D02*
X321269D01*
X322294D02*
X324086D01*
X325180D02*
X326052D01*
X327993D02*
X328822D01*
X301772Y70529D02*
X303231D01*
X305917D02*
X307033D01*
X307800D02*
X308032D01*
X309988D02*
X311456D01*
X314722D02*
X315539D01*
X321045D02*
X321230D01*
X322429D02*
X323941D01*
X325177D02*
X326054D01*
X327993D02*
X328824D01*
X301767Y70622D02*
X303230D01*
X306204D02*
X306752D01*
X310229D02*
X311216D01*
X314756D02*
X315278D01*
X322630D02*
X323745D01*
X325174D02*
X326062D01*
X327993D02*
X328827D01*
X301764Y70716D02*
X303241D01*
X323022D02*
X323382D01*
X325175D02*
X326075D01*
X327992D02*
X328830D01*
X301757Y70810D02*
X303240D01*
X325183D02*
X326095D01*
X327989D02*
X328832D01*
X301750Y70904D02*
X303108D01*
X325196D02*
X326126D01*
X327989D02*
X328836D01*
X301744Y70997D02*
X302947D01*
X313185D02*
X313522D01*
X316919D02*
X317256D01*
X325211D02*
X326166D01*
X327985D02*
X328839D01*
X301736Y71091D02*
X302823D01*
X312987D02*
X313721D01*
X316720D02*
X317454D01*
X325235D02*
X326222D01*
X327982D02*
X328843D01*
X301726Y71185D02*
X302715D01*
X312921D02*
X313791D01*
X316655D02*
X317524D01*
X325265D02*
X326306D01*
X327979D02*
X328848D01*
X301717Y71278D02*
X302629D01*
X312887D02*
X313824D01*
X316620D02*
X317558D01*
X325302D02*
X326432D01*
X327974D02*
X328853D01*
X301711Y71372D02*
X302543D01*
X312874D02*
X313837D01*
X316607D02*
X317571D01*
X325347D02*
X326702D01*
X327937D02*
X328857D01*
X301956Y71466D02*
X302457D01*
X312876D02*
X313836D01*
X316609D02*
X317569D01*
X325402D02*
X328862D01*
X312896Y71559D02*
X313812D01*
X316630D02*
X317545D01*
X325470D02*
X328867D01*
X312947Y71653D02*
X313761D01*
X316681D02*
X317494D01*
X325550D02*
X328872D01*
X313044Y71747D02*
X313666D01*
X316777D02*
X317399D01*
X325650D02*
X328877D01*
X313256Y71841D02*
X313443D01*
X316989D02*
X317176D01*
X325774D02*
X328883D01*
X325924Y71934D02*
X328889D01*
X326144Y72028D02*
X328894D01*
X326506Y72122D02*
X328809D01*
X0Y0D02*
M02*
