G04 EasyPC Gerber Version 20.0.2 Build 4112 *
G04 #@! TF.Part,Single*
%FSLAX35Y35*%
%MOIN*%
%ADD12C,0.00500*%
G04 #@! TA.AperFunction,WasherPad*
%ADD76C,0.10000*%
X0Y0D02*
D02*
D12*
X38100Y34037D02*
X39663Y37787D01*
X41225Y34037*
X38725Y35600D02*
X40600D01*
X38100Y619037D02*
X39663Y622787D01*
X41225Y619037*
X38725Y620600D02*
X40600D01*
X57669Y617903D02*
X58607D01*
Y617591*
X58294Y616966*
X57982Y616653*
X57357Y616341*
X56732*
X56107Y616653*
X55794Y616966*
X55482Y617591*
Y618841*
X55794Y619466*
X56107Y619778*
X56732Y620091*
X57357*
X57982Y619778*
X58294Y619466*
X58607Y618841*
X61606Y96250D02*
X62544D01*
Y95937*
X62231Y95312*
X61919Y95000*
X61294Y94687*
X60669*
X60044Y95000*
X59731Y95312*
X59419Y95937*
Y97187*
X59731Y97812*
X60044Y98125*
X60669Y98437*
X61294*
X61919Y98125*
X62231Y97812*
X62544Y97187*
X61606Y613966D02*
X62544D01*
Y613654*
X62231Y613029*
X61919Y612716*
X61294Y612404*
X60669*
X60044Y612716*
X59731Y613029*
X59419Y613654*
Y614904*
X59731Y615529*
X60044Y615841*
X60669Y616154*
X61294*
X61919Y615841*
X62231Y615529*
X62544Y614904*
X73417Y158100D02*
X74355D01*
Y157787*
X74043Y157163*
X73730Y156850*
X73105Y156537*
X72480*
X71855Y156850*
X71543Y157163*
X71230Y157787*
Y159037*
X71543Y159663*
X71855Y159975*
X72480Y160287*
X73105*
X73730Y159975*
X74043Y159663*
X74355Y159037*
X73417Y411210D02*
X74355D01*
Y410898*
X74043Y410273*
X73730Y409960*
X73105Y409648*
X72480*
X71855Y409960*
X71543Y410273*
X71230Y410898*
Y412148*
X71543Y412773*
X71855Y413085*
X72480Y413398*
X73105*
X73730Y413085*
X74043Y412773*
X74355Y412148*
X73417Y423100D02*
X74355D01*
Y422787*
X74043Y422163*
X73730Y421850*
X73105Y421537*
X72480*
X71855Y421850*
X71543Y422163*
X71230Y422787*
Y424037*
X71543Y424663*
X71855Y424975*
X72480Y425287*
X73105*
X73730Y424975*
X74043Y424663*
X74355Y424037*
X73417Y470265D02*
X74355D01*
Y469953*
X74043Y469328*
X73730Y469015*
X73105Y468703*
X72480*
X71855Y469015*
X71543Y469328*
X71230Y469953*
Y471203*
X71543Y471828*
X71855Y472141*
X72480Y472453*
X73105*
X73730Y472141*
X74043Y471828*
X74355Y471203*
X73417Y476171D02*
X74355D01*
Y475858*
X74043Y475233*
X73730Y474921*
X73105Y474608*
X72480*
X71855Y474921*
X71543Y475233*
X71230Y475858*
Y477108*
X71543Y477733*
X71855Y478046*
X72480Y478358*
X73105*
X73730Y478046*
X74043Y477733*
X74355Y477108*
X73417Y580502D02*
X74355D01*
Y580189*
X74043Y579564*
X73730Y579252*
X73105Y578939*
X72480*
X71855Y579252*
X71543Y579564*
X71230Y580189*
Y581439*
X71543Y582064*
X71855Y582377*
X72480Y582689*
X73105*
X73730Y582377*
X74043Y582064*
X74355Y581439*
X73417Y586407D02*
X74355D01*
Y586094*
X74043Y585470*
X73730Y585157*
X73105Y584844*
X72480*
X71855Y585157*
X71543Y585470*
X71230Y586094*
Y587344*
X71543Y587970*
X71855Y588282*
X72480Y588594*
X73105*
X73730Y588282*
X74043Y587970*
X74355Y587344*
X81291Y198100D02*
X82229D01*
Y197787*
X81917Y197163*
X81604Y196850*
X80979Y196537*
X80354*
X79729Y196850*
X79417Y197163*
X79104Y197787*
Y199037*
X79417Y199663*
X79729Y199975*
X80354Y200287*
X80979*
X81604Y199975*
X81917Y199663*
X82229Y199037*
X81291Y306880D02*
X82229D01*
Y306567*
X81917Y305942*
X81604Y305630*
X80979Y305317*
X80354*
X79729Y305630*
X79417Y305942*
X79104Y306567*
Y307817*
X79417Y308442*
X79729Y308755*
X80354Y309067*
X80979*
X81604Y308755*
X81917Y308442*
X82229Y307817*
X85228Y332470D02*
X86166D01*
Y332157*
X85854Y331533*
X85541Y331220*
X84916Y330907*
X84291*
X83666Y331220*
X83354Y331533*
X83041Y332157*
Y333407*
X83354Y334033*
X83666Y334345*
X84291Y334657*
X84916*
X85541Y334345*
X85854Y334033*
X86166Y333407*
X85228Y513572D02*
X86166D01*
Y513260*
X85854Y512635*
X85541Y512322*
X84916Y512010*
X84291*
X83666Y512322*
X83354Y512635*
X83041Y513260*
Y514510*
X83354Y515135*
X83666Y515448*
X84291Y515760*
X84916*
X85541Y515448*
X85854Y515135*
X86166Y514510*
X89165Y153336D02*
X90103D01*
Y153024*
X89791Y152399*
X89478Y152086*
X88853Y151774*
X88228*
X87603Y152086*
X87291Y152399*
X86978Y153024*
Y154274*
X87291Y154899*
X87603Y155211*
X88228Y155524*
X88853*
X89478Y155211*
X89791Y154899*
X90103Y154274*
X89165Y178927D02*
X90103D01*
Y178614*
X89791Y177989*
X89478Y177677*
X88853Y177364*
X88228*
X87603Y177677*
X87291Y177989*
X86978Y178614*
Y179864*
X87291Y180489*
X87603Y180802*
X88228Y181114*
X88853*
X89478Y180802*
X89791Y180489*
X90103Y179864*
X89165Y393100D02*
X90103D01*
Y392787*
X89791Y392163*
X89478Y391850*
X88853Y391537*
X88228*
X87603Y391850*
X87291Y392163*
X86978Y392787*
Y394037*
X87291Y394663*
X87603Y394975*
X88228Y395287*
X88853*
X89478Y394975*
X89791Y394663*
X90103Y394037*
X89165Y411210D02*
X90103D01*
Y410898*
X89791Y410273*
X89478Y409960*
X88853Y409648*
X88228*
X87603Y409960*
X87291Y410273*
X86978Y410898*
Y412148*
X87291Y412773*
X87603Y413085*
X88228Y413398*
X88853*
X89478Y413085*
X89791Y412773*
X90103Y412148*
X93102Y184832D02*
X94040D01*
Y184520*
X93728Y183895*
X93415Y183582*
X92790Y183270*
X92165*
X91540Y183582*
X91228Y183895*
X90915Y184520*
Y185770*
X91228Y186395*
X91540Y186707*
X92165Y187020*
X92790*
X93415Y186707*
X93728Y186395*
X94040Y185770*
X93102Y367903D02*
X94040D01*
Y367591*
X93728Y366966*
X93415Y366653*
X92790Y366341*
X92165*
X91540Y366653*
X91228Y366966*
X90915Y367591*
Y368841*
X91228Y369466*
X91540Y369778*
X92165Y370091*
X92790*
X93415Y369778*
X93728Y369466*
X94040Y368841*
X93102Y387588D02*
X94040D01*
Y387276*
X93728Y386651*
X93415Y386338*
X92790Y386026*
X92165*
X91540Y386338*
X91228Y386651*
X90915Y387276*
Y388526*
X91228Y389151*
X91540Y389463*
X92165Y389776*
X92790*
X93415Y389463*
X93728Y389151*
X94040Y388526*
X93102Y407273D02*
X94040D01*
Y406961*
X93728Y406336*
X93415Y406023*
X92790Y405711*
X92165*
X91540Y406023*
X91228Y406336*
X90915Y406961*
Y408211*
X91228Y408836*
X91540Y409148*
X92165Y409461*
X92790*
X93415Y409148*
X93728Y408836*
X94040Y408211*
X93102Y509635D02*
X94040D01*
Y509323*
X93728Y508698*
X93415Y508385*
X92790Y508073*
X92165*
X91540Y508385*
X91228Y508698*
X90915Y509323*
Y510573*
X91228Y511198*
X91540Y511511*
X92165Y511823*
X92790*
X93415Y511511*
X93728Y511198*
X94040Y510573*
X100287Y128413D02*
X100913Y128100D01*
X101225Y127475*
X100913Y126850*
X100287Y126537*
X98100*
Y130287*
X100287*
X100913Y129975*
X101225Y129350*
X100913Y128725*
X100287Y128413*
X98100*
X100287Y138413D02*
X100913Y138100D01*
X101225Y137475*
X100913Y136850*
X100287Y136537*
X98100*
Y140287*
X100287*
X100913Y139975*
X101225Y139350*
X100913Y138725*
X100287Y138413*
X98100*
X100287Y148413D02*
X100913Y148100D01*
X101225Y147475*
X100913Y146850*
X100287Y146537*
X98100*
Y150287*
X100287*
X100913Y149975*
X101225Y149350*
X100913Y148725*
X100287Y148413*
X98100*
X100287Y158413D02*
X100913Y158100D01*
X101225Y157475*
X100913Y156850*
X100287Y156537*
X98100*
Y160287*
X100287*
X100913Y159975*
X101225Y159350*
X100913Y158725*
X100287Y158413*
X98100*
X100287Y168413D02*
X100913Y168100D01*
X101225Y167475*
X100913Y166850*
X100287Y166537*
X98100*
Y170287*
X100287*
X100913Y169975*
X101225Y169350*
X100913Y168725*
X100287Y168413*
X98100*
X100287Y178413D02*
X100913Y178100D01*
X101225Y177475*
X100913Y176850*
X100287Y176537*
X98100*
Y180287*
X100287*
X100913Y179975*
X101225Y179350*
X100913Y178725*
X100287Y178413*
X98100*
X100287Y188413D02*
X100913Y188100D01*
X101225Y187475*
X100913Y186850*
X100287Y186537*
X98100*
Y190287*
X100287*
X100913Y189975*
X101225Y189350*
X100913Y188725*
X100287Y188413*
X98100*
X100287Y198413D02*
X100913Y198100D01*
X101225Y197475*
X100913Y196850*
X100287Y196537*
X98100*
Y200287*
X100287*
X100913Y199975*
X101225Y199350*
X100913Y198725*
X100287Y198413*
X98100*
X100287Y208413D02*
X100913Y208100D01*
X101225Y207475*
X100913Y206850*
X100287Y206537*
X98100*
Y210287*
X100287*
X100913Y209975*
X101225Y209350*
X100913Y208725*
X100287Y208413*
X98100*
X100287Y218413D02*
X100913Y218100D01*
X101225Y217475*
X100913Y216850*
X100287Y216537*
X98100*
Y220287*
X100287*
X100913Y219975*
X101225Y219350*
X100913Y218725*
X100287Y218413*
X98100*
X100287Y228413D02*
X100913Y228100D01*
X101225Y227475*
X100913Y226850*
X100287Y226537*
X98100*
Y230287*
X100287*
X100913Y229975*
X101225Y229350*
X100913Y228725*
X100287Y228413*
X98100*
X100287Y238413D02*
X100913Y238100D01*
X101225Y237475*
X100913Y236850*
X100287Y236537*
X98100*
Y240287*
X100287*
X100913Y239975*
X101225Y239350*
X100913Y238725*
X100287Y238413*
X98100*
X100287Y248413D02*
X100913Y248100D01*
X101225Y247475*
X100913Y246850*
X100287Y246537*
X98100*
Y250287*
X100287*
X100913Y249975*
X101225Y249350*
X100913Y248725*
X100287Y248413*
X98100*
X100287Y258413D02*
X100913Y258100D01*
X101225Y257475*
X100913Y256850*
X100287Y256537*
X98100*
Y260287*
X100287*
X100913Y259975*
X101225Y259350*
X100913Y258725*
X100287Y258413*
X98100*
X100287Y323413D02*
X100913Y323100D01*
X101225Y322475*
X100913Y321850*
X100287Y321537*
X98100*
Y325287*
X100287*
X100913Y324975*
X101225Y324350*
X100913Y323725*
X100287Y323413*
X98100*
X100287Y333413D02*
X100913Y333100D01*
X101225Y332475*
X100913Y331850*
X100287Y331537*
X98100*
Y335287*
X100287*
X100913Y334975*
X101225Y334350*
X100913Y333725*
X100287Y333413*
X98100*
X100287Y343413D02*
X100913Y343100D01*
X101225Y342475*
X100913Y341850*
X100287Y341537*
X98100*
Y345287*
X100287*
X100913Y344975*
X101225Y344350*
X100913Y343725*
X100287Y343413*
X98100*
X100287Y353413D02*
X100913Y353100D01*
X101225Y352475*
X100913Y351850*
X100287Y351537*
X98100*
Y355287*
X100287*
X100913Y354975*
X101225Y354350*
X100913Y353725*
X100287Y353413*
X98100*
X100287Y363413D02*
X100913Y363100D01*
X101225Y362475*
X100913Y361850*
X100287Y361537*
X98100*
Y365287*
X100287*
X100913Y364975*
X101225Y364350*
X100913Y363725*
X100287Y363413*
X98100*
X100287Y373413D02*
X100913Y373100D01*
X101225Y372475*
X100913Y371850*
X100287Y371537*
X98100*
Y375287*
X100287*
X100913Y374975*
X101225Y374350*
X100913Y373725*
X100287Y373413*
X98100*
X100287Y383413D02*
X100913Y383100D01*
X101225Y382475*
X100913Y381850*
X100287Y381537*
X98100*
Y385287*
X100287*
X100913Y384975*
X101225Y384350*
X100913Y383725*
X100287Y383413*
X98100*
X100287Y393413D02*
X100913Y393100D01*
X101225Y392475*
X100913Y391850*
X100287Y391537*
X98100*
Y395287*
X100287*
X100913Y394975*
X101225Y394350*
X100913Y393725*
X100287Y393413*
X98100*
X100287Y403413D02*
X100913Y403100D01*
X101225Y402475*
X100913Y401850*
X100287Y401537*
X98100*
Y405287*
X100287*
X100913Y404975*
X101225Y404350*
X100913Y403725*
X100287Y403413*
X98100*
X100287Y413413D02*
X100913Y413100D01*
X101225Y412475*
X100913Y411850*
X100287Y411537*
X98100*
Y415287*
X100287*
X100913Y414975*
X101225Y414350*
X100913Y413725*
X100287Y413413*
X98100*
X100287Y423413D02*
X100913Y423100D01*
X101225Y422475*
X100913Y421850*
X100287Y421537*
X98100*
Y425287*
X100287*
X100913Y424975*
X101225Y424350*
X100913Y423725*
X100287Y423413*
X98100*
X100287Y433413D02*
X100913Y433100D01*
X101225Y432475*
X100913Y431850*
X100287Y431537*
X98100*
Y435287*
X100287*
X100913Y434975*
X101225Y434350*
X100913Y433725*
X100287Y433413*
X98100*
X100287Y443413D02*
X100913Y443100D01*
X101225Y442475*
X100913Y441850*
X100287Y441537*
X98100*
Y445287*
X100287*
X100913Y444975*
X101225Y444350*
X100913Y443725*
X100287Y443413*
X98100*
X100287Y453413D02*
X100913Y453100D01*
X101225Y452475*
X100913Y451850*
X100287Y451537*
X98100*
Y455287*
X100287*
X100913Y454975*
X101225Y454350*
X100913Y453725*
X100287Y453413*
X98100*
X100976Y316722D02*
X101914D01*
Y316409*
X101602Y315785*
X101289Y315472*
X100664Y315159*
X100039*
X99414Y315472*
X99102Y315785*
X98789Y316409*
Y317659*
X99102Y318285*
X99414Y318597*
X100039Y318909*
X100664*
X101289Y318597*
X101602Y318285*
X101914Y317659*
X106882Y295069D02*
X107820D01*
Y294756*
X107507Y294131*
X107194Y293819*
X106570Y293506*
X105944*
X105320Y293819*
X105007Y294131*
X104694Y294756*
Y296006*
X105007Y296631*
X105320Y296944*
X105944Y297256*
X106570*
X107194Y296944*
X107507Y296631*
X107820Y296006*
X106882Y316722D02*
X107820D01*
Y316409*
X107507Y315785*
X107194Y315472*
X106570Y315159*
X105944*
X105320Y315472*
X105007Y315785*
X104694Y316409*
Y317659*
X105007Y318285*
X105320Y318597*
X105944Y318909*
X106570*
X107194Y318597*
X107507Y318285*
X107820Y317659*
X108850Y358061D02*
X109788D01*
Y357748*
X109476Y357123*
X109163Y356811*
X108538Y356498*
X107913*
X107288Y356811*
X106976Y357123*
X106663Y357748*
Y358998*
X106976Y359623*
X107288Y359936*
X107913Y360248*
X108538*
X109163Y359936*
X109476Y359623*
X109788Y358998*
X108850Y535226D02*
X109788D01*
Y534913*
X109476Y534289*
X109163Y533976*
X108538Y533663*
X107913*
X107288Y533976*
X106976Y534289*
X106663Y534913*
Y536163*
X106976Y536789*
X107288Y537101*
X107913Y537413*
X108538*
X109163Y537101*
X109476Y536789*
X109788Y536163*
X110819Y143494D02*
X111757D01*
Y143181*
X111444Y142556*
X111131Y142244*
X110507Y141931*
X109881*
X109257Y142244*
X108944Y142556*
X108631Y143181*
Y144431*
X108944Y145056*
X109257Y145369*
X109881Y145681*
X110507*
X111131Y145369*
X111444Y145056*
X111757Y144431*
X110819Y291444D02*
X111444Y291131D01*
X111757Y290507*
X111444Y289881*
X110819Y289569*
X108631*
Y293319*
X110819*
X111444Y293007*
X111757Y292381*
X111444Y291757*
X110819Y291444*
X108631*
X112787Y328533D02*
X113725D01*
Y328220*
X113413Y327596*
X113100Y327283*
X112475Y326970*
X111850*
X111225Y327283*
X110913Y327596*
X110600Y328220*
Y329470*
X110913Y330096*
X111225Y330408*
X111850Y330720*
X112475*
X113100Y330408*
X113413Y330096*
X113725Y329470*
X112787Y409242D02*
X113725D01*
Y408929*
X113413Y408304*
X113100Y407992*
X112475Y407679*
X111850*
X111225Y407992*
X110913Y408304*
X110600Y408929*
Y410179*
X110913Y410804*
X111225Y411117*
X111850Y411429*
X112475*
X113100Y411117*
X113413Y410804*
X113725Y410179*
X112787Y432864D02*
X113725D01*
Y432551*
X113413Y431926*
X113100Y431614*
X112475Y431301*
X111850*
X111225Y431614*
X110913Y431926*
X110600Y432551*
Y433801*
X110913Y434426*
X111225Y434739*
X111850Y435051*
X112475*
X113100Y434739*
X113413Y434426*
X113725Y433801*
X112787Y458454D02*
X113725D01*
Y458142*
X113413Y457517*
X113100Y457204*
X112475Y456892*
X111850*
X111225Y457204*
X110913Y457517*
X110600Y458142*
Y459392*
X110913Y460017*
X111225Y460330*
X111850Y460642*
X112475*
X113100Y460330*
X113413Y460017*
X113725Y459392*
X114756Y135620D02*
X115694D01*
Y135307*
X115381Y134682*
X115069Y134370*
X114444Y134057*
X113819*
X113194Y134370*
X112881Y134682*
X112569Y135307*
Y136557*
X112881Y137182*
X113194Y137495*
X113819Y137807*
X114444*
X115069Y137495*
X115381Y137182*
X115694Y136557*
X116724Y249793D02*
X117662D01*
Y249480*
X117350Y248856*
X117037Y248543*
X116412Y248230*
X115787*
X115162Y248543*
X114850Y248856*
X114537Y249480*
Y250730*
X114850Y251356*
X115162Y251668*
X115787Y251980*
X116412*
X117037Y251668*
X117350Y251356*
X117662Y250730*
X116724Y322628D02*
X117662D01*
Y322315*
X117350Y321690*
X117037Y321378*
X116412Y321065*
X115787*
X115162Y321378*
X114850Y321690*
X114537Y322315*
Y323565*
X114850Y324190*
X115162Y324503*
X115787Y324815*
X116412*
X117037Y324503*
X117350Y324190*
X117662Y323565*
X116724Y397431D02*
X117662D01*
Y397118*
X117350Y396493*
X117037Y396181*
X116412Y395868*
X115787*
X115162Y396181*
X114850Y396493*
X114537Y397118*
Y398368*
X114850Y398993*
X115162Y399306*
X115787Y399618*
X116412*
X117037Y399306*
X117350Y398993*
X117662Y398368*
X116724Y417116D02*
X117662D01*
Y416803*
X117350Y416178*
X117037Y415866*
X116412Y415553*
X115787*
X115162Y415866*
X114850Y416178*
X114537Y416803*
Y418053*
X114850Y418678*
X115162Y418991*
X115787Y419303*
X116412*
X117037Y418991*
X117350Y418678*
X117662Y418053*
X116724Y586407D02*
X117662D01*
Y586094*
X117350Y585470*
X117037Y585157*
X116412Y584844*
X115787*
X115162Y585157*
X114850Y585470*
X114537Y586094*
Y587344*
X114850Y587970*
X115162Y588282*
X115787Y588594*
X116412*
X117037Y588282*
X117350Y587970*
X117662Y587344*
X118693Y117903D02*
X119631D01*
Y117591*
X119318Y116966*
X119006Y116653*
X118381Y116341*
X117756*
X117131Y116653*
X116818Y116966*
X116506Y117591*
Y118841*
X116818Y119466*
X117131Y119778*
X117756Y120091*
X118381*
X119006Y119778*
X119318Y119466*
X119631Y118841*
X120661Y139557D02*
X121599D01*
Y139244*
X121287Y138619*
X120974Y138307*
X120349Y137994*
X119724*
X119099Y138307*
X118787Y138619*
X118474Y139244*
Y140494*
X118787Y141119*
X119099Y141432*
X119724Y141744*
X120349*
X120974Y141432*
X121287Y141119*
X121599Y140494*
X120661Y253730D02*
X121599D01*
Y253417*
X121287Y252793*
X120974Y252480*
X120349Y252167*
X119724*
X119099Y252480*
X118787Y252793*
X118474Y253417*
Y254667*
X118787Y255293*
X119099Y255605*
X119724Y255917*
X120349*
X120974Y255605*
X121287Y255293*
X121599Y254667*
X120661Y393100D02*
X121599D01*
Y392787*
X121287Y392163*
X120974Y391850*
X120349Y391537*
X119724*
X119099Y391850*
X118787Y392163*
X118474Y392787*
Y394037*
X118787Y394663*
X119099Y394975*
X119724Y395287*
X120349*
X120974Y394975*
X121287Y394663*
X121599Y394037*
X120661Y476171D02*
X121599D01*
Y475858*
X121287Y475233*
X120974Y474921*
X120349Y474608*
X119724*
X119099Y474921*
X118787Y475233*
X118474Y475858*
Y477108*
X118787Y477733*
X119099Y478046*
X119724Y478358*
X120349*
X120974Y478046*
X121287Y477733*
X121599Y477108*
X120661Y509635D02*
X121599D01*
Y509323*
X121287Y508698*
X120974Y508385*
X120349Y508073*
X119724*
X119099Y508385*
X118787Y508698*
X118474Y509323*
Y510573*
X118787Y511198*
X119099Y511511*
X119724Y511823*
X120349*
X120974Y511511*
X121287Y511198*
X121599Y510573*
X120661Y535226D02*
X121599D01*
Y534913*
X121287Y534289*
X120974Y533976*
X120349Y533663*
X119724*
X119099Y533976*
X118787Y534289*
X118474Y534913*
Y536163*
X118787Y536789*
X119099Y537101*
X119724Y537413*
X120349*
X120974Y537101*
X121287Y536789*
X121599Y536163*
X124598Y237982D02*
X125536D01*
Y237669*
X125224Y237044*
X124911Y236732*
X124286Y236419*
X123661*
X123036Y236732*
X122724Y237044*
X122411Y237669*
Y238919*
X122724Y239544*
X123036Y239857*
X123661Y240169*
X124286*
X124911Y239857*
X125224Y239544*
X125536Y238919*
X124598Y302943D02*
X125536D01*
Y302630*
X125224Y302005*
X124911Y301693*
X124286Y301380*
X123661*
X123036Y301693*
X122724Y302005*
X122411Y302630*
Y303880*
X122724Y304505*
X123036Y304818*
X123661Y305130*
X124286*
X124911Y304818*
X125224Y304505*
X125536Y303880*
X124598Y328533D02*
X125536D01*
Y328220*
X125224Y327596*
X124911Y327283*
X124286Y326970*
X123661*
X123036Y327283*
X122724Y327596*
X122411Y328220*
Y329470*
X122724Y330096*
X123036Y330408*
X123661Y330720*
X124286*
X124911Y330408*
X125224Y330096*
X125536Y329470*
X124598Y470265D02*
X125536D01*
Y469953*
X125224Y469328*
X124911Y469015*
X124286Y468703*
X123661*
X123036Y469015*
X122724Y469328*
X122411Y469953*
Y471203*
X122724Y471828*
X123036Y472141*
X123661Y472453*
X124286*
X124911Y472141*
X125224Y471828*
X125536Y471203*
X124598Y513572D02*
X125536D01*
Y513260*
X125224Y512635*
X124911Y512322*
X124286Y512010*
X123661*
X123036Y512322*
X122724Y512635*
X122411Y513260*
Y514510*
X122724Y515135*
X123036Y515448*
X123661Y515760*
X124286*
X124911Y515448*
X125224Y515135*
X125536Y514510*
X126567Y149712D02*
X127192Y149399D01*
X127505Y148774*
X127192Y148149*
X126567Y147837*
X124380*
Y151587*
X126567*
X127192Y151274*
X127505Y150649*
X127192Y150024*
X126567Y149712*
X124380*
X126567Y155305D02*
X127505D01*
Y154992*
X127192Y154367*
X126880Y154055*
X126255Y153742*
X125630*
X125005Y154055*
X124692Y154367*
X124380Y154992*
Y156242*
X124692Y156867*
X125005Y157180*
X125630Y157492*
X126255*
X126880Y157180*
X127192Y156867*
X127505Y156242*
X126567Y458454D02*
X127505D01*
Y458142*
X127192Y457517*
X126880Y457204*
X126255Y456892*
X125630*
X125005Y457204*
X124692Y457517*
X124380Y458142*
Y459392*
X124692Y460017*
X125005Y460330*
X125630Y460642*
X126255*
X126880Y460330*
X127192Y460017*
X127505Y459392*
X128535Y381683D02*
X129473D01*
Y381370*
X129161Y380745*
X128848Y380433*
X128223Y380120*
X127598*
X126973Y380433*
X126661Y380745*
X126348Y381370*
Y382620*
X126661Y383245*
X126973Y383558*
X127598Y383870*
X128223*
X128848Y383558*
X129161Y383245*
X129473Y382620*
X128535Y397431D02*
X129473D01*
Y397118*
X129161Y396493*
X128848Y396181*
X128223Y395868*
X127598*
X126973Y396181*
X126661Y396493*
X126348Y397118*
Y398368*
X126661Y398993*
X126973Y399306*
X127598Y399618*
X128223*
X128848Y399306*
X129161Y398993*
X129473Y398368*
X128535Y474202D02*
X129473D01*
Y473890*
X129161Y473265*
X128848Y472952*
X128223Y472640*
X127598*
X126973Y472952*
X126661Y473265*
X126348Y473890*
Y475140*
X126661Y475765*
X126973Y476078*
X127598Y476390*
X128223*
X128848Y476078*
X129161Y475765*
X129473Y475140*
X130287Y270913D02*
X130913Y270600D01*
X131225Y269975*
X130913Y269350*
X130287Y269037*
X128100*
Y272787*
X130287*
X130913Y272475*
X131225Y271850*
X130913Y271225*
X130287Y270913*
X128100*
X130287Y465913D02*
X130913Y465600D01*
X131225Y464975*
X130913Y464350*
X130287Y464037*
X128100*
Y467787*
X130287*
X130913Y467475*
X131225Y466850*
X130913Y466225*
X130287Y465913*
X128100*
X132472Y316722D02*
X133410D01*
Y316409*
X133098Y315785*
X132785Y315472*
X132160Y315159*
X131535*
X130910Y315472*
X130598Y315785*
X130285Y316409*
Y317659*
X130598Y318285*
X130910Y318597*
X131535Y318909*
X132160*
X132785Y318597*
X133098Y318285*
X133410Y317659*
X132472Y407273D02*
X133410D01*
Y406961*
X133098Y406336*
X132785Y406023*
X132160Y405711*
X131535*
X130910Y406023*
X130598Y406336*
X130285Y406961*
Y408211*
X130598Y408836*
X130910Y409148*
X131535Y409461*
X132160*
X132785Y409148*
X133098Y408836*
X133410Y408211*
X134441Y598218D02*
X135379D01*
Y597906*
X135066Y597281*
X134754Y596968*
X134129Y596656*
X133504*
X132879Y596968*
X132566Y597281*
X132254Y597906*
Y599156*
X132566Y599781*
X132879Y600093*
X133504Y600406*
X134129*
X134754Y600093*
X135066Y599781*
X135379Y599156*
X138378Y138100D02*
X139316D01*
Y137787*
X139003Y137163*
X138691Y136850*
X138066Y136537*
X137441*
X136816Y136850*
X136503Y137163*
X136191Y137787*
Y139037*
X136503Y139663*
X136816Y139975*
X137441Y140287*
X138066*
X138691Y139975*
X139003Y139663*
X139316Y139037*
X138378Y153336D02*
X139316D01*
Y153024*
X139003Y152399*
X138691Y152086*
X138066Y151774*
X137441*
X136816Y152086*
X136503Y152399*
X136191Y153024*
Y154274*
X136503Y154899*
X136816Y155211*
X137441Y155524*
X138066*
X138691Y155211*
X139003Y154899*
X139316Y154274*
X138378Y332470D02*
X139316D01*
Y332157*
X139003Y331533*
X138691Y331220*
X138066Y330907*
X137441*
X136816Y331220*
X136503Y331533*
X136191Y332157*
Y333407*
X136503Y334033*
X136816Y334345*
X137441Y334657*
X138066*
X138691Y334345*
X139003Y334033*
X139316Y333407*
X138378Y338376D02*
X139316D01*
Y338063*
X139003Y337438*
X138691Y337126*
X138066Y336813*
X137441*
X136816Y337126*
X136503Y337438*
X136191Y338063*
Y339313*
X136503Y339938*
X136816Y340251*
X137441Y340563*
X138066*
X138691Y340251*
X139003Y339938*
X139316Y339313*
X138378Y417116D02*
X139316D01*
Y416803*
X139003Y416178*
X138691Y415866*
X138066Y415553*
X137441*
X136816Y415866*
X136503Y416178*
X136191Y416803*
Y418053*
X136503Y418678*
X136816Y418991*
X137441Y419303*
X138066*
X138691Y418991*
X139003Y418678*
X139316Y418053*
X138378Y594281D02*
X139316D01*
Y593969*
X139003Y593344*
X138691Y593031*
X138066Y592719*
X137441*
X136816Y593031*
X136503Y593344*
X136191Y593969*
Y595219*
X136503Y595844*
X136816Y596156*
X137441Y596469*
X138066*
X138691Y596156*
X139003Y595844*
X139316Y595219*
X142315Y121840D02*
X143253D01*
Y121528*
X142940Y120903*
X142628Y120590*
X142003Y120278*
X141378*
X140753Y120590*
X140440Y120903*
X140128Y121528*
Y122778*
X140440Y123403*
X140753Y123715*
X141378Y124028*
X142003*
X142628Y123715*
X142940Y123403*
X143253Y122778*
X142315Y155305D02*
X143253D01*
Y154992*
X142940Y154367*
X142628Y154055*
X142003Y153742*
X141378*
X140753Y154055*
X140440Y154367*
X140128Y154992*
Y156242*
X140440Y156867*
X140753Y157180*
X141378Y157492*
X142003*
X142628Y157180*
X142940Y156867*
X143253Y156242*
X142315Y328533D02*
X143253D01*
Y328220*
X142940Y327596*
X142628Y327283*
X142003Y326970*
X141378*
X140753Y327283*
X140440Y327596*
X140128Y328220*
Y329470*
X140440Y330096*
X140753Y330408*
X141378Y330720*
X142003*
X142628Y330408*
X142940Y330096*
X143253Y329470*
X142315Y353100D02*
X143253D01*
Y352787*
X142940Y352163*
X142628Y351850*
X142003Y351537*
X141378*
X140753Y351850*
X140440Y352163*
X140128Y352787*
Y354037*
X140440Y354663*
X140753Y354975*
X141378Y355287*
X142003*
X142628Y354975*
X142940Y354663*
X143253Y354037*
X142315Y373809D02*
X143253D01*
Y373496*
X142940Y372871*
X142628Y372559*
X142003Y372246*
X141378*
X140753Y372559*
X140440Y372871*
X140128Y373496*
Y374746*
X140440Y375371*
X140753Y375684*
X141378Y375996*
X142003*
X142628Y375684*
X142940Y375371*
X143253Y374746*
X142315Y393100D02*
X143253D01*
Y392787*
X142940Y392163*
X142628Y391850*
X142003Y391537*
X141378*
X140753Y391850*
X140440Y392163*
X140128Y392787*
Y394037*
X140440Y394663*
X140753Y394975*
X141378Y395287*
X142003*
X142628Y394975*
X142940Y394663*
X143253Y394037*
X142315Y413179D02*
X143253D01*
Y412866*
X142940Y412241*
X142628Y411929*
X142003Y411616*
X141378*
X140753Y411929*
X140440Y412241*
X140128Y412866*
Y414116*
X140440Y414741*
X140753Y415054*
X141378Y415366*
X142003*
X142628Y415054*
X142940Y414741*
X143253Y414116*
X142315Y590344D02*
X143253D01*
Y590031*
X142940Y589407*
X142628Y589094*
X142003Y588781*
X141378*
X140753Y589094*
X140440Y589407*
X140128Y590031*
Y591281*
X140440Y591907*
X140753Y592219*
X141378Y592531*
X142003*
X142628Y592219*
X142940Y591907*
X143253Y591281*
X143100Y40415D02*
Y44165D01*
X144975*
X145600Y43853*
X145913Y43541*
X146225Y42915*
Y41665*
X145913Y41041*
X145600Y40728*
X144975Y40415*
X143100*
Y64037D02*
Y67787D01*
X144975*
X145600Y67475*
X145913Y67163*
X146225Y66537*
Y65287*
X145913Y64663*
X145600Y64350*
X144975Y64037*
X143100*
X146252Y163179D02*
X147190D01*
Y162866*
X146877Y162241*
X146565Y161929*
X145940Y161616*
X145315*
X144690Y161929*
X144377Y162241*
X144065Y162866*
Y164116*
X144377Y164741*
X144690Y165054*
X145315Y165366*
X145940*
X146565Y165054*
X146877Y164741*
X147190Y164116*
X150189Y153336D02*
X151127D01*
Y153024*
X150814Y152399*
X150502Y152086*
X149877Y151774*
X149252*
X148627Y152086*
X148314Y152399*
X148002Y153024*
Y154274*
X148314Y154899*
X148627Y155211*
X149252Y155524*
X149877*
X150502Y155211*
X150814Y154899*
X151127Y154274*
X150189Y613966D02*
X151127D01*
Y613654*
X150814Y613029*
X150502Y612716*
X149877Y612404*
X149252*
X148627Y612716*
X148314Y613029*
X148002Y613654*
Y614904*
X148314Y615529*
X148627Y615841*
X149252Y616154*
X149877*
X150502Y615841*
X150814Y615529*
X151127Y614904*
X152157Y293100D02*
X153095D01*
Y292787*
X152783Y292163*
X152470Y291850*
X151845Y291537*
X151220*
X150595Y291850*
X150283Y292163*
X149970Y292787*
Y294037*
X150283Y294663*
X150595Y294975*
X151220Y295287*
X151845*
X152470Y294975*
X152783Y294663*
X153095Y294037*
X152157Y328533D02*
X153095D01*
Y328220*
X152783Y327596*
X152470Y327283*
X151845Y326970*
X151220*
X150595Y327283*
X150283Y327596*
X149970Y328220*
Y329470*
X150283Y330096*
X150595Y330408*
X151220Y330720*
X151845*
X152470Y330408*
X152783Y330096*
X153095Y329470*
X154126Y470265D02*
X155064D01*
Y469953*
X154751Y469328*
X154439Y469015*
X153814Y468703*
X153189*
X152564Y469015*
X152251Y469328*
X151939Y469953*
Y471203*
X152251Y471828*
X152564Y472141*
X153189Y472453*
X153814*
X154439Y472141*
X154751Y471828*
X155064Y471203*
X154126Y539163D02*
X155064D01*
Y538850*
X154751Y538226*
X154439Y537913*
X153814Y537600*
X153189*
X152564Y537913*
X152251Y538226*
X151939Y538850*
Y540100*
X152251Y540726*
X152564Y541038*
X153189Y541350*
X153814*
X154439Y541038*
X154751Y540726*
X155064Y540100*
X156094Y92313D02*
X157032D01*
Y92000*
X156720Y91375*
X156407Y91063*
X155782Y90750*
X155157*
X154532Y91063*
X154220Y91375*
X153907Y92000*
Y93250*
X154220Y93875*
X154532Y94188*
X155157Y94500*
X155782*
X156407Y94188*
X156720Y93875*
X157032Y93250*
X158063Y535226D02*
X159001D01*
Y534913*
X158688Y534289*
X158376Y533976*
X157751Y533663*
X157126*
X156501Y533976*
X156188Y534289*
X155876Y534913*
Y536163*
X156188Y536789*
X156501Y537101*
X157126Y537413*
X157751*
X158376Y537101*
X158688Y536789*
X159001Y536163*
X160031Y96250D02*
X160969D01*
Y95937*
X160657Y95312*
X160344Y95000*
X159719Y94687*
X159094*
X158469Y95000*
X158157Y95312*
X157844Y95937*
Y97187*
X158157Y97812*
X158469Y98125*
X159094Y98437*
X159719*
X160344Y98125*
X160657Y97812*
X160969Y97187*
X160031Y297350D02*
X160657Y297037D01*
X160969Y296412*
X160657Y295787*
X160031Y295474*
X157844*
Y299224*
X160031*
X160657Y298912*
X160969Y298287*
X160657Y297662*
X160031Y297350*
X157844*
X160287Y128413D02*
X160913Y128100D01*
X161225Y127475*
X160913Y126850*
X160287Y126537*
X158100*
Y130287*
X160287*
X160913Y129975*
X161225Y129350*
X160913Y128725*
X160287Y128413*
X158100*
X160287Y138413D02*
X160913Y138100D01*
X161225Y137475*
X160913Y136850*
X160287Y136537*
X158100*
Y140287*
X160287*
X160913Y139975*
X161225Y139350*
X160913Y138725*
X160287Y138413*
X158100*
X160287Y148413D02*
X160913Y148100D01*
X161225Y147475*
X160913Y146850*
X160287Y146537*
X158100*
Y150287*
X160287*
X160913Y149975*
X161225Y149350*
X160913Y148725*
X160287Y148413*
X158100*
X160287Y158413D02*
X160913Y158100D01*
X161225Y157475*
X160913Y156850*
X160287Y156537*
X158100*
Y160287*
X160287*
X160913Y159975*
X161225Y159350*
X160913Y158725*
X160287Y158413*
X158100*
X160287Y168413D02*
X160913Y168100D01*
X161225Y167475*
X160913Y166850*
X160287Y166537*
X158100*
Y170287*
X160287*
X160913Y169975*
X161225Y169350*
X160913Y168725*
X160287Y168413*
X158100*
X160287Y178413D02*
X160913Y178100D01*
X161225Y177475*
X160913Y176850*
X160287Y176537*
X158100*
Y180287*
X160287*
X160913Y179975*
X161225Y179350*
X160913Y178725*
X160287Y178413*
X158100*
X160287Y188413D02*
X160913Y188100D01*
X161225Y187475*
X160913Y186850*
X160287Y186537*
X158100*
Y190287*
X160287*
X160913Y189975*
X161225Y189350*
X160913Y188725*
X160287Y188413*
X158100*
X160287Y198413D02*
X160913Y198100D01*
X161225Y197475*
X160913Y196850*
X160287Y196537*
X158100*
Y200287*
X160287*
X160913Y199975*
X161225Y199350*
X160913Y198725*
X160287Y198413*
X158100*
X160287Y208413D02*
X160913Y208100D01*
X161225Y207475*
X160913Y206850*
X160287Y206537*
X158100*
Y210287*
X160287*
X160913Y209975*
X161225Y209350*
X160913Y208725*
X160287Y208413*
X158100*
X160287Y218413D02*
X160913Y218100D01*
X161225Y217475*
X160913Y216850*
X160287Y216537*
X158100*
Y220287*
X160287*
X160913Y219975*
X161225Y219350*
X160913Y218725*
X160287Y218413*
X158100*
X160287Y228413D02*
X160913Y228100D01*
X161225Y227475*
X160913Y226850*
X160287Y226537*
X158100*
Y230287*
X160287*
X160913Y229975*
X161225Y229350*
X160913Y228725*
X160287Y228413*
X158100*
X160287Y238413D02*
X160913Y238100D01*
X161225Y237475*
X160913Y236850*
X160287Y236537*
X158100*
Y240287*
X160287*
X160913Y239975*
X161225Y239350*
X160913Y238725*
X160287Y238413*
X158100*
X160287Y248413D02*
X160913Y248100D01*
X161225Y247475*
X160913Y246850*
X160287Y246537*
X158100*
Y250287*
X160287*
X160913Y249975*
X161225Y249350*
X160913Y248725*
X160287Y248413*
X158100*
X160287Y258413D02*
X160913Y258100D01*
X161225Y257475*
X160913Y256850*
X160287Y256537*
X158100*
Y260287*
X160287*
X160913Y259975*
X161225Y259350*
X160913Y258725*
X160287Y258413*
X158100*
X160287Y270913D02*
X160913Y270600D01*
X161225Y269975*
X160913Y269350*
X160287Y269037*
X158100*
Y272787*
X160287*
X160913Y272475*
X161225Y271850*
X160913Y271225*
X160287Y270913*
X158100*
X160287Y323413D02*
X160913Y323100D01*
X161225Y322475*
X160913Y321850*
X160287Y321537*
X158100*
Y325287*
X160287*
X160913Y324975*
X161225Y324350*
X160913Y323725*
X160287Y323413*
X158100*
X160287Y333413D02*
X160913Y333100D01*
X161225Y332475*
X160913Y331850*
X160287Y331537*
X158100*
Y335287*
X160287*
X160913Y334975*
X161225Y334350*
X160913Y333725*
X160287Y333413*
X158100*
X160287Y343413D02*
X160913Y343100D01*
X161225Y342475*
X160913Y341850*
X160287Y341537*
X158100*
Y345287*
X160287*
X160913Y344975*
X161225Y344350*
X160913Y343725*
X160287Y343413*
X158100*
X160287Y353413D02*
X160913Y353100D01*
X161225Y352475*
X160913Y351850*
X160287Y351537*
X158100*
Y355287*
X160287*
X160913Y354975*
X161225Y354350*
X160913Y353725*
X160287Y353413*
X158100*
X160287Y363413D02*
X160913Y363100D01*
X161225Y362475*
X160913Y361850*
X160287Y361537*
X158100*
Y365287*
X160287*
X160913Y364975*
X161225Y364350*
X160913Y363725*
X160287Y363413*
X158100*
X160287Y373413D02*
X160913Y373100D01*
X161225Y372475*
X160913Y371850*
X160287Y371537*
X158100*
Y375287*
X160287*
X160913Y374975*
X161225Y374350*
X160913Y373725*
X160287Y373413*
X158100*
X160287Y383413D02*
X160913Y383100D01*
X161225Y382475*
X160913Y381850*
X160287Y381537*
X158100*
Y385287*
X160287*
X160913Y384975*
X161225Y384350*
X160913Y383725*
X160287Y383413*
X158100*
X160287Y393413D02*
X160913Y393100D01*
X161225Y392475*
X160913Y391850*
X160287Y391537*
X158100*
Y395287*
X160287*
X160913Y394975*
X161225Y394350*
X160913Y393725*
X160287Y393413*
X158100*
X160287Y403413D02*
X160913Y403100D01*
X161225Y402475*
X160913Y401850*
X160287Y401537*
X158100*
Y405287*
X160287*
X160913Y404975*
X161225Y404350*
X160913Y403725*
X160287Y403413*
X158100*
X160287Y413413D02*
X160913Y413100D01*
X161225Y412475*
X160913Y411850*
X160287Y411537*
X158100*
Y415287*
X160287*
X160913Y414975*
X161225Y414350*
X160913Y413725*
X160287Y413413*
X158100*
X160287Y423413D02*
X160913Y423100D01*
X161225Y422475*
X160913Y421850*
X160287Y421537*
X158100*
Y425287*
X160287*
X160913Y424975*
X161225Y424350*
X160913Y423725*
X160287Y423413*
X158100*
X160287Y433413D02*
X160913Y433100D01*
X161225Y432475*
X160913Y431850*
X160287Y431537*
X158100*
Y435287*
X160287*
X160913Y434975*
X161225Y434350*
X160913Y433725*
X160287Y433413*
X158100*
X160287Y443413D02*
X160913Y443100D01*
X161225Y442475*
X160913Y441850*
X160287Y441537*
X158100*
Y445287*
X160287*
X160913Y444975*
X161225Y444350*
X160913Y443725*
X160287Y443413*
X158100*
X160287Y453413D02*
X160913Y453100D01*
X161225Y452475*
X160913Y451850*
X160287Y451537*
X158100*
Y455287*
X160287*
X160913Y454975*
X161225Y454350*
X160913Y453725*
X160287Y453413*
X158100*
X160287Y465913D02*
X160913Y465600D01*
X161225Y464975*
X160913Y464350*
X160287Y464037*
X158100*
Y467787*
X160287*
X160913Y467475*
X161225Y466850*
X160913Y466225*
X160287Y465913*
X158100*
X160817Y40415D02*
Y44165D01*
X162692*
X163317Y43853*
X163629Y43541*
X163942Y42915*
Y41665*
X163629Y41041*
X163317Y40728*
X162692Y40415*
X160817*
Y64037D02*
Y67787D01*
X162692*
X163317Y67475*
X163629Y67163*
X163942Y66537*
Y65287*
X163629Y64663*
X163317Y64350*
X162692Y64037*
X160817*
X163969Y279320D02*
X164906D01*
Y279008*
X164594Y278383*
X164281Y278070*
X163656Y277758*
X163031*
X162406Y278070*
X162094Y278383*
X161781Y279008*
Y280258*
X162094Y280883*
X162406Y281196*
X163031Y281508*
X163656*
X164281Y281196*
X164594Y280883*
X164906Y280258*
X163969Y293100D02*
X164906D01*
Y292787*
X164594Y292163*
X164281Y291850*
X163656Y291537*
X163031*
X162406Y291850*
X162094Y292163*
X161781Y292787*
Y294037*
X162094Y294663*
X162406Y294975*
X163031Y295287*
X163656*
X164281Y294975*
X164594Y294663*
X164906Y294037*
X167906Y222234D02*
X168843D01*
Y221921*
X168531Y221296*
X168218Y220984*
X167593Y220671*
X166968*
X166343Y220984*
X166031Y221296*
X165718Y221921*
Y223171*
X166031Y223796*
X166343Y224109*
X166968Y224421*
X167593*
X168218Y224109*
X168531Y223796*
X168843Y223171*
X169874Y121840D02*
X170812D01*
Y121528*
X170499Y120903*
X170187Y120590*
X169562Y120278*
X168937*
X168312Y120590*
X167999Y120903*
X167687Y121528*
Y122778*
X167999Y123403*
X168312Y123715*
X168937Y124028*
X169562*
X170187Y123715*
X170499Y123403*
X170812Y122778*
X171225Y584663D02*
X170913Y584350D01*
X170287Y584037*
X169350*
X168725Y584350*
X168413Y584663*
X168100Y585287*
Y586537*
X168413Y587163*
X168725Y587475*
X169350Y587787*
X170287*
X170913Y587475*
X171225Y587163*
X171843Y423021D02*
X172780D01*
Y422709*
X172468Y422084*
X172155Y421771*
X171530Y421459*
X170905*
X170280Y421771*
X169968Y422084*
X169655Y422709*
Y423959*
X169968Y424584*
X170280Y424896*
X170905Y425209*
X171530*
X172155Y424896*
X172468Y424584*
X172780Y423959*
X173811Y535226D02*
X174749D01*
Y534913*
X174436Y534289*
X174124Y533976*
X173499Y533663*
X172874*
X172249Y533976*
X171936Y534289*
X171624Y534913*
Y536163*
X171936Y536789*
X172249Y537101*
X172874Y537413*
X173499*
X174124Y537101*
X174436Y536789*
X174749Y536163*
X175780Y323100D02*
X176717D01*
Y322787*
X176405Y322163*
X176092Y321850*
X175467Y321537*
X174842*
X174217Y321850*
X173905Y322163*
X173592Y322787*
Y324037*
X173905Y324663*
X174217Y324975*
X174842Y325287*
X175467*
X176092Y324975*
X176405Y324663*
X176717Y324037*
X175780Y360029D02*
X176717D01*
Y359717*
X176405Y359092*
X176092Y358779*
X175467Y358467*
X174842*
X174217Y358779*
X173905Y359092*
X173592Y359717*
Y360967*
X173905Y361592*
X174217Y361904*
X174842Y362217*
X175467*
X176092Y361904*
X176405Y361592*
X176717Y360967*
X175780Y387588D02*
X176717D01*
Y387276*
X176405Y386651*
X176092Y386338*
X175467Y386026*
X174842*
X174217Y386338*
X173905Y386651*
X173592Y387276*
Y388526*
X173905Y389151*
X174217Y389463*
X174842Y389776*
X175467*
X176092Y389463*
X176405Y389151*
X176717Y388526*
X175780Y417116D02*
X176717D01*
Y416803*
X176405Y416178*
X176092Y415866*
X175467Y415553*
X174842*
X174217Y415866*
X173905Y416178*
X173592Y416803*
Y418053*
X173905Y418678*
X174217Y418991*
X174842Y419303*
X175467*
X176092Y418991*
X176405Y418678*
X176717Y418053*
X179717Y342313D02*
X180654D01*
Y342000*
X180342Y341375*
X180029Y341063*
X179404Y340750*
X178779*
X178154Y341063*
X177842Y341375*
X177529Y342000*
Y343250*
X177842Y343875*
X178154Y344188*
X178779Y344500*
X179404*
X180029Y344188*
X180342Y343875*
X180654Y343250*
X179717Y371840D02*
X180654D01*
Y371528*
X180342Y370903*
X180029Y370590*
X179404Y370278*
X178779*
X178154Y370590*
X177842Y370903*
X177529Y371528*
Y372778*
X177842Y373403*
X178154Y373715*
X178779Y374028*
X179404*
X180029Y373715*
X180342Y373403*
X180654Y372778*
X181225Y584663D02*
X180913Y584350D01*
X180287Y584037*
X179350*
X178725Y584350*
X178413Y584663*
X178100Y585287*
Y586537*
X178413Y587163*
X178725Y587475*
X179350Y587787*
X180287*
X180913Y587475*
X181225Y587163*
X183654Y332470D02*
X184591D01*
Y332157*
X184279Y331533*
X183966Y331220*
X183341Y330907*
X182716*
X182091Y331220*
X181779Y331533*
X181466Y332157*
Y333407*
X181779Y334033*
X182091Y334345*
X182716Y334657*
X183341*
X183966Y334345*
X184279Y334033*
X184591Y333407*
X183654Y344281D02*
X184591D01*
Y343969*
X184279Y343344*
X183966Y343031*
X183341Y342719*
X182716*
X182091Y343031*
X181779Y343344*
X181466Y343969*
Y345219*
X181779Y345844*
X182091Y346156*
X182716Y346469*
X183341*
X183966Y346156*
X184279Y345844*
X184591Y345219*
X183654Y377746D02*
X184591D01*
Y377433*
X184279Y376808*
X183966Y376496*
X183341Y376183*
X182716*
X182091Y376496*
X181779Y376808*
X181466Y377433*
Y378683*
X181779Y379308*
X182091Y379621*
X182716Y379933*
X183341*
X183966Y379621*
X184279Y379308*
X184591Y378683*
X185622Y448612D02*
X186560D01*
Y448299*
X186247Y447674*
X185935Y447362*
X185310Y447049*
X184685*
X184060Y447362*
X183747Y447674*
X183435Y448299*
Y449549*
X183747Y450174*
X184060Y450487*
X184685Y450799*
X185310*
X185935Y450487*
X186247Y450174*
X186560Y449549*
X185622Y480108D02*
X186560D01*
Y479795*
X186247Y479170*
X185935Y478858*
X185310Y478545*
X184685*
X184060Y478858*
X183747Y479170*
X183435Y479795*
Y481045*
X183747Y481670*
X184060Y481983*
X184685Y482295*
X185310*
X185935Y481983*
X186247Y481670*
X186560Y481045*
X187591Y293100D02*
X188528D01*
Y292787*
X188216Y292163*
X187903Y291850*
X187278Y291537*
X186653*
X186028Y291850*
X185716Y292163*
X185403Y292787*
Y294037*
X185716Y294663*
X186028Y294975*
X186653Y295287*
X187278*
X187903Y294975*
X188216Y294663*
X188528Y294037*
X187591Y383651D02*
X188528D01*
Y383339*
X188216Y382714*
X187903Y382401*
X187278Y382089*
X186653*
X186028Y382401*
X185716Y382714*
X185403Y383339*
Y384589*
X185716Y385214*
X186028Y385526*
X186653Y385839*
X187278*
X187903Y385526*
X188216Y385214*
X188528Y384589*
X189559Y482076D02*
X190497D01*
Y481764*
X190184Y481139*
X189872Y480826*
X189247Y480514*
X188622*
X187997Y480826*
X187684Y481139*
X187372Y481764*
Y483014*
X187684Y483639*
X187997Y483952*
X188622Y484264*
X189247*
X189872Y483952*
X190184Y483639*
X190497Y483014*
X191225Y584663D02*
X190913Y584350D01*
X190287Y584037*
X189350*
X188725Y584350*
X188413Y584663*
X188100Y585287*
Y586537*
X188413Y587163*
X188725Y587475*
X189350Y587787*
X190287*
X190913Y587475*
X191225Y587163*
X193496Y297350D02*
X194121Y297037D01*
X194434Y296412*
X194121Y295787*
X193496Y295474*
X191309*
Y299224*
X193496*
X194121Y298912*
X194434Y298287*
X194121Y297662*
X193496Y297350*
X191309*
X195465Y578533D02*
X196402D01*
Y578220*
X196090Y577596*
X195777Y577283*
X195152Y576970*
X194527*
X193902Y577283*
X193590Y577596*
X193277Y578220*
Y579470*
X193590Y580096*
X193902Y580408*
X194527Y580720*
X195152*
X195777Y580408*
X196090Y580096*
X196402Y579470*
X199402Y299006D02*
X200339D01*
Y298693*
X200027Y298068*
X199714Y297756*
X199089Y297443*
X198464*
X197839Y297756*
X197527Y298068*
X197214Y298693*
Y299943*
X197527Y300568*
X197839Y300881*
X198464Y301193*
X199089*
X199714Y300881*
X200027Y300568*
X200339Y299943*
X199402Y438769D02*
X200339D01*
Y438457*
X200027Y437832*
X199714Y437519*
X199089Y437207*
X198464*
X197839Y437519*
X197527Y437832*
X197214Y438457*
Y439707*
X197527Y440332*
X197839Y440644*
X198464Y440957*
X199089*
X199714Y440644*
X200027Y440332*
X200339Y439707*
X199402Y452549D02*
X200339D01*
Y452236*
X200027Y451611*
X199714Y451299*
X199089Y450986*
X198464*
X197839Y451299*
X197527Y451611*
X197214Y452236*
Y453486*
X197527Y454111*
X197839Y454424*
X198464Y454736*
X199089*
X199714Y454424*
X200027Y454111*
X200339Y453486*
X199402Y517509D02*
X200339D01*
Y517197*
X200027Y516572*
X199714Y516259*
X199089Y515947*
X198464*
X197839Y516259*
X197527Y516572*
X197214Y517197*
Y518447*
X197527Y519072*
X197839Y519385*
X198464Y519697*
X199089*
X199714Y519385*
X200027Y519072*
X200339Y518447*
X201225Y584663D02*
X200913Y584350D01*
X200287Y584037*
X199350*
X198725Y584350*
X198413Y584663*
X198100Y585287*
Y586537*
X198413Y587163*
X198725Y587475*
X199350Y587787*
X200287*
X200913Y587475*
X201225Y587163*
X203339Y289476D02*
X203964Y289163D01*
X204276Y288538*
X203964Y287913*
X203339Y287600*
X201151*
Y291350*
X203339*
X203964Y291038*
X204276Y290413*
X203964Y289788*
X203339Y289476*
X201151*
X205287Y403413D02*
X205913Y403100D01*
X206225Y402475*
X205913Y401850*
X205287Y401537*
X203100*
Y405287*
X205287*
X205913Y404975*
X206225Y404350*
X205913Y403725*
X205287Y403413*
X203100*
X205287Y423413D02*
X205913Y423100D01*
X206225Y422475*
X205913Y421850*
X205287Y421537*
X203100*
Y425287*
X205287*
X205913Y424975*
X206225Y424350*
X205913Y423725*
X205287Y423413*
X203100*
X205287Y443413D02*
X205913Y443100D01*
X206225Y442475*
X205913Y441850*
X205287Y441537*
X203100*
Y445287*
X205287*
X205913Y444975*
X206225Y444350*
X205913Y443725*
X205287Y443413*
X203100*
X205307Y498137D02*
X205932Y497824D01*
X206245Y497200*
X205932Y496574*
X205307Y496262*
X203120*
Y500012*
X205307*
X205932Y499700*
X206245Y499074*
X205932Y498450*
X205307Y498137*
X203120*
X207276Y306880D02*
X208213D01*
Y306567*
X207901Y305942*
X207588Y305630*
X206963Y305317*
X206338*
X205713Y305630*
X205401Y305942*
X205088Y306567*
Y307817*
X205401Y308442*
X205713Y308755*
X206338Y309067*
X206963*
X207588Y308755*
X207901Y308442*
X208213Y307817*
X209244Y379714D02*
X210182D01*
Y379402*
X209869Y378777*
X209557Y378464*
X208932Y378152*
X208307*
X207682Y378464*
X207369Y378777*
X207057Y379402*
Y380652*
X207369Y381277*
X207682Y381589*
X208307Y381902*
X208932*
X209557Y381589*
X209869Y381277*
X210182Y380652*
X211225Y584663D02*
X210913Y584350D01*
X210287Y584037*
X209350*
X208725Y584350*
X208413Y584663*
X208100Y585287*
Y586537*
X208413Y587163*
X208725Y587475*
X209350Y587787*
X210287*
X210913Y587475*
X211225Y587163*
X211213Y163179D02*
X212150D01*
Y162866*
X211838Y162241*
X211525Y161929*
X210900Y161616*
X210275*
X209650Y161929*
X209338Y162241*
X209025Y162866*
Y164116*
X209338Y164741*
X209650Y165054*
X210275Y165366*
X210900*
X211525Y165054*
X211838Y164741*
X212150Y164116*
X211213Y202549D02*
X212150D01*
Y202236*
X211838Y201611*
X211525Y201299*
X210900Y200986*
X210275*
X209650Y201299*
X209338Y201611*
X209025Y202236*
Y203486*
X209338Y204111*
X209650Y204424*
X210275Y204736*
X210900*
X211525Y204424*
X211838Y204111*
X212150Y203486*
X211213Y316722D02*
X212150D01*
Y316409*
X211838Y315785*
X211525Y315472*
X210900Y315159*
X210275*
X209650Y315472*
X209338Y315785*
X209025Y316409*
Y317659*
X209338Y318285*
X209650Y318597*
X210275Y318909*
X210900*
X211525Y318597*
X211838Y318285*
X212150Y317659*
X211213Y452549D02*
X212150D01*
Y452236*
X211838Y451611*
X211525Y451299*
X210900Y450986*
X210275*
X209650Y451299*
X209338Y451611*
X209025Y452236*
Y453486*
X209338Y454111*
X209650Y454424*
X210275Y454736*
X210900*
X211525Y454424*
X211838Y454111*
X212150Y453486*
X211213Y470265D02*
X212150D01*
Y469953*
X211838Y469328*
X211525Y469015*
X210900Y468703*
X210275*
X209650Y469015*
X209338Y469328*
X209025Y469953*
Y471203*
X209338Y471828*
X209650Y472141*
X210275Y472453*
X210900*
X211525Y472141*
X211838Y471828*
X212150Y471203*
X215150Y158100D02*
X216087D01*
Y157787*
X215775Y157163*
X215462Y156850*
X214837Y156537*
X214212*
X213587Y156850*
X213275Y157163*
X212962Y157787*
Y159037*
X213275Y159663*
X213587Y159975*
X214212Y160287*
X214837*
X215462Y159975*
X215775Y159663*
X216087Y159037*
X215150Y218297D02*
X216087D01*
Y217984*
X215775Y217359*
X215462Y217047*
X214837Y216734*
X214212*
X213587Y217047*
X213275Y217359*
X212962Y217984*
Y219234*
X213275Y219859*
X213587Y220172*
X214212Y220484*
X214837*
X215462Y220172*
X215775Y219859*
X216087Y219234*
X215287Y383413D02*
X215913Y383100D01*
X216225Y382475*
X215913Y381850*
X215287Y381537*
X213100*
Y385287*
X215287*
X215913Y384975*
X216225Y384350*
X215913Y383725*
X215287Y383413*
X213100*
X217118Y574596D02*
X218056D01*
Y574283*
X217743Y573659*
X217431Y573346*
X216806Y573033*
X216181*
X215556Y573346*
X215243Y573659*
X214931Y574283*
Y575533*
X215243Y576159*
X215556Y576471*
X216181Y576783*
X216806*
X217431Y576471*
X217743Y576159*
X218056Y575533*
X220287Y160913D02*
X220913Y160600D01*
X221225Y159975*
X220913Y159350*
X220287Y159037*
X218100*
Y162787*
X220287*
X220913Y162475*
X221225Y161850*
X220913Y161225*
X220287Y160913*
X218100*
X220287Y180913D02*
X220913Y180600D01*
X221225Y179975*
X220913Y179350*
X220287Y179037*
X218100*
Y182787*
X220287*
X220913Y182475*
X221225Y181850*
X220913Y181225*
X220287Y180913*
X218100*
X220287Y200913D02*
X220913Y200600D01*
X221225Y199975*
X220913Y199350*
X220287Y199037*
X218100*
Y202787*
X220287*
X220913Y202475*
X221225Y201850*
X220913Y201225*
X220287Y200913*
X218100*
X221225Y584663D02*
X220913Y584350D01*
X220287Y584037*
X219350*
X218725Y584350*
X218413Y584663*
X218100Y585287*
Y586537*
X218413Y587163*
X218725Y587475*
X219350Y587787*
X220287*
X220913Y587475*
X221225Y587163*
X221055Y363966D02*
X221993D01*
Y363654*
X221680Y363029*
X221368Y362716*
X220743Y362404*
X220118*
X219493Y362716*
X219180Y363029*
X218868Y363654*
Y364904*
X219180Y365529*
X219493Y365841*
X220118Y366154*
X220743*
X221368Y365841*
X221680Y365529*
X221993Y364904*
X224992Y210423D02*
X225930D01*
Y210110*
X225617Y209485*
X225305Y209173*
X224680Y208860*
X224055*
X223430Y209173*
X223117Y209485*
X222805Y210110*
Y211360*
X223117Y211985*
X223430Y212298*
X224055Y212610*
X224680*
X225305Y212298*
X225617Y211985*
X225930Y211360*
X224992Y367903D02*
X225930D01*
Y367591*
X225617Y366966*
X225305Y366653*
X224680Y366341*
X224055*
X223430Y366653*
X223117Y366966*
X222805Y367591*
Y368841*
X223117Y369466*
X223430Y369778*
X224055Y370091*
X224680*
X225305Y369778*
X225617Y369466*
X225930Y368841*
X224992Y474202D02*
X225930D01*
Y473890*
X225617Y473265*
X225305Y472952*
X224680Y472640*
X224055*
X223430Y472952*
X223117Y473265*
X222805Y473890*
Y475140*
X223117Y475765*
X223430Y476078*
X224055Y476390*
X224680*
X225305Y476078*
X225617Y475765*
X225930Y475140*
X226961Y356092D02*
X227898D01*
Y355780*
X227586Y355155*
X227273Y354842*
X226648Y354530*
X226023*
X225398Y354842*
X225086Y355155*
X224773Y355780*
Y357030*
X225086Y357655*
X225398Y357967*
X226023Y358280*
X226648*
X227273Y357967*
X227586Y357655*
X227898Y357030*
X231225Y584663D02*
X230913Y584350D01*
X230287Y584037*
X229350*
X228725Y584350*
X228413Y584663*
X228100Y585287*
Y586537*
X228413Y587163*
X228725Y587475*
X229350Y587787*
X230287*
X230913Y587475*
X231225Y587163*
X230898Y352155D02*
X231835D01*
Y351843*
X231523Y351218*
X231210Y350905*
X230585Y350593*
X229960*
X229335Y350905*
X229023Y351218*
X228710Y351843*
Y353093*
X229023Y353718*
X229335Y354030*
X229960Y354343*
X230585*
X231210Y354030*
X231523Y353718*
X231835Y353093*
X232787Y125913D02*
X233413Y125600D01*
X233725Y124975*
X233413Y124350*
X232787Y124037*
X230600*
Y127787*
X232787*
X233413Y127475*
X233725Y126850*
X233413Y126225*
X232787Y125913*
X230600*
X234835Y535226D02*
X235772D01*
Y534913*
X235460Y534289*
X235147Y533976*
X234522Y533663*
X233897*
X233272Y533976*
X232960Y534289*
X232647Y534913*
Y536163*
X232960Y536789*
X233272Y537101*
X233897Y537413*
X234522*
X235147Y537101*
X235460Y536789*
X235772Y536163*
X234835Y574596D02*
X235772D01*
Y574283*
X235460Y573659*
X235147Y573346*
X234522Y573033*
X233897*
X233272Y573346*
X232960Y573659*
X232647Y574283*
Y575533*
X232960Y576159*
X233272Y576471*
X233897Y576783*
X234522*
X235147Y576471*
X235460Y576159*
X235772Y575533*
X236803Y578533D02*
X237741D01*
Y578220*
X237428Y577596*
X237116Y577283*
X236491Y576970*
X235866*
X235241Y577283*
X234928Y577596*
X234616Y578220*
Y579470*
X234928Y580096*
X235241Y580408*
X235866Y580720*
X236491*
X237116Y580408*
X237428Y580096*
X237741Y579470*
X238772Y316722D02*
X239709D01*
Y316409*
X239397Y315785*
X239084Y315472*
X238459Y315159*
X237834*
X237209Y315472*
X236897Y315785*
X236584Y316409*
Y317659*
X236897Y318285*
X237209Y318597*
X237834Y318909*
X238459*
X239084Y318597*
X239397Y318285*
X239709Y317659*
X241225Y584663D02*
X240913Y584350D01*
X240287Y584037*
X239350*
X238725Y584350*
X238413Y584663*
X238100Y585287*
Y586537*
X238413Y587163*
X238725Y587475*
X239350Y587787*
X240287*
X240913Y587475*
X241225Y587163*
X240740Y348218D02*
X241678D01*
Y347906*
X241365Y347281*
X241053Y346968*
X240428Y346656*
X239803*
X239178Y346968*
X238865Y347281*
X238553Y347906*
Y349156*
X238865Y349781*
X239178Y350093*
X239803Y350406*
X240428*
X241053Y350093*
X241365Y349781*
X241678Y349156*
X240740Y527352D02*
X241678D01*
Y527039*
X241365Y526415*
X241053Y526102*
X240428Y525789*
X239803*
X239178Y526102*
X238865Y526415*
X238553Y527039*
Y528289*
X238865Y528915*
X239178Y529227*
X239803Y529539*
X240428*
X241053Y529227*
X241365Y528915*
X241678Y528289*
X242709Y243887D02*
X243646D01*
Y243575*
X243334Y242950*
X243021Y242637*
X242396Y242325*
X241771*
X241146Y242637*
X240834Y242950*
X240521Y243575*
Y244825*
X240834Y245450*
X241146Y245763*
X241771Y246075*
X242396*
X243021Y245763*
X243334Y245450*
X243646Y244825*
X242709Y259635D02*
X243646D01*
Y259323*
X243334Y258698*
X243021Y258385*
X242396Y258073*
X241771*
X241146Y258385*
X240834Y258698*
X240521Y259323*
Y260573*
X240834Y261198*
X241146Y261511*
X241771Y261823*
X242396*
X243021Y261511*
X243334Y261198*
X243646Y260573*
X242709Y267509D02*
X243646D01*
Y267197*
X243334Y266572*
X243021Y266259*
X242396Y265947*
X241771*
X241146Y266259*
X240834Y266572*
X240521Y267197*
Y268447*
X240834Y269072*
X241146Y269385*
X241771Y269697*
X242396*
X243021Y269385*
X243334Y269072*
X243646Y268447*
X242709Y277352D02*
X243646D01*
Y277039*
X243334Y276415*
X243021Y276102*
X242396Y275789*
X241771*
X241146Y276102*
X240834Y276415*
X240521Y277039*
Y278289*
X240834Y278915*
X241146Y279227*
X241771Y279539*
X242396*
X243021Y279227*
X243334Y278915*
X243646Y278289*
X242709Y323100D02*
X243646D01*
Y322787*
X243334Y322163*
X243021Y321850*
X242396Y321537*
X241771*
X241146Y321850*
X240834Y322163*
X240521Y322787*
Y324037*
X240834Y324663*
X241146Y324975*
X241771Y325287*
X242396*
X243021Y324975*
X243334Y324663*
X243646Y324037*
X245287Y383413D02*
X245913Y383100D01*
X246225Y382475*
X245913Y381850*
X245287Y381537*
X243100*
Y385287*
X245287*
X245913Y384975*
X246225Y384350*
X245913Y383725*
X245287Y383413*
X243100*
X245287Y403413D02*
X245913Y403100D01*
X246225Y402475*
X245913Y401850*
X245287Y401537*
X243100*
Y405287*
X245287*
X245913Y404975*
X246225Y404350*
X245913Y403725*
X245287Y403413*
X243100*
X245287Y423413D02*
X245913Y423100D01*
X246225Y422475*
X245913Y421850*
X245287Y421537*
X243100*
Y425287*
X245287*
X245913Y424975*
X246225Y424350*
X245913Y423725*
X245287Y423413*
X243100*
X245287Y443413D02*
X245913Y443100D01*
X246225Y442475*
X245913Y441850*
X245287Y441537*
X243100*
Y445287*
X245287*
X245913Y444975*
X246225Y444350*
X245913Y443725*
X245287Y443413*
X243100*
X246646Y257667D02*
X247583D01*
Y257354*
X247271Y256730*
X246958Y256417*
X246333Y256104*
X245708*
X245083Y256417*
X244771Y256730*
X244458Y257354*
Y258604*
X244771Y259230*
X245083Y259542*
X245708Y259854*
X246333*
X246958Y259542*
X247271Y259230*
X247583Y258604*
X246646Y269478D02*
X247583D01*
Y269165*
X247271Y268541*
X246958Y268228*
X246333Y267915*
X245708*
X245083Y268228*
X244771Y268541*
X244458Y269165*
Y270415*
X244771Y271041*
X245083Y271353*
X245708Y271665*
X246333*
X246958Y271353*
X247271Y271041*
X247583Y270415*
X246646Y279320D02*
X247583D01*
Y279008*
X247271Y278383*
X246958Y278070*
X246333Y277758*
X245708*
X245083Y278070*
X244771Y278383*
X244458Y279008*
Y280258*
X244771Y280883*
X245083Y281196*
X245708Y281508*
X246333*
X246958Y281196*
X247271Y280883*
X247583Y280258*
X246646Y328533D02*
X247583D01*
Y328220*
X247271Y327596*
X246958Y327283*
X246333Y326970*
X245708*
X245083Y327283*
X244771Y327596*
X244458Y328220*
Y329470*
X244771Y330096*
X245083Y330408*
X245708Y330720*
X246333*
X246958Y330408*
X247271Y330096*
X247583Y329470*
X246646Y358061D02*
X247583D01*
Y357748*
X247271Y357123*
X246958Y356811*
X246333Y356498*
X245708*
X245083Y356811*
X244771Y357123*
X244458Y357748*
Y358998*
X244771Y359623*
X245083Y359936*
X245708Y360248*
X246333*
X246958Y359936*
X247271Y359623*
X247583Y358998*
X246646Y371840D02*
X247583D01*
Y371528*
X247271Y370903*
X246958Y370590*
X246333Y370278*
X245708*
X245083Y370590*
X244771Y370903*
X244458Y371528*
Y372778*
X244771Y373403*
X245083Y373715*
X245708Y374028*
X246333*
X246958Y373715*
X247271Y373403*
X247583Y372778*
X246646Y464672D02*
X247271Y464360D01*
X247583Y463735*
X247271Y463110*
X246646Y462797*
X244458*
Y466547*
X246646*
X247271Y466235*
X247583Y465610*
X247271Y464985*
X246646Y464672*
X244458*
X246646Y504043D02*
X247271Y503730D01*
X247583Y503105*
X247271Y502480*
X246646Y502167*
X244458*
Y505917*
X246646*
X247271Y505605*
X247583Y504980*
X247271Y504355*
X246646Y504043*
X244458*
X246646Y509635D02*
X247583D01*
Y509323*
X247271Y508698*
X246958Y508385*
X246333Y508073*
X245708*
X245083Y508385*
X244771Y508698*
X244458Y509323*
Y510573*
X244771Y511198*
X245083Y511511*
X245708Y511823*
X246333*
X246958Y511511*
X247271Y511198*
X247583Y510573*
X246646Y527352D02*
X247583D01*
Y527039*
X247271Y526415*
X246958Y526102*
X246333Y525789*
X245708*
X245083Y526102*
X244771Y526415*
X244458Y527039*
Y528289*
X244771Y528915*
X245083Y529227*
X245708Y529539*
X246333*
X246958Y529227*
X247271Y528915*
X247583Y528289*
X246646Y572628D02*
X247583D01*
Y572315*
X247271Y571690*
X246958Y571378*
X246333Y571065*
X245708*
X245083Y571378*
X244771Y571690*
X244458Y572315*
Y573565*
X244771Y574190*
X245083Y574503*
X245708Y574815*
X246333*
X246958Y574503*
X247271Y574190*
X247583Y573565*
X246646Y578533D02*
X247583D01*
Y578220*
X247271Y577596*
X246958Y577283*
X246333Y576970*
X245708*
X245083Y577283*
X244771Y577596*
X244458Y578220*
Y579470*
X244771Y580096*
X245083Y580408*
X245708Y580720*
X246333*
X246958Y580408*
X247271Y580096*
X247583Y579470*
X247787Y125913D02*
X248413Y125600D01*
X248725Y124975*
X248413Y124350*
X247787Y124037*
X245600*
Y127787*
X247787*
X248413Y127475*
X248725Y126850*
X248413Y126225*
X247787Y125913*
X245600*
X248614Y377746D02*
X249552D01*
Y377433*
X249239Y376808*
X248927Y376496*
X248302Y376183*
X247677*
X247052Y376496*
X246739Y376808*
X246427Y377433*
Y378683*
X246739Y379308*
X247052Y379621*
X247677Y379933*
X248302*
X248927Y379621*
X249239Y379308*
X249552Y378683*
X251225Y584663D02*
X250913Y584350D01*
X250287Y584037*
X249350*
X248725Y584350*
X248413Y584663*
X248100Y585287*
Y586537*
X248413Y587163*
X248725Y587475*
X249350Y587787*
X250287*
X250913Y587475*
X251225Y587163*
X250583Y539163D02*
X251520D01*
Y538850*
X251208Y538226*
X250895Y537913*
X250270Y537600*
X249645*
X249020Y537913*
X248708Y538226*
X248395Y538850*
Y540100*
X248708Y540726*
X249020Y541038*
X249645Y541350*
X250270*
X250895Y541038*
X251208Y540726*
X251520Y540100*
X254520Y498137D02*
X255145Y497824D01*
X255457Y497200*
X255145Y496574*
X254520Y496262*
X252332*
Y500012*
X254520*
X255145Y499700*
X255457Y499074*
X255145Y498450*
X254520Y498137*
X252332*
X254520Y523728D02*
X255145Y523415D01*
X255457Y522790*
X255145Y522165*
X254520Y521852*
X252332*
Y525602*
X254520*
X255145Y525290*
X255457Y524665*
X255145Y524040*
X254520Y523728*
X252332*
X255287Y263413D02*
X255913Y263100D01*
X256225Y262475*
X255913Y261850*
X255287Y261537*
X253100*
Y265287*
X255287*
X255913Y264975*
X256225Y264350*
X255913Y263725*
X255287Y263413*
X253100*
X255287Y273413D02*
X255913Y273100D01*
X256225Y272475*
X255913Y271850*
X255287Y271537*
X253100*
Y275287*
X255287*
X255913Y274975*
X256225Y274350*
X255913Y273725*
X255287Y273413*
X253100*
X255287Y283413D02*
X255913Y283100D01*
X256225Y282475*
X255913Y281850*
X255287Y281537*
X253100*
Y285287*
X255287*
X255913Y284975*
X256225Y284350*
X255913Y283725*
X255287Y283413*
X253100*
X255287Y293413D02*
X255913Y293100D01*
X256225Y292475*
X255913Y291850*
X255287Y291537*
X253100*
Y295287*
X255287*
X255913Y294975*
X256225Y294350*
X255913Y293725*
X255287Y293413*
X253100*
X255287Y303413D02*
X255913Y303100D01*
X256225Y302475*
X255913Y301850*
X255287Y301537*
X253100*
Y305287*
X255287*
X255913Y304975*
X256225Y304350*
X255913Y303725*
X255287Y303413*
X253100*
X255287Y313413D02*
X255913Y313100D01*
X256225Y312475*
X255913Y311850*
X255287Y311537*
X253100*
Y315287*
X255287*
X255913Y314975*
X256225Y314350*
X255913Y313725*
X255287Y313413*
X253100*
X255287Y323413D02*
X255913Y323100D01*
X256225Y322475*
X255913Y321850*
X255287Y321537*
X253100*
Y325287*
X255287*
X255913Y324975*
X256225Y324350*
X255913Y323725*
X255287Y323413*
X253100*
X255287Y333413D02*
X255913Y333100D01*
X256225Y332475*
X255913Y331850*
X255287Y331537*
X253100*
Y335287*
X255287*
X255913Y334975*
X256225Y334350*
X255913Y333725*
X255287Y333413*
X253100*
X255287Y343413D02*
X255913Y343100D01*
X256225Y342475*
X255913Y341850*
X255287Y341537*
X253100*
Y345287*
X255287*
X255913Y344975*
X256225Y344350*
X255913Y343725*
X255287Y343413*
X253100*
X255287Y353413D02*
X255913Y353100D01*
X256225Y352475*
X255913Y351850*
X255287Y351537*
X253100*
Y355287*
X255287*
X255913Y354975*
X256225Y354350*
X255913Y353725*
X255287Y353413*
X253100*
X255287Y363413D02*
X255913Y363100D01*
X256225Y362475*
X255913Y361850*
X255287Y361537*
X253100*
Y365287*
X255287*
X255913Y364975*
X256225Y364350*
X255913Y363725*
X255287Y363413*
X253100*
X255287Y373413D02*
X255913Y373100D01*
X256225Y372475*
X255913Y371850*
X255287Y371537*
X253100*
Y375287*
X255287*
X255913Y374975*
X256225Y374350*
X255913Y373725*
X255287Y373413*
X253100*
X255287Y383413D02*
X255913Y383100D01*
X256225Y382475*
X255913Y381850*
X255287Y381537*
X253100*
Y385287*
X255287*
X255913Y384975*
X256225Y384350*
X255913Y383725*
X255287Y383413*
X253100*
X255287Y393413D02*
X255913Y393100D01*
X256225Y392475*
X255913Y391850*
X255287Y391537*
X253100*
Y395287*
X255287*
X255913Y394975*
X256225Y394350*
X255913Y393725*
X255287Y393413*
X253100*
X255287Y403413D02*
X255913Y403100D01*
X256225Y402475*
X255913Y401850*
X255287Y401537*
X253100*
Y405287*
X255287*
X255913Y404975*
X256225Y404350*
X255913Y403725*
X255287Y403413*
X253100*
X255287Y413413D02*
X255913Y413100D01*
X256225Y412475*
X255913Y411850*
X255287Y411537*
X253100*
Y415287*
X255287*
X255913Y414975*
X256225Y414350*
X255913Y413725*
X255287Y413413*
X253100*
X255287Y423413D02*
X255913Y423100D01*
X256225Y422475*
X255913Y421850*
X255287Y421537*
X253100*
Y425287*
X255287*
X255913Y424975*
X256225Y424350*
X255913Y423725*
X255287Y423413*
X253100*
X255287Y433413D02*
X255913Y433100D01*
X256225Y432475*
X255913Y431850*
X255287Y431537*
X253100*
Y435287*
X255287*
X255913Y434975*
X256225Y434350*
X255913Y433725*
X255287Y433413*
X253100*
X255287Y443413D02*
X255913Y443100D01*
X256225Y442475*
X255913Y441850*
X255287Y441537*
X253100*
Y445287*
X255287*
X255913Y444975*
X256225Y444350*
X255913Y443725*
X255287Y443413*
X253100*
X255287Y453413D02*
X255913Y453100D01*
X256225Y452475*
X255913Y451850*
X255287Y451537*
X253100*
Y455287*
X255287*
X255913Y454975*
X256225Y454350*
X255913Y453725*
X255287Y453413*
X253100*
X260287Y160913D02*
X260913Y160600D01*
X261225Y159975*
X260913Y159350*
X260287Y159037*
X258100*
Y162787*
X260287*
X260913Y162475*
X261225Y161850*
X260913Y161225*
X260287Y160913*
X258100*
X260287Y180913D02*
X260913Y180600D01*
X261225Y179975*
X260913Y179350*
X260287Y179037*
X258100*
Y182787*
X260287*
X260913Y182475*
X261225Y181850*
X260913Y181225*
X260287Y180913*
X258100*
X260287Y200913D02*
X260913Y200600D01*
X261225Y199975*
X260913Y199350*
X260287Y199037*
X258100*
Y202787*
X260287*
X260913Y202475*
X261225Y201850*
X260913Y201225*
X260287Y200913*
X258100*
X261225Y584663D02*
X260913Y584350D01*
X260287Y584037*
X259350*
X258725Y584350*
X258413Y584663*
X258100Y585287*
Y586537*
X258413Y587163*
X258725Y587475*
X259350Y587787*
X260287*
X260913Y587475*
X261225Y587163*
X260425Y517509D02*
X261363D01*
Y517197*
X261050Y516572*
X260738Y516259*
X260113Y515947*
X259488*
X258863Y516259*
X258550Y516572*
X258238Y517197*
Y518447*
X258550Y519072*
X258863Y519385*
X259488Y519697*
X260113*
X260738Y519385*
X261050Y519072*
X261363Y518447*
X262394Y248100D02*
X263331D01*
Y247787*
X263019Y247163*
X262706Y246850*
X262081Y246537*
X261456*
X260831Y246850*
X260519Y247163*
X260206Y247787*
Y249037*
X260519Y249663*
X260831Y249975*
X261456Y250287*
X262081*
X262706Y249975*
X263019Y249663*
X263331Y249037*
X262394Y348218D02*
X263331D01*
Y347906*
X263019Y347281*
X262706Y346968*
X262081Y346656*
X261456*
X260831Y346968*
X260519Y347281*
X260206Y347906*
Y349156*
X260519Y349781*
X260831Y350093*
X261456Y350406*
X262081*
X262706Y350093*
X263019Y349781*
X263331Y349156*
X262394Y369872D02*
X263331D01*
Y369559*
X263019Y368934*
X262706Y368622*
X262081Y368309*
X261456*
X260831Y368622*
X260519Y368934*
X260206Y369559*
Y370809*
X260519Y371434*
X260831Y371747*
X261456Y372059*
X262081*
X262706Y371747*
X263019Y371434*
X263331Y370809*
X266331Y92313D02*
X267269D01*
Y92000*
X266956Y91375*
X266643Y91063*
X266019Y90750*
X265393*
X264769Y91063*
X264456Y91375*
X264143Y92000*
Y93250*
X264456Y93875*
X264769Y94188*
X265393Y94500*
X266019*
X266643Y94188*
X266956Y93875*
X267269Y93250*
X266331Y178927D02*
X267269D01*
Y178614*
X266956Y177989*
X266643Y177677*
X266019Y177364*
X265393*
X264769Y177677*
X264456Y177989*
X264143Y178614*
Y179864*
X264456Y180489*
X264769Y180802*
X265393Y181114*
X266019*
X266643Y180802*
X266956Y180489*
X267269Y179864*
X266331Y387588D02*
X267269D01*
Y387276*
X266956Y386651*
X266643Y386338*
X266019Y386026*
X265393*
X264769Y386338*
X264456Y386651*
X264143Y387276*
Y388526*
X264456Y389151*
X264769Y389463*
X265393Y389776*
X266019*
X266643Y389463*
X266956Y389151*
X267269Y388526*
X267787Y493413D02*
X268413Y493100D01*
X268725Y492475*
X268413Y491850*
X267787Y491537*
X265600*
Y495287*
X267787*
X268413Y494975*
X268725Y494350*
X268413Y493725*
X267787Y493413*
X265600*
X267787Y523413D02*
X268413Y523100D01*
X268725Y522475*
X268413Y521850*
X267787Y521537*
X265600*
Y525287*
X267787*
X268413Y524975*
X268725Y524350*
X268413Y523725*
X267787Y523413*
X265600*
X268299Y423100D02*
X269237D01*
Y422787*
X268924Y422163*
X268612Y421850*
X267987Y421537*
X267362*
X266737Y421850*
X266424Y422163*
X266112Y422787*
Y424037*
X266424Y424663*
X266737Y424975*
X267362Y425287*
X267987*
X268612Y424975*
X268924Y424663*
X269237Y424037*
X268299Y466328D02*
X269237D01*
Y466016*
X268924Y465391*
X268612Y465078*
X267987Y464766*
X267362*
X266737Y465078*
X266424Y465391*
X266112Y466016*
Y467266*
X266424Y467891*
X266737Y468204*
X267362Y468516*
X267987*
X268612Y468204*
X268924Y467891*
X269237Y467266*
X270268Y131683D02*
X271206D01*
Y131370*
X270893Y130745*
X270580Y130433*
X269956Y130120*
X269330*
X268706Y130433*
X268393Y130745*
X268080Y131370*
Y132620*
X268393Y133245*
X268706Y133558*
X269330Y133870*
X269956*
X270580Y133558*
X270893Y133245*
X271206Y132620*
X270268Y188769D02*
X271206D01*
Y188457*
X270893Y187832*
X270580Y187519*
X269956Y187207*
X269330*
X268706Y187519*
X268393Y187832*
X268080Y188457*
Y189707*
X268393Y190332*
X268706Y190644*
X269330Y190957*
X269956*
X270580Y190644*
X270893Y190332*
X271206Y189707*
X270268Y289163D02*
X271206D01*
Y288850*
X270893Y288226*
X270580Y287913*
X269956Y287600*
X269330*
X268706Y287913*
X268393Y288226*
X268080Y288850*
Y290100*
X268393Y290726*
X268706Y291038*
X269330Y291350*
X269956*
X270580Y291038*
X270893Y290726*
X271206Y290100*
X270268Y318691D02*
X271206D01*
Y318378*
X270893Y317753*
X270580Y317441*
X269956Y317128*
X269330*
X268706Y317441*
X268393Y317753*
X268080Y318378*
Y319628*
X268393Y320253*
X268706Y320566*
X269330Y320878*
X269956*
X270580Y320566*
X270893Y320253*
X271206Y319628*
X271225Y584663D02*
X270913Y584350D01*
X270287Y584037*
X269350*
X268725Y584350*
X268413Y584663*
X268100Y585287*
Y586537*
X268413Y587163*
X268725Y587475*
X269350Y587787*
X270287*
X270913Y587475*
X271225Y587163*
X272236Y391525D02*
X273174D01*
Y391213*
X272861Y390588*
X272549Y390275*
X271924Y389963*
X271299*
X270674Y390275*
X270361Y390588*
X270049Y391213*
Y392463*
X270361Y393088*
X270674Y393400*
X271299Y393713*
X271924*
X272549Y393400*
X272861Y393088*
X273174Y392463*
X272236Y464360D02*
X273174D01*
Y464047*
X272861Y463422*
X272549Y463110*
X271924Y462797*
X271299*
X270674Y463110*
X270361Y463422*
X270049Y464047*
Y465297*
X270361Y465922*
X270674Y466235*
X271299Y466547*
X271924*
X272549Y466235*
X272861Y465922*
X273174Y465297*
X274205Y285226D02*
X275143D01*
Y284913*
X274830Y284289*
X274517Y283976*
X273893Y283663*
X273267*
X272643Y283976*
X272330Y284289*
X272017Y284913*
Y286163*
X272330Y286789*
X272643Y287101*
X273267Y287413*
X273893*
X274517Y287101*
X274830Y286789*
X275143Y286163*
X274205Y314754D02*
X275143D01*
Y314441*
X274830Y313816*
X274517Y313504*
X273893Y313191*
X273267*
X272643Y313504*
X272330Y313816*
X272017Y314441*
Y315691*
X272330Y316316*
X272643Y316629*
X273267Y316941*
X273893*
X274517Y316629*
X274830Y316316*
X275143Y315691*
X274205Y515541D02*
X275143D01*
Y515228*
X274830Y514604*
X274517Y514291*
X273893Y513978*
X273267*
X272643Y514291*
X272330Y514604*
X272017Y515228*
Y516478*
X272330Y517104*
X272643Y517416*
X273267Y517728*
X273893*
X274517Y517416*
X274830Y517104*
X275143Y516478*
X277787Y493413D02*
X278413Y493100D01*
X278725Y492475*
X278413Y491850*
X277787Y491537*
X275600*
Y495287*
X277787*
X278413Y494975*
X278725Y494350*
X278413Y493725*
X277787Y493413*
X275600*
X277787Y523413D02*
X278413Y523100D01*
X278725Y522475*
X278413Y521850*
X277787Y521537*
X275600*
Y525287*
X277787*
X278413Y524975*
X278725Y524350*
X278413Y523725*
X277787Y523413*
X275600*
X278142Y238100D02*
X279080D01*
Y237787*
X278767Y237163*
X278454Y236850*
X277830Y236537*
X277204*
X276580Y236850*
X276267Y237163*
X275954Y237787*
Y239037*
X276267Y239663*
X276580Y239975*
X277204Y240287*
X277830*
X278454Y239975*
X278767Y239663*
X279080Y239037*
X278142Y283257D02*
X279080D01*
Y282945*
X278767Y282320*
X278454Y282007*
X277830Y281695*
X277204*
X276580Y282007*
X276267Y282320*
X275954Y282945*
Y284195*
X276267Y284820*
X276580Y285133*
X277204Y285445*
X277830*
X278454Y285133*
X278767Y284820*
X279080Y284195*
X278142Y328533D02*
X279080D01*
Y328220*
X278767Y327596*
X278454Y327283*
X277830Y326970*
X277204*
X276580Y327283*
X276267Y327596*
X275954Y328220*
Y329470*
X276267Y330096*
X276580Y330408*
X277204Y330720*
X277830*
X278454Y330408*
X278767Y330096*
X279080Y329470*
X278142Y338376D02*
X279080D01*
Y338063*
X278767Y337438*
X278454Y337126*
X277830Y336813*
X277204*
X276580Y337126*
X276267Y337438*
X275954Y338063*
Y339313*
X276267Y339938*
X276580Y340251*
X277204Y340563*
X277830*
X278454Y340251*
X278767Y339938*
X279080Y339313*
X281225Y584663D02*
X280913Y584350D01*
X280287Y584037*
X279350*
X278725Y584350*
X278413Y584663*
X278100Y585287*
Y586537*
X278413Y587163*
X278725Y587475*
X279350Y587787*
X280287*
X280913Y587475*
X281225Y587163*
X286016Y243887D02*
X286954D01*
Y243575*
X286641Y242950*
X286328Y242637*
X285704Y242325*
X285078*
X284454Y242637*
X284141Y242950*
X283828Y243575*
Y244825*
X284141Y245450*
X284454Y245763*
X285078Y246075*
X285704*
X286328Y245763*
X286641Y245450*
X286954Y244825*
X286016Y283257D02*
X286954D01*
Y282945*
X286641Y282320*
X286328Y282007*
X285704Y281695*
X285078*
X284454Y282007*
X284141Y282320*
X283828Y282945*
Y284195*
X284141Y284820*
X284454Y285133*
X285078Y285445*
X285704*
X286328Y285133*
X286641Y284820*
X286954Y284195*
X287787Y493413D02*
X288413Y493100D01*
X288725Y492475*
X288413Y491850*
X287787Y491537*
X285600*
Y495287*
X287787*
X288413Y494975*
X288725Y494350*
X288413Y493725*
X287787Y493413*
X285600*
X287787Y523413D02*
X288413Y523100D01*
X288725Y522475*
X288413Y521850*
X287787Y521537*
X285600*
Y525287*
X287787*
X288413Y524975*
X288725Y524350*
X288413Y523725*
X287787Y523413*
X285600*
X289953Y188769D02*
X290891D01*
Y188457*
X290578Y187832*
X290265Y187519*
X289641Y187207*
X289015*
X288391Y187519*
X288078Y187832*
X287765Y188457*
Y189707*
X288078Y190332*
X288391Y190644*
X289015Y190957*
X289641*
X290265Y190644*
X290578Y190332*
X290891Y189707*
X289953Y285226D02*
X290891D01*
Y284913*
X290578Y284289*
X290265Y283976*
X289641Y283663*
X289015*
X288391Y283976*
X288078Y284289*
X287765Y284913*
Y286163*
X288078Y286789*
X288391Y287101*
X289015Y287413*
X289641*
X290265Y287101*
X290578Y286789*
X290891Y286163*
X289953Y302943D02*
X290891D01*
Y302630*
X290578Y302005*
X290265Y301693*
X289641Y301380*
X289015*
X288391Y301693*
X288078Y302005*
X287765Y302630*
Y303880*
X288078Y304505*
X288391Y304818*
X289015Y305130*
X289641*
X290265Y304818*
X290578Y304505*
X290891Y303880*
X291225Y584663D02*
X290913Y584350D01*
X290287Y584037*
X289350*
X288725Y584350*
X288413Y584663*
X288100Y585287*
Y586537*
X288413Y587163*
X288725Y587475*
X289350Y587787*
X290287*
X290913Y587475*
X291225Y587163*
X293890Y153336D02*
X294828D01*
Y153024*
X294515Y152399*
X294202Y152086*
X293578Y151774*
X292952*
X292328Y152086*
X292015Y152399*
X291702Y153024*
Y154274*
X292015Y154899*
X292328Y155211*
X292952Y155524*
X293578*
X294202Y155211*
X294515Y154899*
X294828Y154274*
X293890Y222234D02*
X294828D01*
Y221921*
X294515Y221296*
X294202Y220984*
X293578Y220671*
X292952*
X292328Y220984*
X292015Y221296*
X291702Y221921*
Y223171*
X292015Y223796*
X292328Y224109*
X292952Y224421*
X293578*
X294202Y224109*
X294515Y223796*
X294828Y223171*
X293890Y279320D02*
X294828D01*
Y279008*
X294515Y278383*
X294202Y278070*
X293578Y277758*
X292952*
X292328Y278070*
X292015Y278383*
X291702Y279008*
Y280258*
X292015Y280883*
X292328Y281196*
X292952Y281508*
X293578*
X294202Y281196*
X294515Y280883*
X294828Y280258*
X297787Y493413D02*
X298413Y493100D01*
X298725Y492475*
X298413Y491850*
X297787Y491537*
X295600*
Y495287*
X297787*
X298413Y494975*
X298725Y494350*
X298413Y493725*
X297787Y493413*
X295600*
X297787Y523413D02*
X298413Y523100D01*
X298725Y522475*
X298413Y521850*
X297787Y521537*
X295600*
Y525287*
X297787*
X298413Y524975*
X298725Y524350*
X298413Y523725*
X297787Y523413*
X295600*
X297827Y108061D02*
X298765D01*
Y107748*
X298452Y107123*
X298139Y106811*
X297515Y106498*
X296889*
X296265Y106811*
X295952Y107123*
X295639Y107748*
Y108998*
X295952Y109623*
X296265Y109936*
X296889Y110248*
X297515*
X298139Y109936*
X298452Y109623*
X298765Y108998*
X297827Y184832D02*
X298765D01*
Y184520*
X298452Y183895*
X298139Y183582*
X297515Y183270*
X296889*
X296265Y183582*
X295952Y183895*
X295639Y184520*
Y185770*
X295952Y186395*
X296265Y186707*
X296889Y187020*
X297515*
X298139Y186707*
X298452Y186395*
X298765Y185770*
X297827Y338376D02*
X298765D01*
Y338063*
X298452Y337438*
X298139Y337126*
X297515Y336813*
X296889*
X296265Y337126*
X295952Y337438*
X295639Y338063*
Y339313*
X295952Y339938*
X296265Y340251*
X296889Y340563*
X297515*
X298139Y340251*
X298452Y339938*
X298765Y339313*
X297827Y391525D02*
X298765D01*
Y391213*
X298452Y390588*
X298139Y390275*
X297515Y389963*
X296889*
X296265Y390275*
X295952Y390588*
X295639Y391213*
Y392463*
X295952Y393088*
X296265Y393400*
X296889Y393713*
X297515*
X298139Y393400*
X298452Y393088*
X298765Y392463*
X297827Y452549D02*
X298765D01*
Y452236*
X298452Y451611*
X298139Y451299*
X297515Y450986*
X296889*
X296265Y451299*
X295952Y451611*
X295639Y452236*
Y453486*
X295952Y454111*
X296265Y454424*
X296889Y454736*
X297515*
X298139Y454424*
X298452Y454111*
X298765Y453486*
X297827Y466328D02*
X298765D01*
Y466016*
X298452Y465391*
X298139Y465078*
X297515Y464766*
X296889*
X296265Y465078*
X295952Y465391*
X295639Y466016*
Y467266*
X295952Y467891*
X296265Y468204*
X296889Y468516*
X297515*
X298139Y468204*
X298452Y467891*
X298765Y467266*
X299795Y572628D02*
X300733D01*
Y572315*
X300420Y571690*
X300108Y571378*
X299483Y571065*
X298858*
X298233Y571378*
X297920Y571690*
X297608Y572315*
Y573565*
X297920Y574190*
X298233Y574503*
X298858Y574815*
X299483*
X300108Y574503*
X300420Y574190*
X300733Y573565*
X301225Y584663D02*
X300913Y584350D01*
X300287Y584037*
X299350*
X298725Y584350*
X298413Y584663*
X298100Y585287*
Y586537*
X298413Y587163*
X298725Y587475*
X299350Y587787*
X300287*
X300913Y587475*
X301225Y587163*
X301764Y111998D02*
X302702D01*
Y111685*
X302389Y111060*
X302076Y110748*
X301452Y110435*
X300826*
X300202Y110748*
X299889Y111060*
X299576Y111685*
Y112935*
X299889Y113560*
X300202Y113873*
X300826Y114185*
X301452*
X302076Y113873*
X302389Y113560*
X302702Y112935*
X301764Y188769D02*
X302702D01*
Y188457*
X302389Y187832*
X302076Y187519*
X301452Y187207*
X300826*
X300202Y187519*
X299889Y187832*
X299576Y188457*
Y189707*
X299889Y190332*
X300202Y190644*
X300826Y190957*
X301452*
X302076Y190644*
X302389Y190332*
X302702Y189707*
X301764Y462391D02*
X302702D01*
Y462079*
X302389Y461454*
X302076Y461141*
X301452Y460829*
X300826*
X300202Y461141*
X299889Y461454*
X299576Y462079*
Y463329*
X299889Y463954*
X300202Y464267*
X300826Y464579*
X301452*
X302076Y464267*
X302389Y463954*
X302702Y463329*
X303732Y348218D02*
X304670D01*
Y347906*
X304357Y347281*
X304045Y346968*
X303420Y346656*
X302795*
X302170Y346968*
X301857Y347281*
X301545Y347906*
Y349156*
X301857Y349781*
X302170Y350093*
X302795Y350406*
X303420*
X304045Y350093*
X304357Y349781*
X304670Y349156*
X303732Y363100D02*
X304670D01*
Y362787*
X304357Y362163*
X304045Y361850*
X303420Y361537*
X302795*
X302170Y361850*
X301857Y362163*
X301545Y362787*
Y364037*
X301857Y364663*
X302170Y364975*
X302795Y365287*
X303420*
X304045Y364975*
X304357Y364663*
X304670Y364037*
X305701Y104124D02*
X306639D01*
Y103811*
X306326Y103186*
X306013Y102874*
X305389Y102561*
X304763*
X304139Y102874*
X303826Y103186*
X303513Y103811*
Y105061*
X303826Y105686*
X304139Y105999*
X304763Y106311*
X305389*
X306013Y105999*
X306326Y105686*
X306639Y105061*
X305701Y184832D02*
X306639D01*
Y184520*
X306326Y183895*
X306013Y183582*
X305389Y183270*
X304763*
X304139Y183582*
X303826Y183895*
X303513Y184520*
Y185770*
X303826Y186395*
X304139Y186707*
X304763Y187020*
X305389*
X306013Y186707*
X306326Y186395*
X306639Y185770*
X305701Y214360D02*
X306639D01*
Y214047*
X306326Y213422*
X306013Y213110*
X305389Y212797*
X304763*
X304139Y213110*
X303826Y213422*
X303513Y214047*
Y215297*
X303826Y215922*
X304139Y216235*
X304763Y216547*
X305389*
X306013Y216235*
X306326Y215922*
X306639Y215297*
X305701Y239950D02*
X306639D01*
Y239638*
X306326Y239013*
X306013Y238700*
X305389Y238388*
X304763*
X304139Y238700*
X303826Y239013*
X303513Y239638*
Y240888*
X303826Y241513*
X304139Y241826*
X304763Y242138*
X305389*
X306013Y241826*
X306326Y241513*
X306639Y240888*
X305701Y299006D02*
X306639D01*
Y298693*
X306326Y298068*
X306013Y297756*
X305389Y297443*
X304763*
X304139Y297756*
X303826Y298068*
X303513Y298693*
Y299943*
X303826Y300568*
X304139Y300881*
X304763Y301193*
X305389*
X306013Y300881*
X306326Y300568*
X306639Y299943*
X307669Y369872D02*
X308607D01*
Y369559*
X308294Y368934*
X307982Y368622*
X307357Y368309*
X306732*
X306107Y368622*
X305794Y368934*
X305482Y369559*
Y370809*
X305794Y371434*
X306107Y371747*
X306732Y372059*
X307357*
X307982Y371747*
X308294Y371434*
X308607Y370809*
X307669Y428927D02*
X308607D01*
Y428614*
X308294Y427989*
X307982Y427677*
X307357Y427364*
X306732*
X306107Y427677*
X305794Y427989*
X305482Y428614*
Y429864*
X305794Y430489*
X306107Y430802*
X306732Y431114*
X307357*
X307982Y430802*
X308294Y430489*
X308607Y429864*
X307787Y493413D02*
X308413Y493100D01*
X308725Y492475*
X308413Y491850*
X307787Y491537*
X305600*
Y495287*
X307787*
X308413Y494975*
X308725Y494350*
X308413Y493725*
X307787Y493413*
X305600*
X307787Y523413D02*
X308413Y523100D01*
X308725Y522475*
X308413Y521850*
X307787Y521537*
X305600*
Y525287*
X307787*
X308413Y524975*
X308725Y524350*
X308413Y523725*
X307787Y523413*
X305600*
X309638Y100187D02*
X310576D01*
Y99874*
X310263Y99249*
X309950Y98937*
X309326Y98624*
X308700*
X308076Y98937*
X307763Y99249*
X307450Y99874*
Y101124*
X307763Y101749*
X308076Y102062*
X308700Y102374*
X309326*
X309950Y102062*
X310263Y101749*
X310576Y101124*
X309638Y174990D02*
X310576D01*
Y174677*
X310263Y174052*
X309950Y173740*
X309326Y173427*
X308700*
X308076Y173740*
X307763Y174052*
X307450Y174677*
Y175927*
X307763Y176552*
X308076Y176865*
X308700Y177177*
X309326*
X309950Y176865*
X310263Y176552*
X310576Y175927*
X311225Y584663D02*
X310913Y584350D01*
X310287Y584037*
X309350*
X308725Y584350*
X308413Y584663*
X308100Y585287*
Y586537*
X308413Y587163*
X308725Y587475*
X309350Y587787*
X310287*
X310913Y587475*
X311225Y587163*
X315287Y263413D02*
X315913Y263100D01*
X316225Y262475*
X315913Y261850*
X315287Y261537*
X313100*
Y265287*
X315287*
X315913Y264975*
X316225Y264350*
X315913Y263725*
X315287Y263413*
X313100*
X315287Y273413D02*
X315913Y273100D01*
X316225Y272475*
X315913Y271850*
X315287Y271537*
X313100*
Y275287*
X315287*
X315913Y274975*
X316225Y274350*
X315913Y273725*
X315287Y273413*
X313100*
X315287Y283413D02*
X315913Y283100D01*
X316225Y282475*
X315913Y281850*
X315287Y281537*
X313100*
Y285287*
X315287*
X315913Y284975*
X316225Y284350*
X315913Y283725*
X315287Y283413*
X313100*
X315287Y293413D02*
X315913Y293100D01*
X316225Y292475*
X315913Y291850*
X315287Y291537*
X313100*
Y295287*
X315287*
X315913Y294975*
X316225Y294350*
X315913Y293725*
X315287Y293413*
X313100*
X315287Y303413D02*
X315913Y303100D01*
X316225Y302475*
X315913Y301850*
X315287Y301537*
X313100*
Y305287*
X315287*
X315913Y304975*
X316225Y304350*
X315913Y303725*
X315287Y303413*
X313100*
X315287Y313413D02*
X315913Y313100D01*
X316225Y312475*
X315913Y311850*
X315287Y311537*
X313100*
Y315287*
X315287*
X315913Y314975*
X316225Y314350*
X315913Y313725*
X315287Y313413*
X313100*
X315287Y323413D02*
X315913Y323100D01*
X316225Y322475*
X315913Y321850*
X315287Y321537*
X313100*
Y325287*
X315287*
X315913Y324975*
X316225Y324350*
X315913Y323725*
X315287Y323413*
X313100*
X315287Y333413D02*
X315913Y333100D01*
X316225Y332475*
X315913Y331850*
X315287Y331537*
X313100*
Y335287*
X315287*
X315913Y334975*
X316225Y334350*
X315913Y333725*
X315287Y333413*
X313100*
X315287Y343413D02*
X315913Y343100D01*
X316225Y342475*
X315913Y341850*
X315287Y341537*
X313100*
Y345287*
X315287*
X315913Y344975*
X316225Y344350*
X315913Y343725*
X315287Y343413*
X313100*
X315287Y353413D02*
X315913Y353100D01*
X316225Y352475*
X315913Y351850*
X315287Y351537*
X313100*
Y355287*
X315287*
X315913Y354975*
X316225Y354350*
X315913Y353725*
X315287Y353413*
X313100*
X315287Y363413D02*
X315913Y363100D01*
X316225Y362475*
X315913Y361850*
X315287Y361537*
X313100*
Y365287*
X315287*
X315913Y364975*
X316225Y364350*
X315913Y363725*
X315287Y363413*
X313100*
X315287Y373413D02*
X315913Y373100D01*
X316225Y372475*
X315913Y371850*
X315287Y371537*
X313100*
Y375287*
X315287*
X315913Y374975*
X316225Y374350*
X315913Y373725*
X315287Y373413*
X313100*
X315287Y383413D02*
X315913Y383100D01*
X316225Y382475*
X315913Y381850*
X315287Y381537*
X313100*
Y385287*
X315287*
X315913Y384975*
X316225Y384350*
X315913Y383725*
X315287Y383413*
X313100*
X315287Y393413D02*
X315913Y393100D01*
X316225Y392475*
X315913Y391850*
X315287Y391537*
X313100*
Y395287*
X315287*
X315913Y394975*
X316225Y394350*
X315913Y393725*
X315287Y393413*
X313100*
X315287Y403413D02*
X315913Y403100D01*
X316225Y402475*
X315913Y401850*
X315287Y401537*
X313100*
Y405287*
X315287*
X315913Y404975*
X316225Y404350*
X315913Y403725*
X315287Y403413*
X313100*
X315287Y413413D02*
X315913Y413100D01*
X316225Y412475*
X315913Y411850*
X315287Y411537*
X313100*
Y415287*
X315287*
X315913Y414975*
X316225Y414350*
X315913Y413725*
X315287Y413413*
X313100*
X315287Y423413D02*
X315913Y423100D01*
X316225Y422475*
X315913Y421850*
X315287Y421537*
X313100*
Y425287*
X315287*
X315913Y424975*
X316225Y424350*
X315913Y423725*
X315287Y423413*
X313100*
X315287Y433413D02*
X315913Y433100D01*
X316225Y432475*
X315913Y431850*
X315287Y431537*
X313100*
Y435287*
X315287*
X315913Y434975*
X316225Y434350*
X315913Y433725*
X315287Y433413*
X313100*
X315287Y443413D02*
X315913Y443100D01*
X316225Y442475*
X315913Y441850*
X315287Y441537*
X313100*
Y445287*
X315287*
X315913Y444975*
X316225Y444350*
X315913Y443725*
X315287Y443413*
X313100*
X315287Y453413D02*
X315913Y453100D01*
X316225Y452475*
X315913Y451850*
X315287Y451537*
X313100*
Y455287*
X315287*
X315913Y454975*
X316225Y454350*
X315913Y453725*
X315287Y453413*
X313100*
X315543Y602155D02*
X316481D01*
Y601843*
X316169Y601218*
X315856Y600905*
X315231Y600593*
X314606*
X313981Y600905*
X313669Y601218*
X313356Y601843*
Y603093*
X313669Y603718*
X313981Y604030*
X314606Y604343*
X315231*
X315856Y604030*
X316169Y603718*
X316481Y603093*
X317787Y493413D02*
X318413Y493100D01*
X318725Y492475*
X318413Y491850*
X317787Y491537*
X315600*
Y495287*
X317787*
X318413Y494975*
X318725Y494350*
X318413Y493725*
X317787Y493413*
X315600*
X317787Y523413D02*
X318413Y523100D01*
X318725Y522475*
X318413Y521850*
X317787Y521537*
X315600*
Y525287*
X317787*
X318413Y524975*
X318725Y524350*
X318413Y523725*
X317787Y523413*
X315600*
X319480Y610029D02*
X320418D01*
Y609717*
X320106Y609092*
X319793Y608779*
X319168Y608467*
X318543*
X317918Y608779*
X317606Y609092*
X317293Y609717*
Y610967*
X317606Y611592*
X317918Y611904*
X318543Y612217*
X319168*
X319793Y611904*
X320106Y611592*
X320418Y610967*
X321225Y584663D02*
X320913Y584350D01*
X320287Y584037*
X319350*
X318725Y584350*
X318413Y584663*
X318100Y585287*
Y586537*
X318413Y587163*
X318725Y587475*
X319350Y587787*
X320287*
X320913Y587475*
X321225Y587163*
X323417Y115935D02*
X324355D01*
Y115622*
X324043Y114997*
X323730Y114685*
X323105Y114372*
X322480*
X321855Y114685*
X321543Y114997*
X321230Y115622*
Y116872*
X321543Y117497*
X321855Y117810*
X322480Y118122*
X323105*
X323730Y117810*
X324043Y117497*
X324355Y116872*
X323417Y257667D02*
X324355D01*
Y257354*
X324043Y256730*
X323730Y256417*
X323105Y256104*
X322480*
X321855Y256417*
X321543Y256730*
X321230Y257354*
Y258604*
X321543Y259230*
X321855Y259542*
X322480Y259854*
X323105*
X323730Y259542*
X324043Y259230*
X324355Y258604*
X323417Y328533D02*
X324355D01*
Y328220*
X324043Y327596*
X323730Y327283*
X323105Y326970*
X322480*
X321855Y327283*
X321543Y327596*
X321230Y328220*
Y329470*
X321543Y330096*
X321855Y330408*
X322480Y330720*
X323105*
X323730Y330408*
X324043Y330096*
X324355Y329470*
X323417Y338376D02*
X324355D01*
Y338063*
X324043Y337438*
X323730Y337126*
X323105Y336813*
X322480*
X321855Y337126*
X321543Y337438*
X321230Y338063*
Y339313*
X321543Y339938*
X321855Y340251*
X322480Y340563*
X323105*
X323730Y340251*
X324043Y339938*
X324355Y339313*
X323417Y397431D02*
X324355D01*
Y397118*
X324043Y396493*
X323730Y396181*
X323105Y395868*
X322480*
X321855Y396181*
X321543Y396493*
X321230Y397118*
Y398368*
X321543Y398993*
X321855Y399306*
X322480Y399618*
X323105*
X323730Y399306*
X324043Y398993*
X324355Y398368*
X323417Y443100D02*
X324355D01*
Y442787*
X324043Y442163*
X323730Y441850*
X323105Y441537*
X322480*
X321855Y441850*
X321543Y442163*
X321230Y442787*
Y444037*
X321543Y444663*
X321855Y444975*
X322480Y445287*
X323105*
X323730Y444975*
X324043Y444663*
X324355Y444037*
X327354Y277352D02*
X328292D01*
Y277039*
X327980Y276415*
X327667Y276102*
X327042Y275789*
X326417*
X325792Y276102*
X325480Y276415*
X325167Y277039*
Y278289*
X325480Y278915*
X325792Y279227*
X326417Y279539*
X327042*
X327667Y279227*
X327980Y278915*
X328292Y278289*
X327354Y332470D02*
X328292D01*
Y332157*
X327980Y331533*
X327667Y331220*
X327042Y330907*
X326417*
X325792Y331220*
X325480Y331533*
X325167Y332157*
Y333407*
X325480Y334033*
X325792Y334345*
X326417Y334657*
X327042*
X327667Y334345*
X327980Y334033*
X328292Y333407*
X327787Y125913D02*
X328413Y125600D01*
X328725Y124975*
X328413Y124350*
X327787Y124037*
X325600*
Y127787*
X327787*
X328413Y127475*
X328725Y126850*
X328413Y126225*
X327787Y125913*
X325600*
X327787Y135913D02*
X328413Y135600D01*
X328725Y134975*
X328413Y134350*
X327787Y134037*
X325600*
Y137787*
X327787*
X328413Y137475*
X328725Y136850*
X328413Y136225*
X327787Y135913*
X325600*
X327787Y145913D02*
X328413Y145600D01*
X328725Y144975*
X328413Y144350*
X327787Y144037*
X325600*
Y147787*
X327787*
X328413Y147475*
X328725Y146850*
X328413Y146225*
X327787Y145913*
X325600*
X327787Y155913D02*
X328413Y155600D01*
X328725Y154975*
X328413Y154350*
X327787Y154037*
X325600*
Y157787*
X327787*
X328413Y157475*
X328725Y156850*
X328413Y156225*
X327787Y155913*
X325600*
X327787Y165913D02*
X328413Y165600D01*
X328725Y164975*
X328413Y164350*
X327787Y164037*
X325600*
Y167787*
X327787*
X328413Y167475*
X328725Y166850*
X328413Y166225*
X327787Y165913*
X325600*
X327787Y175913D02*
X328413Y175600D01*
X328725Y174975*
X328413Y174350*
X327787Y174037*
X325600*
Y177787*
X327787*
X328413Y177475*
X328725Y176850*
X328413Y176225*
X327787Y175913*
X325600*
X327787Y185913D02*
X328413Y185600D01*
X328725Y184975*
X328413Y184350*
X327787Y184037*
X325600*
Y187787*
X327787*
X328413Y187475*
X328725Y186850*
X328413Y186225*
X327787Y185913*
X325600*
X327787Y198413D02*
X328413Y198100D01*
X328725Y197475*
X328413Y196850*
X327787Y196537*
X325600*
Y200287*
X327787*
X328413Y199975*
X328725Y199350*
X328413Y198725*
X327787Y198413*
X325600*
X327787Y493413D02*
X328413Y493100D01*
X328725Y492475*
X328413Y491850*
X327787Y491537*
X325600*
Y495287*
X327787*
X328413Y494975*
X328725Y494350*
X328413Y493725*
X327787Y493413*
X325600*
X327787Y523413D02*
X328413Y523100D01*
X328725Y522475*
X328413Y521850*
X327787Y521537*
X325600*
Y525287*
X327787*
X328413Y524975*
X328725Y524350*
X328413Y523725*
X327787Y523413*
X325600*
X329323Y397431D02*
X330261D01*
Y397118*
X329948Y396493*
X329635Y396181*
X329011Y395868*
X328385*
X327761Y396181*
X327448Y396493*
X327135Y397118*
Y398368*
X327448Y398993*
X327761Y399306*
X328385Y399618*
X329011*
X329635Y399306*
X329948Y398993*
X330261Y398368*
X330287Y543100D02*
X331225D01*
Y542787*
X330913Y542163*
X330600Y541850*
X329975Y541537*
X329350*
X328725Y541850*
X328413Y542163*
X328100Y542787*
Y544037*
X328413Y544663*
X328725Y544975*
X329350Y545287*
X329975*
X330600Y544975*
X330913Y544663*
X331225Y544037*
Y584663D02*
X330913Y584350D01*
X330287Y584037*
X329350*
X328725Y584350*
X328413Y584663*
X328100Y585287*
Y586537*
X328413Y587163*
X328725Y587475*
X329350Y587787*
X330287*
X330913Y587475*
X331225Y587163*
X331291Y204517D02*
X332229D01*
Y204205*
X331917Y203580*
X331604Y203267*
X330979Y202955*
X330354*
X329729Y203267*
X329417Y203580*
X329104Y204205*
Y205455*
X329417Y206080*
X329729Y206393*
X330354Y206705*
X330979*
X331604Y206393*
X331917Y206080*
X332229Y205455*
X331291Y247824D02*
X332229D01*
Y247512*
X331917Y246887*
X331604Y246574*
X330979Y246262*
X330354*
X329729Y246574*
X329417Y246887*
X329104Y247512*
Y248762*
X329417Y249387*
X329729Y249700*
X330354Y250012*
X330979*
X331604Y249700*
X331917Y249387*
X332229Y248762*
X331291Y328533D02*
X332229D01*
Y328220*
X331917Y327596*
X331604Y327283*
X330979Y326970*
X330354*
X329729Y327283*
X329417Y327596*
X329104Y328220*
Y329470*
X329417Y330096*
X329729Y330408*
X330354Y330720*
X330979*
X331604Y330408*
X331917Y330096*
X332229Y329470*
X333260Y531289D02*
X334198D01*
Y530976*
X333885Y530352*
X333572Y530039*
X332948Y529726*
X332322*
X331698Y530039*
X331385Y530352*
X331072Y530976*
Y532226*
X331385Y532852*
X331698Y533164*
X332322Y533476*
X332948*
X333572Y533164*
X333885Y532852*
X334198Y532226*
X335228Y273415D02*
X336166D01*
Y273102*
X335854Y272478*
X335541Y272165*
X334916Y271852*
X334291*
X333666Y272165*
X333354Y272478*
X333041Y273102*
Y274352*
X333354Y274978*
X333666Y275290*
X334291Y275602*
X334916*
X335541Y275290*
X335854Y274978*
X336166Y274352*
X337197Y428927D02*
X338135D01*
Y428614*
X337822Y427989*
X337509Y427677*
X336885Y427364*
X336259*
X335635Y427677*
X335322Y427989*
X335009Y428614*
Y429864*
X335322Y430489*
X335635Y430802*
X336259Y431114*
X336885*
X337509Y430802*
X337822Y430489*
X338135Y429864*
X337197Y535226D02*
X338135D01*
Y534913*
X337822Y534289*
X337509Y533976*
X336885Y533663*
X336259*
X335635Y533976*
X335322Y534289*
X335009Y534913*
Y536163*
X335322Y536789*
X335635Y537101*
X336259Y537413*
X336885*
X337509Y537101*
X337822Y536789*
X338135Y536163*
X340287Y263413D02*
X340913Y263100D01*
X341225Y262475*
X340913Y261850*
X340287Y261537*
X338100*
Y265287*
X340287*
X340913Y264975*
X341225Y264350*
X340913Y263725*
X340287Y263413*
X338100*
X341225Y584663D02*
X340913Y584350D01*
X340287Y584037*
X339350*
X338725Y584350*
X338413Y584663*
X338100Y585287*
Y586537*
X338413Y587163*
X338725Y587475*
X339350Y587787*
X340287*
X340913Y587475*
X341225Y587163*
X341134Y176958D02*
X342072D01*
Y176646*
X341759Y176021*
X341446Y175708*
X340822Y175396*
X340196*
X339572Y175708*
X339259Y176021*
X338946Y176646*
Y177896*
X339259Y178521*
X339572Y178833*
X340196Y179146*
X340822*
X341446Y178833*
X341759Y178521*
X342072Y177896*
X341134Y243887D02*
X342072D01*
Y243575*
X341759Y242950*
X341446Y242637*
X340822Y242325*
X340196*
X339572Y242637*
X339259Y242950*
X338946Y243575*
Y244825*
X339259Y245450*
X339572Y245763*
X340196Y246075*
X340822*
X341446Y245763*
X341759Y245450*
X342072Y244825*
X341134Y312785D02*
X342072D01*
Y312472*
X341759Y311848*
X341446Y311535*
X340822Y311222*
X340196*
X339572Y311535*
X339259Y311848*
X338946Y312472*
Y313722*
X339259Y314348*
X339572Y314660*
X340196Y314972*
X340822*
X341446Y314660*
X341759Y314348*
X342072Y313722*
X341134Y424990D02*
X342072D01*
Y424677*
X341759Y424052*
X341446Y423740*
X340822Y423427*
X340196*
X339572Y423740*
X339259Y424052*
X338946Y424677*
Y425927*
X339259Y426552*
X339572Y426865*
X340196Y427177*
X340822*
X341446Y426865*
X341759Y426552*
X342072Y425927*
X345071Y257667D02*
X346009D01*
Y257354*
X345696Y256730*
X345383Y256417*
X344759Y256104*
X344133*
X343509Y256417*
X343196Y256730*
X342883Y257354*
Y258604*
X343196Y259230*
X343509Y259542*
X344133Y259854*
X344759*
X345383Y259542*
X345696Y259230*
X346009Y258604*
X345071Y407273D02*
X346009D01*
Y406961*
X345696Y406336*
X345383Y406023*
X344759Y405711*
X344133*
X343509Y406023*
X343196Y406336*
X342883Y406961*
Y408211*
X343196Y408836*
X343509Y409148*
X344133Y409461*
X344759*
X345383Y409148*
X345696Y408836*
X346009Y408211*
X345071Y440738D02*
X346009D01*
Y440425*
X345696Y439800*
X345383Y439488*
X344759Y439175*
X344133*
X343509Y439488*
X343196Y439800*
X342883Y440425*
Y441675*
X343196Y442300*
X343509Y442613*
X344133Y442925*
X344759*
X345383Y442613*
X345696Y442300*
X346009Y441675*
X345071Y452549D02*
X346009D01*
Y452236*
X345696Y451611*
X345383Y451299*
X344759Y450986*
X344133*
X343509Y451299*
X343196Y451611*
X342883Y452236*
Y453486*
X343196Y454111*
X343509Y454424*
X344133Y454736*
X344759*
X345383Y454424*
X345696Y454111*
X346009Y453486*
X345071Y594281D02*
X346009D01*
Y593969*
X345696Y593344*
X345383Y593031*
X344759Y592719*
X344133*
X343509Y593031*
X343196Y593344*
X342883Y593969*
Y595219*
X343196Y595844*
X343509Y596156*
X344133Y596469*
X344759*
X345383Y596156*
X345696Y595844*
X346009Y595219*
X349008Y387588D02*
X349946D01*
Y387276*
X349633Y386651*
X349320Y386338*
X348696Y386026*
X348070*
X347446Y386338*
X347133Y386651*
X346820Y387276*
Y388526*
X347133Y389151*
X347446Y389463*
X348070Y389776*
X348696*
X349320Y389463*
X349633Y389151*
X349946Y388526*
X349008Y434832D02*
X349946D01*
Y434520*
X349633Y433895*
X349320Y433582*
X348696Y433270*
X348070*
X347446Y433582*
X347133Y433895*
X346820Y434520*
Y435770*
X347133Y436395*
X347446Y436707*
X348070Y437020*
X348696*
X349320Y436707*
X349633Y436395*
X349946Y435770*
X349008Y456486D02*
X349946D01*
Y456173*
X349633Y455548*
X349320Y455236*
X348696Y454923*
X348070*
X347446Y455236*
X347133Y455548*
X346820Y456173*
Y457423*
X347133Y458048*
X347446Y458361*
X348070Y458673*
X348696*
X349320Y458361*
X349633Y458048*
X349946Y457423*
X349008Y466328D02*
X349946D01*
Y466016*
X349633Y465391*
X349320Y465078*
X348696Y464766*
X348070*
X347446Y465078*
X347133Y465391*
X346820Y466016*
Y467266*
X347133Y467891*
X347446Y468204*
X348070Y468516*
X348696*
X349320Y468204*
X349633Y467891*
X349946Y467266*
X349008Y539163D02*
X349946D01*
Y538850*
X349633Y538226*
X349320Y537913*
X348696Y537600*
X348070*
X347446Y537913*
X347133Y538226*
X346820Y538850*
Y540100*
X347133Y540726*
X347446Y541038*
X348070Y541350*
X348696*
X349320Y541038*
X349633Y540726*
X349946Y540100*
X351225Y584663D02*
X350913Y584350D01*
X350287Y584037*
X349350*
X348725Y584350*
X348413Y584663*
X348100Y585287*
Y586537*
X348413Y587163*
X348725Y587475*
X349350Y587787*
X350287*
X350913Y587475*
X351225Y587163*
X350976Y312785D02*
X351914D01*
Y312472*
X351602Y311848*
X351289Y311535*
X350664Y311222*
X350039*
X349414Y311535*
X349102Y311848*
X348789Y312472*
Y313722*
X349102Y314348*
X349414Y314660*
X350039Y314972*
X350664*
X351289Y314660*
X351602Y314348*
X351914Y313722*
X350976Y369872D02*
X351914D01*
Y369559*
X351602Y368934*
X351289Y368622*
X350664Y368309*
X350039*
X349414Y368622*
X349102Y368934*
X348789Y369559*
Y370809*
X349102Y371434*
X349414Y371747*
X350039Y372059*
X350664*
X351289Y371747*
X351602Y371434*
X351914Y370809*
X350976Y598218D02*
X351914D01*
Y597906*
X351602Y597281*
X351289Y596968*
X350664Y596656*
X350039*
X349414Y596968*
X349102Y597281*
X348789Y597906*
Y599156*
X349102Y599781*
X349414Y600093*
X350039Y600406*
X350664*
X351289Y600093*
X351602Y599781*
X351914Y599156*
X352945Y543100D02*
X353883D01*
Y542787*
X353570Y542163*
X353257Y541850*
X352633Y541537*
X352007*
X351383Y541850*
X351070Y542163*
X350757Y542787*
Y544037*
X351070Y544663*
X351383Y544975*
X352007Y545287*
X352633*
X353257Y544975*
X353570Y544663*
X353883Y544037*
X354913Y318691D02*
X355851D01*
Y318378*
X355539Y317753*
X355226Y317441*
X354601Y317128*
X353976*
X353351Y317441*
X353039Y317753*
X352726Y318378*
Y319628*
X353039Y320253*
X353351Y320566*
X353976Y320878*
X354601*
X355226Y320566*
X355539Y320253*
X355851Y319628*
X354913Y373100D02*
X355851D01*
Y372787*
X355539Y372163*
X355226Y371850*
X354601Y371537*
X353976*
X353351Y371850*
X353039Y372163*
X352726Y372787*
Y374037*
X353039Y374663*
X353351Y374975*
X353976Y375287*
X354601*
X355226Y374975*
X355539Y374663*
X355851Y374037*
X357787Y125913D02*
X358413Y125600D01*
X358725Y124975*
X358413Y124350*
X357787Y124037*
X355600*
Y127787*
X357787*
X358413Y127475*
X358725Y126850*
X358413Y126225*
X357787Y125913*
X355600*
X357787Y135913D02*
X358413Y135600D01*
X358725Y134975*
X358413Y134350*
X357787Y134037*
X355600*
Y137787*
X357787*
X358413Y137475*
X358725Y136850*
X358413Y136225*
X357787Y135913*
X355600*
X357787Y145913D02*
X358413Y145600D01*
X358725Y144975*
X358413Y144350*
X357787Y144037*
X355600*
Y147787*
X357787*
X358413Y147475*
X358725Y146850*
X358413Y146225*
X357787Y145913*
X355600*
X357787Y155913D02*
X358413Y155600D01*
X358725Y154975*
X358413Y154350*
X357787Y154037*
X355600*
Y157787*
X357787*
X358413Y157475*
X358725Y156850*
X358413Y156225*
X357787Y155913*
X355600*
X357787Y165913D02*
X358413Y165600D01*
X358725Y164975*
X358413Y164350*
X357787Y164037*
X355600*
Y167787*
X357787*
X358413Y167475*
X358725Y166850*
X358413Y166225*
X357787Y165913*
X355600*
X357787Y175913D02*
X358413Y175600D01*
X358725Y174975*
X358413Y174350*
X357787Y174037*
X355600*
Y177787*
X357787*
X358413Y177475*
X358725Y176850*
X358413Y176225*
X357787Y175913*
X355600*
X357787Y185913D02*
X358413Y185600D01*
X358725Y184975*
X358413Y184350*
X357787Y184037*
X355600*
Y187787*
X357787*
X358413Y187475*
X358725Y186850*
X358413Y186225*
X357787Y185913*
X355600*
X357787Y198413D02*
X358413Y198100D01*
X358725Y197475*
X358413Y196850*
X357787Y196537*
X355600*
Y200287*
X357787*
X358413Y199975*
X358725Y199350*
X358413Y198725*
X357787Y198413*
X355600*
X358850Y312785D02*
X359788D01*
Y312472*
X359476Y311848*
X359163Y311535*
X358538Y311222*
X357913*
X357288Y311535*
X356976Y311848*
X356663Y312472*
Y313722*
X356976Y314348*
X357288Y314660*
X357913Y314972*
X358538*
X359163Y314660*
X359476Y314348*
X359788Y313722*
X358850Y383651D02*
X359788D01*
Y383339*
X359476Y382714*
X359163Y382401*
X358538Y382089*
X357913*
X357288Y382401*
X356976Y382714*
X356663Y383339*
Y384589*
X356976Y385214*
X357288Y385526*
X357913Y385839*
X358538*
X359163Y385526*
X359476Y385214*
X359788Y384589*
X358850Y401368D02*
X359788D01*
Y401055*
X359476Y400430*
X359163Y400118*
X358538Y399805*
X357913*
X357288Y400118*
X356976Y400430*
X356663Y401055*
Y402305*
X356976Y402930*
X357288Y403243*
X357913Y403555*
X358538*
X359163Y403243*
X359476Y402930*
X359788Y402305*
X361225Y584663D02*
X360913Y584350D01*
X360287Y584037*
X359350*
X358725Y584350*
X358413Y584663*
X358100Y585287*
Y586537*
X358413Y587163*
X358725Y587475*
X359350Y587787*
X360287*
X360913Y587475*
X361225Y587163*
X360819Y606092D02*
X361757D01*
Y605780*
X361444Y605155*
X361131Y604842*
X360507Y604530*
X359881*
X359257Y604842*
X358944Y605155*
X358631Y605780*
Y607030*
X358944Y607655*
X359257Y607967*
X359881Y608280*
X360507*
X361131Y607967*
X361444Y607655*
X361757Y607030*
X362787Y308848D02*
X363725D01*
Y308535*
X363413Y307911*
X363100Y307598*
X362475Y307285*
X361850*
X361225Y307598*
X360913Y307911*
X360600Y308535*
Y309785*
X360913Y310411*
X361225Y310723*
X361850Y311035*
X362475*
X363100Y310723*
X363413Y310411*
X363725Y309785*
X362787Y373100D02*
X363725D01*
Y372787*
X363413Y372163*
X363100Y371850*
X362475Y371537*
X361850*
X361225Y371850*
X360913Y372163*
X360600Y372787*
Y374037*
X360913Y374663*
X361225Y374975*
X361850Y375287*
X362475*
X363100Y374975*
X363413Y374663*
X363725Y374037*
X364756Y397431D02*
X365694D01*
Y397118*
X365381Y396493*
X365069Y396181*
X364444Y395868*
X363819*
X363194Y396181*
X362881Y396493*
X362569Y397118*
Y398368*
X362881Y398993*
X363194Y399306*
X363819Y399618*
X364444*
X365069Y399306*
X365381Y398993*
X365694Y398368*
X366724Y131683D02*
X367662D01*
Y131370*
X367350Y130745*
X367037Y130433*
X366412Y130120*
X365787*
X365162Y130433*
X364850Y130745*
X364537Y131370*
Y132620*
X364850Y133245*
X365162Y133558*
X365787Y133870*
X366412*
X367037Y133558*
X367350Y133245*
X367662Y132620*
X366724Y251761D02*
X367662D01*
Y251449*
X367350Y250824*
X367037Y250511*
X366412Y250199*
X365787*
X365162Y250511*
X364850Y250824*
X364537Y251449*
Y252699*
X364850Y253324*
X365162Y253637*
X365787Y253949*
X366412*
X367037Y253637*
X367350Y253324*
X367662Y252699*
X366724Y393100D02*
X367662D01*
Y392787*
X367350Y392163*
X367037Y391850*
X366412Y391537*
X365787*
X365162Y391850*
X364850Y392163*
X364537Y392787*
Y394037*
X364850Y394663*
X365162Y394975*
X365787Y395287*
X366412*
X367037Y394975*
X367350Y394663*
X367662Y394037*
X366724Y432864D02*
X367662D01*
Y432551*
X367350Y431926*
X367037Y431614*
X366412Y431301*
X365787*
X365162Y431614*
X364850Y431926*
X364537Y432551*
Y433801*
X364850Y434426*
X365162Y434739*
X365787Y435051*
X366412*
X367037Y434739*
X367350Y434426*
X367662Y433801*
X366724Y547037D02*
X367662D01*
Y546724*
X367350Y546100*
X367037Y545787*
X366412Y545474*
X365787*
X365162Y545787*
X364850Y546100*
X364537Y546724*
Y547974*
X364850Y548600*
X365162Y548912*
X365787Y549224*
X366412*
X367037Y548912*
X367350Y548600*
X367662Y547974*
X371225Y584663D02*
X370913Y584350D01*
X370287Y584037*
X369350*
X368725Y584350*
X368413Y584663*
X368100Y585287*
Y586537*
X368413Y587163*
X368725Y587475*
X369350Y587787*
X370287*
X370913Y587475*
X371225Y587163*
X374598Y328533D02*
X375536D01*
Y328220*
X375224Y327596*
X374911Y327283*
X374286Y326970*
X373661*
X373036Y327283*
X372724Y327596*
X372411Y328220*
Y329470*
X372724Y330096*
X373036Y330408*
X373661Y330720*
X374286*
X374911Y330408*
X375224Y330096*
X375536Y329470*
X374598Y393100D02*
X375536D01*
Y392787*
X375224Y392163*
X374911Y391850*
X374286Y391537*
X373661*
X373036Y391850*
X372724Y392163*
X372411Y392787*
Y394037*
X372724Y394663*
X373036Y394975*
X373661Y395287*
X374286*
X374911Y394975*
X375224Y394663*
X375536Y394037*
X378535Y312785D02*
X379473D01*
Y312472*
X379161Y311848*
X378848Y311535*
X378223Y311222*
X377598*
X376973Y311535*
X376661Y311848*
X376348Y312472*
Y313722*
X376661Y314348*
X376973Y314660*
X377598Y314972*
X378223*
X378848Y314660*
X379161Y314348*
X379473Y313722*
X378535Y326565D02*
X379473D01*
Y326252*
X379161Y325627*
X378848Y325315*
X378223Y325002*
X377598*
X376973Y325315*
X376661Y325627*
X376348Y326252*
Y327502*
X376661Y328127*
X376973Y328440*
X377598Y328752*
X378223*
X378848Y328440*
X379161Y328127*
X379473Y327502*
X378535Y486013D02*
X379473D01*
Y485701*
X379161Y485076*
X378848Y484763*
X378223Y484451*
X377598*
X376973Y484763*
X376661Y485076*
X376348Y485701*
Y486951*
X376661Y487576*
X376973Y487889*
X377598Y488201*
X378223*
X378848Y487889*
X379161Y487576*
X379473Y486951*
X380287Y263413D02*
X380913Y263100D01*
X381225Y262475*
X380913Y261850*
X380287Y261537*
X378100*
Y265287*
X380287*
X380913Y264975*
X381225Y264350*
X380913Y263725*
X380287Y263413*
X378100*
X381225Y584663D02*
X380913Y584350D01*
X380287Y584037*
X379350*
X378725Y584350*
X378413Y584663*
X378100Y585287*
Y586537*
X378413Y587163*
X378725Y587475*
X379350Y587787*
X380287*
X380913Y587475*
X381225Y587163*
X380504Y342313D02*
X381442D01*
Y342000*
X381129Y341375*
X380817Y341063*
X380192Y340750*
X379567*
X378942Y341063*
X378629Y341375*
X378317Y342000*
Y343250*
X378629Y343875*
X378942Y344188*
X379567Y344500*
X380192*
X380817Y344188*
X381129Y343875*
X381442Y343250*
X380504Y373100D02*
X381442D01*
Y372787*
X381129Y372163*
X380817Y371850*
X380192Y371537*
X379567*
X378942Y371850*
X378629Y372163*
X378317Y372787*
Y374037*
X378629Y374663*
X378942Y374975*
X379567Y375287*
X380192*
X380817Y374975*
X381129Y374663*
X381442Y374037*
X384441Y332470D02*
X385379D01*
Y332157*
X385066Y331533*
X384754Y331220*
X384129Y330907*
X383504*
X382879Y331220*
X382566Y331533*
X382254Y332157*
Y333407*
X382566Y334033*
X382879Y334345*
X383504Y334657*
X384129*
X384754Y334345*
X385066Y334033*
X385379Y333407*
X384441Y338376D02*
X385379D01*
Y338063*
X385066Y337438*
X384754Y337126*
X384129Y336813*
X383504*
X382879Y337126*
X382566Y337438*
X382254Y338063*
Y339313*
X382566Y339938*
X382879Y340251*
X383504Y340563*
X384129*
X384754Y340251*
X385066Y339938*
X385379Y339313*
X384441Y377746D02*
X385379D01*
Y377433*
X385066Y376808*
X384754Y376496*
X384129Y376183*
X383504*
X382879Y376496*
X382566Y376808*
X382254Y377433*
Y378683*
X382566Y379308*
X382879Y379621*
X383504Y379933*
X384129*
X384754Y379621*
X385066Y379308*
X385379Y378683*
X384441Y383100D02*
X385379D01*
Y382787*
X385066Y382163*
X384754Y381850*
X384129Y381537*
X383504*
X382879Y381850*
X382566Y382163*
X382254Y382787*
Y384037*
X382566Y384663*
X382879Y384975*
X383504Y385287*
X384129*
X384754Y384975*
X385066Y384663*
X385379Y384037*
X384441Y504043D02*
X385066Y503730D01*
X385379Y503105*
X385066Y502480*
X384441Y502167*
X382254*
Y505917*
X384441*
X385066Y505605*
X385379Y504980*
X385066Y504355*
X384441Y504043*
X382254*
X386409Y531289D02*
X387347D01*
Y530976*
X387035Y530352*
X386722Y530039*
X386097Y529726*
X385472*
X384847Y530039*
X384535Y530352*
X384222Y530976*
Y532226*
X384535Y532852*
X384847Y533164*
X385472Y533476*
X386097*
X386722Y533164*
X387035Y532852*
X387347Y532226*
X391225Y584663D02*
X390913Y584350D01*
X390287Y584037*
X389350*
X388725Y584350*
X388413Y584663*
X388100Y585287*
Y586537*
X388413Y587163*
X388725Y587475*
X389350Y587787*
X390287*
X390913Y587475*
X391225Y587163*
X390346Y353100D02*
X391284D01*
Y352787*
X390972Y352163*
X390659Y351850*
X390034Y351537*
X389409*
X388784Y351850*
X388472Y352163*
X388159Y352787*
Y354037*
X388472Y354663*
X388784Y354975*
X389409Y355287*
X390034*
X390659Y354975*
X390972Y354663*
X391284Y354037*
X390346Y373809D02*
X391284D01*
Y373496*
X390972Y372871*
X390659Y372559*
X390034Y372246*
X389409*
X388784Y372559*
X388472Y372871*
X388159Y373496*
Y374746*
X388472Y375371*
X388784Y375684*
X389409Y375996*
X390034*
X390659Y375684*
X390972Y375371*
X391284Y374746*
X390346Y407273D02*
X391284D01*
Y406961*
X390972Y406336*
X390659Y406023*
X390034Y405711*
X389409*
X388784Y406023*
X388472Y406336*
X388159Y406961*
Y408211*
X388472Y408836*
X388784Y409148*
X389409Y409461*
X390034*
X390659Y409148*
X390972Y408836*
X391284Y408211*
X390346Y515541D02*
X391284D01*
Y515228*
X390972Y514604*
X390659Y514291*
X390034Y513978*
X389409*
X388784Y514291*
X388472Y514604*
X388159Y515228*
Y516478*
X388472Y517104*
X388784Y517416*
X389409Y517728*
X390034*
X390659Y517416*
X390972Y517104*
X391284Y516478*
X394283Y273415D02*
X395221D01*
Y273102*
X394909Y272478*
X394596Y272165*
X393971Y271852*
X393346*
X392721Y272165*
X392409Y272478*
X392096Y273102*
Y274352*
X392409Y274978*
X392721Y275290*
X393346Y275602*
X393971*
X394596Y275290*
X394909Y274978*
X395221Y274352*
X394283Y308848D02*
X395221D01*
Y308535*
X394909Y307911*
X394596Y307598*
X393971Y307285*
X393346*
X392721Y307598*
X392409Y307911*
X392096Y308535*
Y309785*
X392409Y310411*
X392721Y310723*
X393346Y311035*
X393971*
X394596Y310723*
X394909Y310411*
X395221Y309785*
X394283Y318691D02*
X395221D01*
Y318378*
X394909Y317753*
X394596Y317441*
X393971Y317128*
X393346*
X392721Y317441*
X392409Y317753*
X392096Y318378*
Y319628*
X392409Y320253*
X392721Y320566*
X393346Y320878*
X393971*
X394596Y320566*
X394909Y320253*
X395221Y319628*
X394283Y369872D02*
X395221D01*
Y369559*
X394909Y368934*
X394596Y368622*
X393971Y368309*
X393346*
X392721Y368622*
X392409Y368934*
X392096Y369559*
Y370809*
X392409Y371434*
X392721Y371747*
X393346Y372059*
X393971*
X394596Y371747*
X394909Y371434*
X395221Y370809*
X394283Y462391D02*
X395221D01*
Y462079*
X394909Y461454*
X394596Y461141*
X393971Y460829*
X393346*
X392721Y461141*
X392409Y461454*
X392096Y462079*
Y463329*
X392409Y463954*
X392721Y464267*
X393346Y464579*
X393971*
X394596Y464267*
X394909Y463954*
X395221Y463329*
X396252Y348218D02*
X397190D01*
Y347906*
X396877Y347281*
X396565Y346968*
X395940Y346656*
X395315*
X394690Y346968*
X394377Y347281*
X394065Y347906*
Y349156*
X394377Y349781*
X394690Y350093*
X395315Y350406*
X395940*
X396565Y350093*
X396877Y349781*
X397190Y349156*
X396252Y509948D02*
X396877Y509635D01*
X397190Y509011*
X396877Y508385*
X396252Y508073*
X394065*
Y511823*
X396252*
X396877Y511511*
X397190Y510885*
X396877Y510261*
X396252Y509948*
X394065*
X401225Y584663D02*
X400913Y584350D01*
X400287Y584037*
X399350*
X398725Y584350*
X398413Y584663*
X398100Y585287*
Y586537*
X398413Y587163*
X398725Y587475*
X399350Y587787*
X400287*
X400913Y587475*
X401225Y587163*
X402157Y185913D02*
X402783Y185600D01*
X403095Y184975*
X402783Y184350*
X402157Y184037*
X399970*
Y187787*
X402157*
X402783Y187475*
X403095Y186850*
X402783Y186225*
X402157Y185913*
X399970*
X402157Y212704D02*
X402783Y212391D01*
X403095Y211767*
X402783Y211141*
X402157Y210829*
X399970*
Y214579*
X402157*
X402783Y214267*
X403095Y213641*
X402783Y213017*
X402157Y212704*
X399970*
X402157Y504043D02*
X402783Y503730D01*
X403095Y503105*
X402783Y502480*
X402157Y502167*
X399970*
Y505917*
X402157*
X402783Y505605*
X403095Y504980*
X402783Y504355*
X402157Y504043*
X399970*
X402787Y263413D02*
X403413Y263100D01*
X403725Y262475*
X403413Y261850*
X402787Y261537*
X400600*
Y265287*
X402787*
X403413Y264975*
X403725Y264350*
X403413Y263725*
X402787Y263413*
X400600*
X402787Y273413D02*
X403413Y273100D01*
X403725Y272475*
X403413Y271850*
X402787Y271537*
X400600*
Y275287*
X402787*
X403413Y274975*
X403725Y274350*
X403413Y273725*
X402787Y273413*
X400600*
X402787Y283413D02*
X403413Y283100D01*
X403725Y282475*
X403413Y281850*
X402787Y281537*
X400600*
Y285287*
X402787*
X403413Y284975*
X403725Y284350*
X403413Y283725*
X402787Y283413*
X400600*
X402787Y293413D02*
X403413Y293100D01*
X403725Y292475*
X403413Y291850*
X402787Y291537*
X400600*
Y295287*
X402787*
X403413Y294975*
X403725Y294350*
X403413Y293725*
X402787Y293413*
X400600*
X402787Y303413D02*
X403413Y303100D01*
X403725Y302475*
X403413Y301850*
X402787Y301537*
X400600*
Y305287*
X402787*
X403413Y304975*
X403725Y304350*
X403413Y303725*
X402787Y303413*
X400600*
X402787Y313413D02*
X403413Y313100D01*
X403725Y312475*
X403413Y311850*
X402787Y311537*
X400600*
Y315287*
X402787*
X403413Y314975*
X403725Y314350*
X403413Y313725*
X402787Y313413*
X400600*
X402787Y323413D02*
X403413Y323100D01*
X403725Y322475*
X403413Y321850*
X402787Y321537*
X400600*
Y325287*
X402787*
X403413Y324975*
X403725Y324350*
X403413Y323725*
X402787Y323413*
X400600*
X402787Y333413D02*
X403413Y333100D01*
X403725Y332475*
X403413Y331850*
X402787Y331537*
X400600*
Y335287*
X402787*
X403413Y334975*
X403725Y334350*
X403413Y333725*
X402787Y333413*
X400600*
X402787Y343413D02*
X403413Y343100D01*
X403725Y342475*
X403413Y341850*
X402787Y341537*
X400600*
Y345287*
X402787*
X403413Y344975*
X403725Y344350*
X403413Y343725*
X402787Y343413*
X400600*
X402787Y353413D02*
X403413Y353100D01*
X403725Y352475*
X403413Y351850*
X402787Y351537*
X400600*
Y355287*
X402787*
X403413Y354975*
X403725Y354350*
X403413Y353725*
X402787Y353413*
X400600*
X402787Y363413D02*
X403413Y363100D01*
X403725Y362475*
X403413Y361850*
X402787Y361537*
X400600*
Y365287*
X402787*
X403413Y364975*
X403725Y364350*
X403413Y363725*
X402787Y363413*
X400600*
X402787Y373413D02*
X403413Y373100D01*
X403725Y372475*
X403413Y371850*
X402787Y371537*
X400600*
Y375287*
X402787*
X403413Y374975*
X403725Y374350*
X403413Y373725*
X402787Y373413*
X400600*
X402787Y383413D02*
X403413Y383100D01*
X403725Y382475*
X403413Y381850*
X402787Y381537*
X400600*
Y385287*
X402787*
X403413Y384975*
X403725Y384350*
X403413Y383725*
X402787Y383413*
X400600*
X402787Y393413D02*
X403413Y393100D01*
X403725Y392475*
X403413Y391850*
X402787Y391537*
X400600*
Y395287*
X402787*
X403413Y394975*
X403725Y394350*
X403413Y393725*
X402787Y393413*
X400600*
X402787Y403413D02*
X403413Y403100D01*
X403725Y402475*
X403413Y401850*
X402787Y401537*
X400600*
Y405287*
X402787*
X403413Y404975*
X403725Y404350*
X403413Y403725*
X402787Y403413*
X400600*
X402787Y413413D02*
X403413Y413100D01*
X403725Y412475*
X403413Y411850*
X402787Y411537*
X400600*
Y415287*
X402787*
X403413Y414975*
X403725Y414350*
X403413Y413725*
X402787Y413413*
X400600*
X402787Y423413D02*
X403413Y423100D01*
X403725Y422475*
X403413Y421850*
X402787Y421537*
X400600*
Y425287*
X402787*
X403413Y424975*
X403725Y424350*
X403413Y423725*
X402787Y423413*
X400600*
X402787Y433413D02*
X403413Y433100D01*
X403725Y432475*
X403413Y431850*
X402787Y431537*
X400600*
Y435287*
X402787*
X403413Y434975*
X403725Y434350*
X403413Y433725*
X402787Y433413*
X400600*
X402787Y443413D02*
X403413Y443100D01*
X403725Y442475*
X403413Y441850*
X402787Y441537*
X400600*
Y445287*
X402787*
X403413Y444975*
X403725Y444350*
X403413Y443725*
X402787Y443413*
X400600*
X402787Y453413D02*
X403413Y453100D01*
X403725Y452475*
X403413Y451850*
X402787Y451537*
X400600*
Y455287*
X402787*
X403413Y454975*
X403725Y454350*
X403413Y453725*
X402787Y453413*
X400600*
X410031Y417116D02*
X410969D01*
Y416803*
X410657Y416178*
X410344Y415866*
X409719Y415553*
X409094*
X408469Y415866*
X408157Y416178*
X407844Y416803*
Y418053*
X408157Y418678*
X408469Y418991*
X409094Y419303*
X409719*
X410344Y418991*
X410657Y418678*
X410969Y418053*
X410031Y576565D02*
X410969D01*
Y576252*
X410657Y575627*
X410344Y575315*
X409719Y575002*
X409094*
X408469Y575315*
X408157Y575627*
X407844Y576252*
Y577502*
X408157Y578127*
X408469Y578440*
X409094Y578752*
X409719*
X410344Y578440*
X410657Y578127*
X410969Y577502*
X411225Y584663D02*
X410913Y584350D01*
X410287Y584037*
X409350*
X408725Y584350*
X408413Y584663*
X408100Y585287*
Y586537*
X408413Y587163*
X408725Y587475*
X409350Y587787*
X410287*
X410913Y587475*
X411225Y587163*
X413969Y312785D02*
X414906D01*
Y312472*
X414594Y311848*
X414281Y311535*
X413656Y311222*
X413031*
X412406Y311535*
X412094Y311848*
X411781Y312472*
Y313722*
X412094Y314348*
X412406Y314660*
X413031Y314972*
X413656*
X414281Y314660*
X414594Y314348*
X414906Y313722*
X413969Y323100D02*
X414906D01*
Y322787*
X414594Y322163*
X414281Y321850*
X413656Y321537*
X413031*
X412406Y321850*
X412094Y322163*
X411781Y322787*
Y324037*
X412094Y324663*
X412406Y324975*
X413031Y325287*
X413656*
X414281Y324975*
X414594Y324663*
X414906Y324037*
X415287Y128413D02*
X415913Y128100D01*
X416225Y127475*
X415913Y126850*
X415287Y126537*
X413100*
Y130287*
X415287*
X415913Y129975*
X416225Y129350*
X415913Y128725*
X415287Y128413*
X413100*
X415287Y138413D02*
X415913Y138100D01*
X416225Y137475*
X415913Y136850*
X415287Y136537*
X413100*
Y140287*
X415287*
X415913Y139975*
X416225Y139350*
X415913Y138725*
X415287Y138413*
X413100*
X415287Y148413D02*
X415913Y148100D01*
X416225Y147475*
X415913Y146850*
X415287Y146537*
X413100*
Y150287*
X415287*
X415913Y149975*
X416225Y149350*
X415913Y148725*
X415287Y148413*
X413100*
X415287Y158413D02*
X415913Y158100D01*
X416225Y157475*
X415913Y156850*
X415287Y156537*
X413100*
Y160287*
X415287*
X415913Y159975*
X416225Y159350*
X415913Y158725*
X415287Y158413*
X413100*
X415287Y168413D02*
X415913Y168100D01*
X416225Y167475*
X415913Y166850*
X415287Y166537*
X413100*
Y170287*
X415287*
X415913Y169975*
X416225Y169350*
X415913Y168725*
X415287Y168413*
X413100*
X415287Y178413D02*
X415913Y178100D01*
X416225Y177475*
X415913Y176850*
X415287Y176537*
X413100*
Y180287*
X415287*
X415913Y179975*
X416225Y179350*
X415913Y178725*
X415287Y178413*
X413100*
X415287Y188413D02*
X415913Y188100D01*
X416225Y187475*
X415913Y186850*
X415287Y186537*
X413100*
Y190287*
X415287*
X415913Y189975*
X416225Y189350*
X415913Y188725*
X415287Y188413*
X413100*
X415287Y205913D02*
X415913Y205600D01*
X416225Y204975*
X415913Y204350*
X415287Y204037*
X413100*
Y207787*
X415287*
X415913Y207475*
X416225Y206850*
X415913Y206225*
X415287Y205913*
X413100*
X419874Y131683D02*
X420812D01*
Y131370*
X420499Y130745*
X420187Y130433*
X419562Y130120*
X418937*
X418312Y130433*
X417999Y130745*
X417687Y131370*
Y132620*
X417999Y133245*
X418312Y133558*
X418937Y133870*
X419562*
X420187Y133558*
X420499Y133245*
X420812Y132620*
X419874Y383651D02*
X420812D01*
Y383339*
X420499Y382714*
X420187Y382401*
X419562Y382089*
X418937*
X418312Y382401*
X417999Y382714*
X417687Y383339*
Y384589*
X417999Y385214*
X418312Y385526*
X418937Y385839*
X419562*
X420187Y385526*
X420499Y385214*
X420812Y384589*
X419874Y407273D02*
X420812D01*
Y406961*
X420499Y406336*
X420187Y406023*
X419562Y405711*
X418937*
X418312Y406023*
X417999Y406336*
X417687Y406961*
Y408211*
X417999Y408836*
X418312Y409148*
X418937Y409461*
X419562*
X420187Y409148*
X420499Y408836*
X420812Y408211*
X421225Y584663D02*
X420913Y584350D01*
X420287Y584037*
X419350*
X418725Y584350*
X418413Y584663*
X418100Y585287*
Y586537*
X418413Y587163*
X418725Y587475*
X419350Y587787*
X420287*
X420913Y587475*
X421225Y587163*
X423811Y88376D02*
X424749D01*
Y88063*
X424436Y87438*
X424124Y87126*
X423499Y86813*
X422874*
X422249Y87126*
X421936Y87438*
X421624Y88063*
Y89313*
X421936Y89938*
X422249Y90251*
X422874Y90563*
X423499*
X424124Y90251*
X424436Y89938*
X424749Y89313*
X423811Y137588D02*
X424749D01*
Y137276*
X424436Y136651*
X424124Y136338*
X423499Y136026*
X422874*
X422249Y136338*
X421936Y136651*
X421624Y137276*
Y138526*
X421936Y139151*
X422249Y139463*
X422874Y139776*
X423499*
X424124Y139463*
X424436Y139151*
X424749Y138526*
X423811Y239950D02*
X424749D01*
Y239638*
X424436Y239013*
X424124Y238700*
X423499Y238388*
X422874*
X422249Y238700*
X421936Y239013*
X421624Y239638*
Y240888*
X421936Y241513*
X422249Y241826*
X422874Y242138*
X423499*
X424124Y241826*
X424436Y241513*
X424749Y240888*
X423811Y363966D02*
X424749D01*
Y363654*
X424436Y363029*
X424124Y362716*
X423499Y362404*
X422874*
X422249Y362716*
X421936Y363029*
X421624Y363654*
Y364904*
X421936Y365529*
X422249Y365841*
X422874Y366154*
X423499*
X424124Y365841*
X424436Y365529*
X424749Y364904*
X423811Y456486D02*
X424749D01*
Y456173*
X424436Y455548*
X424124Y455236*
X423499Y454923*
X422874*
X422249Y455236*
X421936Y455548*
X421624Y456173*
Y457423*
X421936Y458048*
X422249Y458361*
X422874Y458673*
X423499*
X424124Y458361*
X424436Y458048*
X424749Y457423*
X425780Y257667D02*
X426717D01*
Y257354*
X426405Y256730*
X426092Y256417*
X425467Y256104*
X424842*
X424217Y256417*
X423905Y256730*
X423592Y257354*
Y258604*
X423905Y259230*
X424217Y259542*
X424842Y259854*
X425467*
X426092Y259542*
X426405Y259230*
X426717Y258604*
X425780Y460423D02*
X426717D01*
Y460110*
X426405Y459485*
X426092Y459173*
X425467Y458860*
X424842*
X424217Y459173*
X423905Y459485*
X423592Y460110*
Y461360*
X423905Y461985*
X424217Y462298*
X424842Y462610*
X425467*
X426092Y462298*
X426405Y461985*
X426717Y461360*
X427748Y243887D02*
X428686D01*
Y243575*
X428373Y242950*
X428061Y242637*
X427436Y242325*
X426811*
X426186Y242637*
X425873Y242950*
X425561Y243575*
Y244825*
X425873Y245450*
X426186Y245763*
X426811Y246075*
X427436*
X428061Y245763*
X428373Y245450*
X428686Y244825*
X427748Y348218D02*
X428686D01*
Y347906*
X428373Y347281*
X428061Y346968*
X427436Y346656*
X426811*
X426186Y346968*
X425873Y347281*
X425561Y347906*
Y349156*
X425873Y349781*
X426186Y350093*
X426811Y350406*
X427436*
X428061Y350093*
X428373Y349781*
X428686Y349156*
X427748Y367903D02*
X428686D01*
Y367591*
X428373Y366966*
X428061Y366653*
X427436Y366341*
X426811*
X426186Y366653*
X425873Y366966*
X425561Y367591*
Y368841*
X425873Y369466*
X426186Y369778*
X426811Y370091*
X427436*
X428061Y369778*
X428373Y369466*
X428686Y368841*
X427748Y403100D02*
X428686D01*
Y402787*
X428373Y402163*
X428061Y401850*
X427436Y401537*
X426811*
X426186Y401850*
X425873Y402163*
X425561Y402787*
Y404037*
X425873Y404663*
X426186Y404975*
X426811Y405287*
X427436*
X428061Y404975*
X428373Y404663*
X428686Y404037*
X429717Y113966D02*
X430654D01*
Y113654*
X430342Y113029*
X430029Y112716*
X429404Y112404*
X428779*
X428154Y112716*
X427842Y113029*
X427529Y113654*
Y114904*
X427842Y115529*
X428154Y115841*
X428779Y116154*
X429404*
X430029Y115841*
X430342Y115529*
X430654Y114904*
X429717Y212704D02*
X430342Y212391D01*
X430654Y211767*
X430342Y211141*
X429717Y210829*
X427529*
Y214579*
X429717*
X430342Y214267*
X430654Y213641*
X430342Y213017*
X429717Y212704*
X427529*
X431225Y584663D02*
X430913Y584350D01*
X430287Y584037*
X429350*
X428725Y584350*
X428413Y584663*
X428100Y585287*
Y586537*
X428413Y587163*
X428725Y587475*
X429350Y587787*
X430287*
X430913Y587475*
X431225Y587163*
X431685Y257667D02*
X432623D01*
Y257354*
X432310Y256730*
X431998Y256417*
X431373Y256104*
X430748*
X430123Y256417*
X429810Y256730*
X429498Y257354*
Y258604*
X429810Y259230*
X430123Y259542*
X430748Y259854*
X431373*
X431998Y259542*
X432310Y259230*
X432623Y258604*
X431685Y363966D02*
X432623D01*
Y363654*
X432310Y363029*
X431998Y362716*
X431373Y362404*
X430748*
X430123Y362716*
X429810Y363029*
X429498Y363654*
Y364904*
X429810Y365529*
X430123Y365841*
X430748Y366154*
X431373*
X431998Y365841*
X432310Y365529*
X432623Y364904*
X432787Y465913D02*
X433413Y465600D01*
X433725Y464975*
X433413Y464350*
X432787Y464037*
X430600*
Y467787*
X432787*
X433413Y467475*
X433725Y466850*
X433413Y466225*
X432787Y465913*
X430600*
X432787Y488413D02*
X433413Y488100D01*
X433725Y487475*
X433413Y486850*
X432787Y486537*
X430600*
Y490287*
X432787*
X433413Y489975*
X433725Y489350*
X433413Y488725*
X432787Y488413*
X430600*
X433654Y108061D02*
X434591D01*
Y107748*
X434279Y107123*
X433966Y106811*
X433341Y106498*
X432716*
X432091Y106811*
X431779Y107123*
X431466Y107748*
Y108998*
X431779Y109623*
X432091Y109936*
X432716Y110248*
X433341*
X433966Y109936*
X434279Y109623*
X434591Y108998*
X433654Y497824D02*
X434591D01*
Y497512*
X434279Y496887*
X433966Y496574*
X433341Y496262*
X432716*
X432091Y496574*
X431779Y496887*
X431466Y497512*
Y498762*
X431779Y499387*
X432091Y499700*
X432716Y500012*
X433341*
X433966Y499700*
X434279Y499387*
X434591Y498762*
X433654Y576565D02*
X434591D01*
Y576252*
X434279Y575627*
X433966Y575315*
X433341Y575002*
X432716*
X432091Y575315*
X431779Y575627*
X431466Y576252*
Y577502*
X431779Y578127*
X432091Y578440*
X432716Y578752*
X433341*
X433966Y578440*
X434279Y578127*
X434591Y577502*
X435622Y65066D02*
X436247Y64754D01*
X436560Y64129*
X436247Y63504*
X435622Y63191*
X433435*
Y66941*
X435622*
X436247Y66629*
X436560Y66004*
X436247Y65379*
X435622Y65066*
X433435*
X435622Y102468D02*
X436247Y102155D01*
X436560Y101530*
X436247Y100905*
X435622Y100593*
X433435*
Y104343*
X435622*
X436247Y104030*
X436560Y103405*
X436247Y102780*
X435622Y102468*
X433435*
X435622Y519791D02*
X436247Y519478D01*
X436560Y518853*
X436247Y518228*
X435622Y517915*
X433435*
Y521665*
X435622*
X436247Y521353*
X436560Y520728*
X436247Y520103*
X435622Y519791*
X433435*
X435622Y580502D02*
X436560D01*
Y580189*
X436247Y579564*
X435935Y579252*
X435310Y578939*
X434685*
X434060Y579252*
X433747Y579564*
X433435Y580189*
Y581439*
X433747Y582064*
X434060Y582377*
X434685Y582689*
X435310*
X435935Y582377*
X436247Y582064*
X436560Y581439*
X437591Y111998D02*
X438528D01*
Y111685*
X438216Y111060*
X437903Y110748*
X437278Y110435*
X436653*
X436028Y110748*
X435716Y111060*
X435403Y111685*
Y112935*
X435716Y113560*
X436028Y113873*
X436653Y114185*
X437278*
X437903Y113873*
X438216Y113560*
X438528Y112935*
X437591Y393494D02*
X438528D01*
Y393181*
X438216Y392556*
X437903Y392244*
X437278Y391931*
X436653*
X436028Y392244*
X435716Y392556*
X435403Y393181*
Y394431*
X435716Y395056*
X436028Y395369*
X436653Y395681*
X437278*
X437903Y395369*
X438216Y395056*
X438528Y394431*
X437591Y493887D02*
X438528D01*
Y493575*
X438216Y492950*
X437903Y492637*
X437278Y492325*
X436653*
X436028Y492637*
X435716Y492950*
X435403Y493575*
Y494825*
X435716Y495450*
X436028Y495763*
X436653Y496075*
X437278*
X437903Y495763*
X438216Y495450*
X438528Y494825*
X437591Y531289D02*
X438528D01*
Y530976*
X438216Y530352*
X437903Y530039*
X437278Y529726*
X436653*
X436028Y530039*
X435716Y530352*
X435403Y530976*
Y532226*
X435716Y532852*
X436028Y533164*
X436653Y533476*
X437278*
X437903Y533164*
X438216Y532852*
X438528Y532226*
X441225Y584663D02*
X440913Y584350D01*
X440287Y584037*
X439350*
X438725Y584350*
X438413Y584663*
X438100Y585287*
Y586537*
X438413Y587163*
X438725Y587475*
X439350Y587787*
X440287*
X440913Y587475*
X441225Y587163*
X441528Y403336D02*
X442465D01*
Y403024*
X442153Y402399*
X441840Y402086*
X441215Y401774*
X440590*
X439965Y402086*
X439653Y402399*
X439340Y403024*
Y404274*
X439653Y404899*
X439965Y405211*
X440590Y405524*
X441215*
X441840Y405211*
X442153Y404899*
X442465Y404274*
X445287Y128413D02*
X445913Y128100D01*
X446225Y127475*
X445913Y126850*
X445287Y126537*
X443100*
Y130287*
X445287*
X445913Y129975*
X446225Y129350*
X445913Y128725*
X445287Y128413*
X443100*
X445287Y138413D02*
X445913Y138100D01*
X446225Y137475*
X445913Y136850*
X445287Y136537*
X443100*
Y140287*
X445287*
X445913Y139975*
X446225Y139350*
X445913Y138725*
X445287Y138413*
X443100*
X445287Y148413D02*
X445913Y148100D01*
X446225Y147475*
X445913Y146850*
X445287Y146537*
X443100*
Y150287*
X445287*
X445913Y149975*
X446225Y149350*
X445913Y148725*
X445287Y148413*
X443100*
X445287Y158413D02*
X445913Y158100D01*
X446225Y157475*
X445913Y156850*
X445287Y156537*
X443100*
Y160287*
X445287*
X445913Y159975*
X446225Y159350*
X445913Y158725*
X445287Y158413*
X443100*
X445287Y168413D02*
X445913Y168100D01*
X446225Y167475*
X445913Y166850*
X445287Y166537*
X443100*
Y170287*
X445287*
X445913Y169975*
X446225Y169350*
X445913Y168725*
X445287Y168413*
X443100*
X445287Y178413D02*
X445913Y178100D01*
X446225Y177475*
X445913Y176850*
X445287Y176537*
X443100*
Y180287*
X445287*
X445913Y179975*
X446225Y179350*
X445913Y178725*
X445287Y178413*
X443100*
X445287Y188413D02*
X445913Y188100D01*
X446225Y187475*
X445913Y186850*
X445287Y186537*
X443100*
Y190287*
X445287*
X445913Y189975*
X446225Y189350*
X445913Y188725*
X445287Y188413*
X443100*
X445287Y205913D02*
X445913Y205600D01*
X446225Y204975*
X445913Y204350*
X445287Y204037*
X443100*
Y207787*
X445287*
X445913Y207475*
X446225Y206850*
X445913Y206225*
X445287Y205913*
X443100*
X445465Y369872D02*
X446402D01*
Y369559*
X446090Y368934*
X445777Y368622*
X445152Y368309*
X444527*
X443902Y368622*
X443590Y368934*
X443277Y369559*
Y370809*
X443590Y371434*
X443902Y371747*
X444527Y372059*
X445152*
X445777Y371747*
X446090Y371434*
X446402Y370809*
X445465Y407273D02*
X446402D01*
Y406961*
X446090Y406336*
X445777Y406023*
X445152Y405711*
X444527*
X443902Y406023*
X443590Y406336*
X443277Y406961*
Y408211*
X443590Y408836*
X443902Y409148*
X444527Y409461*
X445152*
X445777Y409148*
X446090Y408836*
X446402Y408211*
X445465Y576565D02*
X446402D01*
Y576252*
X446090Y575627*
X445777Y575315*
X445152Y575002*
X444527*
X443902Y575315*
X443590Y575627*
X443277Y576252*
Y577502*
X443590Y578127*
X443902Y578440*
X444527Y578752*
X445152*
X445777Y578440*
X446090Y578127*
X446402Y577502*
X449402Y249793D02*
X450339D01*
Y249480*
X450027Y248856*
X449714Y248543*
X449089Y248230*
X448464*
X447839Y248543*
X447527Y248856*
X447214Y249480*
Y250730*
X447527Y251356*
X447839Y251668*
X448464Y251980*
X449089*
X449714Y251668*
X450027Y251356*
X450339Y250730*
X449402Y312785D02*
X450339D01*
Y312472*
X450027Y311848*
X449714Y311535*
X449089Y311222*
X448464*
X447839Y311535*
X447527Y311848*
X447214Y312472*
Y313722*
X447527Y314348*
X447839Y314660*
X448464Y314972*
X449089*
X449714Y314660*
X450027Y314348*
X450339Y313722*
X449402Y346250D02*
X450339D01*
Y345937*
X450027Y345312*
X449714Y345000*
X449089Y344687*
X448464*
X447839Y345000*
X447527Y345312*
X447214Y345937*
Y347187*
X447527Y347812*
X447839Y348125*
X448464Y348437*
X449089*
X449714Y348125*
X450027Y347812*
X450339Y347187*
X449402Y367903D02*
X450339D01*
Y367591*
X450027Y366966*
X449714Y366653*
X449089Y366341*
X448464*
X447839Y366653*
X447527Y366966*
X447214Y367591*
Y368841*
X447527Y369466*
X447839Y369778*
X448464Y370091*
X449089*
X449714Y369778*
X450027Y369466*
X450339Y368841*
X449402Y383100D02*
X450339D01*
Y382787*
X450027Y382163*
X449714Y381850*
X449089Y381537*
X448464*
X447839Y381850*
X447527Y382163*
X447214Y382787*
Y384037*
X447527Y384663*
X447839Y384975*
X448464Y385287*
X449089*
X449714Y384975*
X450027Y384663*
X450339Y384037*
X451225Y584663D02*
X450913Y584350D01*
X450287Y584037*
X449350*
X448725Y584350*
X448413Y584663*
X448100Y585287*
Y586537*
X448413Y587163*
X448725Y587475*
X449350Y587787*
X450287*
X450913Y587475*
X451225Y587163*
X451370Y442706D02*
X452308D01*
Y442394*
X451995Y441769*
X451683Y441456*
X451058Y441144*
X450433*
X449808Y441456*
X449495Y441769*
X449183Y442394*
Y443644*
X449495Y444269*
X449808Y444581*
X450433Y444894*
X451058*
X451683Y444581*
X451995Y444269*
X452308Y443644*
X451370Y497824D02*
X452308D01*
Y497512*
X451995Y496887*
X451683Y496574*
X451058Y496262*
X450433*
X449808Y496574*
X449495Y496887*
X449183Y497512*
Y498762*
X449495Y499387*
X449808Y499700*
X450433Y500012*
X451058*
X451683Y499700*
X451995Y499387*
X452308Y498762*
X455307Y130600D02*
X456245D01*
Y130287*
X455932Y129663*
X455620Y129350*
X454995Y129037*
X454370*
X453745Y129350*
X453432Y129663*
X453120Y130287*
Y131537*
X453432Y132163*
X453745Y132475*
X454370Y132787*
X454995*
X455620Y132475*
X455932Y132163*
X456245Y131537*
X455307Y348218D02*
X456245D01*
Y347906*
X455932Y347281*
X455620Y346968*
X454995Y346656*
X454370*
X453745Y346968*
X453432Y347281*
X453120Y347906*
Y349156*
X453432Y349781*
X453745Y350093*
X454370Y350406*
X454995*
X455620Y350093*
X455932Y349781*
X456245Y349156*
X455307Y399399D02*
X456245D01*
Y399087*
X455932Y398462*
X455620Y398149*
X454995Y397837*
X454370*
X453745Y398149*
X453432Y398462*
X453120Y399087*
Y400337*
X453432Y400962*
X453745Y401274*
X454370Y401587*
X454995*
X455620Y401274*
X455932Y400962*
X456245Y400337*
X455307Y438769D02*
X456245D01*
Y438457*
X455932Y437832*
X455620Y437519*
X454995Y437207*
X454370*
X453745Y437519*
X453432Y437832*
X453120Y438457*
Y439707*
X453432Y440332*
X453745Y440644*
X454370Y440957*
X454995*
X455620Y440644*
X455932Y440332*
X456245Y439707*
X455307Y505698D02*
X456245D01*
Y505386*
X455932Y504761*
X455620Y504448*
X454995Y504136*
X454370*
X453745Y504448*
X453432Y504761*
X453120Y505386*
Y506636*
X453432Y507261*
X453745Y507574*
X454370Y507886*
X454995*
X455620Y507574*
X455932Y507261*
X456245Y506636*
X461225Y584663D02*
X460913Y584350D01*
X460287Y584037*
X459350*
X458725Y584350*
X458413Y584663*
X458100Y585287*
Y586537*
X458413Y587163*
X458725Y587475*
X459350Y587787*
X460287*
X460913Y587475*
X461225Y587163*
X462787Y263413D02*
X463413Y263100D01*
X463725Y262475*
X463413Y261850*
X462787Y261537*
X460600*
Y265287*
X462787*
X463413Y264975*
X463725Y264350*
X463413Y263725*
X462787Y263413*
X460600*
X462787Y273413D02*
X463413Y273100D01*
X463725Y272475*
X463413Y271850*
X462787Y271537*
X460600*
Y275287*
X462787*
X463413Y274975*
X463725Y274350*
X463413Y273725*
X462787Y273413*
X460600*
X462787Y283413D02*
X463413Y283100D01*
X463725Y282475*
X463413Y281850*
X462787Y281537*
X460600*
Y285287*
X462787*
X463413Y284975*
X463725Y284350*
X463413Y283725*
X462787Y283413*
X460600*
X462787Y293413D02*
X463413Y293100D01*
X463725Y292475*
X463413Y291850*
X462787Y291537*
X460600*
Y295287*
X462787*
X463413Y294975*
X463725Y294350*
X463413Y293725*
X462787Y293413*
X460600*
X462787Y303413D02*
X463413Y303100D01*
X463725Y302475*
X463413Y301850*
X462787Y301537*
X460600*
Y305287*
X462787*
X463413Y304975*
X463725Y304350*
X463413Y303725*
X462787Y303413*
X460600*
X462787Y313413D02*
X463413Y313100D01*
X463725Y312475*
X463413Y311850*
X462787Y311537*
X460600*
Y315287*
X462787*
X463413Y314975*
X463725Y314350*
X463413Y313725*
X462787Y313413*
X460600*
X462787Y323413D02*
X463413Y323100D01*
X463725Y322475*
X463413Y321850*
X462787Y321537*
X460600*
Y325287*
X462787*
X463413Y324975*
X463725Y324350*
X463413Y323725*
X462787Y323413*
X460600*
X462787Y333413D02*
X463413Y333100D01*
X463725Y332475*
X463413Y331850*
X462787Y331537*
X460600*
Y335287*
X462787*
X463413Y334975*
X463725Y334350*
X463413Y333725*
X462787Y333413*
X460600*
X462787Y343413D02*
X463413Y343100D01*
X463725Y342475*
X463413Y341850*
X462787Y341537*
X460600*
Y345287*
X462787*
X463413Y344975*
X463725Y344350*
X463413Y343725*
X462787Y343413*
X460600*
X462787Y353413D02*
X463413Y353100D01*
X463725Y352475*
X463413Y351850*
X462787Y351537*
X460600*
Y355287*
X462787*
X463413Y354975*
X463725Y354350*
X463413Y353725*
X462787Y353413*
X460600*
X462787Y363413D02*
X463413Y363100D01*
X463725Y362475*
X463413Y361850*
X462787Y361537*
X460600*
Y365287*
X462787*
X463413Y364975*
X463725Y364350*
X463413Y363725*
X462787Y363413*
X460600*
X462787Y373413D02*
X463413Y373100D01*
X463725Y372475*
X463413Y371850*
X462787Y371537*
X460600*
Y375287*
X462787*
X463413Y374975*
X463725Y374350*
X463413Y373725*
X462787Y373413*
X460600*
X462787Y383413D02*
X463413Y383100D01*
X463725Y382475*
X463413Y381850*
X462787Y381537*
X460600*
Y385287*
X462787*
X463413Y384975*
X463725Y384350*
X463413Y383725*
X462787Y383413*
X460600*
X462787Y393413D02*
X463413Y393100D01*
X463725Y392475*
X463413Y391850*
X462787Y391537*
X460600*
Y395287*
X462787*
X463413Y394975*
X463725Y394350*
X463413Y393725*
X462787Y393413*
X460600*
X462787Y403413D02*
X463413Y403100D01*
X463725Y402475*
X463413Y401850*
X462787Y401537*
X460600*
Y405287*
X462787*
X463413Y404975*
X463725Y404350*
X463413Y403725*
X462787Y403413*
X460600*
X462787Y413413D02*
X463413Y413100D01*
X463725Y412475*
X463413Y411850*
X462787Y411537*
X460600*
Y415287*
X462787*
X463413Y414975*
X463725Y414350*
X463413Y413725*
X462787Y413413*
X460600*
X462787Y423413D02*
X463413Y423100D01*
X463725Y422475*
X463413Y421850*
X462787Y421537*
X460600*
Y425287*
X462787*
X463413Y424975*
X463725Y424350*
X463413Y423725*
X462787Y423413*
X460600*
X462787Y433413D02*
X463413Y433100D01*
X463725Y432475*
X463413Y431850*
X462787Y431537*
X460600*
Y435287*
X462787*
X463413Y434975*
X463725Y434350*
X463413Y433725*
X462787Y433413*
X460600*
X462787Y443413D02*
X463413Y443100D01*
X463725Y442475*
X463413Y441850*
X462787Y441537*
X460600*
Y445287*
X462787*
X463413Y444975*
X463725Y444350*
X463413Y443725*
X462787Y443413*
X460600*
X462787Y453413D02*
X463413Y453100D01*
X463725Y452475*
X463413Y451850*
X462787Y451537*
X460600*
Y455287*
X462787*
X463413Y454975*
X463725Y454350*
X463413Y453725*
X462787Y453413*
X460600*
X462787Y465913D02*
X463413Y465600D01*
X463725Y464975*
X463413Y464350*
X462787Y464037*
X460600*
Y467787*
X462787*
X463413Y467475*
X463725Y466850*
X463413Y466225*
X462787Y465913*
X460600*
X462787Y488413D02*
X463413Y488100D01*
X463725Y487475*
X463413Y486850*
X462787Y486537*
X460600*
Y490287*
X462787*
X463413Y489975*
X463725Y489350*
X463413Y488725*
X462787Y488413*
X460600*
X463181Y145462D02*
X464119D01*
Y145150*
X463806Y144525*
X463494Y144212*
X462869Y143900*
X462244*
X461619Y144212*
X461306Y144525*
X460994Y145150*
Y146400*
X461306Y147025*
X461619Y147337*
X462244Y147650*
X462869*
X463494Y147337*
X463806Y147025*
X464119Y146400*
X463181Y519791D02*
X463806Y519478D01*
X464119Y518853*
X463806Y518228*
X463181Y517915*
X460994*
Y521665*
X463181*
X463806Y521353*
X464119Y520728*
X463806Y520103*
X463181Y519791*
X460994*
X469087Y505698D02*
X470024D01*
Y505386*
X469712Y504761*
X469399Y504448*
X468774Y504136*
X468149*
X467524Y504448*
X467212Y504761*
X466899Y505386*
Y506636*
X467212Y507261*
X467524Y507574*
X468149Y507886*
X468774*
X469399Y507574*
X469712Y507261*
X470024Y506636*
X471225Y584663D02*
X470913Y584350D01*
X470287Y584037*
X469350*
X468725Y584350*
X468413Y584663*
X468100Y585287*
Y586537*
X468413Y587163*
X468725Y587475*
X469350Y587787*
X470287*
X470913Y587475*
X471225Y587163*
X471055Y269478D02*
X471993D01*
Y269165*
X471680Y268541*
X471368Y268228*
X470743Y267915*
X470118*
X469493Y268228*
X469180Y268541*
X468868Y269165*
Y270415*
X469180Y271041*
X469493Y271353*
X470118Y271665*
X470743*
X471368Y271353*
X471680Y271041*
X471993Y270415*
X471055Y279320D02*
X471993D01*
Y279008*
X471680Y278383*
X471368Y278070*
X470743Y277758*
X470118*
X469493Y278070*
X469180Y278383*
X468868Y279008*
Y280258*
X469180Y280883*
X469493Y281196*
X470118Y281508*
X470743*
X471368Y281196*
X471680Y280883*
X471993Y280258*
X471055Y299006D02*
X471993D01*
Y298693*
X471680Y298068*
X471368Y297756*
X470743Y297443*
X470118*
X469493Y297756*
X469180Y298068*
X468868Y298693*
Y299943*
X469180Y300568*
X469493Y300881*
X470118Y301193*
X470743*
X471368Y300881*
X471680Y300568*
X471993Y299943*
X471055Y419084D02*
X471993D01*
Y418772*
X471680Y418147*
X471368Y417834*
X470743Y417522*
X470118*
X469493Y417834*
X469180Y418147*
X468868Y418772*
Y420022*
X469180Y420647*
X469493Y420959*
X470118Y421272*
X470743*
X471368Y420959*
X471680Y420647*
X471993Y420022*
X471055Y438769D02*
X471993D01*
Y438457*
X471680Y437832*
X471368Y437519*
X470743Y437207*
X470118*
X469493Y437519*
X469180Y437832*
X468868Y438457*
Y439707*
X469180Y440332*
X469493Y440644*
X470118Y440957*
X470743*
X471368Y440644*
X471680Y440332*
X471993Y439707*
X471055Y598218D02*
X471993D01*
Y597906*
X471680Y597281*
X471368Y596968*
X470743Y596656*
X470118*
X469493Y596968*
X469180Y597281*
X468868Y597906*
Y599156*
X469180Y599781*
X469493Y600093*
X470118Y600406*
X470743*
X471368Y600093*
X471680Y599781*
X471993Y599156*
X471055Y617903D02*
X471993D01*
Y617591*
X471680Y616966*
X471368Y616653*
X470743Y616341*
X470118*
X469493Y616653*
X469180Y616966*
X468868Y617591*
Y618841*
X469180Y619466*
X469493Y619778*
X470118Y620091*
X470743*
X471368Y619778*
X471680Y619466*
X471993Y618841*
X474992Y407273D02*
X475930D01*
Y406961*
X475617Y406336*
X475305Y406023*
X474680Y405711*
X474055*
X473430Y406023*
X473117Y406336*
X472805Y406961*
Y408211*
X473117Y408836*
X473430Y409148*
X474055Y409461*
X474680*
X475305Y409148*
X475617Y408836*
X475930Y408211*
X474992Y432864D02*
X475930D01*
Y432551*
X475617Y431926*
X475305Y431614*
X474680Y431301*
X474055*
X473430Y431614*
X473117Y431926*
X472805Y432551*
Y433801*
X473117Y434426*
X473430Y434739*
X474055Y435051*
X474680*
X475305Y434739*
X475617Y434426*
X475930Y433801*
X478929Y289476D02*
X479554Y289163D01*
X479867Y288538*
X479554Y287913*
X478929Y287600*
X476742*
Y291350*
X478929*
X479554Y291038*
X479867Y290413*
X479554Y289788*
X478929Y289476*
X476742*
X481225Y584663D02*
X480913Y584350D01*
X480287Y584037*
X479350*
X478725Y584350*
X478413Y584663*
X478100Y585287*
Y586537*
X478413Y587163*
X478725Y587475*
X479350Y587787*
X480287*
X480913Y587475*
X481225Y587163*
X491225Y584663D02*
X490913Y584350D01*
X490287Y584037*
X489350*
X488725Y584350*
X488413Y584663*
X488100Y585287*
Y586537*
X488413Y587163*
X488725Y587475*
X489350Y587787*
X490287*
X490913Y587475*
X491225Y587163*
X492709Y269478D02*
X493646D01*
Y269165*
X493334Y268541*
X493021Y268228*
X492396Y267915*
X491771*
X491146Y268228*
X490834Y268541*
X490521Y269165*
Y270415*
X490834Y271041*
X491146Y271353*
X491771Y271665*
X492396*
X493021Y271353*
X493334Y271041*
X493646Y270415*
X497787Y120913D02*
X498413Y120600D01*
X498725Y119975*
X498413Y119350*
X497787Y119037*
X495600*
Y122787*
X497787*
X498413Y122475*
X498725Y121850*
X498413Y121225*
X497787Y120913*
X495600*
X497787Y130913D02*
X498413Y130600D01*
X498725Y129975*
X498413Y129350*
X497787Y129037*
X495600*
Y132787*
X497787*
X498413Y132475*
X498725Y131850*
X498413Y131225*
X497787Y130913*
X495600*
X497787Y140913D02*
X498413Y140600D01*
X498725Y139975*
X498413Y139350*
X497787Y139037*
X495600*
Y142787*
X497787*
X498413Y142475*
X498725Y141850*
X498413Y141225*
X497787Y140913*
X495600*
X497787Y150913D02*
X498413Y150600D01*
X498725Y149975*
X498413Y149350*
X497787Y149037*
X495600*
Y152787*
X497787*
X498413Y152475*
X498725Y151850*
X498413Y151225*
X497787Y150913*
X495600*
X497787Y160913D02*
X498413Y160600D01*
X498725Y159975*
X498413Y159350*
X497787Y159037*
X495600*
Y162787*
X497787*
X498413Y162475*
X498725Y161850*
X498413Y161225*
X497787Y160913*
X495600*
X497787Y170913D02*
X498413Y170600D01*
X498725Y169975*
X498413Y169350*
X497787Y169037*
X495600*
Y172787*
X497787*
X498413Y172475*
X498725Y171850*
X498413Y171225*
X497787Y170913*
X495600*
X497787Y180913D02*
X498413Y180600D01*
X498725Y179975*
X498413Y179350*
X497787Y179037*
X495600*
Y182787*
X497787*
X498413Y182475*
X498725Y181850*
X498413Y181225*
X497787Y180913*
X495600*
X497787Y190913D02*
X498413Y190600D01*
X498725Y189975*
X498413Y189350*
X497787Y189037*
X495600*
Y192787*
X497787*
X498413Y192475*
X498725Y191850*
X498413Y191225*
X497787Y190913*
X495600*
X497787Y203413D02*
X498413Y203100D01*
X498725Y202475*
X498413Y201850*
X497787Y201537*
X495600*
Y205287*
X497787*
X498413Y204975*
X498725Y204350*
X498413Y203725*
X497787Y203413*
X495600*
X498614Y263885D02*
X499239Y263572D01*
X499552Y262948*
X499239Y262322*
X498614Y262010*
X496427*
Y265760*
X498614*
X499239Y265448*
X499552Y264822*
X499239Y264198*
X498614Y263885*
X496427*
X501225Y584663D02*
X500913Y584350D01*
X500287Y584037*
X499350*
X498725Y584350*
X498413Y584663*
X498100Y585287*
Y586537*
X498413Y587163*
X498725Y587475*
X499350Y587787*
X500287*
X500913Y587475*
X501225Y587163*
X511225Y584663D02*
X510913Y584350D01*
X510287Y584037*
X509350*
X508725Y584350*
X508413Y584663*
X508100Y585287*
Y586537*
X508413Y587163*
X508725Y587475*
X509350Y587787*
X510287*
X510913Y587475*
X511225Y587163*
X520268Y196643D02*
X521206D01*
Y196331*
X520893Y195706*
X520580Y195393*
X519956Y195081*
X519330*
X518706Y195393*
X518393Y195706*
X518080Y196331*
Y197581*
X518393Y198206*
X518706Y198519*
X519330Y198831*
X519956*
X520580Y198519*
X520893Y198206*
X521206Y197581*
X520268Y253730D02*
X521206D01*
Y253417*
X520893Y252793*
X520580Y252480*
X519956Y252167*
X519330*
X518706Y252480*
X518393Y252793*
X518080Y253417*
Y254667*
X518393Y255293*
X518706Y255605*
X519330Y255917*
X519956*
X520580Y255605*
X520893Y255293*
X521206Y254667*
X521225Y584663D02*
X520913Y584350D01*
X520287Y584037*
X519350*
X518725Y584350*
X518413Y584663*
X518100Y585287*
Y586537*
X518413Y587163*
X518725Y587475*
X519350Y587787*
X520287*
X520913Y587475*
X521225Y587163*
X526173Y348218D02*
X527111D01*
Y347906*
X526798Y347281*
X526486Y346968*
X525861Y346656*
X525236*
X524611Y346968*
X524298Y347281*
X523986Y347906*
Y349156*
X524298Y349781*
X524611Y350093*
X525236Y350406*
X525861*
X526486Y350093*
X526798Y349781*
X527111Y349156*
X526173Y397431D02*
X527111D01*
Y397118*
X526798Y396493*
X526486Y396181*
X525861Y395868*
X525236*
X524611Y396181*
X524298Y396493*
X523986Y397118*
Y398368*
X524298Y398993*
X524611Y399306*
X525236Y399618*
X525861*
X526486Y399306*
X526798Y398993*
X527111Y398368*
X527787Y120913D02*
X528413Y120600D01*
X528725Y119975*
X528413Y119350*
X527787Y119037*
X525600*
Y122787*
X527787*
X528413Y122475*
X528725Y121850*
X528413Y121225*
X527787Y120913*
X525600*
X527787Y130913D02*
X528413Y130600D01*
X528725Y129975*
X528413Y129350*
X527787Y129037*
X525600*
Y132787*
X527787*
X528413Y132475*
X528725Y131850*
X528413Y131225*
X527787Y130913*
X525600*
X527787Y140913D02*
X528413Y140600D01*
X528725Y139975*
X528413Y139350*
X527787Y139037*
X525600*
Y142787*
X527787*
X528413Y142475*
X528725Y141850*
X528413Y141225*
X527787Y140913*
X525600*
X527787Y150913D02*
X528413Y150600D01*
X528725Y149975*
X528413Y149350*
X527787Y149037*
X525600*
Y152787*
X527787*
X528413Y152475*
X528725Y151850*
X528413Y151225*
X527787Y150913*
X525600*
X527787Y160913D02*
X528413Y160600D01*
X528725Y159975*
X528413Y159350*
X527787Y159037*
X525600*
Y162787*
X527787*
X528413Y162475*
X528725Y161850*
X528413Y161225*
X527787Y160913*
X525600*
X527787Y170913D02*
X528413Y170600D01*
X528725Y169975*
X528413Y169350*
X527787Y169037*
X525600*
Y172787*
X527787*
X528413Y172475*
X528725Y171850*
X528413Y171225*
X527787Y170913*
X525600*
X527787Y180913D02*
X528413Y180600D01*
X528725Y179975*
X528413Y179350*
X527787Y179037*
X525600*
Y182787*
X527787*
X528413Y182475*
X528725Y181850*
X528413Y181225*
X527787Y180913*
X525600*
X527787Y190913D02*
X528413Y190600D01*
X528725Y189975*
X528413Y189350*
X527787Y189037*
X525600*
Y192787*
X527787*
X528413Y192475*
X528725Y191850*
X528413Y191225*
X527787Y190913*
X525600*
X527787Y203413D02*
X528413Y203100D01*
X528725Y202475*
X528413Y201850*
X527787Y201537*
X525600*
Y205287*
X527787*
X528413Y204975*
X528725Y204350*
X528413Y203725*
X527787Y203413*
X525600*
X528142Y246169D02*
X528767Y245856D01*
X529080Y245231*
X528767Y244606*
X528142Y244293*
X525954*
Y248043*
X528142*
X528767Y247731*
X529080Y247106*
X528767Y246481*
X528142Y246169*
X525954*
X530110Y353100D02*
X531048D01*
Y352787*
X530735Y352163*
X530423Y351850*
X529798Y351537*
X529173*
X528548Y351850*
X528235Y352163*
X527923Y352787*
Y354037*
X528235Y354663*
X528548Y354975*
X529173Y355287*
X529798*
X530423Y354975*
X530735Y354663*
X531048Y354037*
X531225Y584663D02*
X530913Y584350D01*
X530287Y584037*
X529350*
X528725Y584350*
X528413Y584663*
X528100Y585287*
Y586537*
X528413Y587163*
X528725Y587475*
X529350Y587787*
X530287*
X530913Y587475*
X531225Y587163*
X534047Y302943D02*
X534985D01*
Y302630*
X534672Y302005*
X534360Y301693*
X533735Y301380*
X533110*
X532485Y301693*
X532172Y302005*
X531860Y302630*
Y303880*
X532172Y304505*
X532485Y304818*
X533110Y305130*
X533735*
X534360Y304818*
X534672Y304505*
X534985Y303880*
X534047Y312785D02*
X534985D01*
Y312472*
X534672Y311848*
X534360Y311535*
X533735Y311222*
X533110*
X532485Y311535*
X532172Y311848*
X531860Y312472*
Y313722*
X532172Y314348*
X532485Y314660*
X533110Y314972*
X533735*
X534360Y314660*
X534672Y314348*
X534985Y313722*
X534047Y318691D02*
X534985D01*
Y318378*
X534672Y317753*
X534360Y317441*
X533735Y317128*
X533110*
X532485Y317441*
X532172Y317753*
X531860Y318378*
Y319628*
X532172Y320253*
X532485Y320566*
X533110Y320878*
X533735*
X534360Y320566*
X534672Y320253*
X534985Y319628*
X534047Y363100D02*
X534985D01*
Y362787*
X534672Y362163*
X534360Y361850*
X533735Y361537*
X533110*
X532485Y361850*
X532172Y362163*
X531860Y362787*
Y364037*
X532172Y364663*
X532485Y364975*
X533110Y365287*
X533735*
X534360Y364975*
X534672Y364663*
X534985Y364037*
X534047Y371840D02*
X534985D01*
Y371528*
X534672Y370903*
X534360Y370590*
X533735Y370278*
X533110*
X532485Y370590*
X532172Y370903*
X531860Y371528*
Y372778*
X532172Y373403*
X532485Y373715*
X533110Y374028*
X533735*
X534360Y373715*
X534672Y373403*
X534985Y372778*
X534047Y377746D02*
X534985D01*
Y377433*
X534672Y376808*
X534360Y376496*
X533735Y376183*
X533110*
X532485Y376496*
X532172Y376808*
X531860Y377433*
Y378683*
X532172Y379308*
X532485Y379621*
X533110Y379933*
X533735*
X534360Y379621*
X534672Y379308*
X534985Y378683*
X534047Y442706D02*
X534985D01*
Y442394*
X534672Y441769*
X534360Y441456*
X533735Y441144*
X533110*
X532485Y441456*
X532172Y441769*
X531860Y442394*
Y443644*
X532172Y444269*
X532485Y444581*
X533110Y444894*
X533735*
X534360Y444581*
X534672Y444269*
X534985Y443644*
X537984Y125777D02*
X538922D01*
Y125465*
X538609Y124840*
X538297Y124527*
X537672Y124215*
X537047*
X536422Y124527*
X536109Y124840*
X535797Y125465*
Y126715*
X536109Y127340*
X536422Y127652*
X537047Y127965*
X537672*
X538297Y127652*
X538609Y127340*
X538922Y126715*
X541225Y584663D02*
X540913Y584350D01*
X540287Y584037*
X539350*
X538725Y584350*
X538413Y584663*
X538100Y585287*
Y586537*
X538413Y587163*
X538725Y587475*
X539350Y587787*
X540287*
X540913Y587475*
X541225Y587163*
X541921Y145462D02*
X542859D01*
Y145150*
X542546Y144525*
X542234Y144212*
X541609Y143900*
X540984*
X540359Y144212*
X540046Y144525*
X539734Y145150*
Y146400*
X540046Y147025*
X540359Y147337*
X540984Y147650*
X541609*
X542234Y147337*
X542546Y147025*
X542859Y146400*
X541921Y259635D02*
X542859D01*
Y259323*
X542546Y258698*
X542234Y258385*
X541609Y258073*
X540984*
X540359Y258385*
X540046Y258698*
X539734Y259323*
Y260573*
X540046Y261198*
X540359Y261511*
X540984Y261823*
X541609*
X542234Y261511*
X542546Y261198*
X542859Y260573*
X542787Y493413D02*
X543413Y493100D01*
X543725Y492475*
X543413Y491850*
X542787Y491537*
X540600*
Y495287*
X542787*
X543413Y494975*
X543725Y494350*
X543413Y493725*
X542787Y493413*
X540600*
X542787Y523413D02*
X543413Y523100D01*
X543725Y522475*
X543413Y521850*
X542787Y521537*
X540600*
Y525287*
X542787*
X543413Y524975*
X543725Y524350*
X543413Y523725*
X542787Y523413*
X540600*
X544225Y307163D02*
X543913Y306850D01*
X543287Y306537*
X542350*
X541725Y306850*
X541413Y307163*
X541100Y307787*
Y309037*
X541413Y309663*
X541725Y309975*
X542350Y310287*
X543287*
X543913Y309975*
X544225Y309663*
Y317163D02*
X543913Y316850D01*
X543287Y316537*
X542350*
X541725Y316850*
X541413Y317163*
X541100Y317787*
Y319037*
X541413Y319663*
X541725Y319975*
X542350Y320287*
X543287*
X543913Y319975*
X544225Y319663*
Y327163D02*
X543913Y326850D01*
X543287Y326537*
X542350*
X541725Y326850*
X541413Y327163*
X541100Y327787*
Y329037*
X541413Y329663*
X541725Y329975*
X542350Y330287*
X543287*
X543913Y329975*
X544225Y329663*
Y337163D02*
X543913Y336850D01*
X543287Y336537*
X542350*
X541725Y336850*
X541413Y337163*
X541100Y337787*
Y339037*
X541413Y339663*
X541725Y339975*
X542350Y340287*
X543287*
X543913Y339975*
X544225Y339663*
Y347163D02*
X543913Y346850D01*
X543287Y346537*
X542350*
X541725Y346850*
X541413Y347163*
X541100Y347787*
Y349037*
X541413Y349663*
X541725Y349975*
X542350Y350287*
X543287*
X543913Y349975*
X544225Y349663*
Y357163D02*
X543913Y356850D01*
X543287Y356537*
X542350*
X541725Y356850*
X541413Y357163*
X541100Y357787*
Y359037*
X541413Y359663*
X541725Y359975*
X542350Y360287*
X543287*
X543913Y359975*
X544225Y359663*
Y367163D02*
X543913Y366850D01*
X543287Y366537*
X542350*
X541725Y366850*
X541413Y367163*
X541100Y367787*
Y369037*
X541413Y369663*
X541725Y369975*
X542350Y370287*
X543287*
X543913Y369975*
X544225Y369663*
Y377163D02*
X543913Y376850D01*
X543287Y376537*
X542350*
X541725Y376850*
X541413Y377163*
X541100Y377787*
Y379037*
X541413Y379663*
X541725Y379975*
X542350Y380287*
X543287*
X543913Y379975*
X544225Y379663*
Y387163D02*
X543913Y386850D01*
X543287Y386537*
X542350*
X541725Y386850*
X541413Y387163*
X541100Y387787*
Y389037*
X541413Y389663*
X541725Y389975*
X542350Y390287*
X543287*
X543913Y389975*
X544225Y389663*
Y397163D02*
X543913Y396850D01*
X543287Y396537*
X542350*
X541725Y396850*
X541413Y397163*
X541100Y397787*
Y399037*
X541413Y399663*
X541725Y399975*
X542350Y400287*
X543287*
X543913Y399975*
X544225Y399663*
Y407163D02*
X543913Y406850D01*
X543287Y406537*
X542350*
X541725Y406850*
X541413Y407163*
X541100Y407787*
Y409037*
X541413Y409663*
X541725Y409975*
X542350Y410287*
X543287*
X543913Y409975*
X544225Y409663*
Y417163D02*
X543913Y416850D01*
X543287Y416537*
X542350*
X541725Y416850*
X541413Y417163*
X541100Y417787*
Y419037*
X541413Y419663*
X541725Y419975*
X542350Y420287*
X543287*
X543913Y419975*
X544225Y419663*
Y427163D02*
X543913Y426850D01*
X543287Y426537*
X542350*
X541725Y426850*
X541413Y427163*
X541100Y427787*
Y429037*
X541413Y429663*
X541725Y429975*
X542350Y430287*
X543287*
X543913Y429975*
X544225Y429663*
Y437163D02*
X543913Y436850D01*
X543287Y436537*
X542350*
X541725Y436850*
X541413Y437163*
X541100Y437787*
Y439037*
X541413Y439663*
X541725Y439975*
X542350Y440287*
X543287*
X543913Y439975*
X544225Y439663*
Y447163D02*
X543913Y446850D01*
X543287Y446537*
X542350*
X541725Y446850*
X541413Y447163*
X541100Y447787*
Y449037*
X541413Y449663*
X541725Y449975*
X542350Y450287*
X543287*
X543913Y449975*
X544225Y449663*
X543890Y602155D02*
X544828D01*
Y601843*
X544515Y601218*
X544202Y600905*
X543578Y600593*
X542952*
X542328Y600905*
X542015Y601218*
X541702Y601843*
Y603093*
X542015Y603718*
X542328Y604030*
X542952Y604343*
X543578*
X544202Y604030*
X544515Y603718*
X544828Y603093*
X545858Y151368D02*
X546796D01*
Y151055*
X546483Y150430*
X546171Y150118*
X545546Y149805*
X544921*
X544296Y150118*
X543983Y150430*
X543671Y151055*
Y152305*
X543983Y152930*
X544296Y153243*
X544921Y153555*
X545546*
X546171Y153243*
X546483Y152930*
X546796Y152305*
X547827Y302943D02*
X548765D01*
Y302630*
X548452Y302005*
X548139Y301693*
X547515Y301380*
X546889*
X546265Y301693*
X545952Y302005*
X545639Y302630*
Y303880*
X545952Y304505*
X546265Y304818*
X546889Y305130*
X547515*
X548139Y304818*
X548452Y304505*
X548765Y303880*
X549795Y161210D02*
X550733D01*
Y160898*
X550420Y160273*
X550108Y159960*
X549483Y159648*
X548858*
X548233Y159960*
X547920Y160273*
X547608Y160898*
Y162148*
X547920Y162773*
X548233Y163085*
X548858Y163398*
X549483*
X550108Y163085*
X550420Y162773*
X550733Y162148*
X551225Y584663D02*
X550913Y584350D01*
X550287Y584037*
X549350*
X548725Y584350*
X548413Y584663*
X548100Y585287*
Y586537*
X548413Y587163*
X548725Y587475*
X549350Y587787*
X550287*
X550913Y587475*
X551225Y587163*
X551764Y312785D02*
X552702D01*
Y312472*
X552389Y311848*
X552076Y311535*
X551452Y311222*
X550826*
X550202Y311535*
X549889Y311848*
X549576Y312472*
Y313722*
X549889Y314348*
X550202Y314660*
X550826Y314972*
X551452*
X552076Y314660*
X552389Y314348*
X552702Y313722*
X551764Y342313D02*
X552702D01*
Y342000*
X552389Y341375*
X552076Y341063*
X551452Y340750*
X550826*
X550202Y341063*
X549889Y341375*
X549576Y342000*
Y343250*
X549889Y343875*
X550202Y344188*
X550826Y344500*
X551452*
X552076Y344188*
X552389Y343875*
X552702Y343250*
X551764Y348218D02*
X552702D01*
Y347906*
X552389Y347281*
X552076Y346968*
X551452Y346656*
X550826*
X550202Y346968*
X549889Y347281*
X549576Y347906*
Y349156*
X549889Y349781*
X550202Y350093*
X550826Y350406*
X551452*
X552076Y350093*
X552389Y349781*
X552702Y349156*
X552787Y493413D02*
X553413Y493100D01*
X553725Y492475*
X553413Y491850*
X552787Y491537*
X550600*
Y495287*
X552787*
X553413Y494975*
X553725Y494350*
X553413Y493725*
X552787Y493413*
X550600*
X552787Y523413D02*
X553413Y523100D01*
X553725Y522475*
X553413Y521850*
X552787Y521537*
X550600*
Y525287*
X552787*
X553413Y524975*
X553725Y524350*
X553413Y523725*
X552787Y523413*
X550600*
X555701Y358061D02*
X556639D01*
Y357748*
X556326Y357123*
X556013Y356811*
X555389Y356498*
X554763*
X554139Y356811*
X553826Y357123*
X553513Y357748*
Y358998*
X553826Y359623*
X554139Y359936*
X554763Y360248*
X555389*
X556013Y359936*
X556326Y359623*
X556639Y358998*
X561225Y584663D02*
X560913Y584350D01*
X560287Y584037*
X559350*
X558725Y584350*
X558413Y584663*
X558100Y585287*
Y586537*
X558413Y587163*
X558725Y587475*
X559350Y587787*
X560287*
X560913Y587475*
X561225Y587163*
X562787Y493413D02*
X563413Y493100D01*
X563725Y492475*
X563413Y491850*
X562787Y491537*
X560600*
Y495287*
X562787*
X563413Y494975*
X563725Y494350*
X563413Y493725*
X562787Y493413*
X560600*
X562787Y523413D02*
X563413Y523100D01*
X563725Y522475*
X563413Y521850*
X562787Y521537*
X560600*
Y525287*
X562787*
X563413Y524975*
X563725Y524350*
X563413Y523725*
X562787Y523413*
X560600*
X565543Y580502D02*
X566481D01*
Y580189*
X566169Y579564*
X565856Y579252*
X565231Y578939*
X564606*
X563981Y579252*
X563669Y579564*
X563356Y580189*
Y581439*
X563669Y582064*
X563981Y582377*
X564606Y582689*
X565231*
X565856Y582377*
X566169Y582064*
X566481Y581439*
X565600Y149037D02*
Y152787D01*
X568725*
X568100Y150913D02*
X565600D01*
X567787Y233413D02*
X568413Y233100D01*
X568725Y232475*
X568413Y231850*
X567787Y231537*
X565600*
Y235287*
X567787*
X568413Y234975*
X568725Y234350*
X568413Y233725*
X567787Y233413*
X565600*
X572787Y493413D02*
X573413Y493100D01*
X573725Y492475*
X573413Y491850*
X572787Y491537*
X570600*
Y495287*
X572787*
X573413Y494975*
X573725Y494350*
X573413Y493725*
X572787Y493413*
X570600*
X572787Y523413D02*
X573413Y523100D01*
X573725Y522475*
X573413Y521850*
X572787Y521537*
X570600*
Y525287*
X572787*
X573413Y524975*
X573725Y524350*
X573413Y523725*
X572787Y523413*
X570600*
X575287Y180913D02*
X575913Y180600D01*
X576225Y179975*
X575913Y179350*
X575287Y179037*
X573100*
Y182787*
X575287*
X575913Y182475*
X576225Y181850*
X575913Y181225*
X575287Y180913*
X573100*
X575287Y195913D02*
X575913Y195600D01*
X576225Y194975*
X575913Y194350*
X575287Y194037*
X573100*
Y197787*
X575287*
X575913Y197475*
X576225Y196850*
X575913Y196225*
X575287Y195913*
X573100*
X577354Y228139D02*
X578292D01*
Y227827*
X577980Y227202*
X577667Y226889*
X577042Y226577*
X576417*
X575792Y226889*
X575480Y227202*
X575167Y227827*
Y229077*
X575480Y229702*
X575792Y230015*
X576417Y230327*
X577042*
X577667Y230015*
X577980Y229702*
X578292Y229077*
X575913Y10600D02*
Y13100D01*
X577163Y11850D02*
X574663D01*
X577163Y15600D02*
X573413Y18100D01*
Y15600*
X575913Y20600D02*
Y23100D01*
X577163Y26225D02*
Y27475D01*
Y26850D02*
X573413D01*
X574037Y26225*
X576850Y30913D02*
X577163Y31537D01*
Y32163*
X576850Y32787*
X576225Y33100*
X574350*
X573725Y32787*
X573413Y32163*
Y31537*
X573725Y30913*
X574350Y30600*
X576225*
X576850Y30913*
X573725Y32787*
X573413Y35600D02*
X577163Y37163D01*
X573413Y38725*
X582787Y233413D02*
X583413Y233100D01*
X583725Y232475*
X583413Y231850*
X582787Y231537*
X580600*
Y235287*
X582787*
X583413Y234975*
X583725Y234350*
X583413Y233725*
X582787Y233413*
X580600*
X582787Y493413D02*
X583413Y493100D01*
X583725Y492475*
X583413Y491850*
X582787Y491537*
X580600*
Y495287*
X582787*
X583413Y494975*
X583725Y494350*
X583413Y493725*
X582787Y493413*
X580600*
X582787Y523413D02*
X583413Y523100D01*
X583725Y522475*
X583413Y521850*
X582787Y521537*
X580600*
Y525287*
X582787*
X583413Y524975*
X583725Y524350*
X583413Y523725*
X582787Y523413*
X580600*
X583260Y307192D02*
X583885Y306880D01*
X584198Y306255*
X583885Y305630*
X583260Y305317*
X581072*
Y309067*
X583260*
X583885Y308755*
X584198Y308130*
X583885Y307505*
X583260Y307192*
X581072*
X587197Y224202D02*
X588135D01*
Y223890*
X587822Y223265*
X587509Y222952*
X586885Y222640*
X586259*
X585635Y222952*
X585322Y223265*
X585009Y223890*
Y225140*
X585322Y225765*
X585635Y226078*
X586259Y226390*
X586885*
X587509Y226078*
X587822Y225765*
X588135Y225140*
X588725Y54663D02*
X588413Y54350D01*
X587787Y54037*
X586850*
X586225Y54350*
X585913Y54663*
X585600Y55287*
Y56537*
X585913Y57163*
X586225Y57475*
X586850Y57787*
X587787*
X588413Y57475*
X588725Y57163*
X589165Y265854D02*
X589791Y265541D01*
X590103Y264916*
X589791Y264291*
X589165Y263978*
X586978*
Y267728*
X589165*
X589791Y267416*
X590103Y266791*
X589791Y266166*
X589165Y265854*
X586978*
X589165Y289476D02*
X589791Y289163D01*
X590103Y288538*
X589791Y287913*
X589165Y287600*
X586978*
Y291350*
X589165*
X589791Y291038*
X590103Y290413*
X589791Y289788*
X589165Y289476*
X586978*
X583413Y25600D02*
X587163Y27163D01*
X583413Y28725*
X586225Y30600D02*
X586850Y30913D01*
X587163Y31537*
Y32787*
X586850Y33413*
X586225Y33725*
X585600Y33413*
X585287Y32787*
Y31537*
X584975Y30913*
X584350Y30600*
X583725Y30913*
X583413Y31537*
Y32787*
X583725Y33413*
X584350Y33725*
X586225Y35600D02*
X586850Y35913D01*
X587163Y36537*
Y37787*
X586850Y38413*
X586225Y38725*
X585600Y38413*
X585287Y37787*
Y36537*
X584975Y35913*
X584350Y35600*
X583725Y35913*
X583413Y36537*
Y37787*
X583725Y38413*
X584350Y38725*
X592787Y493413D02*
X593413Y493100D01*
X593725Y492475*
X593413Y491850*
X592787Y491537*
X590600*
Y495287*
X592787*
X593413Y494975*
X593725Y494350*
X593413Y493725*
X592787Y493413*
X590600*
X592787Y523413D02*
X593413Y523100D01*
X593725Y522475*
X593413Y521850*
X592787Y521537*
X590600*
Y525287*
X592787*
X593413Y524975*
X593725Y524350*
X593413Y523725*
X592787Y523413*
X590600*
X593102Y342313D02*
X594040D01*
Y342000*
X593728Y341375*
X593415Y341063*
X592790Y340750*
X592165*
X591540Y341063*
X591228Y341375*
X590915Y342000*
Y343250*
X591228Y343875*
X591540Y344188*
X592165Y344500*
X592790*
X593415Y344188*
X593728Y343875*
X594040Y343250*
X595071Y279320D02*
X596009D01*
Y279008*
X595696Y278383*
X595383Y278070*
X594759Y277758*
X594133*
X593509Y278070*
X593196Y278383*
X592883Y279008*
Y280258*
X593196Y280883*
X593509Y281196*
X594133Y281508*
X594759*
X595383Y281196*
X595696Y280883*
X596009Y280258*
X595071Y291131D02*
X596009D01*
Y290819*
X595696Y290194*
X595383Y289881*
X594759Y289569*
X594133*
X593509Y289881*
X593196Y290194*
X592883Y290819*
Y292069*
X593196Y292694*
X593509Y293007*
X594133Y293319*
X594759*
X595383Y293007*
X595696Y292694*
X596009Y292069*
X598725Y54663D02*
X598413Y54350D01*
X597787Y54037*
X596850*
X596225Y54350*
X595913Y54663*
X595600Y55287*
Y56537*
X595913Y57163*
X596225Y57475*
X596850Y57787*
X597787*
X598413Y57475*
X598725Y57163*
X602787Y493413D02*
X603413Y493100D01*
X603725Y492475*
X603413Y491850*
X602787Y491537*
X600600*
Y495287*
X602787*
X603413Y494975*
X603725Y494350*
X603413Y493725*
X602787Y493413*
X600600*
X602787Y523413D02*
X603413Y523100D01*
X603725Y522475*
X603413Y521850*
X602787Y521537*
X600600*
Y525287*
X602787*
X603413Y524975*
X603725Y524350*
X603413Y523725*
X602787Y523413*
X600600*
X602945Y283257D02*
X603883D01*
Y282945*
X603570Y282320*
X603257Y282007*
X602633Y281695*
X602007*
X601383Y282007*
X601070Y282320*
X600757Y282945*
Y284195*
X601070Y284820*
X601383Y285133*
X602007Y285445*
X602633*
X603257Y285133*
X603570Y284820*
X603883Y284195*
X602945Y505698D02*
X603883D01*
Y505386*
X603570Y504761*
X603257Y504448*
X602633Y504136*
X602007*
X601383Y504448*
X601070Y504761*
X600757Y505386*
Y506636*
X601070Y507261*
X601383Y507574*
X602007Y507886*
X602633*
X603257Y507574*
X603570Y507261*
X603883Y506636*
X604225Y307163D02*
X603913Y306850D01*
X603287Y306537*
X602350*
X601725Y306850*
X601413Y307163*
X601100Y307787*
Y309037*
X601413Y309663*
X601725Y309975*
X602350Y310287*
X603287*
X603913Y309975*
X604225Y309663*
Y317163D02*
X603913Y316850D01*
X603287Y316537*
X602350*
X601725Y316850*
X601413Y317163*
X601100Y317787*
Y319037*
X601413Y319663*
X601725Y319975*
X602350Y320287*
X603287*
X603913Y319975*
X604225Y319663*
Y327163D02*
X603913Y326850D01*
X603287Y326537*
X602350*
X601725Y326850*
X601413Y327163*
X601100Y327787*
Y329037*
X601413Y329663*
X601725Y329975*
X602350Y330287*
X603287*
X603913Y329975*
X604225Y329663*
Y337163D02*
X603913Y336850D01*
X603287Y336537*
X602350*
X601725Y336850*
X601413Y337163*
X601100Y337787*
Y339037*
X601413Y339663*
X601725Y339975*
X602350Y340287*
X603287*
X603913Y339975*
X604225Y339663*
Y347163D02*
X603913Y346850D01*
X603287Y346537*
X602350*
X601725Y346850*
X601413Y347163*
X601100Y347787*
Y349037*
X601413Y349663*
X601725Y349975*
X602350Y350287*
X603287*
X603913Y349975*
X604225Y349663*
Y357163D02*
X603913Y356850D01*
X603287Y356537*
X602350*
X601725Y356850*
X601413Y357163*
X601100Y357787*
Y359037*
X601413Y359663*
X601725Y359975*
X602350Y360287*
X603287*
X603913Y359975*
X604225Y359663*
Y367163D02*
X603913Y366850D01*
X603287Y366537*
X602350*
X601725Y366850*
X601413Y367163*
X601100Y367787*
Y369037*
X601413Y369663*
X601725Y369975*
X602350Y370287*
X603287*
X603913Y369975*
X604225Y369663*
Y377163D02*
X603913Y376850D01*
X603287Y376537*
X602350*
X601725Y376850*
X601413Y377163*
X601100Y377787*
Y379037*
X601413Y379663*
X601725Y379975*
X602350Y380287*
X603287*
X603913Y379975*
X604225Y379663*
Y387163D02*
X603913Y386850D01*
X603287Y386537*
X602350*
X601725Y386850*
X601413Y387163*
X601100Y387787*
Y389037*
X601413Y389663*
X601725Y389975*
X602350Y390287*
X603287*
X603913Y389975*
X604225Y389663*
Y397163D02*
X603913Y396850D01*
X603287Y396537*
X602350*
X601725Y396850*
X601413Y397163*
X601100Y397787*
Y399037*
X601413Y399663*
X601725Y399975*
X602350Y400287*
X603287*
X603913Y399975*
X604225Y399663*
Y407163D02*
X603913Y406850D01*
X603287Y406537*
X602350*
X601725Y406850*
X601413Y407163*
X601100Y407787*
Y409037*
X601413Y409663*
X601725Y409975*
X602350Y410287*
X603287*
X603913Y409975*
X604225Y409663*
Y417163D02*
X603913Y416850D01*
X603287Y416537*
X602350*
X601725Y416850*
X601413Y417163*
X601100Y417787*
Y419037*
X601413Y419663*
X601725Y419975*
X602350Y420287*
X603287*
X603913Y419975*
X604225Y419663*
Y427163D02*
X603913Y426850D01*
X603287Y426537*
X602350*
X601725Y426850*
X601413Y427163*
X601100Y427787*
Y429037*
X601413Y429663*
X601725Y429975*
X602350Y430287*
X603287*
X603913Y429975*
X604225Y429663*
Y437163D02*
X603913Y436850D01*
X603287Y436537*
X602350*
X601725Y436850*
X601413Y437163*
X601100Y437787*
Y439037*
X601413Y439663*
X601725Y439975*
X602350Y440287*
X603287*
X603913Y439975*
X604225Y439663*
Y447163D02*
X603913Y446850D01*
X603287Y446537*
X602350*
X601725Y446850*
X601413Y447163*
X601100Y447787*
Y449037*
X601413Y449663*
X601725Y449975*
X602350Y450287*
X603287*
X603913Y449975*
X604225Y449663*
X614756Y283257D02*
X615694D01*
Y282945*
X615381Y282320*
X615069Y282007*
X614444Y281695*
X613819*
X613194Y282007*
X612881Y282320*
X612569Y282945*
Y284195*
X612881Y284820*
X613194Y285133*
X613819Y285445*
X614444*
X615069Y285133*
X615381Y284820*
X615694Y284195*
X615600Y149037D02*
Y152787D01*
X618725*
X618100Y150913D02*
X615600D01*
Y179037D02*
Y182787D01*
X618725*
X618100Y180913D02*
X615600D01*
Y179037D02*
X618725D01*
X615600Y189037D02*
Y192787D01*
X618725*
X618100Y190913D02*
X615600D01*
Y189037D02*
X618725D01*
X615600Y199037D02*
Y202787D01*
X618725*
X618100Y200913D02*
X615600D01*
Y199037D02*
X618725D01*
X617787Y223413D02*
X618413Y223100D01*
X618725Y222475*
X618413Y221850*
X617787Y221537*
X615600*
Y225287*
X617787*
X618413Y224975*
X618725Y224350*
X618413Y223725*
X617787Y223413*
X615600*
X617787Y253413D02*
X618413Y253100D01*
X618725Y252475*
X618413Y251850*
X617787Y251537*
X615600*
Y255287*
X617787*
X618413Y254975*
X618725Y254350*
X618413Y253725*
X617787Y253413*
X615600*
X618693Y448612D02*
X619631D01*
Y448299*
X619318Y447674*
X619006Y447362*
X618381Y447049*
X617756*
X617131Y447362*
X616818Y447674*
X616506Y448299*
Y449549*
X616818Y450174*
X617131Y450487*
X617756Y450799*
X618381*
X619006Y450487*
X619318Y450174*
X619631Y449549*
X620049Y34037D02*
X621611Y37787D01*
X623174Y34037*
X620674Y35600D02*
X622549D01*
X620049Y619037D02*
X621611Y622787D01*
X623174Y619037*
X620674Y620600D02*
X622549D01*
X622630Y580502D02*
X623568D01*
Y580189*
X623255Y579564*
X622943Y579252*
X622318Y578939*
X621693*
X621068Y579252*
X620755Y579564*
X620443Y580189*
Y581439*
X620755Y582064*
X621068Y582377*
X621693Y582689*
X622318*
X622943Y582377*
X623255Y582064*
X623568Y581439*
X626567Y602155D02*
X627505D01*
Y601843*
X627192Y601218*
X626880Y600905*
X626255Y600593*
X625630*
X625005Y600905*
X624692Y601218*
X624380Y601843*
Y603093*
X624692Y603718*
X625005Y604030*
X625630Y604343*
X626255*
X626880Y604030*
X627192Y603718*
X627505Y603093*
D02*
D76*
X28100Y28100D03*
Y613100D03*
X45482Y610403D03*
X49419Y88750D03*
Y606466D03*
X61230Y150600D03*
Y403710D03*
Y415600D03*
Y462765D03*
Y468671D03*
Y573002D03*
Y578907D03*
X69104Y190600D03*
Y299380D03*
X73041Y324970D03*
Y506072D03*
X76978Y145836D03*
Y171427D03*
Y385600D03*
Y403710D03*
X80915Y177332D03*
Y360403D03*
Y380088D03*
Y399773D03*
Y502135D03*
X88100Y120600D03*
Y130600D03*
Y140600D03*
Y150600D03*
Y160600D03*
Y170600D03*
Y180600D03*
Y190600D03*
Y200600D03*
Y210600D03*
Y220600D03*
Y230600D03*
Y240600D03*
Y250600D03*
Y315600D03*
Y325600D03*
Y335600D03*
Y345600D03*
Y355600D03*
Y365600D03*
Y375600D03*
Y385600D03*
Y395600D03*
Y405600D03*
Y415600D03*
Y425600D03*
Y435600D03*
Y445600D03*
X88789Y309222D03*
X94694Y287569D03*
Y309222D03*
X96663Y350561D03*
Y527726D03*
X98631Y135994D03*
Y283631D03*
X100600Y321033D03*
Y401742D03*
Y425364D03*
Y450954D03*
X102569Y128120D03*
X104537Y242293D03*
Y315128D03*
Y389931D03*
Y409616D03*
Y578907D03*
X106506Y110403D03*
X108474Y132057D03*
Y246230D03*
Y385600D03*
Y468671D03*
Y502135D03*
Y527726D03*
X112411Y230482D03*
Y295443D03*
Y321033D03*
Y462765D03*
Y506072D03*
X114380Y141899D03*
Y147805D03*
Y450954D03*
X116348Y374183D03*
Y389931D03*
Y466702D03*
X118100Y263100D03*
Y458100D03*
X120285Y309222D03*
Y399773D03*
X122254Y590718D03*
X126191Y130600D03*
Y145836D03*
Y324970D03*
Y330876D03*
Y409616D03*
Y586781D03*
X130128Y114340D03*
Y147805D03*
Y321033D03*
Y345600D03*
Y366309D03*
Y385600D03*
Y405679D03*
Y582844D03*
X133100Y34478D03*
Y58100D03*
X134065Y155679D03*
X138002Y145836D03*
Y606466D03*
X139970Y285600D03*
Y321033D03*
X141939Y462765D03*
Y531663D03*
X143907Y84813D03*
X145876Y527726D03*
X147844Y88750D03*
Y289537D03*
X148100Y120600D03*
Y130600D03*
Y140600D03*
Y150600D03*
Y160600D03*
Y170600D03*
Y180600D03*
Y190600D03*
Y200600D03*
Y210600D03*
Y220600D03*
Y230600D03*
Y240600D03*
Y250600D03*
Y263100D03*
Y315600D03*
Y325600D03*
Y335600D03*
Y345600D03*
Y355600D03*
Y365600D03*
Y375600D03*
Y385600D03*
Y395600D03*
Y405600D03*
Y415600D03*
Y425600D03*
Y435600D03*
Y445600D03*
Y458100D03*
X150817Y34478D03*
Y58100D03*
X151781Y271820D03*
Y285600D03*
X155718Y214734D03*
X157687Y114340D03*
X158100Y578100D03*
X159655Y415521D03*
X161624Y527726D03*
X163592Y315600D03*
Y352529D03*
Y380088D03*
Y409616D03*
X167529Y334813D03*
Y364340D03*
X168100Y578100D03*
X171466Y324970D03*
Y336781D03*
Y370246D03*
X173435Y441112D03*
Y472608D03*
X175403Y285600D03*
Y376151D03*
X177372Y474576D03*
X178100Y578100D03*
X181309Y289537D03*
X183277Y571033D03*
X187214Y291506D03*
Y431269D03*
Y445049D03*
Y510009D03*
X188100Y578100D03*
X191151Y281663D03*
X193100Y395600D03*
Y415600D03*
Y435600D03*
X193120Y490324D03*
X195088Y299380D03*
X197057Y372214D03*
X198100Y578100D03*
X199025Y155679D03*
Y195049D03*
Y309222D03*
Y445049D03*
Y462765D03*
X202962Y150600D03*
Y210797D03*
X203100Y375600D03*
X204931Y567096D03*
X208100Y153100D03*
Y173100D03*
Y193100D03*
Y578100D03*
X208868Y356466D03*
X212805Y202923D03*
Y360403D03*
Y466702D03*
X214773Y348592D03*
X218100Y578100D03*
X218710Y344655D03*
X220600Y118100D03*
X222647Y527726D03*
Y567096D03*
X224616Y571033D03*
X226584Y309222D03*
X228100Y578100D03*
X228553Y340718D03*
Y519852D03*
X230521Y236387D03*
Y252135D03*
Y260009D03*
Y269852D03*
Y315600D03*
X233100Y375600D03*
Y395600D03*
Y415600D03*
Y435600D03*
X234458Y250167D03*
Y261978D03*
Y271820D03*
Y321033D03*
Y350561D03*
Y364340D03*
Y456860D03*
Y496230D03*
Y502135D03*
Y519852D03*
Y565128D03*
Y571033D03*
X235600Y118100D03*
X236427Y370246D03*
X238100Y578100D03*
X238395Y531663D03*
X242332Y490324D03*
Y515915D03*
X243100Y255600D03*
Y265600D03*
Y275600D03*
Y285600D03*
Y295600D03*
Y305600D03*
Y315600D03*
Y325600D03*
Y335600D03*
Y345600D03*
Y355600D03*
Y365600D03*
Y375600D03*
Y385600D03*
Y395600D03*
Y405600D03*
Y415600D03*
Y425600D03*
Y435600D03*
Y445600D03*
X248100Y153100D03*
Y173100D03*
Y193100D03*
Y578100D03*
X248238Y510009D03*
X250206Y240600D03*
Y340718D03*
Y362372D03*
X254143Y84813D03*
Y171427D03*
Y380088D03*
X255600Y485600D03*
Y515600D03*
X256112Y415600D03*
Y458828D03*
X258080Y124183D03*
Y181269D03*
Y281663D03*
Y311191D03*
X258100Y578100D03*
X260049Y384025D03*
Y456860D03*
X262017Y277726D03*
Y307254D03*
Y508041D03*
X265600Y485600D03*
Y515600D03*
X265954Y230600D03*
Y275757D03*
Y321033D03*
Y330876D03*
X268100Y578100D03*
X273828Y236387D03*
Y275757D03*
X275600Y485600D03*
Y515600D03*
X277765Y181269D03*
Y277726D03*
Y295443D03*
X278100Y578100D03*
X281702Y145836D03*
Y214734D03*
Y271820D03*
X285600Y485600D03*
Y515600D03*
X285639Y100561D03*
Y177332D03*
Y330876D03*
Y384025D03*
Y445049D03*
Y458828D03*
X287608Y565128D03*
X288100Y578100D03*
X289576Y104498D03*
Y181269D03*
Y454891D03*
X291545Y340718D03*
Y355600D03*
X293513Y96624D03*
Y177332D03*
Y206860D03*
Y232450D03*
Y291506D03*
X295482Y362372D03*
Y421427D03*
X295600Y485600D03*
Y515600D03*
X297450Y92687D03*
Y167490D03*
X298100Y578100D03*
X303100Y255600D03*
Y265600D03*
Y275600D03*
Y285600D03*
Y295600D03*
Y305600D03*
Y315600D03*
Y325600D03*
Y335600D03*
Y345600D03*
Y355600D03*
Y365600D03*
Y375600D03*
Y385600D03*
Y395600D03*
Y405600D03*
Y415600D03*
Y425600D03*
Y435600D03*
Y445600D03*
X303356Y594655D03*
X305600Y485600D03*
Y515600D03*
X307293Y602529D03*
X308100Y578100D03*
X311230Y108435D03*
Y250167D03*
Y321033D03*
Y330876D03*
Y389931D03*
Y435600D03*
X315167Y269852D03*
Y324970D03*
X315600Y118100D03*
Y128100D03*
Y138100D03*
Y148100D03*
Y158100D03*
Y168100D03*
Y178100D03*
Y190600D03*
Y485600D03*
Y515600D03*
X317135Y389931D03*
X318100Y535600D03*
Y578100D03*
X319104Y197017D03*
Y240324D03*
Y321033D03*
X321072Y523789D03*
X323041Y265915D03*
X325009Y421427D03*
Y527726D03*
X328100Y255600D03*
Y578100D03*
X328946Y169458D03*
Y236387D03*
Y305285D03*
Y417490D03*
X332883Y250167D03*
Y399773D03*
Y433238D03*
Y445049D03*
Y586781D03*
X336820Y380088D03*
Y427332D03*
Y448986D03*
Y458828D03*
Y531663D03*
X338100Y578100D03*
X338789Y305285D03*
Y362372D03*
Y590718D03*
X340757Y535600D03*
X342726Y311191D03*
Y365600D03*
X345600Y118100D03*
Y128100D03*
Y138100D03*
Y148100D03*
Y158100D03*
Y168100D03*
Y178100D03*
Y190600D03*
X346663Y305285D03*
Y376151D03*
Y393868D03*
X348100Y578100D03*
X348631Y598592D03*
X350600Y301348D03*
Y365600D03*
X352569Y389931D03*
X354537Y124183D03*
Y244261D03*
Y385600D03*
Y425364D03*
Y539537D03*
X358100Y578100D03*
X362411Y321033D03*
Y385600D03*
X366348Y305285D03*
Y319065D03*
Y478513D03*
X368100Y255600D03*
Y578100D03*
X368317Y334813D03*
Y365600D03*
X372254Y324970D03*
Y330876D03*
Y370246D03*
Y375600D03*
Y496230D03*
X374222Y523789D03*
X378100Y578100D03*
X378159Y345600D03*
Y366309D03*
Y399773D03*
Y508041D03*
X382096Y265915D03*
Y301348D03*
Y311191D03*
Y362372D03*
Y454891D03*
X384065Y340718D03*
Y502135D03*
X388100Y578100D03*
X389970Y178100D03*
Y204891D03*
Y496230D03*
X390600Y255600D03*
Y265600D03*
Y275600D03*
Y285600D03*
Y295600D03*
Y305600D03*
Y315600D03*
Y325600D03*
Y335600D03*
Y345600D03*
Y355600D03*
Y365600D03*
Y375600D03*
Y385600D03*
Y395600D03*
Y405600D03*
Y415600D03*
Y425600D03*
Y435600D03*
Y445600D03*
X397844Y409616D03*
Y569065D03*
X398100Y578100D03*
X401781Y305285D03*
Y315600D03*
X403100Y120600D03*
Y130600D03*
Y140600D03*
Y150600D03*
Y160600D03*
Y170600D03*
Y180600D03*
Y198100D03*
X407687Y124183D03*
Y376151D03*
Y399773D03*
X408100Y578100D03*
X411624Y80876D03*
Y130088D03*
Y232450D03*
Y356466D03*
Y448986D03*
X413592Y250167D03*
Y452923D03*
X415561Y236387D03*
Y340718D03*
Y360403D03*
Y395600D03*
X417529Y106466D03*
Y204891D03*
X418100Y578100D03*
X419498Y250167D03*
Y356466D03*
X420600Y458100D03*
Y480600D03*
X421466Y100561D03*
Y490324D03*
Y569065D03*
X423435Y57254D03*
Y94655D03*
Y511978D03*
Y573002D03*
X425403Y104498D03*
Y385994D03*
Y486387D03*
Y523789D03*
X428100Y578100D03*
X429340Y395836D03*
X433100Y120600D03*
Y130600D03*
Y140600D03*
Y150600D03*
Y160600D03*
Y170600D03*
Y180600D03*
Y198100D03*
X433277Y362372D03*
Y399773D03*
Y569065D03*
X437214Y242293D03*
Y305285D03*
Y338750D03*
Y360403D03*
Y375600D03*
X438100Y578100D03*
X439183Y435206D03*
Y490324D03*
X443120Y123100D03*
Y340718D03*
Y391899D03*
Y431269D03*
Y498198D03*
X448100Y578100D03*
X450600Y255600D03*
Y265600D03*
Y275600D03*
Y285600D03*
Y295600D03*
Y305600D03*
Y315600D03*
Y325600D03*
Y335600D03*
Y345600D03*
Y355600D03*
Y365600D03*
Y375600D03*
Y385600D03*
Y395600D03*
Y405600D03*
Y415600D03*
Y425600D03*
Y435600D03*
Y445600D03*
Y458100D03*
Y480600D03*
X450994Y137962D03*
Y511978D03*
X456899Y498198D03*
X458100Y578100D03*
X458868Y261978D03*
Y271820D03*
Y291506D03*
Y411584D03*
Y431269D03*
Y590718D03*
Y610403D03*
X462805Y399773D03*
Y425364D03*
X466742Y281663D03*
X468100Y578100D03*
X478100D03*
X480521Y261978D03*
X485600Y113100D03*
Y123100D03*
Y133100D03*
Y143100D03*
Y153100D03*
Y163100D03*
Y173100D03*
Y183100D03*
Y195600D03*
X486427Y256072D03*
X488100Y578100D03*
X498100D03*
X508080Y189143D03*
Y246230D03*
X508100Y578100D03*
X513986Y340718D03*
Y389931D03*
X515600Y113100D03*
Y123100D03*
Y133100D03*
Y143100D03*
Y153100D03*
Y163100D03*
Y173100D03*
Y183100D03*
Y195600D03*
X515954Y238356D03*
X517923Y345600D03*
X518100Y578100D03*
X521860Y295443D03*
Y305285D03*
Y311191D03*
Y355600D03*
Y364340D03*
Y370246D03*
Y435206D03*
X525797Y118277D03*
X528100Y578100D03*
X529734Y137962D03*
Y252135D03*
X530600Y485600D03*
Y515600D03*
X531100Y300600D03*
Y310600D03*
Y320600D03*
Y330600D03*
Y340600D03*
Y350600D03*
Y360600D03*
Y370600D03*
Y380600D03*
Y390600D03*
Y400600D03*
Y410600D03*
Y420600D03*
Y430600D03*
Y440600D03*
X531702Y594655D03*
X533671Y143868D03*
X535639Y295443D03*
X537608Y153710D03*
X538100Y578100D03*
X539576Y305285D03*
Y334813D03*
Y340718D03*
X540600Y485600D03*
Y515600D03*
X543513Y350561D03*
X548100Y578100D03*
X550600Y485600D03*
Y515600D03*
X553356Y573002D03*
X555600Y143100D03*
Y225600D03*
X560600Y485600D03*
Y515600D03*
X563100Y173100D03*
Y188100D03*
X565167Y220639D03*
X570600Y225600D03*
Y485600D03*
Y515600D03*
X571072Y299380D03*
X575009Y216702D03*
X575600Y48100D03*
X576978Y258041D03*
Y281663D03*
X580600Y485600D03*
Y515600D03*
X580915Y334813D03*
X582883Y271820D03*
Y283631D03*
X585600Y48100D03*
X590600Y485600D03*
Y515600D03*
X590757Y275757D03*
Y498198D03*
X591100Y300600D03*
Y310600D03*
Y320600D03*
Y330600D03*
Y340600D03*
Y350600D03*
Y360600D03*
Y370600D03*
Y380600D03*
Y390600D03*
Y400600D03*
Y410600D03*
Y420600D03*
Y430600D03*
Y440600D03*
X602569Y275757D03*
X605600Y143100D03*
Y173100D03*
Y183100D03*
Y193100D03*
Y215600D03*
Y245600D03*
X606506Y441112D03*
X610049Y28100D03*
Y613100D03*
X610443Y573002D03*
X614380Y594655D03*
X0Y0D02*
M02*
