G04 EasyPC Gerber Version 20.0.2 Build 4112 *
G04 #@! TF.Part,Single*
G04 #@! TF.FileFunction,Soldermask,Bot *
%FSLAX35Y35*%
%MOIN*%
G04 #@! TA.AperFunction,ComponentPad*
%ADD72O,0.07000X0.12000*%
%ADD29R,0.07000X0.07000*%
%ADD28C,0.07000*%
%ADD73C,0.08000*%
%ADD74C,0.09600*%
G04 #@! TA.AperFunction,WasherPad*
%ADD26C,0.20685*%
G04 #@! TA.AperFunction,ComponentPad*
%ADD27O,0.12000X0.07000*%
X0Y0D02*
D02*
D26*
X28100Y28100D03*
Y613100D03*
X610049Y28100D03*
Y613100D03*
D02*
D27*
X88100Y120600D03*
Y130600D03*
Y140600D03*
Y150600D03*
Y160600D03*
Y170600D03*
Y180600D03*
Y190600D03*
Y200600D03*
Y210600D03*
Y220600D03*
Y230600D03*
Y240600D03*
Y250600D03*
Y315600D03*
Y325600D03*
Y335600D03*
Y345600D03*
Y355600D03*
Y365600D03*
Y375600D03*
Y385600D03*
Y395600D03*
Y405600D03*
Y415600D03*
Y425600D03*
Y435600D03*
Y445600D03*
X148100Y120600D03*
Y130600D03*
Y140600D03*
Y150600D03*
Y160600D03*
Y170600D03*
Y180600D03*
Y190600D03*
Y200600D03*
Y210600D03*
Y220600D03*
Y230600D03*
Y240600D03*
Y250600D03*
Y315600D03*
Y325600D03*
Y335600D03*
Y345600D03*
Y355600D03*
Y365600D03*
Y375600D03*
Y385600D03*
Y395600D03*
Y405600D03*
Y415600D03*
Y425600D03*
Y435600D03*
Y445600D03*
X243100Y255600D03*
Y265600D03*
Y275600D03*
Y285600D03*
Y295600D03*
Y305600D03*
Y315600D03*
Y325600D03*
Y335600D03*
Y345600D03*
Y355600D03*
Y365600D03*
Y375600D03*
Y385600D03*
Y395600D03*
Y405600D03*
Y415600D03*
Y425600D03*
Y435600D03*
Y445600D03*
X303100Y255600D03*
Y265600D03*
Y275600D03*
Y285600D03*
Y295600D03*
Y305600D03*
Y315600D03*
Y325600D03*
Y335600D03*
Y345600D03*
Y355600D03*
Y365600D03*
Y375600D03*
Y385600D03*
Y395600D03*
Y405600D03*
Y415600D03*
Y425600D03*
Y435600D03*
Y445600D03*
X315600Y118100D03*
Y128100D03*
Y138100D03*
Y148100D03*
Y158100D03*
Y168100D03*
Y178100D03*
X345600Y118100D03*
Y128100D03*
Y138100D03*
Y148100D03*
Y158100D03*
Y168100D03*
Y178100D03*
X390600Y255600D03*
Y265600D03*
Y275600D03*
Y285600D03*
Y295600D03*
Y305600D03*
Y315600D03*
Y325600D03*
Y335600D03*
Y345600D03*
Y355600D03*
Y365600D03*
Y375600D03*
Y385600D03*
Y395600D03*
Y405600D03*
Y415600D03*
Y425600D03*
Y435600D03*
Y445600D03*
X450600Y255600D03*
Y265600D03*
Y275600D03*
Y285600D03*
Y295600D03*
Y305600D03*
Y315600D03*
Y325600D03*
Y335600D03*
Y345600D03*
Y355600D03*
Y365600D03*
Y375600D03*
Y385600D03*
Y395600D03*
Y405600D03*
Y415600D03*
Y425600D03*
Y435600D03*
Y445600D03*
X485600Y113100D03*
Y123100D03*
Y133100D03*
Y143100D03*
Y153100D03*
Y163100D03*
Y173100D03*
Y183100D03*
X515600Y113100D03*
Y123100D03*
Y133100D03*
Y143100D03*
Y153100D03*
Y163100D03*
Y173100D03*
Y183100D03*
D02*
D28*
X118100Y263100D03*
Y458100D03*
X148100Y263100D03*
Y458100D03*
X193100Y395600D03*
Y415600D03*
Y435600D03*
X203100Y375600D03*
X208100Y153100D03*
Y173100D03*
Y193100D03*
X220600Y118100D03*
X233100Y375600D03*
Y395600D03*
Y415600D03*
Y435600D03*
X235600Y118100D03*
X248100Y153100D03*
Y173100D03*
Y193100D03*
X315600Y190600D03*
X328100Y255600D03*
X345600Y190600D03*
X368100Y255600D03*
X403100Y120600D03*
Y130600D03*
Y140600D03*
Y150600D03*
Y160600D03*
Y170600D03*
Y198100D03*
X420600Y458100D03*
Y480600D03*
X433100Y120600D03*
Y130600D03*
Y140600D03*
Y150600D03*
Y160600D03*
Y170600D03*
Y180600D03*
Y198100D03*
X450600Y458100D03*
Y480600D03*
X485600Y195600D03*
X515600D03*
X531100Y300600D03*
Y310600D03*
Y320600D03*
Y330600D03*
Y340600D03*
Y350600D03*
Y360600D03*
Y370600D03*
Y380600D03*
Y390600D03*
Y400600D03*
Y410600D03*
Y420600D03*
Y430600D03*
Y440600D03*
X555600Y225600D03*
X563100Y173100D03*
Y188100D03*
X570600Y225600D03*
X591100Y300600D03*
Y310600D03*
Y320600D03*
Y330600D03*
Y340600D03*
Y350600D03*
Y360600D03*
Y370600D03*
Y380600D03*
Y390600D03*
Y400600D03*
Y410600D03*
Y420600D03*
Y430600D03*
Y440600D03*
X605600Y215600D03*
Y245600D03*
D02*
D29*
X158100Y578100D03*
X168100D03*
X178100D03*
X188100D03*
X198100D03*
X208100D03*
X218100D03*
X228100D03*
X238100D03*
X248100D03*
X258100D03*
X268100D03*
X278100D03*
X288100D03*
X298100D03*
X308100D03*
X318100D03*
X328100D03*
X338100D03*
X348100D03*
X358100D03*
X368100D03*
X378100D03*
X388100D03*
X398100D03*
X403100Y180600D03*
X408100Y578100D03*
X418100D03*
X428100D03*
X438100D03*
X448100D03*
X458100D03*
X468100D03*
X478100D03*
X488100D03*
X498100D03*
X508100D03*
X518100D03*
X528100D03*
X538100D03*
X548100D03*
X575600Y48100D03*
X585600D03*
D02*
D72*
X255600Y485600D03*
Y515600D03*
X265600Y485600D03*
Y515600D03*
X275600Y485600D03*
Y515600D03*
X285600Y485600D03*
Y515600D03*
X295600Y485600D03*
Y515600D03*
X305600Y485600D03*
Y515600D03*
X315600Y485600D03*
Y515600D03*
X530600Y485600D03*
Y515600D03*
X540600Y485600D03*
Y515600D03*
X550600Y485600D03*
Y515600D03*
X560600Y485600D03*
Y515600D03*
X570600Y485600D03*
Y515600D03*
X580600Y485600D03*
Y515600D03*
X590600Y485600D03*
Y515600D03*
D02*
D73*
X133100Y34478D03*
Y58100D03*
X150817Y34478D03*
Y58100D03*
X605600Y173100D03*
Y183100D03*
Y193100D03*
D02*
D74*
X555600Y143100D03*
X605600D03*
X0Y0D02*
M02*
